 <!DOCTYPE svg PUBLIC "-//W3C//DTD SVG 1.1//EN" "http://www.w3.org/Graphics/SVG/1.1/DTD/svg11.dtd">
<svg xmlns="http://www.w3.org/2000/svg" viewBox="0 0 865.76 682.89">
<defs>
<style xmlns="http://www.w3.org/1999/xhtml">*, ::after, ::before { box-sizing: border-box; }
img, svg { vertical-align: middle; }
</style>
<style xmlns="http://www.w3.org/1999/xhtml">*, body, html { }
img, svg { max-width: 100%; }
</style>
</defs>
<path d="M407.68,195.6s7.49,9.8,9.61,27.23a73.73,73.73,0,0,1-3.67,32.89c-9.32,27.1-35.51,131.8,102.22,163.36a19.94,19.94,0,0,0,15.36-2.72c12.14-7.93,32.17-28.83,22-77.51-8.62-41.33-34.07-77.09-69.58-99.92a231.13,231.13,0,0,0-30-16.33A211.78,211.78,0,0,1,407.68,195.6Z" fill="#d1d3d4"/>
<path d="M386.6,172.74a102.09,102.09,0,0,1,13.06,12.31c12,13,22.62,27.2,32.94,41.54,16.71,24.18,33.34,48.56,47.21,74.5,7.9,15.79,15.07,31.92,21.64,48.3s12.44,33.08,15.91,50.4a92,92,0,0,1,1.94,17.5,91.77,91.77,0,0,0-2.12-17.47c-3.64-17.25-9.8-33.85-16.41-50.16-9.11-21.6-18.6-43.19-30.79-63.26-22.82-35.74-46-71.84-75.35-102.63a82.44,82.44,0,0,0-9.62-8.6l1.59-2.43Z" fill="#260606"/>
<path d="M385.87,175.38c-1,.21,8.79-2,16.53-12.39a38.55,38.55,0,0,0,7.4-22.53c.08-7.37,1-20.14,5.92-27.6a3,3,0,0,1,5.11.16C427.68,124.68,444.63,162.48,385.87,175.38Z" fill="#d1d3d4"/>
<path d="M385.87,175.38s50.53-3.92,75.46-70.46a153.54,153.54,0,0,0,8.83-38.77c1.21-12.22,5.52-34.05,20.76-46.89a13.46,13.46,0,0,1,20.73,4.43c7.41,15.13,14.42,44.64-7.8,87.83C503.85,111.52,474.58,165.66,385.87,175.38Z" fill="#d1d3d4"/>
<path d="M503.12,16.61C505,59.29,491.27,103.7,462,135.32a145.46,145.46,0,0,1-33.52,26.58,152.77,152.77,0,0,0,32.95-27.1C490.28,103,503.88,59.13,503.12,16.61Z" fill="#260606"/>
<path d="M418.21,111.53c3.06,19.63,1,45.24-16.83,57.41a36.19,36.19,0,0,1-8.1,3.84,39.14,39.14,0,0,0,7.82-4.25c17.18-12.64,18.85-37.38,17.11-57Z" fill="#260606"/>
<path d="M406.38,515.56l-1.6-1.19c.51-.69,12.64-16.95,23.34-24.45l1.15,1.64C418.83,498.87,406.5,515.39,406.38,515.56Z" fill="#2f2e41" data-secondary="true"/>
<rect x="438.06" y="534.26" width="17.39" height="2" transform="translate(-123.74 936.04) rotate(-85.24)" fill="#2f2e41" data-secondary="true"/>
<rect x="481.27" y="498.32" width="2" height="28.53" transform="translate(-200.79 343) rotate(-32.8)" fill="#2f2e41" data-secondary="true"/>
<path d="M449.84,460.05l-2-.21c7.26-67.57-11.17-81.68-11.36-81.81l1.16-1.64C438.45,377,457.26,391,449.84,460.05Z" fill="#2f2e41" data-secondary="true"/>
<path d="M493.71,459.2c-7-12-23.79-20.91-23.95-21l.92-1.77c.71.37,17.44,9.23,24.76,21.76Z" fill="#2f2e41" data-secondary="true"/>
<path d="M422.08,354.25l-2-.22c3.22-28.93-6.18-56.49-10.37-67-2.63-6.59-5.13-13.49-7.43-20.51-22.44-68.41-19.45-89.51-15.67-96a7.75,7.75,0,0,1,1.22-1.64,1.38,1.38,0,0,1,2.32.73h0l-.2-1,.23,1s-1,.31-2,2.25c-2.76,5.2-6.7,24.77,16,94,2.29,7,4.78,13.84,7.39,20.39C415.82,296.94,425.34,324.87,422.08,354.25Z" fill="#2f2e41" data-secondary="true"/>
<polygon points="379.44 295.03 378.21 293.33 406.98 278.1 408.21 279.8 379.44 295.03" fill="#2f2e41" data-secondary="true"/>
<path d="M394.68,336.48l-1.8-.87c.26-.54,6.59-13.26,24.36-26.75l1.21,1.59C401.09,323.63,394.74,336.35,394.68,336.48Z" fill="#2f2e41" data-secondary="true"/>
<path d="M344.43,406.92l-1.95-.45c.11-.48,2.87-11.77,18.85-24.27l1.23,1.58C347.19,395.8,344.46,406.81,344.43,406.92Z" fill="#2f2e41" data-secondary="true"/>
<path d="M388.9,415.34l-1.92-.56c4-13.69,5.85-16,6-16.28l1.52,1.31C394.47,399.9,392.71,402.22,388.9,415.34Z" fill="#2f2e41" data-secondary="true"/>
<ellipse cx="331.76" cy="435.94" rx="35.52" ry="21.11" transform="translate(-165.44 665.94) rotate(-77.55)" fill="#0071f2" data-primary="true"/>
<ellipse cx="326.75" cy="464.24" rx="2.33" ry="4.06" transform="translate(-139.21 788.53) rotate(-89.7)" fill="#2f2e41" data-secondary="true"/>
<g opacity="0.2">
<path d="M349.29,428.38h0a.5.5,0,0,1-.5-.5c0-10.43-2.24-17-6.72-19.53-5.52-3.13-12.67,1.11-12.74,1.15a.5.5,0,0,1-.69-.17.5.5,0,0,1,.17-.68c.31-.19,7.72-4.59,13.75-1.18,4.82,2.73,7.25,9.59,7.23,20.41A.5.5,0,0,1,349.29,428.38Z" fill="#fff"/>
</g>
<ellipse cx="347.89" cy="312.55" rx="40.59" ry="22.43" transform="translate(-117.01 261.8) rotate(-35.71)" fill="#0071f2" data-primary="true"/>
<ellipse cx="323.03" cy="333.7" rx="2.58" ry="4.46" transform="translate(-128.33 443.15) rotate(-59.56)" fill="#2f2e41" data-secondary="true"/>
<g opacity="0.2">
<path d="M369.7,316.75a.47.47,0,0,1-.32-.12.51.51,0,0,1-.07-.71c7.37-8.74,10.05-15.64,8-20.49-2.66-6.25-12.53-7-12.63-7a.5.5,0,1,1,.06-1c.43,0,10.59.76,13.49,7.57,2.23,5.23-.5,12.48-8.13,21.54A.53.53,0,0,1,369.7,316.75Z" fill="#fff"/>
</g>
<ellipse cx="417.84" cy="372.27" rx="42.81" ry="27.46" transform="translate(-68.04 649.92) rotate(-71.44)" fill="#0071f2" data-primary="true"/>
<ellipse cx="409.43" cy="405.77" rx="2.79" ry="5.31" transform="translate(-14.87 795.96) rotate(-87.34)" fill="#2f2e41" data-secondary="true"/>
<g opacity="0.2">
<path d="M441.32,364.18h0a.5.5,0,0,1-.47-.53c.68-12-1.67-19.91-7-23.43-7.16-4.75-17.45.19-17.55.24a.5.5,0,1,1-.44-.9c.44-.21,10.89-5.25,18.54-.18,5.63,3.73,8.13,11.92,7.43,24.33A.51.51,0,0,1,441.32,364.18Z" fill="#fff"/>
</g>
<ellipse cx="457.95" cy="420.59" rx="21.57" ry="31.84" transform="translate(-107.32 161.58) rotate(-17.95)" fill="#0071f2" data-primary="true"/>
<ellipse cx="465.7" cy="445.2" rx="4.1" ry="2.11" transform="translate(-121.12 179.27) rotate(-19.33)" fill="#2f2e41" data-secondary="true"/>
<g opacity="0.2">
<path d="M470.78,408a.49.49,0,0,1-.44-.26c-4.52-8.29-9.47-12.7-14.73-13.13-6.64-.52-11.54,5.68-11.59,5.74a.5.5,0,0,1-.79-.61c.21-.28,5.27-6.71,12.46-6.12,5.61.45,10.84,5,15.53,13.64a.5.5,0,0,1-.21.68A.46.46,0,0,1,470.78,408Z" fill="#fff"/>
</g>
<g opacity="0.2">
<path d="M474.54,440.37a.54.54,0,0,1-.21-.05.49.49,0,0,1-.24-.66c4.53-9.84.27-20.38.23-20.49a.5.5,0,0,1,.93-.38c.18.45,4.45,11-.26,21.29A.49.49,0,0,1,474.54,440.37Z" fill="#fff"/>
</g>
<ellipse cx="509.67" cy="476.32" rx="23.66" ry="34.49" transform="translate(-187.51 452.24) rotate(-41.08)" fill="#0071f2" data-primary="true"/>
<ellipse cx="526.23" cy="498.71" rx="4.52" ry="2.28" transform="matrix(0.85, -0.53, 0.53, 0.85, -184.6, 356.07)" fill="#2f2e41" data-secondary="true"/>
<g opacity="0.2">
<path d="M487.31,460.45a.72.72,0,0,1-.19,0,.52.52,0,0,1-.27-.66c.14-.32,3.41-8,11.13-9.73,6.3-1.4,13.58,1.63,21.66,9a.5.5,0,0,1-.68.74c-7.82-7.14-14.81-10.09-20.77-8.76-7.21,1.6-10.38,9.06-10.41,9.14A.51.51,0,0,1,487.31,460.45Z" fill="#fff"/>
</g>
<g opacity="0.2">
<path d="M534.08,491.24H534a.51.51,0,0,1-.42-.57c1.68-11.2-6.43-20.53-6.51-20.62a.51.51,0,0,1,0-.71.49.49,0,0,1,.7.05c.09.09,8.5,9.76,6.75,21.43A.5.5,0,0,1,534.08,491.24Z" fill="#fff"/>
</g>
<ellipse cx="450.11" cy="492.65" rx="26.26" ry="36.44" transform="translate(-25.29 24.36) rotate(-3.02)" fill="#0071f2" data-primary="true"/>
<ellipse cx="448.85" cy="522.03" rx="2.4" ry="5.02" transform="translate(-121.69 907.35) rotate(-83.34)" fill="#2f2e41" data-secondary="true"/>
<g opacity="0.2">
<path d="M470.22,485.72a.49.49,0,0,1-.49-.42c-1.77-10.87-5.67-17.91-11.59-20.9-7.46-3.78-15.66.33-15.74.37a.5.5,0,0,1-.46-.89c.36-.18,8.73-4.38,16.65-.38,6.22,3.15,10.3,10.43,12.12,21.64a.49.49,0,0,1-.41.57Z" fill="#fff"/>
</g>
<g opacity="0.2">
<path d="M461.18,521.25a.52.52,0,0,1-.38-.17.51.51,0,0,1,.05-.71c9.25-8,8.74-21.1,8.73-21.23a.5.5,0,0,1,.47-.52.48.48,0,0,1,.53.47c0,.14.55,13.66-9.07,22A.52.52,0,0,1,461.18,521.25Z" fill="#fff"/>
</g>
<ellipse cx="444.04" cy="574.69" rx="35.11" ry="23.08" transform="translate(-151.73 990.02) rotate(-87.19)" fill="#0071f2" data-primary="true"/>
<ellipse cx="439.94" cy="602.67" rx="2.3" ry="4.44" transform="translate(-258.01 866.54) rotate(-74.58)" fill="#2f2e41" data-secondary="true"/>
<g opacity="0.2">
<path d="M462.35,570.32a.5.5,0,0,1-.5-.48c-.46-11-3.34-18.34-8.56-21.69-6-3.84-13-1-13.11-1a.49.49,0,0,1-.65-.27.49.49,0,0,1,.27-.65c.31-.13,7.61-3,14,1.07,5.52,3.54,8.56,11.11,9,22.5a.5.5,0,0,1-.48.52Z" fill="#fff"/>
</g>
<g opacity="0.2">
<path d="M450.84,603.32a.49.49,0,0,1-.4-.2.5.5,0,0,1,.1-.7c8.88-6.67,9.76-19.22,9.77-19.34a.49.49,0,0,1,.53-.47.51.51,0,0,1,.47.53c0,.53-.91,13.13-10.17,20.08A.49.49,0,0,1,450.84,603.32Z" fill="#fff"/>
</g>
<ellipse cx="510.64" cy="552.05" rx="24.07" ry="36.96" transform="translate(-215.75 357.46) rotate(-32.24)" fill="#0071f2" data-primary="true"/>
<ellipse cx="524.5" cy="578.45" rx="4.61" ry="2.43" transform="translate(-178.33 238.24) rotate(-21.97)" fill="#2f2e41" data-secondary="true"/>
<g opacity="0.2">
<path d="M522.86,536.84a.48.48,0,0,1-.39-.19c-7.19-9.1-14.09-13.48-20.49-13.07-7.35.49-11.51,7.38-11.55,7.45a.51.51,0,0,1-.69.17.49.49,0,0,1-.17-.68c.17-.31,4.45-7.41,12.34-7.94,6.75-.45,13.94,4.07,21.34,13.45a.49.49,0,0,1-.08.7A.45.45,0,0,1,522.86,536.84Z" fill="#fff"/>
</g>
<g opacity="0.2">
<path d="M533.65,572.2l-.14,0a.51.51,0,0,1-.34-.62c3.28-11.31-3.74-22.56-3.81-22.67a.5.5,0,1,1,.84-.54c.07.12,7.34,11.74,3.93,23.49A.49.49,0,0,1,533.65,572.2Z" fill="#fff"/>
</g>
<ellipse cx="455.82" cy="629.87" rx="24.07" ry="36.96" transform="matrix(1, -0.07, 0.07, 1, -42.85, 33.35)" fill="#0071f2" data-primary="true"/>
<ellipse cx="455.82" cy="629.87" rx="24.07" ry="36.96" transform="matrix(1, -0.07, 0.07, 1, -42.85, 33.35)" opacity="0.2"/>
<ellipse cx="455.54" cy="659.69" rx="2.43" ry="4.61" transform="translate(-249.9 1040.55) rotate(-83.74)" opacity="0.2"/>
<g opacity="0.2">
<path d="M474,622.31a.49.49,0,0,1-.49-.41c-2-11.42-6-18.56-11.87-21.21-6.71-3.05-13.63,1-13.7,1.09a.5.5,0,1,1-.52-.85c.3-.18,7.43-4.42,14.63-1.16,6.17,2.8,10.36,10.19,12.44,22a.5.5,0,0,1-.4.58Z"/>
</g>
<g opacity="0.2">
<path d="M466.8,658.57a.49.49,0,0,1-.35-.15.49.49,0,0,1,0-.7c8.24-8.41,7.37-21.65,7.36-21.78a.51.51,0,0,1,.47-.54.53.53,0,0,1,.53.46c0,.14.91,13.82-7.64,22.56A.51.51,0,0,1,466.8,658.57Z"/>
</g>
<ellipse cx="382.37" cy="543.93" rx="40.42" ry="28.43" transform="translate(-281.6 509.14) rotate(-51.89)" fill="#0071f2" data-primary="true"/>
<ellipse cx="359.1" cy="566.55" rx="2.64" ry="5.49" transform="translate(-266.9 325.61) rotate(-36.58)" fill="#2f2e41" data-secondary="true"/>
<g opacity="0.2">
<path d="M403.23,554.15a.47.47,0,0,1-.28-.09.5.5,0,0,1-.13-.7c7.07-10.34,9.43-19.19,7-26.3-2.92-8.58-12-11.59-12.08-11.62a.5.5,0,0,1,.31-1c.39.12,9.62,3.18,12.72,12.23,2.54,7.44.15,16.59-7.12,27.21A.49.49,0,0,1,403.23,554.15Z" fill="#fff"/>
</g>
<g opacity="0.2">
<path d="M370.72,575.68c-.45,0-.9,0-1.35,0a.5.5,0,0,1,.06-1c13.14.74,22.66-10.15,22.76-10.27a.5.5,0,1,1,.75.66C392.85,565.14,383.64,575.68,370.72,575.68Z" fill="#fff"/>
</g>
<ellipse cx="376.38" cy="373.93" rx="42.48" ry="25.25" transform="matrix(0.54, -0.84, 0.84, 0.54, -142.22, 485.9)" fill="#0071f2" data-primary="true"/>
<ellipse cx="376.38" cy="373.93" rx="42.48" ry="25.25" transform="matrix(0.54, -0.84, 0.84, 0.54, -142.22, 485.9)" opacity="0.2"/>
<ellipse cx="358.88" cy="403.51" rx="2.79" ry="4.85" transform="translate(-145.97 595.2) rotate(-69.14)" fill="#2f2e41" data-secondary="true"/>
<g opacity="0.2">
<path d="M399.4,372.77l-.18,0a.51.51,0,0,1-.29-.65c4.42-11.7,4.64-20,.66-24.79-4.9-5.86-14.75-4.11-14.85-4.1a.49.49,0,0,1-.58-.4.5.5,0,0,1,.4-.58c.43-.08,10.51-1.88,15.8,4.43,4.22,5.05,4.06,13.72-.49,25.79A.52.52,0,0,1,399.4,372.77Z"/>
</g>
<path d="M407.63,445c2.13,44.85-38.69,53.45-42.09,5.21C363.41,405.37,404.23,396.78,407.63,445Z" fill="#0071f2" data-primary="true"/>
<path d="M387.67,474c5.34-1,5.55,3.82.53,4.65C382.87,479.62,382.65,474.82,387.67,474Z" fill="#2f2e41" data-secondary="true"/>
<g opacity="0.2">
<path d="M401.9,436.38a.49.49,0,0,1-.48-.39c-2.29-10.17-5.94-16.08-10.87-17.56-6.07-1.84-12.11,3.88-12.18,3.94a.49.49,0,0,1-.7,0,.5.5,0,0,1,0-.71c.26-.25,6.51-6.17,13.16-4.17,5.29,1.59,9.18,7.75,11.55,18.31a.5.5,0,0,1-.38.59Z" fill="#fff"/>
</g>
<g opacity="0.2">
<path d="M397.6,472.8a.47.47,0,0,1-.28-.09.5.5,0,0,1-.14-.69c6.71-9.93,5.25-22.47,5.23-22.6a.51.51,0,0,1,.43-.56.5.5,0,0,1,.56.44c0,.13,1.53,13-5.39,23.28A.49.49,0,0,1,397.6,472.8Z" fill="#fff"/>
</g>
</svg>