 <!DOCTYPE svg PUBLIC "-//W3C//DTD SVG 1.1//EN" "http://www.w3.org/Graphics/SVG/1.1/DTD/svg11.dtd">
<svg id="a1c76f71-7459-4d0b-bc6b-809f5d7476d3" data-name="Layer 1" xmlns="http://www.w3.org/2000/svg" width="865.76" height="682.89" viewBox="0 0 865.76 682.89">
<defs>
<style xmlns="http://www.w3.org/1999/xhtml">*, ::after, ::before { box-sizing: border-box; }
img, svg { vertical-align: middle; }
</style>
<style xmlns="http://www.w3.org/1999/xhtml">*, body, html { }
img, svg { max-width: 100%; }
</style>
</defs>
<path d="M393.61,517.67a191.83,191.83,0,0,1-128.86-49.3,184.75,184.75,0,0,1-60.7-120.83.94.94,0,0,1,1.87-.17c8.44,94.45,90.88,168.43,187.69,168.43C497.51,515.8,582,432.91,582,331S497.51,146.27,393.61,146.27a190.9,190.9,0,0,0-67.12,12.06.93.93,0,1,1-.65-1.75,192.69,192.69,0,0,1,67.77-12.19c104.93,0,190.3,83.73,190.3,186.64S498.54,517.67,393.61,517.67Z" fill="#ccc"/>
<circle cx="393.98" cy="331.03" r="170.34" fill="#ccc"/>
<path d="M316.67,350.43S398.08,182.6,625.19,181.17l25,52.13,153.55-83.55L548.06,21.91,570.2,67.62S363.8,111.18,316.67,350.43Z" fill="#bcbec0"/>
<path d="M548.06,21.91l-2.14,20,16.33,27.76s5.33-1.64,8-2Z" fill="#a7a9ac"/>
<path d="M644.78,251.73l153.37-90.57,5.58-11.41L650.18,233.3l-25-52.13s-207.62-9.93-308.52,169.26c0,0,89-164.44,302.71-154.8Z" fill="#a7a9ac"/>
<path d="M159.92,195.77,180,161.62s103.36,2.94,166.32,75.12L358,213s-7.63-75.93-137.8-123.33l16.88-30.13-175,75Z" fill="#bcbec0"/>
<path d="M164.61,209.56l19.55-33.75s108.74-.93,160.56,65.75l1.61-4.82S298.93,169.65,180,161.62l-20.09,34.15L62,134.57v6.16Z" fill="#a7a9ac"/>
<path d="M237.06,59.58l3.84,14L230.06,93.45s-7.46-3.21-9.88-3.74Z" fill="#a7a9ac"/>
<path d="M437.39,348.13l.9-.11c3.78-.47,18.61-2.45,27.11-5.81,9.79-3.87,32.1-1.82,32.1-1.82l9.8,7.05-11.16,7.29s-15.71-5.24-26.64-4.78-16.17,3.64-23,3.19-15.26-5-15.26-5Z" fill="#2f2e41" data-secondary="true"/>
<polygon points="392.93 326.14 392.93 340.79 417.07 340.79 417.07 323.83 392.93 326.14" fill="#f9b499"/>
<path d="M386.33,311.92s-5.72-3.82-3.81,2.86,3.81,9.21,6.67,8.9,4.45-1.27,3.5-3.82S386.33,311.92,386.33,311.92Z" fill="#f9b499"/>
<path d="M424.54,311.92s5.72-3.82,3.82,2.86-3.82,9.21-6.68,8.9-4.45-1.27-3.49-3.82S424.54,311.92,424.54,311.92Z" fill="#f9b499"/>
<path d="M398.73,281.41s-9.54,3.18-12.71,12.07-.32,19.71,1.27,24.16,9.21,13,9.21,13h17.17a49.4,49.4,0,0,0,9.85-14c3.49-7.94,3.49-19.06,3.49-19.06s2.86.95,2.86-2.86S421,283.63,421,283.63s4.13-1.59,1.27-3.81-13-1.27-13-1.27S407.94,271.87,398.73,281.41Z" fill="#2f2e41" data-secondary="true"/>
<path d="M436.33,646.53l2.61,1.63s2.93,0,4.56,1.63,1,9.74,1,9.74-1.3,1-7.5,1-19.85,1.51-21.16-.77.23-11.89.23-11.89Z" fill="#0071f2" data-primary="true"/>
<path d="M364.87,441.29s-2,14.36-2,17.29-.65,28.39-.65,28.39.32,66.89.32,68.2-5.54,19.57-3.58,32,5.87,60,5.87,60-1.31,10.44-.33,11.42,13,2.28,15.66,1,1-14,1-14a42.22,42.22,0,0,0,1.63-9.46V625.64c0-3.26,1.64-32.3,3.27-43.72s2.61-26.75,2.61-26.75l6.85-70.48,5.22-.33s6.53,75.7,6.85,81.25-1,16.64,2,29.36,4.57,47.32,4.57,47.32-.65,3.26,0,4.56,2.28,5.22,2.28,5.22a37.37,37.37,0,0,0,6.86,0,25.22,25.22,0,0,0,10.49-2.85c2.33-2.15,3.35-5.09,2.11-8.1-1.95-4.78-2.82-5.69-2.82-5.69S436,594.32,436,584.21s-1.63-22.52-1.63-23.5,2-74.39,2-81.9-.66-27.73-3.92-36.54-55.47-6.53-60.69-6.2A8,8,0,0,0,364.87,441.29Z" fill="#2f2e41" data-secondary="true"/>
<path d="M400.43,340.14l-17.62,4.24s-25.45,12.4-31,15.66-27.41,47.32-26.43,49.6,5.22,5.22,9.46,5.87,25.78-23.82,25.78-23.82,6.2,30.68,6.2,32-3.59,17-2,19.58,64.28,0,64.28,0,4.57.32,5.22-3.92-1.31-16.64-1.31-16.64l7.18-37.52S454,406,457,409.31c5.34,5.82,12,3.38,15.51-1,3.09-3.8.33-11.1-.65-13.38s-18.27-41.11-23.49-42.75-27.08-9.46-27.08-9.46Z" fill="#0071f2" data-primary="true"/>
<path d="M382.81,344.38s21.57-.44,25.16-.44,16.69-.11,16.69-.11l-3.31-7.07a69.14,69.14,0,0,0-17.3-2,52.29,52.29,0,0,0-18.27,3.26Z" fill="#0071f2" data-primary="true"/>
<path d="M382.81,344.38s21.57-.44,25.16-.44,16.69-.11,16.69-.11l-3.31-7.07a69.14,69.14,0,0,0-17.3-2,52.29,52.29,0,0,0-18.27,3.26Z" fill="#fff" opacity="0.2"/>
<path d="M322.45,417.8a29,29,0,0,0,9.46,13.05c7.18,5.55,26.43,23.82,26.43,23.82a7.51,7.51,0,0,0,0,2.94c.33,1.63,5.55,5.87,5.55,5.87v-3.26l1.3-2.61,1.31-3.27a37.39,37.39,0,0,0,4.24-2,6.58,6.58,0,0,0,1.63-1.63,41.94,41.94,0,0,0,5.88.66c2.28,0,5.54-2.29,3.59-2.94s-3.92,0-6.53-1.31-3.92-2.61-6.53-2.61h-6.85L344,415.19Z" fill="#f9b499"/>
<path d="M330.17,397.74s-3.8,1.13-4.78,2.11-5.88,8.49-4.9,12.4,2.29,9.46,10.77,11.09,13.05-1.95,13.7-2.93,2.27-12.53,1-12.53-4.87,4.37-4.87,4.37-9.72-2.2-11.68-3.83S330.17,397.74,330.17,397.74Z" fill="#0071f2" data-primary="true"/>
<path d="M330.17,397.74s-3.8,1.13-4.78,2.11-5.88,8.49-4.9,12.4,2.29,9.46,10.77,11.09,13.05-1.95,13.7-2.93,2.27-12.53,1-12.53-4.87,4.37-4.87,4.37-9.72-2.2-11.68-3.83S330.17,397.74,330.17,397.74Z" opacity="0.2"/>
<path d="M479.87,417.8a29.08,29.08,0,0,1-9.46,13.05C463.23,436.4,444,454.67,444,454.67a7.51,7.51,0,0,1,0,2.94c-.33,1.63-7.52,6.65-7.52,6.65V459.5l-.5-3-.14-2.16a37.39,37.39,0,0,1-4.24-2,6.58,6.58,0,0,1-1.63-1.63,41.94,41.94,0,0,1-5.88.66c-2.28,0-5.54-2.29-3.59-2.94s3.92,0,6.53-1.31,3.91-2.61,6.52-2.61h6.86l17.94-29.36Z" fill="#f9b499"/>
<path d="M473.51,399.34s2.44-.47,3.42.51,5.87,8.49,4.9,12.4-2.29,9.46-10.77,11.09-13.05-1.95-13.71-2.93-1.18-12.08-.32-11.1a13.52,13.52,0,0,0,4.24,2.94s10.12-.51,11.7-6.23A28.87,28.87,0,0,0,473.51,399.34Z" fill="#0071f2" data-primary="true"/>
<path d="M473.51,399.34s2.44-.47,3.42.51,5.87,8.49,4.9,12.4-2.29,9.46-10.77,11.09-13.05-1.95-13.71-2.93-1.18-12.08-.32-11.1a13.52,13.52,0,0,0,4.24,2.94s10.12-.51,11.7-6.23A28.87,28.87,0,0,0,473.51,399.34Z" opacity="0.2"/>
<path d="M380.2,659.58c2.06-1,1.48-9.17,1.15-12.56a24.44,24.44,0,0,1-7.35,2.12,13.74,13.74,0,0,1-9.13-2s-1.05,11.28-.16,12.35S377.59,660.88,380.2,659.58Z" fill="#0071f2" data-primary="true"/>
</svg>