 <!DOCTYPE svg PUBLIC "-//W3C//DTD SVG 1.1//EN" "http://www.w3.org/Graphics/SVG/1.1/DTD/svg11.dtd">
<svg xmlns="http://www.w3.org/2000/svg" width="865.76" height="682.89" viewBox="0 0 865.76 682.89">
  <defs>
<style xmlns="http://www.w3.org/1999/xhtml">*, ::after, ::before { box-sizing: border-box; }
img, svg { vertical-align: middle; }
</style>
<style xmlns="http://www.w3.org/1999/xhtml">*, body, html { }
img, svg { max-width: 100%; }
</style>
</defs>
<path d="M259.93,496.48c-4.31,9.37-15.93,6.8-23.38,4.32-11.1-3.72-22.12-7.61-33.44-10.52s-23.18-4.75-35-4c-4.32.26-10,2.05-13.88-.75a6,6,0,0,1-2.08-7.71c-.69-8.61,6.49-15,14.2-17.67a7,7,0,0,0,4.37-3.13c.65-1.11,1.17-2.28,1.84-3.36a38.51,38.51,0,0,1,4.46-6,40.27,40.27,0,0,1,11.54-8.83c16.1-8.15,36-3.3,47.09,11.36,1.52,2,2.67,4.22,4.12,6.26,1.67,2.34,4,3.61,6.26,5.19a34.26,34.26,0,0,1,9.18,9.41,36.06,36.06,0,0,1,5.23,13C261.23,487.94,261.67,492.71,259.93,496.48Z" fill="#0071f2" data-primary="true"/>
  <g opacity="0.4">
    <path d="M259.93,496.48c-4.31,9.37-15.93,6.8-23.38,4.32-11.1-3.72-22.12-7.61-33.44-10.52s-23.18-4.75-35-4c-4.32.26-10,2.05-13.88-.75a6,6,0,0,1-2.08-7.71c-.69-8.61,6.49-15,14.2-17.67a7,7,0,0,0,4.37-3.13c.65-1.11,1.17-2.28,1.84-3.36a38.51,38.51,0,0,1,4.46-6,40.27,40.27,0,0,1,11.54-8.83c16.1-8.15,36-3.3,47.09,11.36,1.52,2,2.67,4.22,4.12,6.26,1.67,2.34,4,3.61,6.26,5.19a34.26,34.26,0,0,1,9.18,9.41,36.06,36.06,0,0,1,5.23,13C261.23,487.94,261.67,492.71,259.93,496.48Z" fill="#fff"/>
  </g>
  <path d="M257.46,502.31a19.76,19.76,0,0,1-13.13,8.34c-10.83,1.75-20.11-4.51-28.88-10.14-5.26-3.4-10.23-5-16.43-3.89-4.75.85-9.35,2.16-14.21,2.36-9.14.4-20-1.58-27.41-7.47-6.12-4.82-8.46-14.27-1.55-19.53,3.7-2.85,8.44-3.8,12.87-4.75a58.56,58.56,0,0,0,15.57-5.07c17.8-9,38.31-9.24,55.56,1.44,7.54,4.67,14.81,11.41,19,19.5C262.08,489.2,262.74,497.64,257.46,502.31Z" fill="#0071f2" data-primary="true"/>
  <g opacity="0.2">
    <path d="M257.46,502.31a19.76,19.76,0,0,1-13.13,8.34c-10.83,1.75-20.11-4.51-28.88-10.14-5.26-3.4-10.23-5-16.43-3.89-4.75.85-9.35,2.16-14.21,2.36-9.14.4-20-1.58-27.41-7.47-6.12-4.82-8.46-14.27-1.55-19.53,3.7-2.85,8.44-3.8,12.87-4.75a58.56,58.56,0,0,0,15.57-5.07c17.8-9,38.31-9.24,55.56,1.44,7.54,4.67,14.81,11.41,19,19.5C262.08,489.2,262.74,497.64,257.46,502.31Z" fill="#fff"/>
  </g>
  <g opacity="0.2">
    <path d="M241.23,484.16a2.6,2.6,0,0,0-2,1.79,2.43,2.43,0,0,0-.17,1.43v.1a3.35,3.35,0,0,0,.08.54,2.64,2.64,0,0,0,3.22,1.86,2.71,2.71,0,0,0,1.6-1.23C245.23,486.61,243.62,483.76,241.23,484.16Z" fill="#fff"/>
  </g>
  <g opacity="0.2">
    <path d="M161.35,477.39a2.62,2.62,0,0,0-2,1.78,2.45,2.45,0,0,0-.17,1.44v.09a2.05,2.05,0,0,0,.1.55,2.61,2.61,0,0,0,4.75.62C165.39,479.8,163.74,477,161.35,477.39Z" fill="#fff"/>
  </g>
  <g opacity="0.2">
    <path d="M250.61,492.32a1.72,1.72,0,0,0,.07-.21h0a1.57,1.57,0,0,0-.41-1.5,1.27,1.27,0,0,0-.34-.23,1.32,1.32,0,0,0-1.85.18,1.34,1.34,0,0,0-.18.28c-.7,1.43,1,3.3,2.31,2.1a1.68,1.68,0,0,0,.33-.46v-.06Z" fill="#fff"/>
  </g>
  <g opacity="0.2">
    <path d="M195.06,492.58a1,1,0,0,0,.07-.21h0a1.59,1.59,0,0,0-.41-1.51,1.11,1.11,0,0,0-.34-.22,1.32,1.32,0,0,0-1.85.18,1,1,0,0,0-.17.28c-.71,1.43,1,3.31,2.3,2.11a2,2,0,0,0,.34-.47v-.06Z" fill="#fff"/>
  </g>
  <g opacity="0.2">
    <path d="M251.32,483.35a1,1,0,0,0-1.33.45.68.68,0,0,0-.09.59,1,1,0,0,0,1.9.33A1.06,1.06,0,0,0,251.32,483.35Z" fill="#fff"/>
  </g>
  <g opacity="0.2">
    <path d="M202.12,461.37a1.06,1.06,0,0,0-1.33.45.67.67,0,0,0-.08.6,1,1,0,0,0,.78,1.11,1,1,0,0,0,1.12-.78A1.08,1.08,0,0,0,202.12,461.37Z" fill="#fff"/>
  </g>
  <g opacity="0.2">
    <path d="M165,488.06a1.06,1.06,0,0,0-1.33.44.75.75,0,0,0-.08.6,1,1,0,1,0,1.9.34A1.08,1.08,0,0,0,165,488.06Z" fill="#fff"/>
  </g>
  <path d="M299.55,319c-.29,4.11-5.33,5.34-8.47,6.26-9.37,2.75-19.26,1.72-28.75.39-10.22-1.44-20.92-3.42-31.11-.95-7.71,1.9-15.06,6.19-19.08,13.42,61-7.81,78.11,40.1,74.23,41.94-4.36,2.07-17.76,8.28-22.5,8.77-10.41,1.12-21-.11-31.38-.56-11-.46-21.88-.72-32.87-1-21.62-.65-43.28-1.51-64.73-4.61a252.61,252.61,0,0,1-32-6.58C95.3,374,82.62,372.55,83.4,363.72c1.39-15.75,14.85-40.16,49.89-37.46a54.62,54.62,0,0,1,6-25.29c7.3-14.33,20.52-24.83,36-27.36a50.54,50.54,0,0,1,42.33,12.74,43.46,43.46,0,0,1,33.34-4.15,45.34,45.34,0,0,1,25.13,19c7.45-1.7,15.36,1.66,20,8C298,311.81,299.8,315.6,299.55,319Z" fill="#0071f2" data-primary="true"/>
  <g opacity="0.4">
    <path d="M299.55,319c-.29,4.11-5.33,5.34-8.47,6.26-9.37,2.75-19.26,1.72-28.75.39-10.22-1.44-20.92-3.42-31.11-.95-7.71,1.9-15.06,6.19-19.08,13.42,61-7.81,78.11,40.1,74.23,41.94-4.36,2.07-17.76,8.28-22.5,8.77-10.41,1.12-21-.11-31.38-.56-11-.46-21.88-.72-32.87-1-21.62-.65-43.28-1.51-64.73-4.61a252.61,252.61,0,0,1-32-6.58C95.3,374,82.62,372.55,83.4,363.72c1.39-15.75,14.85-40.16,49.89-37.46a54.62,54.62,0,0,1,6-25.29c7.3-14.33,20.52-24.83,36-27.36a50.54,50.54,0,0,1,42.33,12.74,43.46,43.46,0,0,1,33.34-4.15,45.34,45.34,0,0,1,25.13,19c7.45-1.7,15.36,1.66,20,8C298,311.81,299.8,315.6,299.55,319Z" fill="#fff"/>
  </g>
  <path d="M307.71,323.19c-2.46,6.55-8.69,10.59-14.71,13-15.21,6.14-32,2.61-47.68,1-7.84-.79-15.86-1.16-23.66.21-7.17,1.26-16.69,4.33-20.93,11.07-2.94,4.76.61,9.69,5.19,11.05,4.25,1.26,8.86.14,13.11-.44a220,220,0,0,1,28.32-2.05c14.06-.1,31.39,1.9,37.59,17.44a19,19,0,0,1-2.43,18.66,36.45,36.45,0,0,1-12.8,11.41c-4.28,4.43-10.91,6.29-17,6.15-11.16-.27-21.87-4.76-32.72-7a48.77,48.77,0,0,0-15.8-.87c-5.08.66-9.85,2.62-14.76,4a50,50,0,0,1-28.63-.31c-9.3-2.94-17.68-8.29-27-11.14-8.7-2.65-17.66-4.31-26.24-7.38-7.69-2.73-16-6.77-21-13.68s-3.89-15.18,2.2-20.75c6.92-6.26,17.27-9.44,26.1-9.42,25.91.06,27.3-13,25.91-16.51-2.64-6.65-3-13.87.31-20.34a28.56,28.56,0,0,1,14.11-12.82c7.06-3,15-3,22.35-1.52,8.64,1.72,16.28,5.9,24.58,8.64,9.51,3.15,18.62.08,27.84-2.64a137.67,137.67,0,0,1,25.56-5.21,89.64,89.64,0,0,1,25.8.95c7.46,1.44,15.46,3.8,21.19,9.27C307.39,308.77,310.27,316.38,307.71,323.19Z" fill="#0071f2" data-primary="true"/>
  <g opacity="0.2">
    <path d="M307.71,323.19c-2.46,6.55-8.69,10.59-14.71,13-15.21,6.14-32,2.61-47.68,1-7.84-.79-15.86-1.16-23.66.21-7.17,1.26-16.69,4.33-20.93,11.07-2.94,4.76.61,9.69,5.19,11.05,4.25,1.26,8.86.14,13.11-.44a220,220,0,0,1,28.32-2.05c14.06-.1,31.39,1.9,37.59,17.44a19,19,0,0,1-2.43,18.66,36.45,36.45,0,0,1-12.8,11.41c-4.28,4.43-10.91,6.29-17,6.15-11.16-.27-21.87-4.76-32.72-7a48.77,48.77,0,0,0-15.8-.87c-5.08.66-9.85,2.62-14.76,4a50,50,0,0,1-28.63-.31c-9.3-2.94-17.68-8.29-27-11.14-8.7-2.65-17.66-4.31-26.24-7.38-7.69-2.73-16-6.77-21-13.68s-3.89-15.18,2.2-20.75c6.92-6.26,17.27-9.44,26.1-9.42,25.91.06,27.3-13,25.91-16.51-2.64-6.65-3-13.87.31-20.34a28.56,28.56,0,0,1,14.11-12.82c7.06-3,15-3,22.35-1.52,8.64,1.72,16.28,5.9,24.58,8.64,9.51,3.15,18.62.08,27.84-2.64a137.67,137.67,0,0,1,25.56-5.21,89.64,89.64,0,0,1,25.8.95c7.46,1.44,15.46,3.8,21.19,9.27C307.39,308.77,310.27,316.38,307.71,323.19Z" fill="#fff"/>
  </g>
  <g opacity="0.4">
    <path d="M95.58,359.05a2.46,2.46,0,0,0-1.9,1.71,2.13,2.13,0,0,0-.16,1.36v.1a1.81,1.81,0,0,0,.08.51,2.49,2.49,0,0,0,4.58.59C99.42,361.35,97.82,358.63,95.58,359.05Z" fill="#fff"/>
  </g>
  <g opacity="0.4">
    <path d="M253.91,392.2a2.51,2.51,0,0,0-1.9,1.71,2.25,2.25,0,0,0-.12,1.4v.09a1.75,1.75,0,0,0,.08.51,2.49,2.49,0,0,0,4.58.6C257.77,394.51,256.19,391.79,253.91,392.2Z" fill="#fff"/>
  </g>
  <g opacity="0.4">
    <path d="M104.48,366.84a1.8,1.8,0,0,0,.08-.21h0a1.53,1.53,0,0,0-.39-1.44,1.85,1.85,0,0,0-.33-.21,1.25,1.25,0,0,0-1.75.2,1.58,1.58,0,0,0-.15.24c-.67,1.36,1,3.15,2.19,2a1.6,1.6,0,0,0,.32-.45v-.06S104.47,366.87,104.48,366.84Z" fill="#fff"/>
  </g>
  <g opacity="0.4">
    <path d="M284.39,308.29a.7.7,0,0,0,.08-.2h0a1.51,1.51,0,0,0-.39-1.43,1,1,0,0,0-.32-.21,1.24,1.24,0,0,0-1.75.19,1,1,0,0,0-.15.24c-.68,1.36.95,3.15,2.18,2a1.76,1.76,0,0,0,.33-.43v-.06A.3.3,0,0,0,284.39,308.29Z" fill="#fff"/>
  </g>
  <g opacity="0.4">
    <path d="M105.18,358.28a.94.94,0,0,0-1.26.43.65.65,0,0,0-.08.56,1,1,0,0,0,1.84.32A1,1,0,0,0,105.18,358.28Z" fill="#fff"/>
  </g>
  <g opacity="0.4">
    <path d="M196.44,308.32a1,1,0,0,0-1.28.43.65.65,0,0,0-.08.56,1,1,0,0,0,1.84.33A1,1,0,0,0,196.44,308.32Z" fill="#fff"/>
  </g>
  <path d="M111.67,639.53h56S140.31,611.74,134.15,599c-3-6.19-12.26-62.46-12.83-70.85-.34-5.15,25-52.9,33.29-55.6,7.4-2.41,28.26-1.63,31,.09,1,.63,17.84,14.61,19.66,15.68,3.05,1.82,11.49,4.52,19.34,1.31,2-.82-9.65.86-15-2.51-1.61-1-13.31-14.26-20.41-17.19a39.82,39.82,0,0,0,38.43-19.78c-.95,1.19-15.8,22.13-41.56,16.16-7.83-1.81-20.31-.63-29.57.18,0,0,19.8-34.82,31.94-40,8.71-3.7,19.22-5.7,24.83-10.08,7.2-5.56,15.06-26.32,14.39-27.79-.75-1.66-10.37,19.78-14.95,23.66-5.77,4.88-17.67,6.32-28.24,10.72-5,2.08-22.46,16.44-27.63,26.79,0,0,.32-8.24,0-18.33h0c-.1-3.21-.26-6.66-.51-10-.69-9.08,12.36-37.65,15.67-40.73,2-1.85,16.29-10.16,20.33-11,2.86-.6,10.47.24,14.77.72,4.87.54-3.91-2.42-12.73-3.63-3.75-.52-12.48,3.45-12.48,3.45s8.73-17.41,8.73-20c0-5.58,1.38-12.77,2.4-14.88.71-1.47,4.86-5.19,4.35-6s-6.26,2.18-8.7,14.17c0,0-3.8-12.72-5.91-16.88s.95-14.17,0-14.17-3.18,10.58-2.57,13.31c1.22,5.34,5.84,18.94,6.08,21.94.3,3.74-8,19-9.77,20.52s-9.59,7-12.59,10.94c-2.18,2.85-9.17,18.37-11.2,27.78,0,0-2.55-4.91-2.72-6.57-.18-2,.36-14,.07-23.07-.14-4.85-10.46-24.56-11.65-24.87-2.19-.57,8.1,18.07,8.56,26.86.21,4.33-2,18.73-2.2,23.14-.39,9.26,4.45,26.63,4.31,31.84-.09,3.54-5.78,26.28-9.94,31.26-4.91,5.9-32.62,47.78-33,62.08C105.06,563.64,120.36,624.64,111.67,639.53Z" fill="#2f2e41" data-secondary="true"/>
  <g opacity="0.2">
    <path d="M111.67,639.53h56S140.31,611.74,134.15,599c-3-6.19-12.26-62.46-12.83-70.85-.34-5.15,25-52.9,33.29-55.6,7.4-2.41,28.26-1.63,31,.09,1,.63,17.84,14.61,19.66,15.68,3.05,1.82,11.49,4.52,19.34,1.31,2-.82-9.65.86-15-2.51-1.61-1-13.31-14.26-20.41-17.19a39.82,39.82,0,0,0,38.43-19.78c-.95,1.19-15.8,22.13-41.56,16.16-7.83-1.81-20.31-.63-29.57.18,0,0,19.8-34.82,31.94-40,8.71-3.7,19.22-5.7,24.83-10.08,7.2-5.56,15.06-26.32,14.39-27.79-.75-1.66-10.37,19.78-14.95,23.66-5.77,4.88-17.67,6.32-28.24,10.72-5,2.08-22.46,16.44-27.63,26.79,0,0,.32-8.24,0-18.33h0c-.1-3.21-.26-6.66-.51-10-.69-9.08,12.36-37.65,15.67-40.73,2-1.85,16.29-10.16,20.33-11,2.86-.6,10.47.24,14.77.72,4.87.54-3.91-2.42-12.73-3.63-3.75-.52-12.48,3.45-12.48,3.45s8.73-17.41,8.73-20c0-5.58,1.38-12.77,2.4-14.88.71-1.47,4.86-5.19,4.35-6s-6.26,2.18-8.7,14.17c0,0-3.8-12.72-5.91-16.88s.95-14.17,0-14.17-3.18,10.58-2.57,13.31c1.22,5.34,5.84,18.94,6.08,21.94.3,3.74-8,19-9.77,20.52s-9.59,7-12.59,10.94c-2.18,2.85-9.17,18.37-11.2,27.78,0,0-2.55-4.91-2.72-6.57-.18-2,.36-14,.07-23.07-.14-4.85-10.46-24.56-11.65-24.87-2.19-.57,8.1,18.07,8.56,26.86.21,4.33-2,18.73-2.2,23.14-.39,9.26,4.45,26.63,4.31,31.84-.09,3.54-5.78,26.28-9.94,31.26-4.91,5.9-32.62,47.78-33,62.08C105.06,563.64,120.36,624.64,111.67,639.53Z"/>
  </g>
  <g opacity="0.1">
    <path d="M113.75,610.53c0,.46.08.9.11,1.35l1.46-.07a70.53,70.53,0,0,0,7.11-.61c-2.37-.31-4.76-.48-7.11-.6Z"/>
    <path d="M122.44,508.73c2.31.31,4.62.48,6.94.59.2-.4.42-.81.64-1.23h-.48C127.17,508.24,124.8,508.41,122.44,508.73Z"/>
    <path d="M118.06,503.19c2.37.32,4.76.49,7.11.61s4.69.15,7,.17c.29-.52.56-1,.86-1.55h-.82c-2.37,0-4.75,0-7.09.17S120.43,502.87,118.06,503.19Z"/>
    <path d="M136.56,476.05c2.37.32,4.75.49,7.09.61,2,.1,4,.14,6,.16.48-.56,1-1.08,1.39-1.55h-.27c-2.37,0-4.76,0-7.11.18S138.93,475.72,136.56,476.05Z"/>
    <path d="M114.22,617.7v.3a8.88,8.88,0,0,0,1.25-.15Z"/>
    <path d="M129.58,621.28c2.38.32,4.75.49,7.11.6s4.76.16,7.1.17,4.75,0,7.09-.17h.41l-1.06-1.22c-2.15-.1-4.29-.13-6.44-.15-2.37,0-4.76,0-7.1.18S132,621,129.58,621.28Z"/>
    <path d="M118.34,600.41c2.37.33,4.75.5,7.09.61s4.76.16,7.11.17h2.75c-.31-.52-.59-1-.83-1.5h-1.9c-2.37,0-4.76,0-7.11.17S120.71,600.1,118.34,600.41Z"/>
    <path d="M123.66,594.94c2.36.32,4.76.49,7.1.61l2.29.09c-.12-.43-.24-.9-.37-1.39l-1.9.08C128.39,594.45,126,594.62,123.66,594.94Z"/>
    <path d="M109.08,569.9c.06.51.13,1,.19,1.53,1.91,0,3.75,0,5.62-.15,2.36-.12,4.75-.29,7.1-.61-2.37-.32-4.76-.49-7.1-.61C113,570,111,569.92,109.08,569.9Z"/>
    <path d="M145.24,410.18l.14,1c1.85-.1,3.69-.26,5.55-.52C149,410.44,147.13,410.28,145.24,410.18Z"/>
    <path d="M161.12,388.34c2,.27,4.07.43,6.12.55.18-.39.38-.77.55-1.14C165.57,387.88,163.36,388,161.12,388.34Z"/>
    <path d="M159.22,394.14c1.77.24,3.55.39,5.32.51.16-.35.3-.7.46-1C163.08,393.72,161.15,393.89,159.22,394.14Z"/>
    <path d="M143.89,455.05c2.34-.12,4.69-.28,7-.6-2.22-.31-4.43-.48-6.66-.58C144.16,454.28,144,454.66,143.89,455.05Z"/>
    <path d="M125.82,485.39c2.34-.11,4.69-.27,7-.6-2.09-.28-4.19-.45-6.3-.56Z"/>
    <path d="M173.91,430.5c-.42.36-.85.71-1.28,1.1,2.26-.11,4.52-.27,6.77-.59C177.61,430.79,175.81,430.64,173.91,430.5Z"/>
    <path d="M151.08,431c1.9.27,3.9.43,5.85.54V430.5C154.89,430.62,153,430.78,151.08,431Z"/>
    <path d="M110.59,535.11c2.36.33,4.75.5,7.1.61,1.52.08,3,.13,4.58.14-.08-.52-.16-1-.21-1.49-1.46,0-2.92.07-4.37.14C115.32,534.66,113,534.83,110.59,535.11Z"/>
  </g>
  <path d="M205.51,642.77H55.07a28.26,28.26,0,0,1-4.25-8.28c-1.28-4.58-.1-10.67,4.69-12.76,3.08-1.34,6.39-.23,9.57-.15a2.59,2.59,0,0,0,2.55-1,2.92,2.92,0,0,0,.25-2.13c-.42-1.63-2-2.67-3.29-3.57a.39.39,0,0,1-.13-.53l.06-.08a7.76,7.76,0,0,1,9.7-.23c1.64-1.75.93-4.39-.15-6.29s-3-3.59-4.33-5.52A7.18,7.18,0,0,1,68.28,597a8,8,0,0,1,3.18-4.68c2.58-2.05,7-4.38,10.07-1.93,3.31,2.66,1.22,7.65,3.36,10.9a3.6,3.6,0,0,0,2.56,1.82,2.85,2.85,0,0,0,2.36-1.53c.77-1.1,1.4-2.44,2.72-2.87-.37-3.34-1.23-6.6-1.54-9.93-.47-4.82.61-11.06,5.65-13.12a7.64,7.64,0,0,1,6.11.08,6.2,6.2,0,0,1,3.18,5.5c.14,2.84-.84,5.65-.5,8.55.21,1.75,1.06,3.58,3.15,3.18a10.66,10.66,0,0,0,3.84-2.09c1.54-1.08,4.19-2.25,5.82-.67,1,.92.82,2.44,1.65,3.4a4.41,4.41,0,0,0,3.47,1.23c2.51,0,4.88-.58,7.48-.36a16.3,16.3,0,0,1,6.84,2,11.09,11.09,0,0,1,4.59,5c.86,1.83,2.32,6.11,5.07,4.2a10.41,10.41,0,0,0,2.53-3.43c.71-1.23,1.42-2.39,2.2-3.54a16.25,16.25,0,0,1,5.44-5.34,10.86,10.86,0,0,1,13.68,2.94,11.12,11.12,0,0,1,2.16,7.16c-.16,3-2.18,5.46-2.31,8.41a4,4,0,0,0,1.6,3.66c1.54.92,3.46.09,5.05-.28s4.37-.18,5.09,1.76a2.64,2.64,0,0,1-.54,2.44c-.34.47-.75.87-1.05,1.36-.4.7-.33,1,.31,1.42,1.87,1.22,4.4.8,6.52,1C200.52,624.57,205,639.28,205.51,642.77Z" fill="#0071f2" data-primary="true"/>
  <g opacity="0.2">
    <path d="M99.16,618.22c-1.83,8.31-3.66,16.48-1.5,24.56H95.94c-.65-1.6-1.23-3.21-1.89-4.82-6.18-2.89-12.84-.56-19.38-1.37a21.21,21.21,0,0,1-13.78-7.2.28.28,0,0,1,.4-.4h0a30.91,30.91,0,0,0,9.12,5.23c-.7-.82-1.36-1.66-2.12-2.45-1.1-1.11-2.31-2.06-3.49-3.09-.07,0,0-.16.1-.11a24.55,24.55,0,0,1,3.66,2.92,19.51,19.51,0,0,1,2.9,3.06,23.73,23.73,0,0,0,6.65.92c5.13,0,10.86-1.15,15.5,1.45-.39-1-.79-2-1.22-2.91a88.3,88.3,0,0,0-6.34-11.62A79.32,79.32,0,0,1,79.52,611a46.81,46.81,0,0,1-3.11-12.22c0-.21.3-.32.34-.08,1.32,7.33,4.89,13.69,8.77,19.91-1.22-3.59-2.17-7.25-3.66-10.76-.11-.26.24-.48.38-.22,2.09,4.21,4.34,8.92,5,13.64.26.41.53.83.79,1.22a82.53,82.53,0,0,1,7.06,13.9,59.24,59.24,0,0,1,1.87-15.34,86.76,86.76,0,0,0,2.44-16.18v-1.46a38.46,38.46,0,0,1-3.67-20.2.35.35,0,0,1,.7,0,62.13,62.13,0,0,0,.84,11.23,46.91,46.91,0,0,0,2.1,7.34,126.39,126.39,0,0,0-1.22-13,.33.33,0,0,1,.64-.1A60.45,60.45,0,0,1,99.16,618.22Z"/>
    <path d="M132.59,607a63.28,63.28,0,0,1-3.84,6.62,28.39,28.39,0,0,1-1.53,5.27,19.44,19.44,0,0,1-4,6.23c-2.06,2.19-4.13,4.08-4.73,7a25.15,25.15,0,0,1,3,10.64h-1.22c-1.06-6.73-4.48-12.21-7.56-18.32-2.72-5.39-5-12.4-2.28-18.24.16-.33.65-.08.58.25-1.85,7.78,1.44,14.32,5.07,21,.56,1,1.14,2.1,1.7,3.19a9.43,9.43,0,0,1,1.88-3.67c1.84-2.32,4-4.2,5.43-6.88,3.07-5.88,2.59-12.22,3.45-18.6,0-.34.52-.19.55.08a38.69,38.69,0,0,1,0,10.31,40.35,40.35,0,0,1,3-5.17.32.32,0,0,1,.45.06A.27.27,0,0,1,132.59,607Z"/>
    <path d="M164.76,602.89a21,21,0,0,1-4,9.05c-1.56,2.07-4,3.39-5.53,5.43-1.31,2.74-2.79,5.37-4.28,8s-4.49,6.56-3.1,9.91c.07.17,0,.28-.21.3a11.29,11.29,0,0,1,2.63,7.2h-.76c-.82-9.77-14.66-12.31-14.8-22.38,0-.45.74-.58.82-.11,1,5.46,5.29,8.55,9.13,12.08a25.74,25.74,0,0,1,2.3,2.37c-1-2-.27-4.25.69-6.26,1.53-3.18,3.42-6.2,5.06-9.33A62,62,0,0,0,157.11,609a38.5,38.5,0,0,0,1.44-11c0-.22.34-.29.39-.07,1.3,5.44-.45,11.65-2.59,16.76.79-.76,1.66-1.47,2.38-2.26,2.56-2.83,3.86-6.3,5.27-9.78a.39.39,0,0,1,.76.2Z"/>
    <path d="M192.68,632.15c-3.3.48-6.49,1.23-9.78,1.43a49.16,49.16,0,0,1-10.21-.52c-4.17-.64-8.36-1.61-12.49-1.22a36.32,36.32,0,0,0,3.67-1.89,22.46,22.46,0,0,0,9.18-10.68c.18-.44-.45-.59-.68-.29a48.91,48.91,0,0,1-5.88,7.2,37.77,37.77,0,0,1-8.81,5.31,17.14,17.14,0,0,0-6.11,4.62c-.43.57-2.44,3.44-1.22,4a.2.2,0,0,0,.21,0l.07-.09a.11.11,0,0,0,.05-.15.1.1,0,0,0-.05,0c-.27,0,2.2-3.46,2.24-3.5A15.53,15.53,0,0,1,156,634c.58-.34,1.22-.65,1.75-.94,5.63-1.09,11.39,1,17,1.64,5.87.71,12.84.63,18.33-1.66a.48.48,0,0,0-.35-.9Z"/>
    <path d="M119.42,639.79c-1.66-2.44-4.37-3.77-6.8-5.29a15.49,15.49,0,0,1-7.1-8.55c-.11-.33-.7-.31-.65.08.94,7.68,8.86,9.88,14,14.12C119.18,640.33,119.63,640.11,119.42,639.79Z"/>
    <path d="M85,635c-1.22-2.92-4-5-6.31-7A24,24,0,0,1,75,624.27a24.08,24.08,0,0,1-3-6.5.22.22,0,0,0-.3-.09.21.21,0,0,0-.12.2,19.23,19.23,0,0,0,4.89,9.69c2.65,2.63,5.53,4.89,8,7.63C84.79,635.29,85.08,635.15,85,635Z"/>
  </g>
  <polygon points="325.53 390.28 325.53 349.9 365.92 349.9 365.92 592.22 358.97 592.22 358.97 356.41 331.61 356.41 331.23 390.23 325.53 390.28" fill="#d1d3d4"/>
  <rect x="90.82" y="524.32" width="232.06" height="15.12" fill="#d1d3d4"/>
  <rect x="91.15" y="547.66" width="232.06" height="15.12" fill="#d1d3d4"/>
  <rect x="90.82" y="572.31" width="232.06" height="11.5" fill="#d1d3d4"/>
  <rect x="351.95" y="578.07" width="19.57" height="65.04" fill="#2f2e41" data-secondary="true"/>
  <circle cx="327.15" cy="400.65" r="17.05" fill="#0071f2" data-primary="true"/>
  <rect x="82.6" y="524.32" width="11.83" height="118.99" fill="#2f2e41" data-secondary="true"/>
  <rect x="319.92" y="524.32" width="11.83" height="118.99" fill="#2f2e41" data-secondary="true"/>
  <rect x="91.81" y="590.06" width="234.03" height="17.75" fill="#2f2e41" data-secondary="true"/>
  <rect x="588.65" y="33.08" width="9.29" height="55.73" fill="#2f2e41" data-secondary="true"/>
  <rect x="574.18" y="44.56" width="38.24" height="7.92" fill="#2f2e41" data-secondary="true"/>
  <polygon points="593.3 75.15 536.48 184.42 650.12 184.42 593.3 75.15" fill="#0071f2" data-primary="true"/>
  <rect x="533.4" y="195.01" width="120.8" height="99.01" fill="#0071f2" data-primary="true"/>
  <rect x="530.91" y="292.52" width="126.7" height="4.97" fill="#d1d3d4"/>
  <rect x="530.6" y="301.52" width="127.32" height="10.56" fill="#d1d3d4"/>
  <rect x="527.03" y="297.18" width="134.47" height="5.28" fill="#e6e7e8"/>
  <rect x="413.24" y="440.94" width="9.63" height="33.1" fill="#2f2e41" data-secondary="true"/>
  <rect x="407.59" y="432.75" width="373.35" height="3.94" fill="#d1d3d4"/>
  <rect x="413.24" y="436.65" width="362.39" height="4.29" fill="#e6e7e8"/>
  <polygon points="433.64 466.79 433.64 387.98 531.3 316.34 655.73 316.34 754.89 388.74 754.89 462.64 433.64 466.79" fill="#0071f2" data-primary="true"/>
  <rect x="766" y="440.94" width="9.63" height="33.1" fill="#2f2e41" data-secondary="true"/>
  <g opacity="0.5">
    <ellipse cx="593.87" cy="372.06" rx="44.83" ry="45.49" fill="#fff"/>
  </g>
  <polygon points="777.19 480.69 777.19 515.3 770.41 515.3 770.41 645.58 419.13 645.58 419.13 515.23 411.29 515.23 411.29 480.54 421.5 476.58 493.11 406.42 543.92 455.05 595.11 408.59 644.47 456.51 694.55 406.24 765.33 475.73 777.19 480.69" fill="#0071f2" data-primary="true"/>
  <rect x="411.23" y="614.31" width="40.59" height="31.23" fill="#2f2e41" data-secondary="true"/>
  <polygon points="411.23 614.32 415.39 612.06 447.66 612.06 451.83 614.32 411.23 614.32" fill="#2f2e41" data-secondary="true"/>
  <g opacity="0.2">
    <polygon points="411.23 614.32 415.39 612.06 447.66 612.06 451.83 614.32 411.23 614.32"/>
  </g>
  <rect x="425.98" y="515.01" width="18.56" height="97.06" fill="#d1d3d4"/>
  <rect x="435.87" y="515.01" width="8.67" height="97.06" fill="#e6e7e8"/>
  <rect x="537.04" y="515.51" width="18.56" height="97.27" fill="#d1d3d4"/>
  <rect x="546.93" y="515.51" width="8.67" height="97.27" fill="#e6e7e8"/>
  <rect x="641.69" y="514" width="18.56" height="98.37" fill="#d1d3d4"/>
  <rect x="651.57" y="513.83" width="8.67" height="98.37" fill="#e6e7e8"/>
  <rect x="736.89" y="616.36" width="33.52" height="29.22" fill="#2f2e41" data-secondary="true"/>
  <polygon points="770.41 614.09 770.41 616.36 736.89 616.36 740.43 614.09 770.41 614.09" fill="#2f2e41" data-secondary="true"/>
  <g opacity="0.2">
    <polygon points="770.41 614.09 770.41 616.36 736.89 616.36 740.43 614.09 770.41 614.09"/>
  </g>
  <rect x="751.85" y="515.56" width="18.56" height="98.52" fill="#d1d3d4"/>
  <rect x="761.74" y="515.56" width="8.67" height="98.52" fill="#e6e7e8"/>
  <path d="M492.44,442.61v-8.9h5v-2.53h-5v-3.54h-2.36v3.54h-5v2.53h5v9.18c-28.69,17.8-51.7,59.77-51.7,59.77h11.31c21.95-33.46,41.5-46.81,41.5-46.81,26.84,21.93,40.41,47.27,40.41,47.27l3.08,0,7-.07C527.07,470.72,497.78,446.79,492.44,442.61Z" fill="#d1d3d4"/>
  <path d="M534.68,503.1l-3.08,0S518,477.79,491.19,455.86c0,0-19.55,13.35-41.5,46.81h-3.86c5.23-8.33,23.86-36.51,45.22-50.71C491.05,452,519.25,473.19,534.68,503.1Z" fill="#e6e7e8"/>
  <path d="M597.33,443v-8.9h5v-2.53h-5V428H595v3.54h-5v2.53h5v9.18c-28.68,17.8-51.7,59.77-51.7,59.77.35,0,4.32,0,7.45,0h3.86c21.95-33.47,41.5-46.82,41.5-46.82,26.84,21.94,40.41,47.27,40.41,47.27l3.08,0,7-.07C632,471.08,602.67,447.16,597.33,443Z" fill="#d1d3d4"/>
  <path d="M639.57,503.46l-3.08,0s-13.57-25.33-40.41-47.27c0,0-19.55,13.35-41.5,46.82h-3.86c5.23-8.34,23.86-36.52,45.22-50.71C595.94,452.33,624.14,473.55,639.57,503.46Z" fill="#e6e7e8"/>
  <path d="M699.41,442.66v-8.9h5v-2.53h-5v-3.54h-2.36v3.54h-5v2.53h5v9.18c-28.69,17.8-51.71,59.77-51.71,59.77.36,0,4.32,0,7.46,0h3.86c22-33.47,41.5-46.82,41.5-46.82,26.84,21.94,40.41,47.28,40.41,47.28l3.08,0,7-.07C734,470.77,704.75,446.85,699.41,442.66Z" fill="#d1d3d4"/>
  <path d="M741.65,503.15l-3.08,0S725,477.85,698.16,455.91c0,0-19.55,13.35-41.5,46.82H652.8C658,494.4,676.66,466.21,698,452,698,452,726.22,473.24,741.65,503.15Z" fill="#e6e7e8"/>
  <path d="M582.64,517h24.05A17.33,17.33,0,0,1,624,534.29v98.53a0,0,0,0,1,0,0H565.31a0,0,0,0,1,0,0V534.29A17.33,17.33,0,0,1,582.64,517Z" fill="#fff"/>
  <path d="M691,491.59h21.37a15.4,15.4,0,0,1,15.4,15.4V608.78a0,0,0,0,1,0,0H675.62a0,0,0,0,1,0,0V507A15.4,15.4,0,0,1,691,491.59Z" fill="#fff"/>
  <rect x="675.54" y="514.91" width="51.86" height="1" fill="#0071f2" data-primary="true"/>
  <rect x="675.75" y="546.35" width="51.86" height="1" fill="#0071f2" data-primary="true"/>
  <rect x="675.54" y="576.77" width="51.86" height="1" fill="#0071f2" data-primary="true"/>
  <rect x="701.21" y="491.59" width="1" height="117.53" fill="#0071f2" data-primary="true"/>
  <path d="M476.16,491.59h21.37a15.4,15.4,0,0,1,15.4,15.4V608.78a0,0,0,0,1,0,0H460.76a0,0,0,0,1,0,0V507A15.4,15.4,0,0,1,476.16,491.59Z" fill="#fff"/>
  <rect x="460.68" y="514.91" width="51.86" height="1" fill="#0071f2" data-primary="true"/>
  <rect x="460.88" y="546.35" width="51.86" height="1" fill="#0071f2" data-primary="true"/>
  <rect x="460.68" y="576.77" width="51.86" height="1" fill="#0071f2" data-primary="true"/>
  <rect x="486.34" y="491.59" width="1" height="117.53" fill="#0071f2" data-primary="true"/>
  <rect x="525.94" y="189.42" width="134.47" height="5.59" fill="#d1d3d4"/>
  <rect x="529.36" y="184.45" width="127.63" height="4.96" fill="#e6e7e8"/>
  <path d="M586.24,209.26h17.45a12.58,12.58,0,0,1,12.58,12.58v61.68a0,0,0,0,1,0,0h-42.6a0,0,0,0,1,0,0V221.84A12.58,12.58,0,0,1,586.24,209.26Z" fill="#2f2e41" data-secondary="true"/>
  <path d="M588.6,214.88h12.72a9.17,9.17,0,0,1,9.17,9.17v59.31a0,0,0,0,1,0,0H579.43a0,0,0,0,1,0,0V224.05A9.17,9.17,0,0,1,588.6,214.88Z" fill="#fff"/>
  <rect x="594.46" y="214.88" width="1" height="68.63" fill="#2f2e41" data-secondary="true"/>
  <rect x="578.38" y="228.58" width="33.31" height="1" fill="#2f2e41" data-secondary="true"/>
  <rect x="579.43" y="246.77" width="31.21" height="1" fill="#2f2e41" data-secondary="true"/>
  <rect x="579.28" y="264.23" width="31.36" height="1" fill="#2f2e41" data-secondary="true"/>
  <path d="M598.24,359.56l-.3-.09a12.59,12.59,0,0,0-6.94,0l-.14,0-.23-.23L588,335.91l6-6.62,5.94,6v.12Zm-9.74-23.48,2.59,22.86a13.07,13.07,0,0,1,6.69,0l1.58-23.41L594,330Z" fill="#fff"/>
  <path d="M603.41,362.69l-.2-.2a12.37,12.37,0,0,0-5.23-3l-.28-.08,9.86-21.34.11,0,8.53-2.12,1.56,8.3-.07.09Zm-5-3.6a13,13,0,0,1,5,2.85l13.87-17.85-1.42-7.55-7.89,1.95Z" fill="#fff"/>
  <path d="M606.72,368.55l-.07-.28a12.38,12.38,0,0,0-2.68-5l-.17-.2L604,363l17.87-14,9,1.68-2.15,8.54-.11.05Zm-2.2-5.37a12.89,12.89,0,0,1,2.53,4.69l21.24-9,2-7.79L622,349.52Z" fill="#fff"/>
  <path d="M630.19,378.26h-.11l-23.53-3,.08-.28a12.7,12.7,0,0,0,.46-3.39,14.13,14.13,0,0,0-.21-2.35l0-.25,23.36-3.21,6.74,6.51Zm-23-3.44L630,377.73l6.16-5.47-6.17-6-22.61,3.1a14,14,0,0,1,.18,2.18A12.79,12.79,0,0,1,607.18,374.82Z" fill="#fff"/>
  <path d="M621.88,396.21,603.4,380.7l.19-.42a12.3,12.3,0,0,0,3-5l.09-.28.26.13,22.41,10.78,0,.13,1.18,8.1ZM604,380.56l18,15.1,8-2-1.1-7.52L607,375.66A12.66,12.66,0,0,1,604,380.56Z" fill="#fff"/>
  <path d="M615.74,409.26l-9-3.05-.05-.1-9.29-22.29.28-.07a12.41,12.41,0,0,0,4.9-2.5l.2-.17.16.2,14,18,0,.1Zm-8.65-3.45,8.22,2.78,1.11-9.21-13.74-17.59a12.69,12.69,0,0,1-4.62,2.37Z" fill="#fff"/>
  <path d="M593.93,415.31l-4.77-7v-.08l.67-24.93.34.13a12.1,12.1,0,0,0,6.11.64l.25,0,3.64,23.25Zm-4.27-7.19,4.3,6.34,5.68-7.35-3.53-22.55a12.92,12.92,0,0,1-1.6.11,12.64,12.64,0,0,1-4.18-.69Z" fill="#fff"/>
  <path d="M572.57,409.68l-.06-.4-1.46-9.76,15.63-18.11.19.15a11.52,11.52,0,0,0,3.2,1.79l.08,0,.26.44-.09.24-8.46,22.73-.12,0Zm-1-10L573,409l8.5-2.65,8.38-22.52-.05-.08a12.15,12.15,0,0,1-3.06-1.69Z" fill="#fff"/>
  <path d="M585.25,363.05l-14.19-18.54,1.22-9.16,9.29,3.2,0,.11,8.77,21-.24.09a12.37,12.37,0,0,0-4.69,3Zm-13.67-18.67,13.72,17.91a12.94,12.94,0,0,1,4.42-2.88L581.19,339l-8.5-2.93Z" fill="#fff"/>
  <path d="M582.15,369.15l-22.56-9.5-2.44-8.82,8.25-2,.09.07,19.33,14.64-.16.2a12.22,12.22,0,0,0-2.44,5.09ZM560,359.28l21.78,9.17a13,13,0,0,1,2.32-4.8l-18.83-14.26-7.51,1.81Z" fill="#fff"/>
  <path d="M557.82,378.7l-.09-.08L551,372.26l7.15-6.19,24.07,3,0,.26a11.88,11.88,0,0,0-.21,2.29,12.52,12.52,0,0,0,.61,3.9l.1.29-.31,0Zm-6.11-6.42,6.28,5.9,24-2.83a13,13,0,0,1-.55-3.77,12,12,0,0,1,.17-2.12l-23.32-2.87Z" fill="#fff"/>
  <path d="M566.27,395.63l-8.83-1.83,2.58-9,22.59-9.15.09.25a12.09,12.09,0,0,0,2.77,4.41l.19.2Zm-8.2-2.21,8.07,1.67,18.78-14.61a12.67,12.67,0,0,1-2.6-4.15l-21.89,8.87Z" fill="#fff"/>
  <path d="M593.87,415.62c-23.67,0-42.93-19.54-42.93-43.56s19.26-43.56,42.93-43.56,42.94,19.54,42.94,43.56S617.55,415.62,593.87,415.62Zm0-86.62c-23.4,0-42.43,19.31-42.43,43.06s19,43.06,42.43,43.06,42.44-19.32,42.44-43.06S617.27,329,593.87,329Z" fill="#fff"/>
  <path d="M594.47,384.89a13.32,13.32,0,1,1,13.12-13.31A13.24,13.24,0,0,1,594.47,384.89Zm0-26.13a12.82,12.82,0,1,0,12.62,12.82A12.74,12.74,0,0,0,594.47,358.76Z" fill="#fff"/>
  <polygon points="402.88 473.29 402.88 480.39 423.51 480.39 492.87 413.19 543.44 462.79 593.77 412.71 645.07 462.55 695.15 412.95 764.36 480.7 785.17 480.7 785.17 473.2 768.23 473.2 695.15 401.09 644.83 450.94 594.26 400.85 543.44 450.7 492.63 401.09 419.44 473.2 402.88 473.29" fill="#2f2e41" data-secondary="true"/>
  <rect x="411.33" y="502.68" width="38.36" height="12.56" fill="#2f2e41" data-secondary="true"/>
  <rect x="522.29" y="614.35" width="40.59" height="31.23" fill="#2f2e41" data-secondary="true"/>
  <polygon points="522.29 614.35 526.46 612.09 558.72 612.09 562.89 614.35 522.29 614.35" fill="#2f2e41" data-secondary="true"/>
  <polygon points="522.29 614.35 526.46 612.09 558.72 612.09 562.89 614.35 522.29 614.35" fill="#2f2e41" data-secondary="true"/>
  <g opacity="0.2">
    <polygon points="522.29 614.35 526.46 612.09 558.72 612.09 562.89 614.35 522.29 614.35"/>
  </g>
  <rect x="523.95" y="503.07" width="38.36" height="12.56" fill="#2f2e41" data-secondary="true"/>
  <rect x="626.66" y="501.26" width="38.36" height="12.56" fill="#2f2e41" data-secondary="true"/>
  <polygon points="418.81 377.61 418.81 389.72 444.89 389.72 533.4 322.02 654.2 322.02 743.01 388.79 769.72 388.79 769.72 377.92 748.29 377.92 654.2 307.43 533.71 307.43 440.54 377.61 418.81 377.61" fill="#2f2e41" data-secondary="true"/>
  <rect x="626.94" y="614.35" width="40.59" height="31.23" fill="#2f2e41" data-secondary="true"/>
  <polygon points="626.94 614.35 631.1 612.09 663.37 612.09 667.53 614.35 626.94 614.35" fill="#2f2e41" data-secondary="true"/>
  <g opacity="0.2">
    <polygon points="626.94 614.35 631.1 612.09 663.37 612.09 667.53 614.35 626.94 614.35"/>
  </g>
  <rect x="738.61" y="503.11" width="38.36" height="12.56" fill="#2f2e41" data-secondary="true"/>
  <rect x="49.76" y="643.27" width="766.25" height="6.53" fill="#2f2e41" data-secondary="true"/>
</svg>