 <!DOCTYPE svg PUBLIC "-//W3C//DTD SVG 1.1//EN" "http://www.w3.org/Graphics/SVG/1.1/DTD/svg11.dtd">
<svg xmlns="http://www.w3.org/2000/svg" width="865.76" height="682.89" viewBox="0 0 865.76 682.89">
  <defs>
<style xmlns="http://www.w3.org/1999/xhtml">*, ::after, ::before { box-sizing: border-box; }
img, svg { vertical-align: middle; }
</style>
<style xmlns="http://www.w3.org/1999/xhtml">*, body, html { }
img, svg { max-width: 100%; }
</style>
</defs>
<path d="M309.17,656.73a7,7,0,0,1-6.3,3.81l-18.52.05-48.33.16c-6.67-1.56-4.45-11.12-4.45-11.12l3.32-35.16c9.14,2.37,23.6,4.84,37.49,2l.55.25c-.67,8.89,3.56,10.67,3.56,10.67l17.13,9.41,12,6.6C311.33,648.73,310.74,653.56,309.17,656.73Z" fill="#fff"/>
  <path d="M236,661.25h-.06c-7.07-1.66-4.84-11.62-4.82-11.73l3.37-35.67.57.15c9.46,2.45,23.61,4.79,37.25,2l.16,0,1,.46,0,.35c-.63,8.36,3.22,10.16,3.26,10.17L306,643c6,5.57,5.29,10.64,3.67,13.92h0a7.56,7.56,0,0,1-6.75,4.09Zm-.63-46.15-3.26,34.58c0,.15-2,9.1,4,10.57l66.8-.21a6.57,6.57,0,0,0,5.86-3.54h0c1.46-3,2.06-7.57-3.41-12.69l-29.07-16c-.14-.05-4.4-2-3.84-10.8l-.09,0C258.8,619.72,244.86,617.51,235.33,615.1Z" fill="#2f2e41" data-secondary="true"/>
  <polygon points="776.34 27.98 501.16 10.3 413.29 86.56 385.01 497.15 741.9 522.39 776.34 27.98" fill="#e6e7e8"/>
  <path d="M742.36,522.92l-.5,0L384.47,497.61l0-.5,28.3-410.79.16-.14L501,9.79l.21,0L776.88,27.52l0,.5ZM385.54,496.68l355.9,25.17,34.37-493.4L501.33,10.82l-87.55,76Z" fill="#231f20"/>
  <rect x="453.23" y="195.51" width="161.79" height="14.61" transform="translate(15.64 -37.17) rotate(4.05)" fill="#fff"/>
  <path d="M614.76,216.35,452.38,204.86l1.1-15.57,162.38,11.48ZM453.45,203.93l160.38,11.35,1-13.58L454.41,190.36Z" fill="#2f2e41" data-secondary="true"/>
  <rect x="626.86" y="204.79" width="76.89" height="14.61" transform="matrix(1, 0.07, -0.07, 1, 16.62, -46.41)" fill="#fff"/>
  <path d="M703.61,222.63l-77.7-5.5,1.1-15.57,77.7,5.49ZM627,216.21l75.7,5.35,1-13.58-75.7-5.35Z" fill="#2f2e41" data-secondary="true"/>
  <rect x="471.11" y="226.87" width="56.02" height="14.61" transform="translate(17.76 -34.63) rotate(4.05)" fill="#fff"/>
  <path d="M527,244l-56.87-4,1.1-15.57,56.87,4ZM471.19,239l54.88,3.88,1-13.57-54.88-3.89Z" fill="#2f2e41" data-secondary="true"/>
  <rect x="537.66" y="234.26" width="141.96" height="14.61" transform="translate(18.56 -42.33) rotate(4.05)" fill="#fff"/>
  <path d="M679.39,254.4l-142.6-10.08,1.1-15.58,142.6,10.09Zm-141.53-11,140.6,9.94,1-13.58-140.6-9.94Z" fill="#2f2e41" data-secondary="true"/>
  <rect x="524.21" y="265.8" width="93.94" height="14.61" transform="matrix(1, 0.07, -0.07, 1, 20.69, -39.61)" fill="#fff"/>
  <path d="M618,284.24l-94.7-6.7,1.1-15.57,94.7,6.7Zm-93.64-7.62,92.71,6.55,1-13.58L525.31,263Z" fill="#2f2e41" data-secondary="true"/>
  <path d="M501.22,133.36a20.39,20.39,0,0,1,8.3-7.05,21.57,21.57,0,0,1,10.93-2,21.8,21.8,0,0,1,11.64,4.12,18.71,18.71,0,0,1,6.89,9.82l-8.24-.58a11,11,0,0,0-4.16-5.25,13.41,13.41,0,0,0-6.56-2.1,14.67,14.67,0,0,0-7.53,1.34,13.05,13.05,0,0,0-5.46,5,18.91,18.91,0,0,0-1.15,16.23,13.17,13.17,0,0,0,4.7,5.74,14.38,14.38,0,0,0,7.27,2.42,13.37,13.37,0,0,0,6.79-1.15,11.1,11.1,0,0,0,4.86-4.61l8.23.58a18.52,18.52,0,0,1-8.2,8.73,22,22,0,0,1-12.1,2.41,21.68,21.68,0,0,1-10.57-3.5,20.41,20.41,0,0,1-7.19-8.16,22.7,22.7,0,0,1,1.55-22Z" fill="#2f2e41" data-secondary="true"/>
  <path d="M552.12,163.56l14.13,1-.39,5.53-21-1.49,3-41.79,6.85.48Z" fill="#2f2e41" data-secondary="true"/>
  <path d="M597.37,163.73l-17.5-1.23-3.61,8.32-7.15-.5L587,129.52l7.94.56L607,173l-7.21-.51ZM595.85,158l-5.43-19.91L582.19,157Z" fill="#2f2e41" data-secondary="true"/>
  <path d="M623.3,132.15l-3,41.79-6.85-.48,3-41.8Z" fill="#2f2e41" data-secondary="true"/>
  <path d="M676.34,135.9l-3,41.79-6.85-.48,2-28.63-14.77,27.73L649,176l-10.79-29.53-2,28.62-6.86-.48,3-41.8,7.4.53,12.35,33.81L669,135.38Z" fill="#2f2e41" data-secondary="true"/>
  <g opacity="0.2">
    <polygon points="413.29 86.56 480.55 76.07 501.16 10.3 491.93 84.87 413.29 86.56" fill="#231f20"/>
  </g>
  <path d="M655.62,474.89a22.5,22.5,0,0,1-10-2.32L508.18,405.1a22.73,22.73,0,0,1-10.38-30.4l44.58-90.82a22.74,22.74,0,0,1,30.4-10.38L710.24,341a22.72,22.72,0,0,1,10.39,30.4l-44.58,90.82A22.75,22.75,0,0,1,655.62,474.89Zm-7.33-7.7a16.72,16.72,0,0,0,22.37-7.64l44.58-90.82a16.72,16.72,0,0,0-7.64-22.37L570.14,278.88a16.74,16.74,0,0,0-22.37,7.64l-44.58,90.82a16.72,16.72,0,0,0,7.64,22.37Z" fill="#0071f2" data-primary="true"/>
  <path d="M580.33,331.83a9.7,9.7,0,0,1,5.12-1.66,11,11,0,0,1,5.52,1.31,10.57,10.57,0,0,1,4.81,4.74,9.63,9.63,0,0,1,.69,6.46l-5-2.6a4.54,4.54,0,0,0-.67-2.62,5,5,0,0,0-2-1.83,4.92,4.92,0,0,0-4.19-.3,7.38,7.38,0,0,0-4.08,7.86,4.94,4.94,0,0,0,2.67,3.25,5.1,5.1,0,0,0,2.66.6,4.62,4.62,0,0,0,2.52-1l5,2.61a9.54,9.54,0,0,1-5.67,3.15,10.59,10.59,0,0,1-6.64-1.21,11,11,0,0,1-4.25-3.75,9.77,9.77,0,0,1-1.61-5.13,11.22,11.22,0,0,1,1.37-5.57A11.38,11.38,0,0,1,580.33,331.83Z" fill="#0071f2" data-primary="true"/>
  <path d="M599.24,355.39l6,3.11L603.41,362l-10.57-5.47,9.73-18.79,4.58,2.37Z" fill="#0071f2" data-primary="true"/>
  <path d="M619,365.91l-7-3.63L609.16,365l-4.79-2.48,16.53-15.26,5.3,2.75-2.93,22.3-4.85-2.51Zm.65-4.14,1.24-8.08L615,359.37Z" fill="#0071f2" data-primary="true"/>
  <path d="M639.63,357l-9.73,18.78-4.58-2.37,9.74-18.78Z" fill="#0071f2" data-primary="true"/>
  <path d="M664.23,369.72l-9.74,18.79-4.57-2.38,5.83-11.26-10,9.09L642,382l1.63-13.48-5.86,11.29-4.57-2.37L643,358.7l5.41,2.8-1.47,15.73,12-10.3Z" fill="#0071f2" data-primary="true"/>
  <path d="M542,360.3l-7-3.64-2.84,2.74-4.79-2.48,16.53-15.27,5.3,2.75-2.94,22.31-4.84-2.51Zm.65-4.15,1.24-8.08L538,353.76Z" fill="#0071f2" data-primary="true"/>
  <path d="M566.92,365.05a6.1,6.1,0,0,1-3.44,1,9,9,0,0,1-4.28-1.17l-2.84-1.47-3.49,6.75-4.57-2.37L558,349l7.41,3.84a9.5,9.5,0,0,1,3.4,2.75,6,6,0,0,1,1.22,3.35,7.09,7.09,0,0,1-.85,3.53A6.78,6.78,0,0,1,566.92,365.05Zm-3.91-3.6a2.61,2.61,0,0,0,1.55-1.41,2.58,2.58,0,0,0,.25-2.07,3.09,3.09,0,0,0-1.63-1.63l-2.49-1.29-2.44,4.71,2.49,1.29A3,3,0,0,0,563,361.45Z" fill="#0071f2" data-primary="true"/>
  <path d="M583.61,373.71a6.14,6.14,0,0,1-3.43,1,9.11,9.11,0,0,1-4.28-1.16l-2.84-1.47-3.49,6.74L565,376.43l9.74-18.79,7.41,3.85a9.36,9.36,0,0,1,3.39,2.74,5.93,5.93,0,0,1,1.22,3.35,7.31,7.31,0,0,1-3.14,6.13Zm-3.9-3.61a3,3,0,0,0,1.8-3.47,3,3,0,0,0-1.63-1.63l-2.49-1.29L575,368.42l2.48,1.29A3.1,3.1,0,0,0,579.71,370.1Z" fill="#0071f2" data-primary="true"/>
  <path d="M591.27,390.05l-.23-9.12-1.1-.57-3.68,7.09-4.57-2.37,9.73-18.78,7.68,4a9.5,9.5,0,0,1,3.39,2.74,6,6,0,0,1,1.24,3.34,6.73,6.73,0,0,1-.79,3.41,6.3,6.3,0,0,1-2.79,2.8,6.45,6.45,0,0,1-4.2.47l.48,9.68Zm.35-12.93,2.83,1.47a2.93,2.93,0,0,0,2.21.37,2.66,2.66,0,0,0,1.53-1.42,2.51,2.51,0,0,0,.24-2,2.89,2.89,0,0,0-1.56-1.59L594,372.47Z" fill="#0071f2" data-primary="true"/>
  <path d="M603.7,395.17a10.44,10.44,0,0,1-1.72-5.26,11.37,11.37,0,0,1,5.14-9.91,10.35,10.35,0,0,1,5.28-1.61,11.52,11.52,0,0,1,9.71,5,10.09,10.09,0,0,1,1.7,5.23,11.53,11.53,0,0,1-5.15,9.91,10.23,10.23,0,0,1-5.26,1.63,10.93,10.93,0,0,1-5.48-1.27A11.11,11.11,0,0,1,603.7,395.17Zm10.76-.06a7.33,7.33,0,0,0,4.11-7.94,5.21,5.21,0,0,0-2.83-3.35,5.27,5.27,0,0,0-4.39-.4,7.36,7.36,0,0,0-4.12,8,5.27,5.27,0,0,0,2.86,3.36A5.17,5.17,0,0,0,614.46,395.11Z" fill="#0071f2" data-primary="true"/>
  <path d="M647.53,395.38l-16.39,15.33-5.73-3,3.07-22.24,4.87,2.53-2.69,16.59,12-11.75Z" fill="#0071f2" data-primary="true"/>
  <path d="M652.11,402.4l-2,3.8,6.13,3.17-1.83,3.54-6.13-3.18-2.13,4.12,6.93,3.59-1.9,3.67-11.51-6,9.74-18.79,11.5,6L659,406Z" fill="#0071f2" data-primary="true"/>
  <path d="M675.53,411.38a9.54,9.54,0,0,1,1.73,5.09,11.79,11.79,0,0,1-5.09,9.8A9.35,9.35,0,0,1,667,427.8a12.49,12.49,0,0,1-5.79-1.5l-7-3.65,9.73-18.79,7,3.65A12.33,12.33,0,0,1,675.53,411.38Zm-7.78,11.48a7.15,7.15,0,0,0,4.17-8.06,6.15,6.15,0,0,0-3.29-3.54l-2.17-1.12-5.66,10.92,2.17,1.12A6.24,6.24,0,0,0,667.75,422.86Z" fill="#0071f2" data-primary="true"/>
  <rect x="272.25" y="169.98" width="241.97" height="353.1" fill="#d1d3d4"/>
  <path d="M514.72,523.58h-243V169.48h243Zm-242-1h241V170.48h-241Z" fill="#231f20"/>
  <rect x="305.79" y="302.38" width="112.69" height="10.84" fill="#fff"/>
  <path d="M419,313.72H305.29V301.88H419Zm-112.68-1H418v-9.84H306.29Z" fill="#2f2e41" data-secondary="true"/>
  <rect x="425.89" y="302.38" width="57.03" height="10.84" fill="#fff"/>
  <path d="M483.41,313.72h-58V301.88h58Zm-57-1h56v-9.84h-56Z" fill="#2f2e41" data-secondary="true"/>
  <rect x="318.97" y="327.41" width="39.52" height="10.84" fill="#fff"/>
  <path d="M359,338.75H318.47V326.91H359Zm-39.52-1H358v-9.84H319.47Z" fill="#2f2e41" data-secondary="true"/>
  <rect x="365.84" y="327.16" width="105.28" height="10.84" fill="#fff"/>
  <path d="M471.61,338.49H365.34V326.66H471.61Zm-105.27-1H470.61v-9.83H366.34Z" fill="#2f2e41" data-secondary="true"/>
  <rect x="358.47" y="352.44" width="64.2" height="10.84" fill="#fff"/>
  <path d="M423.18,363.78H358V351.94h65.21Zm-64.21-1h63.21v-9.84H359Z" fill="#2f2e41" data-secondary="true"/>
  <rect x="295.05" y="186.25" width="54.65" height="10.84" fill="#fff"/>
  <path d="M350.2,197.58H294.55V185.75H350.2Zm-54.65-1H349.2v-9.83H295.55Z" fill="#2f2e41" data-secondary="true"/>
  <rect x="295.43" y="201.53" width="54.65" height="10.84" fill="#fff"/>
  <path d="M350.58,212.87H294.93V201h55.65Zm-54.65-1h53.65V202H295.93Z" fill="#2f2e41" data-secondary="true"/>
  <rect x="295.05" y="215.92" width="54.65" height="10.84" fill="#fff"/>
  <path d="M350.2,227.26H294.55V215.42H350.2Zm-54.65-1H349.2v-9.84H295.55Z" fill="#2f2e41" data-secondary="true"/>
  <path d="M302.87,660.54l-18.52.05c.64-13,6-20.42,9.27-23.79l12,6.6c5.72,5.33,5.13,10.16,3.56,13.33A7,7,0,0,1,302.87,660.54Z" fill="#0071f2" data-primary="true"/>
  <path d="M283.82,661.09l0-.52c.66-13.31,6.18-20.83,9.41-24.12l.26-.27L306,643c6,5.57,5.29,10.64,3.67,13.92a7.56,7.56,0,0,1-6.75,4.09Zm9.89-23.67c-3.11,3.28-8.1,10.38-8.84,22.67l18-.05a6.57,6.57,0,0,0,5.86-3.54c1.46-3,2.06-7.57-3.41-12.69Z" fill="#2f2e41" data-secondary="true"/>
  <ellipse cx="248.36" cy="635.84" rx="7.67" ry="7.34" fill="#0071f2" data-primary="true"/>
  <path d="M248.36,643.68a7.85,7.85,0,1,1,8.17-7.84A8,8,0,0,1,248.36,643.68Zm0-14.68a6.85,6.85,0,1,0,7.17,6.84A7,7,0,0,0,248.36,629Z" fill="#2f2e41" data-secondary="true"/>
  <path d="M216.51,652a10,10,0,0,1-.06,1.46c-.59,5.33-5.91,8.83-11.17,7.84l-14.82-2.79c1.7-12.88,8.81-18.69,13.31-21.11l9.46,8.13A9.17,9.17,0,0,1,216.51,652Z" fill="#0071f2" data-primary="true"/>
  <path d="M207.08,662a10.11,10.11,0,0,1-1.9-.18l-15.27-2.88.06-.47c1.74-13.28,9.25-19.16,13.56-21.48l.31-.16,9.71,8.36A9.61,9.61,0,0,1,217,652h0a12.06,12.06,0,0,1-.06,1.52,9.25,9.25,0,0,1-3.77,6.45A10.28,10.28,0,0,1,207.08,662ZM191,658.13l14.35,2.7a9.31,9.31,0,0,0,7.21-1.65,8.27,8.27,0,0,0,3.38-5.76,11.84,11.84,0,0,0,0-1.38,8.64,8.64,0,0,0-3.11-6.11l-9.19-7.9C199.57,640.34,192.78,645.92,191,658.13Z" fill="#2f2e41" data-secondary="true"/>
  <polygon points="713.46 31.95 437.71 33.73 355.45 115.99 356.2 527.55 713.98 527.55 713.46 31.95" fill="#e6e7e8"/>
  <path d="M714.48,528.05H355.7v-.5L355,115.79,437.5,33.23h.21L714,31.45V32Zm-357.79-1H713.48L713,32.45l-275,1.78-82,82Z" fill="#231f20"/>
  <rect x="403.28" y="216.13" width="161.79" height="14.61" fill="#fff"/>
  <path d="M565.57,231.24H402.78V215.63H565.57Zm-161.79-1H564.57V216.63H403.78Z" fill="#2f2e41" data-secondary="true"/>
  <rect x="577.25" y="216.13" width="76.89" height="14.61" fill="#fff"/>
  <path d="M654.64,231.24H576.75V215.63h77.89Zm-76.89-1h75.89V216.63H577.75Z" fill="#2f2e41" data-secondary="true"/>
  <rect x="423.46" y="249.88" width="56.02" height="14.61" fill="#fff"/>
  <path d="M480,265H423V249.38h57Zm-56-1h55V250.38H424Z" fill="#2f2e41" data-secondary="true"/>
  <rect x="490.26" y="249.53" width="141.96" height="14.61" fill="#fff"/>
  <path d="M632.72,264.64h-143V249h143Zm-142-1h141V250h-141Z" fill="#2f2e41" data-secondary="true"/>
  <rect x="479.13" y="283.63" width="93.94" height="14.61" fill="#fff"/>
  <path d="M573.57,298.74H478.63V283.13h94.94Zm-93.94-1h92.94V284.13H479.63Z" fill="#2f2e41" data-secondary="true"/>
  <path d="M446.46,156.48a20.36,20.36,0,0,1,7.78-7.63,22.88,22.88,0,0,1,22.66.54,18.72,18.72,0,0,1,7.57,9.32h-8.26a11.14,11.14,0,0,0-4.52-5,13.47,13.47,0,0,0-6.69-1.62,14.68,14.68,0,0,0-7.42,1.86,13,13,0,0,0-5.09,5.37,18.93,18.93,0,0,0,0,16.28,13.12,13.12,0,0,0,5.09,5.39,14.4,14.4,0,0,0,7.42,1.9,13.37,13.37,0,0,0,6.69-1.63,11.06,11.06,0,0,0,4.52-4.94h8.26a18.54,18.54,0,0,1-7.57,9.28,21.9,21.9,0,0,1-11.9,3.26,21.62,21.62,0,0,1-10.79-2.74,20.42,20.42,0,0,1-7.75-7.63,22.63,22.63,0,0,1,0-22.06Z" fill="#2f2e41" data-secondary="true"/>
  <path d="M499.36,183h14.17v5.55h-21v-41.9h6.87Z" fill="#2f2e41" data-secondary="true"/>
  <path d="M544.51,180H527l-3,8.56h-7.18l15-42h8l15,42h-7.23Zm-1.93-5.61-6.81-19.47-6.87,19.47Z" fill="#2f2e41" data-secondary="true"/>
  <path d="M568.15,146.65v41.9h-6.88v-41.9Z" fill="#2f2e41" data-secondary="true"/>
  <path d="M621.32,146.65v41.9h-6.88v-28.7l-12.78,28.7H596.9l-12.84-28.7v28.7h-6.87v-41.9h7.41l14.71,32.86L614,146.65Z" fill="#2f2e41" data-secondary="true"/>
  <g opacity="0.2">
    <polygon points="355.45 115.99 421.8 100.78 437.71 33.73 433.77 108.76 355.45 115.99" fill="#231f20"/>
  </g>
  <path d="M623,486.33a22.76,22.76,0,0,1-8.55-1.68L472.57,427a22.71,22.71,0,0,1-12.5-29.59l38.06-93.74a22.72,22.72,0,0,1,29.6-12.5l141.88,57.61a22.75,22.75,0,0,1,12.5,29.59L644,472.15a22.74,22.74,0,0,1-21,14.18ZM519.18,295.53A16.78,16.78,0,0,0,503.69,306l-38.06,93.74a16.71,16.71,0,0,0,9.2,21.77l141.88,57.61a16.73,16.73,0,0,0,21.78-9.2l38.06-93.74a16.74,16.74,0,0,0-9.2-21.77L525.47,296.77A16.78,16.78,0,0,0,519.18,295.53Z" fill="#0071f2" data-primary="true"/>
  <path d="M539.37,348.86a9.77,9.77,0,0,1,5-2,11,11,0,0,1,5.6.92,10.61,10.61,0,0,1,5.13,4.38,9.56,9.56,0,0,1,1.14,6.4l-5.2-2.24a4.62,4.62,0,0,0-.85-2.57,5,5,0,0,0-2.14-1.68,4.94,4.94,0,0,0-4.2,0,7.43,7.43,0,0,0-3.52,8.14,4.92,4.92,0,0,0,2.89,3.05,5,5,0,0,0,2.7.41,4.59,4.59,0,0,0,2.44-1.14l5.21,2.24a9.51,9.51,0,0,1-5.44,3.55,10.57,10.57,0,0,1-6.71-.75,10.92,10.92,0,0,1-4.5-3.43,9.74,9.74,0,0,1-2-5,11.21,11.21,0,0,1,1-5.66A11.42,11.42,0,0,1,539.37,348.86Z" fill="#0071f2" data-primary="true"/>
  <path d="M559.9,371l6.2,2.67-1.58,3.66-10.93-4.72L562,353.22l4.73,2Z" fill="#0071f2" data-primary="true"/>
  <path d="M580.37,380.13,573.12,377l-2.65,2.92-5-2.13,15.41-16.39,5.48,2.36-1.35,22.46-5-2.16Zm.36-4.17.66-8.15-5.45,6.08Z" fill="#0071f2" data-primary="true"/>
  <path d="M600.3,369.77l-8.38,19.42-4.73-2,8.38-19.43Z" fill="#0071f2" data-primary="true"/>
  <path d="M625.73,380.74l-8.39,19.43-4.73-2,5-11.65-9.37,9.77-3.82-1.65.67-13.56-5,11.68-4.73-2.05,8.38-19.42,5.59,2.41-.35,15.8,11.2-11.12Z" fill="#0071f2" data-primary="true"/>
  <path d="M503.13,380l-7.25-3.13-2.64,2.93-5-2.14,15.42-16.39,5.48,2.36-1.36,22.46-5-2.16Zm.36-4.18.66-8.15-5.45,6.08Z" fill="#0071f2" data-primary="true"/>
  <path d="M528.33,383a6.18,6.18,0,0,1-3.35,1.23,9.2,9.2,0,0,1-4.36-.86l-2.93-1.27-3,7L510,387l8.39-19.42,7.66,3.31a9.39,9.39,0,0,1,3.58,2.5,6,6,0,0,1,1.46,3.25,7.05,7.05,0,0,1-.6,3.58A6.82,6.82,0,0,1,528.33,383Zm-4.14-3.31a2.6,2.6,0,0,0,1.43-1.52,2.55,2.55,0,0,0,.12-2.08,3.05,3.05,0,0,0-1.75-1.51l-2.57-1.11-2.1,4.87,2.57,1.11A3.11,3.11,0,0,0,524.19,379.64Z" fill="#0071f2" data-primary="true"/>
  <path d="M545.6,390.41a6.2,6.2,0,0,1-3.36,1.22,9.06,9.06,0,0,1-4.35-.86L535,389.51l-3,7-4.73-2L535.6,375l7.67,3.31a9.55,9.55,0,0,1,3.58,2.5,6,6,0,0,1,1.45,3.25,7,7,0,0,1-.6,3.59A6.78,6.78,0,0,1,545.6,390.41Zm-4.15-3.32a2.56,2.56,0,0,0,1.44-1.51,2.61,2.61,0,0,0,.11-2.09,3.1,3.1,0,0,0-1.74-1.51l-2.58-1.11-2.1,4.87,2.57,1.11A3.11,3.11,0,0,0,541.45,387.09Z" fill="#0071f2" data-primary="true"/>
  <path d="M554.39,406.17l-.88-9.08-1.13-.49-3.17,7.33-4.73-2,8.39-19.42,7.94,3.42a9.45,9.45,0,0,1,3.57,2.5,6,6,0,0,1,1.47,3.24,6.75,6.75,0,0,1-.54,3.46,6.31,6.31,0,0,1-2.59,3,6.38,6.38,0,0,1-4.15.76l1.16,9.63Zm-.57-12.92,2.94,1.27a2.91,2.91,0,0,0,2.22.2,2.58,2.58,0,0,0,1.43-1.51,2.54,2.54,0,0,0,.1-2,3,3,0,0,0-1.67-1.48l-2.94-1.26Z" fill="#0071f2" data-primary="true"/>
  <path d="M567.15,410.4a10.48,10.48,0,0,1-2.09-5.12,10.93,10.93,0,0,1,.88-5.72,10.65,10.65,0,0,1,3.55-4.53,10.31,10.31,0,0,1,5.15-2,11,11,0,0,1,5.57.89,11.13,11.13,0,0,1,4.48,3.44,10.23,10.23,0,0,1,2.06,5.1,11.54,11.54,0,0,1-4.43,10.24,10.38,10.38,0,0,1-5.14,2,11,11,0,0,1-5.55-.89A11.13,11.13,0,0,1,567.15,410.4Zm10.73-.82a7.33,7.33,0,0,0,3.54-8.21,5.81,5.81,0,0,0-7.46-3.24,7.37,7.37,0,0,0-3.56,8.24,5.27,5.27,0,0,0,3.09,3.15A5.19,5.19,0,0,0,577.88,409.58Z" fill="#0071f2" data-primary="true"/>
  <path d="M610.89,407.51,595.61,424l-5.92-2.55,1.5-22.4,5,2.17-1.52,16.75,11.17-12.58Z" fill="#0071f2" data-primary="true"/>
  <path d="M616,414.2l-1.7,3.93,6.34,2.73L619,424.51l-6.34-2.73L610.84,426l7.17,3.09-1.64,3.79-11.9-5.13,8.39-19.43,11.89,5.14-1.63,3.79Z" fill="#0071f2" data-primary="true"/>
  <path d="M640,421.5a9.48,9.48,0,0,1,2.07,4.95,10.86,10.86,0,0,1-.93,5.62,11,11,0,0,1-3.44,4.52,9.33,9.33,0,0,1-5,1.89,12.24,12.24,0,0,1-5.88-1.09l-7.28-3.14,8.39-19.43L635.1,418A12.36,12.36,0,0,1,640,421.5Zm-7,12a6,6,0,0,0,3.29-3.5,5.64,5.64,0,0,0-3.23-8.12l-2.24-1-4.87,11.29,2.24,1A6.17,6.17,0,0,0,633,433.5Z" fill="#0071f2" data-primary="true"/>
  <path d="M216.51,652a10,10,0,0,1-.06,1.46c-.59,5.33-5.91,8.83-11.17,7.84l-14.82-2.79-48.29-9.13c-5.11-2.66-2.22-11.11-2.22-11.11l8.78-32.4c7.31,3.48,19.76,7.71,37.47,8v5.68a5.86,5.86,0,0,0,2,4.42l15.54,13.4,9.46,8.13A9.17,9.17,0,0,1,216.51,652Z" fill="#fff"/>
  <path d="M207.08,662a10.11,10.11,0,0,1-1.9-.18l-63.24-12c-5.43-2.83-2.58-11.36-2.46-11.72l8.93-33,.54.26c7.27,3.46,19.64,7.66,37.26,8h.49v6.17a5.32,5.32,0,0,0,1.86,4l25,21.54A9.61,9.61,0,0,1,217,652h0a12.06,12.06,0,0,1-.06,1.52,9.25,9.25,0,0,1-3.77,6.45A10.28,10.28,0,0,1,207.08,662Zm-64.74-13.06,63,11.9a9.31,9.31,0,0,0,7.21-1.65,8.27,8.27,0,0,0,3.38-5.76,11.84,11.84,0,0,0,0-1.38,8.64,8.64,0,0,0-3.11-6.11l-25-21.53a6.38,6.38,0,0,1-2.2-4.8v-5.19c-17.11-.38-29.28-4.39-36.64-7.82l-8.63,31.83C140.4,638.53,137.75,646.46,142.34,648.93Z" fill="#2f2e41" data-secondary="true"/>
  <path d="M298.23,329.52,295.55,443.4q-.44,18.47-2.67,36.84L276.71,613a3.69,3.69,0,0,1-2.85,3.16c-.49.12-1,.23-1.48.32-13.89,2.84-28.35.37-37.49-2-2.79-.71-5.08-1.41-6.72-2a3.67,3.67,0,0,1-2.5-3.86L239,476.06c1.29-18.84-.66-50.93-1.69-65.52a.86.86,0,0,0-1.71-.08c-6.69,40.18-35.84,177.33-40.7,200.11a4.23,4.23,0,0,1-4.06,3.35c-1.58,0-3.13,0-4.63,0-17.71-.32-30.16-4.55-37.47-8a56.06,56.06,0,0,1-5.11-2.75,4.22,4.22,0,0,1-1.9-4.7c20.78-76.83,44.37-267.5,44.37-267.5C251.65,333.77,298.23,329.52,298.23,329.52Z" fill="#2f2e41" data-secondary="true"/>
  <path d="M259.05,618.25A98.81,98.81,0,0,1,234.77,615c-3-.76-5.3-1.49-6.75-2a4.15,4.15,0,0,1-2.84-4.39L238.49,476c1.31-19-.74-52.1-1.69-65.43a.34.34,0,0,0-.34-.34.34.34,0,0,0-.37.31c-6.86,41.13-37.26,184-40.71,200.12a4.71,4.71,0,0,1-4.54,3.75c-1.49,0-3.08,0-4.65,0-17.79-.32-30.31-4.57-37.67-8.08a54.74,54.74,0,0,1-5.16-2.78,4.74,4.74,0,0,1-2.12-5.25c20.53-75.92,44.11-265.53,44.35-267.44l.06-.45.46,0c64.78,2.79,111.61-1.37,112.08-1.42l.56,0,0,.56-2.68,113.88c-.29,12.19-1.19,24.6-2.68,36.89L277.21,613.05a4.24,4.24,0,0,1-3.24,3.59c-.49.12-1,.23-1.5.32A66.88,66.88,0,0,1,259.05,618.25Zm-22.61-209h.07a1.32,1.32,0,0,1,1.29,1.26c.94,13.35,3,46.47,1.69,65.58L226.17,608.7a3.16,3.16,0,0,0,2.16,3.34c1.43.47,3.76,1.2,6.69,2,9.46,2.45,23.6,4.79,37.25,2,.49-.09,1-.2,1.47-.31a3.24,3.24,0,0,0,2.48-2.74l16.16-132.75c1.48-12.26,2.38-24.64,2.67-36.79l2.67-113.32c-5.48.46-50.4,4-111.2,1.39-1.3,10.48-24.26,193-44.31,267.11a3.69,3.69,0,0,0,1.67,4.14,52.84,52.84,0,0,0,5.07,2.73c7.27,3.46,19.64,7.66,37.26,8,1.56,0,3.14,0,4.62,0a3.74,3.74,0,0,0,3.58-2.95c3.44-16.16,33.84-159,40.69-200.09A1.33,1.33,0,0,1,236.44,409.24Z" fill="#2f2e41" data-secondary="true"/>
  <path d="M148.3,601.26l-.12,0a.49.49,0,0,1-.37-.6c21.29-88.51,44.54-268,44.77-269.77a.5.5,0,1,1,1,.13c-.23,1.8-23.49,181.31-44.79,269.88A.5.5,0,0,1,148.3,601.26Z" fill="#fff"/>
  <path d="M234.46,600.69h-.06a.5.5,0,0,1-.44-.55L247.19,479.5a175.37,175.37,0,0,0,.85-27.4l-3.88-80.89a.51.51,0,0,1,.48-.53.49.49,0,0,1,.52.48L249,452.05a176.15,176.15,0,0,1-.84,27.56L235,600.25A.49.49,0,0,1,234.46,600.69Z" fill="#fff"/>
  <path d="M225.36,124.43l-.3,23.91s16,3,30.88,6.06V139l-21.19-16.65Z" fill="#fff"/>
  <path d="M256.44,155l-.6-.12c-14.66-3-30.71-6-30.87-6.06l-.41-.07.31-24.73,10-2.26,21.57,17Zm-30.88-7.08c2.58.49,16.69,3.17,29.88,5.85V139.2l-20.82-16.35-8.76,2Z" fill="#2f2e41" data-secondary="true"/>
  <path d="M234.75,138.35s1.21,9.39,7.56,13.32l13.63,2.73V139Z" fill="#2f2e41" data-secondary="true"/>
  <path d="M257.81,164.07v-7.16a2.32,2.32,0,0,0-1.85-2.27l-31-6.33a2.31,2.31,0,0,0-2.77,2.29l.14,12.94-38.16,11.18-1.08,78,3,78.23s76.71,2.83,112.14-1.42l5.38-98.35L315.23,200s-2.09-24.73-29.76-30.33Z" fill="#0071f2" data-primary="true"/>
  <path d="M239.18,332.35c-27.82,0-52.68-.9-53.11-.91l-.47,0V331l-3-78.23,1.08-78.39,38.16-11.18-.14-12.55a2.81,2.81,0,0,1,3.37-2.79l31,6.33a2.83,2.83,0,0,1,2.25,2.76v6.75l27.26,5.52c27.72,5.61,30.14,30.52,30.16,30.77v.11l0,.11-11.59,31.11L298.7,330l-.41,0C283.15,331.83,260.31,332.35,239.18,332.35Zm-52.61-1.9c6.43.23,77.45,2.58,111.18-1.38l5.37-98,0-.07,11.58-31.07c-.2-1.77-3.31-24.5-29.35-29.77l-28.06-5.68v-7.57a1.82,1.82,0,0,0-1.45-1.78l-31-6.33a1.82,1.82,0,0,0-2.17,1.8l.15,13.31L184.63,175.1l-1.07,77.62Z" fill="#2f2e41" data-secondary="true"/>
  <g opacity="0.2">
    <path d="M277.28,244.18l-47.47,12.36a2.92,2.92,0,0,1-3.53-2l-11.1-37.23v0S228.07,254,277.28,244.18Z" fill="#231f20"/>
  </g>
  <path d="M239.84,171.87a.45.45,0,0,1-.2,0L222.1,164a.49.49,0,0,1-.25-.66.5.5,0,0,1,.66-.25l17.54,7.83a.5.5,0,0,1-.21,1Z" fill="#2f2e41" data-secondary="true"/>
  <path d="M253.73,171.59a.51.51,0,0,1-.42-.23.5.5,0,0,1,.14-.69c4.7-3.13,3.91-6.33,3.87-6.47a.5.5,0,0,1,.35-.61.51.51,0,0,1,.62.34c0,.17,1.06,4-4.28,7.57A.49.49,0,0,1,253.73,171.59Z" fill="#2f2e41" data-secondary="true"/>
  <path d="M403,196,200.61,408.93l-18.28-8.41-.29-.13L167,384.33l-10-17.26,200-211.86c13.89-1.69,14.75,12.47,14.75,12.47h.05C386,169.26,387.83,181,388,183.21a2.81,2.81,0,0,1,0,.34C401.11,185,403,196,403,196Z" fill="#e6e7e8"/>
  <path d="M200.72,409.54l-19.05-8.81-15.13-16.15L156.31,367l.26-.27,200.08-212,.18,0c4.2-.51,7.68.34,10.32,2.54,3.93,3.28,4.78,8.48,5,10,14.22,1.73,16.18,13.37,16.43,15.86,12.9,1.63,14.91,12.74,14.92,12.86l0,.24-.17.18ZM182.34,400l.2.09,18,8.27L402.42,195.88c-.35-1.63-2.81-10.57-14.41-11.83l-.44-.05v-.45s0-.11,0-.28c-.22-2.26-2-13.57-15.9-15.08h-.47l0-.47c0-.06-.43-6.19-4.64-9.69-2.38-2-5.54-2.77-9.37-2.34L157.55,367.14,167.38,384Z" fill="#231f20"/>
  <path d="M414.08,146.43l-11,49.21a.09.09,0,0,1-.17,0c-.48-2-3.23-10.84-14.81-12.1a2.81,2.81,0,0,0,0-.34c-.21-2.17-2-14-16.35-15.52h-.05s-.86-14.16-14.75-12.47l50.18-15.36Z" fill="#fff"/>
  <path d="M403,196.22a.59.59,0,0,1-.57-.46C402,194,399.31,185.28,388,184.05l-.44-.05v-.45s0-.11,0-.28c-.22-2.26-2-13.57-15.9-15.08h-.47l0-.47c0-.06-.43-6.19-4.64-9.69-2.42-2-5.63-2.79-9.55-2.31l-.2-1,50.45-15.44,7.43,7-11.09,49.49a.61.61,0,0,1-.58.47Zm-.4-.69Zm.8,0ZM388.53,183.1c9.63,1.22,13.18,7.7,14.37,10.92l10.63-47.42-6.59-6.18L360.5,154.63a11.72,11.72,0,0,1,6.65,2.62c3.93,3.28,4.78,8.48,5,10C386.32,169,388.28,180.61,388.53,183.1Z" fill="#2f2e41" data-secondary="true"/>
  <rect x="229.65" y="80.72" width="42.09" height="67.09" rx="21.04" transform="translate(-11.18 28.68) rotate(-6.4)" fill="#fff"/>
  <path d="M252,148.24a21.55,21.55,0,0,1-21.36-19.15l-2.79-24.84a21.54,21.54,0,1,1,42.82-4.81l2.79,24.85a21.56,21.56,0,0,1-19,23.81A22.5,22.5,0,0,1,252,148.24ZM249.31,81.3a20.12,20.12,0,0,0-2.31.13,20.57,20.57,0,0,0-18.12,22.71L231.67,129a20.54,20.54,0,0,0,22.71,18.13h0A20.55,20.55,0,0,0,272.5,124.4l-2.79-24.85A20.57,20.57,0,0,0,249.31,81.3Z" fill="#2f2e41" data-secondary="true"/>
  <path d="M218.4,101.42l.61,16.65,11.2,2.73a60.32,60.32,0,0,0,1.51-22.1,17.3,17.3,0,0,0,11.2-4.84s7.26,6.65,13.92-2.73c0,0,6.06,5.15,13.32-3.63,0,0,8.78-10.9-1.21-17.86,0,0-7-6.66-17.55,1.21,0,0-4.55-11.81-17.86-4.24,0,0-4.31,1.44-5.94,10.47a.81.81,0,0,1-.8.68c-1.37,0-4.31.39-4,4.19a.82.82,0,0,1-.87.9c-2.93-.21-11.26-.21-12,6.77C209.92,89.62,209,99.91,218.4,101.42Z" fill="#fff"/>
  <path d="M230.55,121.39l-12-2.92-.61-16.63c-9.3-1.79-8.49-12.16-8.48-12.27.8-7.5,9.8-7.42,12.54-7.22a.26.26,0,0,0,.23-.08.35.35,0,0,0,.1-.28,4.33,4.33,0,0,1,1-3.46,4.81,4.81,0,0,1,3.54-1.27h0a.31.31,0,0,0,.3-.27c1.66-9.22,6.08-10.79,6.27-10.85,4.41-2.52,8.44-3.2,11.88-2a11.89,11.89,0,0,1,6.34,5.91c10.53-7.45,17.63-.87,17.7-.8a10.65,10.65,0,0,1,4.83,7.29c.81,5.72-3.4,11-3.58,11.24-2.69,3.25-5.53,5-8.46,5.29A8.17,8.17,0,0,1,257,91.83c-2.15,2.88-4.6,4.49-7.27,4.77A9.68,9.68,0,0,1,243,94.53a17.85,17.85,0,0,1-10.67,4.65,61.51,61.51,0,0,1-1.59,21.76Zm-11.06-3.71,10.36,2.52a60.49,60.49,0,0,0,1.37-21.44l-.07-.56h.57a17,17,0,0,0,10.85-4.7l.33-.34.36.33a9.06,9.06,0,0,0,6.32,2.12c2.5-.27,4.8-1.87,6.86-4.77l.31-.44.42.35A7.12,7.12,0,0,0,262,92.1c2.64-.24,5.25-1.89,7.76-4.92,0-.05,4.11-5.19,3.36-10.47a9.76,9.76,0,0,0-4.47-6.66c-.34-.31-6.87-6.31-17,1.2l-.52.39-.24-.61a11.2,11.2,0,0,0-6-5.92c-3.15-1.12-6.89-.47-11.13,1.94-.12,0-4.14,1.55-5.68,10.12a1.35,1.35,0,0,1-1.3,1.09,3.85,3.85,0,0,0-2.8,1,3.42,3.42,0,0,0-.71,2.69,1.31,1.31,0,0,1-1.4,1.44c-3.22-.24-10.78-.1-11.47,6.32,0,.39-.75,9.84,8.06,11.26l.4.06Z" fill="#2f2e41" data-secondary="true"/>
  <path d="M223.69,97.22a.5.5,0,0,1-.5-.48c-.34-10.42,5.5-12.83,5.75-12.93a.5.5,0,1,1,.37.93h0c-.23.09-5.44,2.3-5.12,12a.5.5,0,0,1-.48.52Z" fill="#2f2e41" data-secondary="true"/>
  <path d="M254.46,81a.46.46,0,0,1-.29-.1.49.49,0,0,1-.11-.69c.15-.21,3.79-5,11.26-3.25a.5.5,0,0,1,.38.6.49.49,0,0,1-.6.37c-6.82-1.59-10.1,2.69-10.24,2.87A.48.48,0,0,1,254.46,81Z" fill="#2f2e41" data-secondary="true"/>
  <path d="M261.25,124.6a.48.48,0,0,1-.36-.16.49.49,0,0,1,0-.7l2-2a1.88,1.88,0,0,0,.33-2.32L257,108.51a.5.5,0,1,1,.87-.5l6.3,10.93a2.9,2.9,0,0,1-.5,3.54l-2,2A.52.52,0,0,1,261.25,124.6Z" fill="#2f2e41" data-secondary="true"/>
  <ellipse cx="248.64" cy="112.05" rx="1.53" ry="2.09" transform="translate(-12.68 34.03) rotate(-7.64)" fill="#2f2e41" data-secondary="true"/>
  <ellipse cx="267.99" cy="110.3" rx="1.53" ry="2.09" transform="translate(-12.28 36.58) rotate(-7.64)" fill="#2f2e41" data-secondary="true"/>
  <path d="M244.4,109.32h-.11a.49.49,0,0,1-.38-.59s.72-3.16,5-2.54a.5.5,0,0,1,.42.57.51.51,0,0,1-.57.42c-3.34-.5-3.83,1.66-3.85,1.76A.48.48,0,0,1,244.4,109.32Z" fill="#2f2e41" data-secondary="true"/>
  <path d="M265.21,106.61l-.1,0a.48.48,0,0,1-.39-.58s.71-3.17,5-2.55a.51.51,0,0,1,.43.57.5.5,0,0,1-.57.42c-3.32-.49-3.83,1.67-3.85,1.76A.5.5,0,0,1,265.21,106.61Z" fill="#2f2e41" data-secondary="true"/>
  <path d="M257.65,130a6.88,6.88,0,0,1-6.07-3.54.5.5,0,0,1,.22-.67.51.51,0,0,1,.68.22,5.78,5.78,0,0,0,5.41,3,.51.51,0,0,1,.52.49.5.5,0,0,1-.48.51Z" fill="#2f2e41" data-secondary="true"/>
  <ellipse cx="223.7" cy="121.55" rx="5.6" ry="7.42" transform="translate(-20.43 193.78) rotate(-45)" fill="#fff"/>
  <path d="M225.51,128.62a8.94,8.94,0,0,1-6.13-2.75c-3.08-3.09-3.66-7.54-1.28-9.91s6.83-1.81,9.91,1.28h0c3.09,3.09,3.66,7.53,1.29,9.91A5.26,5.26,0,0,1,225.51,128.62Zm-3.61-13.14a4.26,4.26,0,0,0-3.09,1.18c-2,2-1.41,5.8,1.28,8.5s6.51,3.27,8.5,1.28,1.41-5.8-1.29-8.49A7.87,7.87,0,0,0,221.9,115.48Z" fill="#2f2e41" data-secondary="true"/>
  <ellipse cx="158.74" cy="628.06" rx="7.67" ry="7.34" fill="#0071f2" data-primary="true"/>
  <path d="M158.74,635.9a7.85,7.85,0,1,1,8.17-7.84A8,8,0,0,1,158.74,635.9Zm0-14.68a6.85,6.85,0,1,0,7.17,6.84A7,7,0,0,0,158.74,621.22Z" fill="#2f2e41" data-secondary="true"/>
  <path d="M388,183.21,182.33,400.52l-.29-.13L167,384.33,371.69,167.69C386,169.26,387.83,181,388,183.21Z" fill="#fff"/>
  <path d="M182.45,401.12l-.78-.39-15.38-16.4.32-.34L371.5,167.17l.25,0c14.65,1.59,16.56,13.57,16.79,16l0,.23Zm-14.79-16.79,14.59,15.55L387.52,183c-.31-2.67-2.38-13.24-15.64-14.81Z" fill="#2f2e41" data-secondary="true"/>
  <polygon points="407.07 139.85 414.08 146.43 416.72 136.56 407.07 139.85" fill="#0071f2" data-primary="true"/>
  <path d="M414.35,147.36l-8.23-7.71,11.33-3.86Zm-6.33-7.3,5.8,5.43,2.18-8.15Z" fill="#2f2e41" data-secondary="true"/>
  <path d="M323.29,234.54l7.46-5.78a2.27,2.27,0,0,0,.71-2.62h0a2.26,2.26,0,0,0-2.49-1.39l-4.44.78a23.58,23.58,0,0,0-4.87,1.4,50.93,50.93,0,0,0-13,7.8l-4.73,3.88,9.59,22.06,24.16-4.62a31.49,31.49,0,0,0,15-7.28c2.52-2.25,4.38-4.63,3.34-6.22,0,0,5.12-3,2.23-6.69,0,0,1.84-3.81-.65-5.26a7.47,7.47,0,0,0-4.21,0s.4-6.3-8.14-2C343.25,228.63,334.06,234.28,323.29,234.54Z" fill="#fff"/>
  <path d="M311.18,261.24l-9.9-22.77,5-4.13a51.46,51.46,0,0,1,13.17-7.87,24.19,24.19,0,0,1,5-1.43l4.45-.78a2.75,2.75,0,0,1,2.16,4.89l-6.2,4.82A45.56,45.56,0,0,0,343,228.21c3.34-1.7,5.8-2,7.34-1a3.71,3.71,0,0,1,1.54,2.79,7.45,7.45,0,0,1,3.9.16c2.53,1.45,1.46,4.67,1.06,5.65a3.91,3.91,0,0,1,.74,3.06,6.9,6.9,0,0,1-2.9,3.88c.59,1.57-.63,3.72-3.65,6.41a32,32,0,0,1-15.29,7.4Zm-8.68-22.48,9.28,21.35,23.76-4.55a30.94,30.94,0,0,0,14.81-7.17c2.81-2.5,4-4.47,3.25-5.56l-.29-.44.46-.27s2.45-1.47,2.82-3.46a3,3,0,0,0-.73-2.49l-.19-.25.13-.28s1.61-3.41-.45-4.6h0a7.23,7.23,0,0,0-3.83.05l-.66.17,0-.69a3.07,3.07,0,0,0-1.11-2.55c-1.2-.79-3.38-.42-6.3,1.06-.06,0-9.4,5.7-20.17,6l-1.52,0,8.65-6.72a1.76,1.76,0,0,0-1.38-3.12l-4.45.78a22.81,22.81,0,0,0-4.76,1.38,50.28,50.28,0,0,0-12.91,7.71Z" fill="#2f2e41" data-secondary="true"/>
  <path d="M335.37,239.9a.5.5,0,0,1-.17-1,67.14,67.14,0,0,0,15.89-8.72.5.5,0,1,1,.61.79,68.25,68.25,0,0,1-16.15,8.87Z" fill="#2f2e41" data-secondary="true"/>
  <path d="M340.1,244.23a.5.5,0,0,1-.15-1c12.15-3.84,15.9-7.71,15.94-7.75a.49.49,0,0,1,.7,0,.5.5,0,0,1,0,.71c-.16.16-3.91,4.08-16.37,8A.39.39,0,0,1,340.1,244.23Z" fill="#2f2e41" data-secondary="true"/>
  <path d="M341.68,248.83a.49.49,0,0,1-.47-.34.48.48,0,0,1,.3-.63c8.47-3,12.17-5.68,12.21-5.71a.51.51,0,0,1,.7.1.5.5,0,0,1-.1.7c-.15.12-3.84,2.84-12.48,5.85A.45.45,0,0,1,341.68,248.83Z" fill="#2f2e41" data-secondary="true"/>
  <path d="M309.17,265.43l-77.84,33.19c-29.19,7.37-40-20.68-40-20.68l-19.53-58.29a67.17,67.17,0,0,1-3.09-13.51c-3.31-28.55,15.38-31.42,15.38-31.42,6.24-1.21,11.61,2,15.57,5.69A33.07,33.07,0,0,1,208.53,195l6.65,22.29,11.1,37.23a2.92,2.92,0,0,0,3.53,2l47.47-12.36,21.35-5.55a5.64,5.64,0,0,1,6.61,3.24L312.15,258A5.66,5.66,0,0,1,309.17,265.43Z" fill="#0071f2" data-primary="true"/>
  <path d="M222,300.33c-22.28,0-31-22-31.09-22.21l-19.53-58.31a67.26,67.26,0,0,1-3.12-13.61c-3.32-28.7,15.61-31.95,15.8-32,5.41-1,10.79.92,16,5.82a33.58,33.58,0,0,1,9,14.85l17.75,59.52a2.41,2.41,0,0,0,2.93,1.64l68.81-17.91a6.19,6.19,0,0,1,7.2,3.53l6.91,16.12a6.17,6.17,0,0,1-3.24,8.09l-77.84,33.2A38.55,38.55,0,0,1,222,300.33ZM186.87,175a13.7,13.7,0,0,0-2.63.25c-.77.12-18.19,3.17-15,30.88a65.2,65.2,0,0,0,3.07,13.4l19.52,58.29c.1.26,11,27.52,39.36,20.36L309,265a5.17,5.17,0,0,0,2.71-6.78l-6.91-16.12a5.17,5.17,0,0,0-6-3L229.94,257a3.4,3.4,0,0,1-4.14-2.32l-17.75-59.52a32.53,32.53,0,0,0-8.69-14.41C195.27,176.9,191.07,175,186.87,175Z" fill="#2f2e41" data-secondary="true"/>
  <path d="M218.63,291.66a15.18,15.18,0,0,1-14.37-10.38l-24.13-72.62a.51.51,0,0,1,.32-.64.5.5,0,0,1,.63.32L205.21,281a14.15,14.15,0,0,0,18.35,8.81l59.19-21.94a.5.5,0,0,1,.35.94l-59.19,21.94A15.14,15.14,0,0,1,218.63,291.66Z" fill="#2f2e41" data-secondary="true"/>
  <path d="M378.18,224.19a4.17,4.17,0,0,1-3.26-2.43,7.39,7.39,0,0,1-.8-3.24c-.12-2.77-.88-9.68-5.57-10.79-5.89-1.4-9.77-2.64-9.46-5.12a3.32,3.32,0,0,1,3.72-2.48s-1.39-5,5.12-5.12c0,0-1.71-6.66,6.2-5.58,0,0-1.55-6.2,7.91-3.88l5.22,1.12a7.77,7.77,0,0,1,5.71,5l3.89,10.82a4.9,4.9,0,0,1-1,5l-14,15.28A4.41,4.41,0,0,1,378.18,224.19Z" fill="#fff"/>
  <path d="M378.62,224.71a4,4,0,0,1-.49,0h0a4.72,4.72,0,0,1-3.65-2.68,7.89,7.89,0,0,1-.86-3.46c-.12-2.76-.85-9.3-5.18-10.32-5.81-1.38-10.22-2.67-9.85-5.67a3.78,3.78,0,0,1,3.63-2.94,4.47,4.47,0,0,1,.76-3.12,5.63,5.63,0,0,1,4.36-2,5.31,5.31,0,0,1,1-4.22c1.06-1.18,2.8-1.67,5.17-1.46a3.93,3.93,0,0,1,1-3.08c1.36-1.37,3.92-1.61,7.58-.71l5.21,1.11a8.24,8.24,0,0,1,6.07,5.3l3.89,10.82a5.38,5.38,0,0,1-1.1,5.47l-14,15.28A5,5,0,0,1,378.62,224.71Zm-.38-1a3.88,3.88,0,0,0,3.26-1.32l14-15.28a4.38,4.38,0,0,0,.9-4.45l-3.89-10.82a7.25,7.25,0,0,0-5.34-4.66L381.94,186c-3.27-.8-5.56-.65-6.65.44a3.27,3.27,0,0,0-.67,2.83l.17.72-.73-.1c-2.35-.33-4,0-4.93,1.06-1.31,1.46-.72,3.88-.72,3.9l.16.61h-.63c-2,.05-3.41.58-4.15,1.57a3.75,3.75,0,0,0-.5,2.92l.2.7-.73-.07a2.83,2.83,0,0,0-3.18,2.09c-.24,1.92,3.15,3.12,9.09,4.52,5,1.19,5.82,8.27,5.95,11.26a6.76,6.76,0,0,0,.74,3,3.7,3.7,0,0,0,2.88,2.17Z" fill="#2f2e41" data-secondary="true"/>
  <path d="M379.56,208.08a.51.51,0,0,1-.39-.19l-2.27-2.8a7.21,7.21,0,0,0-4.2-2.52l-10-1.95a.49.49,0,0,1-.4-.58.5.5,0,0,1,.59-.4l10,2a8.15,8.15,0,0,1,4.78,2.87l2.28,2.8a.5.5,0,0,1-.07.7A.51.51,0,0,1,379.56,208.08Z" fill="#2f2e41" data-secondary="true"/>
  <path d="M383,201.72a.52.52,0,0,1-.43-.24l-1.68-2.78a3.39,3.39,0,0,0-2.4-1.6l-10.6-1.59a.5.5,0,0,1,.14-1l10.61,1.59a4.37,4.37,0,0,1,3.1,2.07L383.4,201a.51.51,0,0,1-.43.76Z" fill="#2f2e41" data-secondary="true"/>
  <path d="M388.4,193.65a.46.46,0,0,1-.28-.08l-2.63-1.79a5.46,5.46,0,0,0-2.52-.92l-8.89-.93a.5.5,0,0,1-.44-.55.49.49,0,0,1,.55-.45l8.88.93a6.57,6.57,0,0,1,3,1.09l2.62,1.79a.49.49,0,0,1,.13.69A.47.47,0,0,1,388.4,193.65Z" fill="#2f2e41" data-secondary="true"/>
</svg>