 <!DOCTYPE svg PUBLIC "-//W3C//DTD SVG 1.1//EN" "http://www.w3.org/Graphics/SVG/1.1/DTD/svg11.dtd">
<svg xmlns="http://www.w3.org/2000/svg" id="a" viewBox="0 0 865.76 682.89">
  <defs>
<style xmlns="http://www.w3.org/1999/xhtml">*, ::after, ::before { box-sizing: border-box; }
img, svg { vertical-align: middle; }
</style>
<style xmlns="http://www.w3.org/1999/xhtml">*, body, html { }
img, svg { max-width: 100%; }
</style>
</defs>
<g>
    <path d="M506.17,508.92s-9.93-20.94-5.29-41.51c.92-4.09,2.54-8,4.66-11.61,2.59-4.41,7.66-12.37,16.44-23.78,1.21-1.58,2.14-3.35,2.72-5.25,1.49-4.86,3.58-14.8,1.23-27.55,0,0,16.86,5.78,23.12,19.26l.48-8.67s13,8.19,15.41,20.23c0,0,.96-5.78,4.33-7.71,0,0-.48,6.74,6.74,26,0,0,15.03,28.84-5.49,58.48l-13.78,4.12-41.9-.48-8.68-1.53Z" fill="#0071f2" data-primary="true"/>
    <g opacity=".7">
      <path d="M506.17,508.92s-9.93-20.94-5.29-41.51c.92-4.09,2.54-8,4.66-11.61,2.59-4.41,7.66-12.37,16.44-23.78,1.21-1.58,2.14-3.35,2.72-5.25,1.49-4.86,3.58-14.8,1.23-27.55,0,0,16.86,5.78,23.12,19.26l.48-8.67s13,8.19,15.41,20.23c0,0,.96-5.78,4.33-7.71,0,0-.48,6.74,6.74,26,0,0,15.03,28.84-5.49,58.48l-13.78,4.12-41.9-.48-8.68-1.53Z" fill="#fff"/>
    </g>
    <g opacity=".7">
      <path d="M506.17,508.92s-9.94-27.04,.83-46.24c.59-1.05,1.28-2.04,2.01-3,4.62-6.05,25.26-33.88,22.69-44.58,0,0,16.86,2.41,11.08,17.82l-11.08,19.26s-2.89,5.78,3.85,6.26c0,0,7.22,0,8.19-11.56,0,0-1.44-12.52,7.71-13.97,0,0,2.12,7.62,7.94,11.75,1.24,.88,2.43,1.81,3.5,2.89,6.46,6.51,23.34,27.71,7.63,59.26l-12.35,6.01-49.1-1.41-2.9-2.49Z" fill="#fff"/>
    </g>
    <path d="M506.17,508.92s-5.77-16.77,3.86-25.44c0,0,6.84-5.99,8.84-9.9,.13-.25,.5-.22,.59,.05,.55,1.79,1.44,6.77-2.25,14.28-.65,1.33-1.05,2.78-1.11,4.26-.16,3.56,1.42,8.65,11.75,8.65,0,0-2.89-5.3-.48-9.15,0,0,4.33,9.63,15.89,9.15,0,0-1.44-13.97,6.74-24.08,0,0,10.11-14.93-.48-27.93,0,0,11.08,4.33,14.45,25.52,0,0,.96,11.08-2.41,20.71,0,0,11.08-5.3,8.67-24.56,0,0,8.23,19.87-2.15,37.14l-11.05,5.04-49.89-1.25-.97-2.49Z" fill="#0071f2" data-primary="true"/>
    <path d="M738.77,615.91s-3.1,7.71,1.93,7.71c.48,0,40.45,.96,40.45,.96,0,0,3.85-.48,3.85-4.33,0,0,.96-5.78-1.44-5.3l-14.93-4.33-20.23,.96-9.63,4.33Z" fill="#f1f2f2"/>
    <path d="M602.49,615.43v4.05c0,2.28,1.85,4.13,4.13,4.13h68.58s1.93-1.44,1.44-5.78l-43.34-9.15-30.82,6.74Z" fill="#f1f2f2"/>
    <path d="M638.61,595.69s-13.97,11.08-25.04,13.97c0,0-9.15,2.41-11.08,5.78l24.9-.52,9.29,4.37,39.97-1.44s0-9.63-2.89-15.41l-10.59-8.67-12.52-2.89s-7.71,.48-12.04,4.82Z" fill="#0071f2" data-primary="true"/>
    <path d="M748.89,592.31l-2.89,16.37,34.67-.96c-1.6-2.66-3.34-6.04-4.82-10.11-1.58-4.37-2.43-8.33-2.89-11.56-8.03,2.09-16.05,4.17-24.08,6.26Z" fill="#f9b499"/>
    <path d="M645.83,576.9l-.23,4.43c-.16,3.09-1.19,6.07-2.96,8.6l-4.03,5.76s8.19-4.33,13,1.93c0,0,10.11,14.93,22.15,4.82l-1.53-14.16-26.4-11.36Z" fill="#f9b499"/>
    <path d="M654.98,312.52l-10.51,263.15c-.05,1.31,.74,2.5,1.96,2.96l39,14.68c1.88,.71,3.91-.57,4.09-2.57l17.46-193.47,30.74,194.85c.3,1.93,2.18,3.19,4.08,2.76l38-8.67c1.61-.37,2.72-1.85,2.61-3.49l-16.68-267.3-110.76-2.89Z" fill="#2f2e41" data-secondary="true"/>
    <g opacity=".2">
      <path d="M654.98,312.52l-10.51,263.15c-.05,1.31,.74,2.5,1.96,2.96l39,14.68c1.88,.71,3.91-.57,4.09-2.57l17.46-193.47,30.74,194.85c.3,1.93,2.18,3.19,4.08,2.76l38-8.67c1.61-.37,2.72-1.85,2.61-3.49l-16.68-267.3-110.76-2.89Z"/>
    </g>
    <g opacity=".2">
      <path d="M706.99,397.78c-.24,0-.46-.18-.49-.43l-9.63-65.49c-.04-.27,.15-.53,.42-.57,.26-.04,.53,.15,.57,.42l9.63,65.49c.04,.27-.15,.53-.42,.57-.02,0-.05,0-.07,0Z"/>
    </g>
    <path d="M800.9,243.67l-.46,18.3s-.97,7.7-13.01,7.7l-18.78,30.82,1.45,16.37s-20.71,15.41-92.47,5.78c0,0-36.6-4.06-31.89-22.71,.25-.98,.63-1.92,1.05-2.84,3.11-6.78,20.63-46.71,14.47-72.21,0,0-2.89,22.16-10.59,20.23,0,0-2.41,0-.97,5.3,0,0,1.45,7.22-4.81,7.22,0,0-.97,6.26-8.19,5.78,0,0-6.26,8.67-14.45-2.89l-17.33-19.26s-3.37-20.23,11.56-31.79c0,0,.96-3.85,4.33-4.33l8.19-16.86s2.89-18.78,26.48-33.71c0,0,6.26-3.85,20.23-8.66l3.85-4.82v-3.73c.03-.53,.24-1.03,.62-1.42,.95-.98,3.25-2.52,8.29-2.73l23.77-8.52s8.25,.51,6.33,7.73c-.01,.61,.06,1.48,.48,2.41,1.15,2.55,3.91,3.27,4.33,3.37,8.83,2.09,17.66,4.18,26.49,6.26l10.72,3.69c3.26,1.12,6.02,3.37,7.73,6.37,2.78,4.87,7.09,13.69,11.41,27.5,0,0,5.3,18.79,12.04,26.01,0,0,8.56,6.91,8.8,14.2,.06,1.91-.65,3.74-1.74,5.31-.48,.7-.96,1.83-.36,3.17,.34,.77,1,1.34,1.76,1.69,1.8,.83,5.83,3.51,1.22,9.62-.36,.47-.54,1.05-.55,1.64Z" fill="#0071f2" data-primary="true"/>
    <path d="M611.64,398.26c-.25,0-.47-.19-.5-.44l-11.08-94.39c-.03-.27,.16-.52,.44-.55,.28-.03,.52,.16,.56,.44l11.08,94.39c.03,.27-.16,.52-.44,.55-.02,0-.04,0-.06,0Z" fill="#2f2e41" data-secondary="true"/>
    <path d="M612.6,434.38c-.14,0-.28-.06-.38-.18-.18-.21-.15-.53,.06-.71l142.86-121.53c.21-.18,.53-.15,.71,.06,.18,.21,.15,.53-.06,.71l-142.86,121.53c-.09,.08-.21,.12-.32,.12Z" fill="#2f2e41" data-secondary="true"/>
    <g opacity=".2">
      <path d="M690.14,138.67s-4.77,.66-10.6-1.32c.03-.53,.24-1.03,.62-1.42,.95-.98,3.25-2.52,8.29-2.73l1.69,5.47Z"/>
    </g>
    <path d="M456.86,627.96c-.51,0-1-.17-1.39-.43-.82-.56-1.42-1.69-.88-2.96l32.73-77.61c.11-.25,.4-.37,.66-.27,.25,.11,.37,.4,.27,.66l-32.73,77.61c-.34,.8,.07,1.44,.52,1.74,.45,.31,1.2,.44,1.81-.17l76.42-79.45c.19-.2,.51-.2,.71-.01,.2,.19,.21,.51,.01,.71l-76.43,79.46c-.52,.52-1.12,.73-1.69,.73Z" fill="#2f2e41" data-secondary="true"/>
    <path d="M564.77,625.18c-1.04,0-1.92-.67-2.19-1.69l-18.78-75.94c-.07-.27,.1-.54,.37-.61,.27-.07,.54,.1,.61,.37l18.78,75.93c.18,.69,.77,.94,1.23,.94,0,0,.02,0,.03,0,.46,0,1.06-.28,1.22-1l15.53-75.57c.06-.27,.33-.44,.59-.39,.27,.06,.44,.32,.39,.59l-15.53,75.58c-.23,1.05-1.11,1.76-2.17,1.79-.02,0-.03,0-.05,0Z" fill="#2f2e41" data-secondary="true"/>
    <path d="M639.53,627.85c-.78,0-1.6-.3-2.27-1.05l-68.38-78.76c-.18-.21-.16-.52,.05-.71,.21-.18,.52-.16,.71,.05l68.37,78.76c.83,.93,1.92,.81,2.6,.42,.68-.39,1.34-1.27,.95-2.47l-27.64-76.21c-.09-.26,.04-.55,.3-.64,.26-.09,.55,.04,.64,.3l27.64,76.23c.54,1.67-.31,3.04-1.4,3.66-.46,.26-1.01,.42-1.58,.42Z" fill="#2f2e41" data-secondary="true"/>
    <polygon points="524.54 504.1 556.74 510.93 606.82 496 606.82 512.89 524.48 512.89 524.54 504.1" fill="#2f2e41" data-secondary="true"/>
    <path d="M472.04,502.75l39.1,6.89s-1.03,1.11-2.51,3.36l-18.48-.13s-16.02-8.58-18.12-10.11c-.01,0,0-.02,.01-.02Z" fill="#2f2e41" data-secondary="true"/>
    <path d="M683.76,128.08l2.38,10.59s19.41,5.3,28.08-10.11c0,0-1.93-1.44-2.41-8.19l-.48-13.97-4.98-2.03s-9.95,7.33-9.95,7.81-12.64,15.89-12.64,15.89Z" fill="#f9b499"/>
    <g opacity=".2">
      <path d="M700.47,158.51c-.59,0-1.18-.02-1.78-.06-17.66-1.14-23.4-12.22-23.45-12.33-.12-.25-.02-.55,.22-.67,.24-.12,.55-.02,.67,.22,.05,.11,5.56,10.67,22.62,11.78,5.99,.39,11.81-1.26,16.41-4.62,3.33-2.44,5.77-5.48,7.25-9.05,.11-.26,.4-.38,.65-.27,.25,.11,.38,.4,.27,.65-1.56,3.74-4.11,6.93-7.59,9.47-4.33,3.17-9.7,4.87-15.28,4.87Z"/>
    </g>
    <g opacity=".2">
      <path d="M623.92,260.2s5.06,7.05,9.39,2.24c0,0,4.33-4.82-1.93-18.78,0,0-4.33-15.41-15.41-15.89,0,0-5.3-.55-6.5,2.86,.24,.03,14.21,29.75,14.45,29.58Z"/>
    </g>
    <g opacity=".2">
      <path d="M641.02,253.79c-.28,0-.5-.22-.5-.5v-16.61c0-6.64-2.58-13.05-7.08-17.59-11.33-11.43-23.79-1.12-23.91-1.02-.21,.18-.53,.15-.71-.06-.18-.21-.15-.53,.06-.71,.13-.11,13.3-11,25.27,1.08,4.69,4.73,7.37,11.4,7.37,18.3v16.61c0,.28-.22,.5-.5,.5Z"/>
    </g>
    <g opacity=".2">
      <path d="M638.13,212.85c-.12,0-.25-.05-.35-.14-10.63-10.17-20.61-3.15-21.03-2.85-.22,.16-.54,.11-.7-.11-.16-.22-.11-.54,.11-.7,.11-.08,11.06-7.83,22.31,2.93,.2,.19,.21,.51,.02,.71-.1,.1-.23,.15-.36,.15Z"/>
    </g>
    <g opacity=".2">
      <path d="M619.35,208.04c-.09,0-.17-.02-.25-.07-.24-.14-.32-.45-.18-.68,4.96-8.43,21.55-3.33,22.25-3.11,.26,.08,.41,.36,.33,.63-.08,.26-.36,.41-.63,.33-.17-.05-16.53-5.08-21.09,2.67-.09,.16-.26,.25-.43,.25Z"/>
    </g>
    <g opacity=".2">
      <path d="M767.67,249.44s-.37-4.45,7.02-4.89c2.14-.13,4.27,.17,6.32,.78,4.58,1.37,13.45,4.91,15.29,12.07,.68,2.64,.21,5.49-1.48,7.62-1.38,1.75-3.79,3.43-7.89,3.19l-19.26-18.78Z"/>
    </g>
    <g opacity=".2">
      <path d="M763.33,256.2c-.18,0-.35-.1-.44-.27-.24-.47-5.89-11.48,.11-16.97,.28-.33,7.92-9.17,16.49-5.79,.61,.24,1.23,.36,1.85,.36h7.53c.29,0,7.09,.07,10.08,6.06,.12,.25,.02,.55-.22,.67-.25,.12-.55,.02-.67-.22-2.71-5.42-9.12-5.5-9.19-5.5h-7.53c-.74,0-1.48-.15-2.21-.43-7.9-3.12-15.33,5.47-15.4,5.55-5.47,5.02,0,15.71,.06,15.82,.13,.24,.03,.55-.21,.67-.07,.04-.15,.06-.23,.06Z"/>
    </g>
    <g opacity=".2">
      <path d="M763.9,239.33s-.05,0-.07,0c-.27-.04-.46-.29-.42-.57,.02-.13,2-12.85,12.29-16.28,.04-.01,.08-.02,.12-.02l13-.96c.27-.02,.52,.19,.54,.46,.02,.28-.19,.52-.46,.54l-12.94,.96c-9.65,3.26-11.54,15.34-11.56,15.46-.04,.25-.25,.43-.49,.43Z"/>
    </g>
    <g opacity=".2">
      <path d="M763.33,239.82c-.26,0-.48-.2-.5-.47-.97-14.55,12.11-24.42,12.24-24.51,.22-.16,.54-.12,.7,.1,.17,.22,.12,.54-.1,.7-.13,.09-12.77,9.64-11.84,23.64,.02,.28-.19,.51-.47,.53-.01,0-.02,0-.03,0Z"/>
    </g>
    <g opacity=".2">
      <path d="M763.82,233.08c-.28,0-.5-.22-.5-.5v-3.93c0-2.46-.56-4.94-1.62-7.15-3.04-6.32-4.1-12.66-4.47-15.88-.14-1.28-.39-2.61-.73-3.98-3.21-12.88-2.81-27.21-2.81-27.35,0-.28,.22-.48,.51-.48,.28,0,.49,.24,.49,.52,0,.14-.39,14.33,2.78,27.08,.35,1.41,.6,2.79,.75,4.11,.36,3.15,1.41,9.37,4.38,15.56,1.13,2.34,1.72,4.96,1.72,7.58v3.93c0,.28-.22,.5-.5,.5Z"/>
    </g>
    <g opacity=".2">
      <path d="M743.11,178.66s-.03,0-.04,0c-.28-.02-.48-.27-.46-.54,.02-.26,2.42-26.04,21.99-28.43,.27-.04,.52,.16,.56,.44,.03,.27-.16,.52-.44,.56-18.77,2.29-21.09,27.27-21.11,27.52-.02,.26-.24,.46-.5,.46Z"/>
    </g>
    <path d="M600.94,304.75l-1.52,.13c-1.45,.12-2.72-.97-2.83-2.42l-.18-2.29-.83-10.44,6.77-.54,.8,10.1,.21,2.62c.12,1.45-.97,2.72-2.42,2.83Z" fill="#2f2e41" data-secondary="true"/>
    <path d="M600.94,304.75l-1.52,.13c-1.45,.12-2.72-.97-2.83-2.42l-.18-2.29,6.74-.88,.21,2.62c.12,1.45-.97,2.72-2.42,2.83Z" fill="#f1f2f2"/>
    <path d="M619.83,421.38c-.24,0-.46-.18-.49-.43l-2.61-17.55c-.4-2.66-2.72-4.66-5.41-4.66-1.54,0-2.96,.62-4,1.74-1.05,1.12-1.56,2.59-1.45,4.12l.98,13.35c.02,.28-.19,.52-.46,.54-.25,.02-.51-.19-.54-.46l-.98-13.35c-.13-1.79,.5-3.56,1.71-4.87,1.22-1.31,2.94-2.06,4.73-2.06,3.18,0,5.93,2.37,6.39,5.51l2.61,17.55c.04,.27-.15,.53-.42,.57-.02,0-.05,0-.07,0Z" fill="#2f2e41" data-secondary="true"/>
    <rect x="596.28" y="401.13" width="30.34" height="7.06" rx="3.53" ry="3.53" transform="translate(72.85 -92.87) rotate(9.23)" fill="#0071f2" data-primary="true"/>
    <rect x="596.76" y="411.25" width="30.34" height="7.06" rx="3.53" ry="3.53" transform="translate(74.48 -92.81) rotate(9.23)" fill="#0071f2" data-primary="true"/>
    <path d="M770.24,301.42c0,.82-.33,1.63-.97,2.23l-9.38,8.74-.11,.1c-1.24,1.15-3.17,1.08-4.32-.15-1.15-1.24-1.08-3.17,.15-4.32l.55-.52,8.93-8.33c1.23-1.15,3.17-1.08,4.32,.15,.55,.59,.82,1.34,.82,2.09Z" fill="#2f2e41" data-secondary="true"/>
    <path d="M759.89,312.39l-.11,.1c-1.24,1.15-3.17,1.08-4.32-.15-1.15-1.24-1.08-3.17,.15-4.32l.55-.52,3.72,4.89Z" fill="#f1f2f2"/>
    <path d="M589.49,460.86c-.14,0-.28-.06-.38-.18-.18-.21-.15-.53,.06-.7l21.24-17.77c1.29-1.08,2.08-2.6,2.22-4.28,.14-1.68-.39-3.31-1.48-4.59-2.19-2.56-5.98-2.93-8.62-.84l-22.36,17.65c-.22,.17-.53,.13-.7-.08-.17-.22-.13-.53,.08-.7l22.36-17.65c3.06-2.42,7.46-1.99,10,.97,1.27,1.48,1.88,3.37,1.72,5.32-.16,1.95-1.08,3.71-2.57,4.96l-21.25,17.77c-.09,.08-.21,.12-.32,.12Z" fill="#2f2e41" data-secondary="true"/>
    <g opacity=".2">
      <path d="M699.8,351.65c-.12,0-.25-.05-.35-.14l-12.55-12.14c-.2-.19-.2-.51-.01-.71,.19-.2,.51-.2,.71-.01l12.55,12.14c.2,.19,.2,.51,.01,.71-.1,.1-.23,.15-.36,.15Z"/>
    </g>
    <g opacity=".2">
      <path d="M757.07,350.58c-.1,0-.21-.03-.3-.1-9.12-6.72-16.42-17.84-16.5-17.95-.15-.23-.09-.54,.15-.69,.23-.15,.54-.09,.69,.15,.07,.11,7.28,11.08,16.25,17.69,.22,.16,.27,.48,.11,.7-.1,.13-.25,.2-.4,.2Z"/>
    </g>
    <path d="M746.26,604.27c-2.63,2.78-5.22,6.54-7.48,11.64,0,0,1.76,1.18,5.29-.15,4.08-1.53,8.35-2.54,12.71-2.68,5.36-.18,12.1,.18,17.64,2.35,0,0,6.74,3.37,9.15,.96,0,0,.27-8.67-8.13-14.83-8.95-6.57-21.54-5.36-29.18,2.71Z" fill="#0071f2" data-primary="true"/>
    <g opacity=".2">
      <path d="M661.24,225.38c-.22,0-.42-.15-.48-.37-.03-.11-.73-2.85-.97-8.18-.31-7.03,.64-14.4,2.84-21.89,1.22-4.17,2.21-10.2-.02-15.23-.11-.25,0-.55,.25-.66,.25-.11,.55,0,.66,.25,2.36,5.3,1.34,11.58,.07,15.91-2.16,7.39-3.1,14.64-2.8,21.56,.23,5.21,.93,7.95,.94,7.97,.07,.27-.09,.54-.36,.61-.04,.01-.08,.02-.13,.02Z"/>
    </g>
    <path d="M684.9,133.07l-1.34-6.07,12-4s-2.33,8.13-10.66,10.07Z" fill="#f4a58c"/>
    <rect x="667.26" y="69.73" width="38.19" height="59.84" rx="19.09" ry="19.09" transform="translate(-4.56 160.11) rotate(-13.26)" fill="#f9b499"/>
    <path d="M665.99,95.94s-9.56-7.35-5.71-18.42c0,0,1.93-9.15,13-9.63,.48,0,6.26,0,11.56-3.85,0,0,13-5.3,15.41,4.82,0,0,18.3-7.22,13.97,25.52l-7.99,5.12s-10.97-7.32-9.06-14.92c.2-.82,.6-1.57,1.07-2.27,.95-1.39,2.78-5.24-4.25-7.19,0,0-6.26-1.93-11.08,3.37,0,0-5.3,8.19-13.97,5.3,0,0-6.39-.71-2.96,12.16Z" fill="#2f2e41" data-secondary="true"/>
    <ellipse cx="711.81" cy="100.63" rx="6.26" ry="8.19" fill="#f9b499"/>
    <path d="M631.38,252.81s-5.4,4.75-9.69,10.21c-2.89,3.67-4.75,8.05-5.41,12.68l-1.4,9.77c-.23,1.63-.95,3.16-2.06,4.37l-8.04,8.8c-.24,.27-.62,.37-.96,.25-.85-.3-2.3-1.11-1.93-3.2,.13-.74,.17-1.5,.05-2.24-.16-1.02-.62-2.13-1.82-2.23-.56-.05-1.11,.16-1.54,.52-1.02,.85-3.09,3.04-2.36,6.34,0,0-5.3,.96-6.74-2.41,0,0-2.55-.42-2.86-4.46-.06-.84-.22-1.66-.51-2.45s-.77-1.82-1.45-2.73c0,0-2.89-5.3,2.41-10.59,0,0,13-11.56,14.93-22.63l3.37-13.48s.76-11.08,9.78-10.1c2.4,.26,4.64,1.34,6.42,2.96,3.07,2.79,7.9,8.89,9.81,20.63Z" fill="#f9b499"/>
    <path d="M589.49,296.17c-.24,0-.45-.17-.49-.41-.98-5.37,.44-9.25,.51-9.41,.1-.26,.38-.39,.64-.29,.26,.1,.39,.38,.29,.64-.01,.04-1.38,3.8-.46,8.89,.05,.27-.13,.53-.4,.58-.03,0-.06,0-.09,0Z" fill="#f4a58c"/>
    <path d="M767.36,251.12l-3.33,17.92c-.14,.73-.41,1.43-.82,2.05l-4.74,7.29c-.63,.96-.89,2.12-.74,3.26,.24,1.77,.84,4.73,2.31,8.63,.29,.76,.44,1.56,.47,2.38,.1,2.37,.27,7.37,.03,9.96-.03,.3,.3,.48,.54,.31l5.48-3.91s1,0,1.11,.04c0,0-.93,5.18-2.49,8.02-.27,.49,.05,1.11,.61,1.1,1.34-.02,3.81-.5,7.66-2.86,0,0,1.58,3.96,6.54,.04,.92-.73,1.73-1.58,2.47-2.49l7.37-9.1s2.89-3.85,0-11.08c0,0-4.82-8.67-1.93-16.37,.35-.35,2.42-4.41,3.57-6.68,.58-1.15,.66-2.5,.18-3.7-.91-2.27-3.22-5.78-9.05-7.93,0,0-7.59-3.99-13.31,.02-1.03,.72-1.7,1.86-1.93,3.1Z" fill="#f9b499"/>
    <path d="M790.78,291.35c-.28,0-.5-.22-.5-.5,0-.37-.25-.46-.47-.46-.27,0-.49-.23-.49-.5s-.11-.36-.14-.4c-.27-.21-.9-.15-1.16-.08-.04,0-.08,.01-.12,.01-2.13,0-3.1-1.39-3.35-2.21-3.08-4.28-8.67-.9-8.91-.76-.13,.08-.29,.1-.43,.05-.14-.05-.25-.16-.3-.3-.76-2.13-1.83-3.45-3.18-3.93-1.7-.61-3.3,.33-3.32,.34-.23,.14-.54,.07-.69-.17-.14-.24-.07-.54,.17-.69,.08-.05,2.03-1.19,4.17-.42,1.52,.54,2.72,1.89,3.58,3.99,1.65-.83,6.77-2.91,9.78,1.39,.04,.05,.06,.11,.08,.17,.02,.06,.43,1.52,2.35,1.55,.29-.06,1.3-.23,1.95,.28,.18,.14,.39,.38,.48,.75,.5,.15,1.01,.57,1.01,1.39,0,.28-.22,.5-.5,.5Z" fill="#f4a58c"/>
    <path d="M767.35,298.6c-.27,0-.49-.21-.5-.48-.31-6.97-2.48-10.84-2.5-10.88-.14-.24-.05-.54,.19-.68,.24-.14,.54-.05,.68,.18,.09,.16,2.31,4.09,2.63,11.33,.01,.28-.2,.51-.48,.52,0,0-.02,0-.02,0Z" fill="#f4a58c"/>
    <path d="M773.45,305.8c-.08,0-.16-.02-.24-.06-.24-.13-.33-.44-.2-.68,.03-.05,2.55-4.8,2.55-12.56,0-.28,.22-.5,.5-.5s.5,.22,.5,.5c0,8.04-2.56,12.84-2.67,13.04-.09,.17-.26,.26-.44,.26Z" fill="#f4a58c"/>
    <rect x="587.61" y="436.77" width="30.34" height="7.06" rx="3.53" ry="3.53" transform="translate(527.28 -302.34) rotate(48.05)" fill="#0071f2" data-primary="true"/>
    <rect x="575.09" y="445.92" width="30.34" height="7.06" rx="3.53" ry="3.53" transform="translate(553.96 -291.56) rotate(49.91)" fill="#0071f2" data-primary="true"/>
    <g>
      <path d="M465.28,513.01c.68-3.17,1.92-5.2,2.85-6.41,1.04-1.36,2.66-2.96,3.43-3.59,.22-.19,.54-.21,.78-.06,1.12,.68,4.46,2.68,4.46,2.68,3.37,1.93,13.34,7.25,13.34,7.25l-24.86,.13Z" fill="#2f2e41" data-secondary="true"/>
      <path d="M508.63,513.01s4.67-8.69,12.87-9.29c1.03-.07,2.06,.06,3.05,.38,2.49,.8,7.46,3.06,10.38,8.91h-26.29Z" fill="#2f2e41" data-secondary="true"/>
      <path d="M588.84,512.89l16.19-15.63c1.21-1.17,2.89-1.76,4.57-1.57,5.59,.62,17.86,3.54,19.57,17.21h-40.33Z" fill="#2f2e41" data-secondary="true"/>
    </g>
    <g opacity=".2">
      <path d="M465.28,513.01c.68-3.17,1.92-5.2,2.85-6.41,1.04-1.36,2.66-2.96,3.43-3.59,.22-.19,.54-.21,.78-.06,1.12,.68,4.46,2.68,4.46,2.68,3.37,1.93,13.34,7.25,13.34,7.25l-24.86,.13Z"/>
      <path d="M508.63,513.01s4.67-8.69,12.87-9.29c1.03-.07,2.06,.06,3.05,.38,2.49,.8,7.46,3.06,10.38,8.91h-26.29Z"/>
      <path d="M588.84,512.89l16.19-15.63c1.21-1.17,2.89-1.76,4.57-1.57,5.59,.62,17.86,3.54,19.57,17.21h-40.33Z"/>
    </g>
    <rect x="443.09" y="512.86" width="214.78" height="4.33" fill="#e6e7e8"/>
    <polygon points="443.09 517.19 472.47 547.53 631.87 547.53 657.87 517.19 443.09 517.19" fill="#f1f2f2"/>
  </g>
  <g>
    <path d="M82.25,403.04l-5.34-.53-11.13,31.68c-2.68,7.64-3.95,15.73-3.51,23.81,.39,7.1,2.09,14,7.16,14.51l8.55-32.59s-2.67-12.29-2.14-12.82,9.62-22.44,9.62-22.44l-3.21-1.6Z" fill="#e6e7e8"/>
    <path d="M94.01,405.18l-11.76-2.14s-11.76,23.51-14.96,35.8c0,0-6.89,22.25,2.02,33.51,.06,.07,.17,.06,.22-.01l19.67-32.43,4.81-24.58v-10.15Z" fill="#0071f2" data-primary="true"/>
    <path d="M149.04,579.9l-1.42,3.42c-.79,1.9-.73,4.06,.17,5.91l15.61,32.07c1.68,3.45,5.15,5.65,8.98,5.71l28.48,.44v-3.21l-19.77-11.22-14.96-4.81-9.08-24.05-8.02-4.27Z" fill="#e6e7e8"/>
    <path d="M153.85,569.22l-4.81,10.69,14.43,34.73s2.67,9.62,12.29,9.08l25.11,.53s1.6-3.74-6.41-5.88c0,0-6.95-2.67-12.82-16.56l-18.17-24.05-9.62-8.55Z" fill="#0071f2" data-primary="true"/>
    <path d="M176.94,568.42l-1.99,11.12c-.17,.94-.1,1.91,.2,2.81l6.49,19.46s-7.48-1.07-12.82,3.74c-.79,.71-15.08-36.53-15.08-36.53l23.21-.61Z" fill="#f9b499"/>
    <path d="M152.78,235.79l-1.6,11.22s-14.83,25.89-20.7,51.33c-3.84,16.66,.05,34.16,10.51,47.69l41.72,55.4-73.2,3.21s-11.76,26.18-1.6,51.3l51.83-2.67-19.77,116.49,48.62-1.6,26.18-119.69s36.87-9.62,22.98-49.16l-8.02-24.05-7.48-117.55,2.67-10.69-11.76-19.77-39.54-5.34-19.24,9.62-1.6,4.27Z" fill="#2f2e41" data-secondary="true"/>
    <g opacity=".2">
      <path d="M145.3,282.21c-.26,0-.46-.21-.46-.46s.21-.46,.46-.46c.1,0,9.95-.17,16.15-12.57l12.02-23.55c.12-.23,.4-.32,.62-.2,.23,.12,.32,.4,.2,.62l-12.02,23.55c-6.46,12.93-16.87,13.08-16.98,13.08Z"/>
    </g>
    <g opacity=".2">
      <path d="M200.87,298.77c-.15,0-.3-.07-.39-.21-.14-.21-.08-.5,.13-.64,1.17-.78,1.79-3.88,1.93-5.01-1.59-20.59,4.42-41.65,4.48-41.86l3.98-10.42c.09-.24,.36-.36,.6-.27,.24,.09,.36,.36,.27,.6l-3.97,10.38c-.05,.17-6.01,21.08-4.44,41.59-.06,.55-.61,4.61-2.34,5.77-.08,.05-.17,.08-.26,.08Z"/>
    </g>
    <g opacity=".2">
      <path d="M201.41,303.05c-.22,0-.41-.15-.46-.37-3.71-18.05,2.34-52.76,2.4-53.11,.04-.25,.29-.42,.54-.38,.25,.04,.42,.29,.38,.54-.06,.35-6.09,34.89-2.41,52.76,.05,.25-.11,.5-.36,.55-.03,0-.06,0-.09,0Z"/>
    </g>
    <g opacity=".2">
      <path d="M229.73,375.72c-.18,0-.34-.1-.42-.27l-25.65-56.1c-.11-.23,0-.51,.23-.62,.23-.11,.51,0,.62,.23l25.65,56.1c.11,.23,0,.51-.23,.62-.06,.03-.13,.04-.19,.04Z"/>
    </g>
    <g opacity=".2">
      <path d="M206.22,407.78c-.14,0-.28-.06-.37-.18l-41.14-53.97c-22.29-31.84-20.95-64.1-20.93-64.42,.01-.26,.23-.45,.49-.44,.26,.01,.45,.23,.44,.49-.02,.32-1.33,32.28,20.76,63.83l41.13,53.95c.16,.2,.12,.5-.09,.65-.08,.06-.18,.1-.28,.1Z"/>
    </g>
    <path d="M236.09,218s12.88,27.41,29.98,25.81c0,0,8.24,1.57,19.35-17.5,3.23-5.55,5.8-11.46,7.78-17.56l12.41-38.14s22.31-24.74,22.11-36.32c-.02-1.01-1.2-1.54-2-.91-1.2,.96-3.06,3.1-5.69,7.84l6.7-16.27c.45-1.08,.02-2.33-1-2.91h0c-1.09-.62-2.48-.27-3.14,.8l-7.37,11.97,7.54-15.56c.56-1.15,.09-2.53-1.06-3.1l-1.2-.6c-1.15-.58-2.55-.11-3.13,1.04l-9.11,18.22,5.22-16.59c.37-1.18-.25-2.45-1.41-2.88l-.34-.13c-1.07-.4-2.28,.03-2.85,1.03l-12.38,21.78-.84-10.87c-.13-1.66-1.59-2.9-3.26-2.75h0c-1.6,.15-2.8,1.52-2.72,3.12l.34,7.16c.03,.73-.05,1.45-.22,2.16-.48,1.88-1.2,6.22,.82,10.26,0,0,3.74,6.41-.53,14.96l-25.65,47.02-2.14-3.74s-9.23,8.88-26.24,12.66Z" fill="#f9b499"/>
    <circle cx="119.65" cy="86.18" r="10.69" fill="#0071f2" data-primary="true"/>
    <polygon points="139.96 215.49 125.09 213.73 122.86 209.08 129.16 205.22 139.96 215.49" fill="#0071f2" data-primary="true"/>
    <g opacity=".2">
      <polygon points="139.96 215.49 125.09 213.73 122.86 209.08 129.16 205.22 139.96 215.49"/>
    </g>
    <path d="M149.23,128.95c-.89-2.55-1.06-5.92,1.42-9.65,0,0-6.95-6.41-3.74-15.5,0,0-6.41-15.5,4.81-23.51,0,0-4.81-11.22,8.02-12.82,0,0-.53-12.82,14.43-9.62,0,0,8.02-6.41,14.96,1.6,0,0,4.81-5.34,11.22,5.34,.53,.53,8.55-2.67,10.69,10.15,0,0,7.48-1.07,4.27,9.62,0,0,6.41,1.6,4.81,9.08,0,0,12.82,3.74,5.88,18.17,0,0,6.95,1.6,4.81,11.22,0,0,4.81,1.6,0,10.69l-.19,7.9-28.13,6.52-47.07-13.52c-2.84-.82-5.21-2.9-6.19-5.69Z" fill="#2f2e41" data-secondary="true"/>
    <path d="M174.69,127.32l-19.35,5.89c-3.41,1.04-6.42,3.08-8.65,5.86l-37.72,47.03,30.99,29.39,13.89-19.24-.53,18.7s-9.62,12.29-.53,20.84c0,0,47.56-5.88,72.14,11.22,0,0,4.27-.53,3.74-4.81l3.21-23.51s21.91-2.14,30.99-13.89l-19.77-48.09s-4.97-10.43-18.26-19.32c-1-.67-2.05-1.25-3.12-1.79l-19.76-9.88-12.29,1.6h-14.96Z" fill="#0071f2" data-primary="true"/>
    <path d="M80.65,197.85c0,32.17,17.63,33.13,17.63,33.13,0,0,19.54,4.58,30.88-25.76l-20.19-19.12-1.07,1.6-1.6-59.85s5.34-4.27,6.41-12.82l.53-6.41s2.14-1.07,1.6-5.88l-22.98,33.13s-1.6,2.14-3.74,1.6c0,0-7.48,30.99-7.48,60.38Z" fill="#f9b499"/>
    <path d="M107.9,207.4c-.26,0-.46-.21-.46-.46v-19.24c0-.26,.21-.46,.46-.46s.46,.21,.46,.46v19.24c0,.26-.21,.46-.46,.46Z" fill="#f4a58c"/>
    <g opacity=".2">
      <path d="M153.85,196.72c-.08,0-.16-.02-.23-.06-.22-.13-.3-.41-.17-.63l11.22-19.77c.13-.22,.41-.3,.63-.17,.22,.13,.3,.41,.17,.63l-11.22,19.77c-.08,.15-.24,.24-.4,.24Z"/>
    </g>
    <g opacity=".2">
      <path d="M167.21,171.6c-.23,0-.43-.17-.46-.4-2.62-18.35-15.57-34.07-15.7-34.23-.16-.2-.14-.49,.06-.65,.2-.16,.49-.14,.65,.06,.13,.16,13.24,16.07,15.9,34.69,.04,.25-.14,.49-.39,.52-.02,0-.04,0-.07,0Z"/>
    </g>
    <g opacity=".2">
      <path d="M231.87,219.16s-.05,0-.07,0c-.25-.04-.43-.27-.39-.53l2.33-15.83c.21-1.45,.04-2.93-.5-4.29l-6.43-16.08c-.85-2.11-1.27-4.34-1.27-6.62v-5.21c0-.26,.21-.46,.46-.46s.46,.21,.46,.46v5.21c0,2.16,.41,4.27,1.21,6.27l6.43,16.08c.6,1.51,.8,3.16,.56,4.77l-2.33,15.83c-.03,.23-.23,.4-.46,.4Z"/>
    </g>
    <g opacity=".2">
      <path d="M223.85,168.4c-.08,0-.16-.02-.23-.06-.22-.13-.3-.41-.18-.63,4.72-8.38,7.88-24.88,7.91-25.04,.05-.25,.3-.42,.54-.37,.25,.05,.42,.29,.37,.54-.03,.17-3.22,16.81-8.01,25.32-.08,.15-.24,.24-.4,.24Z"/>
    </g>
    <g opacity=".2">
      <path d="M233.01,212.19c-.2,0-.39-.13-.45-.34-.07-.25,.07-.5,.32-.57,.18-.05,18.17-5.26,27.04-12.91,.2-.17,.49-.15,.66,.05,.17,.19,.15,.49-.05,.65-9.02,7.79-27.21,13.05-27.39,13.1-.04,.01-.09,.02-.13,.02Z"/>
    </g>
    <g opacity=".2">
      <path d="M211.56,235.72c-.09,0-.18-.03-.26-.08-3.07-2.04-9.86-2.59-9.93-2.59-7.01-1.08-15.37-6.78-15.72-7.03-8.76-4.57-14.68-1.96-17.43,0-1.65,1.18-3.34,2-5.01,2.46-6.21,1.68-10.44-.19-10.62-.27-.23-.11-.34-.38-.23-.61,.11-.23,.38-.34,.61-.23,.04,.02,4.12,1.81,9.99,.22,1.57-.42,3.15-1.2,4.71-2.31,2.35-1.68,8.86-5.04,18.45-.04,.13,.09,8.59,5.86,15.35,6.9,.25,.02,7.07,.56,10.34,2.74,.21,.14,.27,.43,.13,.64-.09,.13-.24,.21-.39,.21Z"/>
    </g>
    <g opacity=".2">
      <path d="M223.32,239.46c-.06,0-.13-.01-.19-.04l-5.88-2.67c-.23-.11-.34-.38-.23-.61,.11-.23,.38-.34,.62-.23l5.88,2.67c.23,.11,.34,.38,.23,.61-.08,.17-.25,.27-.42,.27Z"/>
    </g>
    <path d="M108.43,92.59l9.08,6.41-25.65,36.87s-2.14,2.67-3.74,1.6l-3.34-2.6c-.84-.65-1.05-1.83-.5-2.73l24.14-39.55Z" fill="#f1f2f2"/>
    <rect x="83.2" y="134.09" width="4.43" height="6.95" rx="2.22" ry="2.22" transform="translate(97.05 -23.94) rotate(35.96)" fill="#e6e7e8"/>
    <path d="M71.03,158.24c-.09,0-.19-.03-.27-.09-.21-.15-.26-.44-.11-.65l12.35-17.4c.15-.21,.44-.26,.65-.11,.21,.15,.26,.44,.11,.65l-12.35,17.4c-.09,.13-.23,.2-.38,.2Z" fill="#2f2e41" data-secondary="true"/>
    <rect x="112.07" y="87.56" width="3.74" height="13.36" transform="translate(-29.47 130.27) rotate(-53.7)" fill="#2f2e41" data-secondary="true"/>
    <g opacity=".2">
      <path d="M222.25,258.16c-.08,0-.16-.02-.24-.06-32.06-18.92-70.35-10.72-70.73-10.63-.25,.06-.5-.1-.55-.35-.06-.25,.1-.5,.35-.55,.39-.09,39.03-8.37,71.4,10.74,.22,.13,.29,.42,.16,.64-.09,.15-.24,.23-.4,.23Z"/>
    </g>
    <g opacity=".2">
      <path d="M109.5,431.29c-.25,0-.45-.19-.46-.44-.01-.26,.18-.47,.44-.49l80.38-4.18c1.09-.06,2.11-.56,2.82-1.4l2.56-3.03c1.38-1.63,3.62-2.17,5.59-1.36l1.88,.78c1,.41,2.1,.4,3.09-.03,.99-.43,1.75-1.23,2.13-2.24,.09-.24,.36-.36,.6-.27,.24,.09,.36,.36,.27,.6-.47,1.25-1.4,2.23-2.62,2.76-1.22,.53-2.58,.55-3.81,.04l-1.88-.78c-1.59-.66-3.41-.21-4.53,1.1l-2.56,3.03c-.87,1.03-2.13,1.65-3.48,1.72l-80.38,4.18s-.02,0-.02,0Z"/>
    </g>
    <g opacity=".2">
      <path d="M114.31,455.87c-.21,0-.39-.14-.45-.34-6.91-25.51,4.19-51.35,4.3-51.6,.1-.24,.38-.34,.61-.24,.23,.1,.34,.38,.24,.61-.11,.25-11.08,25.8-4.25,50.99,.07,.25-.08,.5-.33,.57-.04,.01-.08,.02-.12,.02Z"/>
    </g>
    <g opacity=".2">
      <polygon points="159.73 453.27 214.77 448.46 212.36 458.5 156.49 473.76 159.73 453.27"/>
    </g>
    <line x1="155.46" y1="568.68" x2="173.09" y2="468.76" fill="#2f2e41" data-secondary="true"/>
    <path d="M141.03,562.27s26.18,4.27,49.16-3.21" fill="#2f2e41" data-secondary="true"/>
    <path d="M94.01,405.18s8.8,1.75,14.55,1.94c0,0-4.25,10.88-4.59,22.9l-8.36-.8-6.41,10.69s-1.07-4.81-10.15-8.02c0,0,6.95-17.1,14.96-26.72Z" fill="#f9b499"/>
    <path d="M258.05,221.29c-.08,0-.15-.02-.22-.06-.22-.12-.31-.4-.18-.63l6.41-11.76c.12-.23,.4-.31,.63-.19,.22,.12,.31,.4,.18,.63l-6.41,11.76c-.08,.15-.24,.24-.41,.24Z" fill="#f4a58c"/>
    <path d="M304,149.16c-.21,0-.39-.14-.45-.35-2.54-9.65-7.04-10.34-7.09-10.34-.25-.03-.43-.26-.4-.52,.03-.25,.26-.44,.51-.41,.21,.02,5.16,.69,7.88,11.03,.07,.25-.08,.5-.33,.57-.04,.01-.08,.02-.12,.02Z" fill="#f4a58c"/>
    <path d="M321.1,144.35c-.15,0-.3-.07-.39-.21-3.09-4.64-12.53-8.88-12.63-8.92-.23-.1-.34-.38-.24-.61,.1-.24,.38-.34,.61-.24,.4,.18,9.78,4.39,13.02,9.25,.14,.21,.08,.5-.13,.64-.08,.05-.17,.08-.26,.08Z" fill="#f4a58c"/>
    <path d="M175.41,120.91l-.72,6.41s17.1,13.89,27.79,35.8c0,0,2.14-23.51-.53-37.4,0,0-4.81-3.74-5.34-13.36l.53-13.89-8.02-3.74-7.48,8.55-6.23,17.63Z" fill="#f9b499"/>
    <path d="M175.41,120.91l-.58,4.74s9.19-.8,13.07-9.72c0,0-4.29,4.98-12.5,4.98Z" fill="#f4a58c"/>
    <rect x="161.58" y="65.99" width="33.32" height="55.04" rx="16.66" ry="16.66" transform="translate(21.12 -32.29) rotate(11)" fill="#f9b499"/>
    <path d="M162.94,85.11s2.92-9.17,8.01-12.05c.98-.55,2.16-.58,3.21-.19,1.04,.39,2.95,.77,6.13,.36,1.46-.19,2.88,.57,3.51,1.91l3.18,6.76s6.41-4.27,8.55,10.15l12.82-4.27-9.08-20.84-17.63-7.48-16.03,6.95-6.41,13.89,3.74,4.81Z" fill="#2f2e41" data-secondary="true"/>
    <ellipse cx="199.27" cy="93.93" rx="6.68" ry="5.88" transform="translate(65.09 268.64) rotate(-77.71)" fill="#f9b499"/>
    <path d="M88.8,125.03s-5.48-13.21-.67-14.81c0,0-.53-4.27,2.67-4.81,0,0,1.07-3.74,4.27-4.81,0,0,.53-4.27,6.95-2.14,0,.53,7.48,1.6,3.74,5.88,0,0,2.14,3.74-2.67,4.27,0,0,1.07,5.88-5.34,4.27,0,.53,.86,4.89-4.92,4.85l-4.04,7.29Z" fill="#f9b499"/>
  </g>
  <g>
    <path d="M356.6,593.24c.54,1.08,.34,2.39-.5,3.25-4.4,4.53-16.29,9.52-16.29,9.52-8.78,3.42-19.52,13.66-19.52,13.66-6.83,5.37-20.01,3.9-20.01,3.9-7.81,0-6.83-7.32-6.83-7.32h.03c.25-.06,2.13-.39,4.85,.98,0,0,5.86,6.34,16.59-1.46,0,0,25.38-24.89,38.06-29.77l3.62,7.23Z" fill="#f1f2f2"/>
    <path d="M352.98,586.01c-12.69,4.88-38.06,29.77-38.06,29.77-10.74,7.81-16.59,1.46-16.59,1.46-2.72-1.36-4.6-1.03-4.85-.98h-.03c.49-1.95,3.42-2.92,3.42-2.92,2.93,0,4.88-2.93,4.88-2.93l7.12-13.81c.45-.87,.73-1.82,.82-2.8l1.09-11.98c.21-2.31,2.12-4.1,4.44-4.16,.69-.01,1.17,.05,1.17,.05,1.46-1.95,14.64-2.93,14.64-2.93l10.74-.49c0-.91,.54-1.19,1.11-1.22,.71-.04,1.39,.32,1.8,.91l8.32,12.02Z" fill="#0071f2" data-primary="true"/>
    <path d="M316.38,575.27v2.44s.98-.98,4.39,2.93l2.19,2.5c.78,.89,1.91,1.4,3.09,1.4h7.94c1.18,0,2.27-.63,2.86-1.66l4.91-8.59-3.42-4.18c-.64-.78-1.08-1.71-1.28-2.7l-.67-3.37-20.01,11.22Z" fill="#f9b499"/>
    <path d="M381.28,590.89l.98,8.3,17.57,8.78,6.34-1.95-1.46-8.3s-1.95,0-2.44-6.34l-.49-9.76-20.5,9.27Z" fill="#f9b499"/>
    <path d="M364.69,620.65s0,2.87,.74,4.9c.43,1.18,1.6,1.94,2.86,1.91l40.32-.91c1.39-.03,2.56-1.01,2.87-2.36,.4-1.81,.59-4.8-.44-9.4l-18.54-.98-9.27,1.46-10.25,1.46s-6.83-.98-8.3,3.9Z" fill="#f1f2f2"/>
    <path d="M376.89,608.94l2.06-12.39c.22-1.31,1.33-2.28,2.66-2.32l10.58-.33c1.71-.05,3.32,.79,4.25,2.23l2.9,4.51,4.88,3.42,.49-6.34s2.93-.49,6.34,17.08c0,0-6.57,2.19-12.66,6.16-.74,.48-1.57,.82-2.44,1.02-2.88,.65-9.51,1.94-14.43,1.4-1.04-.11-2.02-.53-2.85-1.16l-3.24-2.49c-1.42-1.09-3.2-1.62-4.99-1.44-1.98,.2-4.44,.79-5.76,2.37,0,0-.98-1.95,3.42-4.88l8.78-6.83Z" fill="#0071f2" data-primary="true"/>
    <path d="M341.09,371.61l.17,9.45s-4.88,1.95,0,11.71c0,0-44.89,70.76-52.21,86.86,0,0,.49,40.5,22.94,94.67,0,0,6.83,6.34,22.94-7.32l11.71-10.74-18.54-59.53,33.67-39.04s-6.83,26.35-6.34,46.36c0,0,6.83,51.73,14.15,76.13,0,0,2.93,14.15,12.2,12.2,0,0,19.03-4.39,28.3-14.15l-17.57-76.13,22.94-62.46s20.5-48.31-6.83-75.15l-26.84-5.86-40.68,13Z" fill="#2f2e41" data-secondary="true"/>
    <ellipse cx="351.03" cy="262.48" rx="21.47" ry="18.06" fill="#2f2e41" data-secondary="true"/>
    <path d="M359.75,216.89s-8.23-17.36,12.75-19.31c0,0,1.46-6.34,13.18,1.95,0,0,1.46-12.69,16.59,.49,0,0,7.32,5.86,3.9,19.52,0,0,7.81,5.86,6.34,12.69,0,0,13.18,7.81,3.9,22.45,0,0,19.83,5.71,8.7,27.25l-46.76-8.22,3.42-14.15-22.02-42.66Z" fill="#2f2e41" data-secondary="true"/>
    <path d="M358.51,254.05l.33,5.99s9.27,5.37,22.94-.49c0,0-1.95-6.34,5.86-15.62l-.49-7.32-28.63,17.44Z" fill="#f4a58c"/>
    <path d="M473.51,335.19c-11.71,19.52-37.57,40.5-37.57,40.5-10.73-.97-21.47-13.66-21.47-13.66,17.57-12.2,31.72-32.7,31.72-32.7-.49-5.37,1.95-9.27,1.95-9.27-5.85,1.46-12.69-1.95-14.15-2.44-35.13-6.83-30.74,26.35-30.74,26.35,7.32,4.39,.49,8.3,.49,8.3,10.25,3.9,4.88,12.2,4.88,12.2l-7.32,3.9c-24.89-2.93-34.65,1.95-34.65,1.95-20.98,7.81-30.26-1.95-30.26-1.95,8.3-8.78-.49-35.13-.49-35.13-6.83-18.54-1.47-33.67-1.47-33.67-8.3-1.95-17.08-15.62-17.08-15.62-12.2-8.78-37.09-37.09-37.09-37.09-11.22-12.69-19.52-58.07-19.52-58.07,12.2-.49,22.94-11.71,22.94-11.71,2.93,20.98,10.25,40.99,10.25,40.99,4.88,2.93,4.39,6.34,4.39,6.34,3.9,8.3,19.52,21.96,19.52,21.96,3.9,3.9,8.78,4.88,8.78,4.88,5.86,2.44,7.32,7.81,7.32,7.81,2.93-1.95,7.32,2.44,7.32,2.44,7.81,3.42,12.2,2.93,12.2,2.93-.49-3.9,3.42-6.34,3.42-6.34-.49-2.93,1.62-4.04,1.62-4.04l.33,5.99c11.57,4.65,22.94-.49,22.94-.49-.98-3.9,1.01-7.74,1.01-7.74,.32,.09,.61,.19,.89,.29,6,2.31,2.49,8.91,2.49,8.91,3.9,5.85,1.95,7.81,1.95,7.81l12.69,3.9c13.66,0,19.03,5.85,19.03,5.85,9.76,5.86,29.28,13.18,29.28,13.18,21.47,7.32,24.89,13.66,24.89,13.66,0,0,11.22,10.25-.49,29.77Z" fill="#0071f2" data-primary="true"/>
    <g opacity=".2">
      <path d="M373.01,275.89c-2.87,0-6.28-.44-10.3-1.6-.09-.02-9.34-2.54-9.34-9.85,0-.05,.04-.1,.1-.1s.1,.04,.1,.1c0,7.16,9.11,9.64,9.2,9.67,9.55,2.76,15.65,1.43,19.09-.18,3.71-1.74,5.19-4.15,5.2-4.17,.03-.05,.09-.06,.13-.03,.05,.03,.06,.09,.03,.13-.01,.02-1.52,2.49-5.29,4.25-2.01,.94-4.94,1.79-8.92,1.79Z"/>
    </g>
    <g opacity=".2">
      <path d="M334.44,299.66s-.02,0-.03,0c-.05-.02-.08-.07-.06-.12,2.05-5.85,3.09-13.34,2.93-21.1,0-.16,0-.27,0-.34,0-.05,.04-.1,.1-.1s.1,.04,.1,.1c0,.07,0,.18,0,.34,.16,7.78-.88,15.3-2.94,21.17-.01,.04-.05,.07-.09,.07Z"/>
    </g>
    <g opacity=".2">
      <path d="M333.46,286c-.05,0-.09-.04-.1-.09-1.45-19.83,5.82-26.37,5.89-26.43,.04-.04,.1-.03,.14,0,.04,.04,.03,.1,0,.14-.07,.06-7.27,6.55-5.82,26.27,0,.05-.04,.1-.09,.1h0Z"/>
    </g>
    <g opacity=".2">
      <path d="M409.1,313.32s-.08-.02-.09-.06c-6.31-17.42-6.24-27.12-5.07-32.2,1.28-5.53,4.02-6.9,4.14-6.96,.05-.02,.11,0,.13,.05s0,.11-.05,.13c-.03,.01-2.79,1.4-4.04,6.86-1.16,5.05-1.22,14.71,5.07,32.06,.02,.05,0,.11-.06,.12-.01,0-.02,0-.03,0Z"/>
    </g>
    <g opacity=".2">
      <path d="M448.14,320.16s-.04,0-.06-.02c-.04-.03-.05-.09-.02-.14,.01-.02,1.49-1.95,4.36-2.93-.09-.44-.39-2.44,.77-4.28,.98-1.55,2.72-2.58,5.18-3.07,.06-.02,.1,.02,.12,.08,.01,.05-.02,.1-.08,.11-2.4,.48-4.1,1.48-5.05,2.98-1.26,1.99-.74,4.19-.73,4.22,.01,.05-.02,.1-.06,.12-2.87,.96-4.33,2.87-4.35,2.89-.02,.03-.05,.04-.08,.04Z"/>
    </g>
    <g opacity=".2">
      <path d="M443.78,369.41s-.02,0-.03,0c-10.6-2.94-18.54-10.65-18.62-10.73-.04-.04-.04-.1,0-.14,.04-.04,.1-.04,.14,0,.08,.08,7.98,7.75,18.54,10.68,.05,.01,.08,.07,.07,.12-.01,.04-.05,.07-.09,.07Z"/>
    </g>
    <path d="M414.46,362.02l-4.78,1.64s-6.45-4.08-11.82-3.1c0,0-19.52,2.93-12.69,7.81,0,0-3.42,3.9,.98,5.37,0,0,.98,2.93,7.32,1.95,0,0,1.95,3.9,11.71,2.44,0,0,6.83,1.46,13.18-.49l9.1-4.57s-8.61-5.19-13-11.05Z" fill="#f9b499"/>
    <g opacity=".2">
      <path d="M361.76,457.77s-.01,0-.02,0c-.05-.01-.08-.07-.07-.12,5.78-24.09,1.02-44.16,.98-44.36-.01-.05,.02-.1,.07-.12,.05-.01,.11,.02,.12,.07,.05,.2,4.82,20.31-.98,44.45-.01,.04-.05,.07-.09,.07Z"/>
    </g>
    <g opacity=".2">
      <path d="M361.76,404.58s-.06-.01-.08-.04c-7.25-10.15-8.79-28.65-8.8-28.84,0-.05,.04-.1,.09-.1,.06,0,.1,.04,.11,.09,.01,.19,1.55,18.63,8.77,28.74,.03,.04,.02,.1-.02,.14-.02,.01-.04,.02-.06,.02Z"/>
    </g>
    <g opacity=".2">
      <path d="M358.03,397.43s-.07-.02-.09-.05c-.02-.05,0-.11,.04-.13,7.2-3.58,4.03-15.45,2.99-19.34-.18-.68-.29-1.09-.29-1.24,0-.05,.04-.1,.1-.1s.1,.04,.1,.1c0,.13,.12,.57,.28,1.19,1.05,3.94,4.25,15.91-3.09,19.57-.01,0-.03,.01-.04,.01Z"/>
    </g>
    <g opacity=".2">
      <path d="M409.59,399.21s-.03,0-.04-.01c-7.74-3.87-17.51-18.43-17.6-18.58-.03-.04-.02-.11,.03-.14,.04-.03,.11-.02,.13,.03,.1,.15,9.83,14.66,17.53,18.51,.05,.02,.07,.08,.04,.13-.02,.03-.05,.05-.09,.05Z"/>
    </g>
    <g opacity=".2">
      <path d="M392.99,578.3s-.09-.03-.1-.08l-15.62-81.49s0-.03,0-.04l25.38-89.79c.01-.05,.07-.09,.12-.07,.05,.01,.08,.07,.07,.12l-25.37,89.77,15.61,81.47c.01,.05-.02,.1-.08,.11,0,0-.01,0-.02,0Z"/>
    </g>
    <g opacity=".2">
      <path d="M332.97,560.73s-.08-.03-.09-.07l-17.08-62.95s0-.06,.01-.08c1.67-2.59,41.04-63.47,43.48-64.45,.05-.02,.11,0,.13,.05,.02,.05,0,.11-.05,.13-2.36,.94-42.18,62.51-43.36,64.34l17.07,62.91c.01,.05-.02,.11-.07,.12,0,0-.02,0-.03,0Z"/>
    </g>
    <g opacity=".2">
      <path d="M263.29,199.24c-.24,0-.37-.01-.38-.01-.05,0-.09-.05-.09-.11,0-.05,.06-.09,.11-.09,.09,0,8.66,.74,20.2-10.8,.04-.04,.1-.04,.14,0s.04,.1,0,.14c-10.24,10.24-18.18,10.87-19.97,10.87Z"/>
    </g>
    <path d="M268.81,187.03s-.74-8-3.67-19.71c0,0-9.76-12.2-4.88-18.06,0,0-.49-4.39,2.44-5.86v-3.42l-6.71-15.92c-.59-1.4,.17-3,1.62-3.43h0c1.23-.37,2.55,.24,3.07,1.41l6.41,14.53,5.86,3.42s2.01-6.03,6.4-6.05c.78,0,1.39,.66,1.36,1.44l-.41,9.38c-.02,.39,.05,.78,.18,1.15l2.48,6.62c.16,.41,.24,.85,.25,1.3l.47,23.24s-6.4,6.75-14.88,9.95Z" fill="#f9b499"/>
    <path d="M260.75,188.79s-.97-3.1,7.08-8.14l.98,6.38s-3.67,1.76-8.06,1.76Z" fill="#0071f2" data-primary="true"/>
    <g opacity=".2">
      <path d="M260.75,188.79s-.97-3.1,7.08-8.14l.98,6.38s-3.67,1.76-8.06,1.76Z"/>
    </g>
    <path d="M263.19,155.7s-.03,0-.04,0c-.04-.02-.06-.08-.04-.12l1.95-3.9s.04-.05,.07-.05c.03,0,.06,0,.08,.03,.02,.03,2.44,2.88,5,2.88,.05,0,.09,0,.14,0,1.15-.05,2.17-.69,3.01-1.9,.02-.02,.04-.04,.07-.04,.02,0,1.7-.01,2.67-1.12,.57-.65,.79-1.55,.65-2.68,0-.05,.03-.09,.08-.1,.01,0,1.46-.24,1.79-1.4,.32-1.11-.32-3.3-5.14-7.45-.04-.03-.04-.09,0-.13,.03-.04,.09-.04,.13,0,3.93,3.38,5.68,5.95,5.2,7.64-.32,1.11-1.52,1.44-1.85,1.51,.13,1.14-.11,2.07-.71,2.74-.95,1.07-2.47,1.17-2.76,1.18-.88,1.24-1.93,1.89-3.13,1.94-.05,0-.1,0-.15,0-2.39,0-4.57-2.31-5.04-2.85l-1.89,3.78s-.05,.05-.08,.05Z" fill="#f4a58c"/>
    <path d="M262.7,140.08h0s-.09-.04-.09-.09c0-.03,.05-3.01,4.47-3.51,.06,0,.09,.03,.1,.08,0,.05-.03,.09-.08,.1-4.25,.47-4.31,3.21-4.31,3.33,0,.05-.04,.09-.09,.09Z" fill="#f4a58c"/>
    <rect x="354.2" y="203.82" width="34.76" height="53.64" rx="17.38" ry="17.38" transform="translate(178.26 -161.65) rotate(31.94)" fill="#f9b499"/>
    <path d="M359.75,216.89s5.16-5.25,10.77-7.11c3.58-1.18,7.5,.33,9.38,3.6,.99,1.72,2.85,3.87,6.26,5.18,0,0,4.39,.49,2.93,7.32,0,0,.98,1.95,0,4.39,0,0-2.18,3.15,.13,6.21,0,0,15-15.48,14.02-15.48s-8.3-13.66-8.3-13.66l-15.62-4.88-8.78-2.44s-13.3,6.9-10.8,16.87Z" fill="#2f2e41" data-secondary="true"/>
    <ellipse cx="392.75" cy="239.3" rx="7.08" ry="5.61" transform="translate(-37.91 400.69) rotate(-51.9)" fill="#f9b499"/>
    <g opacity=".2">
      <path d="M381.77,259.55c-.98-3.9,1.01-7.74,1.01-7.74,.32,.09,.61,.19,.89,.29,.9,1.63,1.21,4.18-1.9,7.44Z"/>
    </g>
    <path d="M385.19,368.46s-.08-.03-.09-.07c0-.05,.02-.1,.07-.11l11.85-2.48c.05,0,.1,.02,.11,.07s-.02,.1-.07,.11l-11.85,2.48s-.01,0-.02,0Z" fill="#f4a58c"/>
    <path d="M276.85,148.87s-.02,0-.03,0l-14.15-5.37s-.07-.07-.05-.12c.02-.05,.07-.07,.12-.05l14.15,5.37s.07,.07,.05,.12c-.01,.04-.05,.06-.08,.06Z" fill="#f4a58c"/>
    <path d="M273.44,152.77s-.01,0-.02,0l-13.17-3.42s-.08-.06-.07-.11c.01-.05,.07-.08,.11-.06l13.17,3.42s.08,.06,.07,.11c-.01,.04-.05,.07-.09,.07Z" fill="#f4a58c"/>
    <path d="M386.16,373.83s-.08-.03-.09-.07c0-.05,.02-.1,.07-.11l12.93-2.47s.1,.02,.11,.07c0,.05-.02,.1-.07,.11l-12.93,2.47s-.01,0-.02,0Z" fill="#f4a58c"/>
    <path d="M393.48,375.78s-.08-.03-.09-.08c0-.05,.03-.1,.08-.1l9.12-1.49c.05,0,.1,.03,.1,.07s-.03,.1-.08,.1l-9.12,1.49s0,0-.01,0Z" fill="#f4a58c"/>
  </g>
</svg>