 <!DOCTYPE svg PUBLIC "-//W3C//DTD SVG 1.1//EN" "http://www.w3.org/Graphics/SVG/1.1/DTD/svg11.dtd">
<svg id="a3633848-4baa-4a1a-bb22-9375bcdc94a7" data-name="Layer 1" xmlns="http://www.w3.org/2000/svg" xmlns:xlink="http://www.w3.org/1999/xlink" width="865.76" height="682.89" viewBox="0 0 865.76 682.89">
<defs>
<clipPath id="a56dec35-356f-4e06-8758-41e631c18b53">
<path id="a42329f7-9f46-4474-9a44-49a87d100575" data-name="SVGID" d="M720.86,128.34A379.7,379.7,0,0,0,619.5,68.71c-55.88-21.9-117.42-32.46-179-33.1C260.63,33.79,246.94,211,191.63,235.61s-155.56,27.52-159,126.06c-2.18,62,15.07,125.7,63.6,174,44.45,44.23,109.74,66.67,174.07,83.21,72.24,18.6,148.85,36.83,224.84,24.29,78-12.87,132.77-64.64,196.82-99.62,40.31-22,76.5-45.23,101.4-80.57,3-4.22,5.76-8.53,8.42-12.9,33.33-54.93,39.86-118.27,21.48-177.7C806.76,219,769.52,168.25,720.86,128.34Z" fill="none"/>
</clipPath>
<style xmlns="http://www.w3.org/1999/xhtml">*, ::after, ::before { box-sizing: border-box; }
img, svg { vertical-align: middle; }
</style>
<style xmlns="http://www.w3.org/1999/xhtml">*, body, html { }
img, svg { max-width: 100%; }
</style>
</defs>
<path d="M720.86,128.34A379.7,379.7,0,0,0,619.5,68.71c-55.88-21.9-117.42-32.46-179-33.1C260.63,33.79,246.94,211,191.63,235.61s-155.56,27.52-159,126.06c-2.18,62,15.07,125.7,63.6,174,44.45,44.23,109.74,66.67,174.07,83.21,72.24,18.6,148.85,36.83,224.84,24.29,78-12.87,132.77-64.64,196.82-99.62,40.31-22,76.5-45.23,101.4-80.57,3-4.22,5.76-8.53,8.42-12.9,33.33-54.93,39.86-118.27,21.48-177.7C806.76,219,769.52,168.25,720.86,128.34Z" fill="#0085f2" data-primary="true"/>
<path d="M720.86,128.34A379.7,379.7,0,0,0,619.5,68.71c-55.88-21.9-117.42-32.46-179-33.1C260.63,33.79,246.94,211,191.63,235.61s-155.56,27.52-159,126.06c-2.18,62,15.07,125.7,63.6,174,44.45,44.23,109.74,66.67,174.07,83.21,72.24,18.6,148.85,36.83,224.84,24.29,78-12.87,132.77-64.64,196.82-99.62,40.31-22,76.5-45.23,101.4-80.57,3-4.22,5.76-8.53,8.42-12.9,33.33-54.93,39.86-118.27,21.48-177.7C806.76,219,769.52,168.25,720.86,128.34Z" fill="#fff" opacity="0.7" style="isolation:isolate"/>
<g clip-path="url(#a56dec35-356f-4e06-8758-41e631c18b53)">
<polygon points="494.16 531.84 474.47 836.29 470.97 880.41 543.1 887.41 553.95 632.5 556.75 628.29 559.91 887.41 640.09 887.41 623.55 531.84 494.16 531.84" fill="#9e9e9e" data-secondary="true"/>
<path d="M487.48,635.08s-5.21,172.29,9,204.78l-22-3.57Z" opacity="0.3"/>
<path d="M505.45,841.32l39.34,6.39,7.51-176.33S541.32,822.42,505.45,841.32Z" fill="#fff" opacity="0.2"/>
<path d="M559.42,847.69l27.35-2s-19.22-46.71-20.29-104.78l-9.41-86.35Z" opacity="0.3"/>
<path d="M607.84,844.08s11.78-26.31,14-80l6.21-134.85L638,841.84Z" fill="#fff" opacity="0.2"/>
<path d="M484.49,739a114.08,114.08,0,0,0-31.91-3.25,131.34,131.34,0,0,0-17.41,1.76,125.71,125.71,0,0,0-29.77,8.59c-12.37,7.81-22.92,11.32-31.49,12.5-17.42,2.42-26.69-4.72-26.69-4.72-2.51-1.13-5.3-2.21-8.22-3.23-16.32-5.73-36.76-9.63-36.76-9.63L317.8,628.69c.4-5,.93-9.83,1.58-14.52,8-58.71,33.26-94.38,33.26-94.38l18.26,14.88c14.2,14.21,71.8-12.22,71.8-12.22a141.58,141.58,0,0,0,1.67,17.73C452.14,592.74,484.49,739,484.49,739Z" fill="#9e9e9e" data-secondary="true"/>
<path d="M373.91,758.56c-17.42,2.42-26.69-4.72-26.69-4.72-2.51-1.13-5.3-2.21-8.22-3.23l23.12-107.36Z" opacity="0.3"/>
<path d="M452.58,735.71a131.34,131.34,0,0,0-17.41,1.76V675.38Z" opacity="0.3"/>
<path d="M455.74,602.63s7.2,116.78,21.9,134.84L484.5,739Z" fill="#fff" opacity="0.2"/>
<path d="M444.58,540.09l-.2.1A78.85,78.85,0,0,1,399,545.5s-43.62-10.14-46.34,27.39c0,0-13.08,47.08-33.25,41.3h0c8-58.72,33.25-94.39,33.25-94.39l18.26,14.89c14.21,14.2,71.8-10.5,71.8-10.5S443.51,531.76,444.58,540.09Z" opacity="0.3"/>
<path d="M440.25,493.08s.54-.49,2.45-4.74l17.93-.35s-5.17,74-4.88,79.25a85.31,85.31,0,0,1-11.37-27c-1.64-10.41-2.92-21.61-3.61-33.52C440.5,502,440.33,497.49,440.25,493.08Z" fill="#f9b499"/>
<path d="M440.25,493.08s14.05-.86,13.42,14.44L448,551.9s5.18,12,7.79,15.34L460.63,488l-17.93.35Z" fill="#f7a48b"/>
<path d="M382,398.58s-37.45-1.56-46.24,37.34l-8.8,38.89,37.92,17.93s-6.49,20.87-8.24,30.29l14.28,11.65s8.42,9.88,35.33,1.57l36.47-12.07s-2.79-24.34-2.45-31.1c0,0,.52,0,2.45-4.74l17.93-.35,2.26-39.56s-.32-50.34-38.2-49.86Z" fill="#0085f2" data-primary="true"/>
<path d="M382,398.58s-37.45-1.56-46.24,37.34l-8.8,38.89,37.92,17.93s-6.49,20.87-8.24,30.29l14.28,11.65s8.42,9.88,35.33,1.57l36.47-12.07s-2.79-24.34-2.45-31.1c0,0,.52,0,2.45-4.74l17.93-.35,2.26-39.56s-.32-50.34-38.2-49.86Z" opacity="0.3"/>
<polygon points="397.94 423.69 429.91 413.55 429.91 398.57 378.39 398.76 397.94 423.69" fill="#fff" opacity="0.2"/>
<path d="M399.66,417.65,382,398.58h6.52l-1-30,30.11,11.84s-.34,10.29,3.38,14.2c0,0,4.73,1,5.07,8.8v7.1Z" fill="#f9b499"/>
<path d="M417.59,380.45a10.93,10.93,0,0,0,.77,9.1s-16.3,2.69-18-11.16Z" fill="#f7a48b"/>
<path d="M525.48,336.65s-41.38,7.49-50.34,26.21a25.15,25.15,0,0,1-2.15,3.65c-3.14,4.38-11.1,21.82-10.05,85.46l31.22,2.61s5.18,43,0,77.26H623.55l-2.61-89-10.42-8.61s30-6.15,43.85-4.85c0,0,13.2-92.67-82.39-96.47l-23.25,11Z" fill="#0085f2" data-primary="true"/>
<path d="M534.78,320.08V335.3l-9.3,1.35s7,14.56,18,17.19a6.94,6.94,0,0,0,5.06-.76c5.88-3.36,22.36-13.35,23.47-20.15l-5.24.17.21-29.46Z" fill="#f9b499"/>
<path d="M534.78,335.3V320.08l26.47-5.89S556.14,331,534.78,335.3Z" fill="#f7a48b"/>
<path d="M570.35,289.33c0,20-14.26,36.19-30.61,36.19s-29.62-16.2-29.62-36.19,13.26-36.2,29.62-36.2S570.35,269.34,570.35,289.33Z" fill="#f9b499"/>
<path d="M583.78,271.31a17.44,17.44,0,0,1-6.13,9.12,15,15,0,0,1-2,1.25,16.79,16.79,0,0,1-1.88.68c-8.08,3.22-9.59-4.2-9.59-4.2-2.88-5.08-4.23-3.55-4.23-3.55.82,3.28,1.15,4.4,1.28,4.73-7.93.12-14.64-7.62-14.64-7.62.51,7.1,10.31,11,10.31,11-24.94,7.06-25.7-13.41-25.7-13.41-.67-6-15.53-1.11-15.53-1.11-5.58,11.48-5.58,17.38-5.58,17.38s-3.92-.43-6.71-5.15a22.08,22.08,0,0,1-2.69-9.89s-3.77-48.41,48.89-33.37c0,0,3.3-5.18,13.16-5.65,0,0-5.18,3.77-4.23,8a26.71,26.71,0,0,1,18.64,7.06A24.05,24.05,0,0,1,583.78,271.31Z" fill="#9e9e9e" data-secondary="true"/>
<polygon points="480.29 453.42 489.42 406.39 494.16 454.58 480.29 453.42" opacity="0.3"/>
<polygon points="500.66 409.87 500.66 401.19 530.65 398.58 530.65 441.55 505.48 441.55 501.24 414.28 522.26 413.5 520.97 408.24 500.66 409.87" opacity="0.3"/>
<path d="M494.16,531.84a189.58,189.58,0,0,0,1.9-19.43h77.68a27.45,27.45,0,0,0,27.45-25.91l0-.72L603,406.39l7.54,27.86,11,29.1,2,68.49Z" opacity="0.3"/>
<path d="M555.53,617.44c-.33-7.13-.48-14.27-.61-21.4s-.11-14.27-.18-21.4.06-14.26.18-21.4l.22-10.7c.13-3.56.21-7.13.39-10.7.18,3.57.25,7.14.39,10.7l.22,10.7c.12,7.14.12,14.27.18,21.4s-.06,14.27-.19,21.4S555.85,610.31,555.53,617.44Z" opacity="0.3"/>
<path d="M540.65,531.84c.32,4.9.48,9.79.6,14.68s.17,9.79.19,14.68c0,2.42-.09,5,0,7.27a14.94,14.94,0,0,0,2.16,6.59,15.23,15.23,0,0,0,11.91,7,14.82,14.82,0,0,1-7.23-1.43,15.73,15.73,0,0,1-5.69-4.91,15.31,15.31,0,0,1-2.64-7.12c-.11-1.31-.08-2.51-.09-3.74l0-3.67c0-4.89,0-9.78.18-14.68S540.32,536.74,540.65,531.84Z" opacity="0.3"/>
<path d="M601.92,531.84a50.84,50.84,0,0,0,3.72,8.7,48.37,48.37,0,0,0,5.15,7.81,47.44,47.44,0,0,0,6.48,6.74,69,69,0,0,0,7.62,5.62c-1.46-.64-2.94-1.26-4.34-2a34.56,34.56,0,0,1-4-2.62,36.26,36.26,0,0,1-7-6.72,37.84,37.84,0,0,1-5-8.25A31.25,31.25,0,0,1,601.92,531.84Z" opacity="0.3"/>
<path d="M510.18,531.84a34.82,34.82,0,0,1-1.11,9.89,40.41,40.41,0,0,1-3.59,9.36,48.08,48.08,0,0,1-2.61,4.29,36.15,36.15,0,0,1-3.19,3.88,38,38,0,0,1-3.63,3.44,19.34,19.34,0,0,1-2,1.49c-.68.48-1.37.94-2.06,1.38a62.13,62.13,0,0,0,6.78-7.1,49.41,49.41,0,0,0,5.33-8.12,55.2,55.2,0,0,0,3.81-9q.78-2.32,1.33-4.72A48.7,48.7,0,0,0,510.18,531.84Z" opacity="0.3"/>
<path d="M610.52,434.25l4.71,26.32L646,489.63s7.36-5,7.36-20.51l1-39.72S645,427.58,610.52,434.25Z" fill="#f9b499"/>
<path d="M462.94,452,455.8,563.36s-2.71,39.82,26.25,47.06c0,0,13.36,4.82,20.47-9a3.13,3.13,0,0,0-2-4.51c-2.18-.52-5.25-.12-8.54,3.82l-2.4,1.85,1.2-18.46,1.09-16.84a39.69,39.69,0,0,1-5-10.36s8.88-37,9.18-44.55c0,0,1.46-41.73-1.9-57.83Z" fill="#f9b499"/>
<path d="M462.94,452l-.57,8.84s27.52-2.12,27.52,13.56c0,0,4.83,25.34-3.92,54.91,0,0-9.65,36.2,5.13,51.28l.77-13.24s-3.79-5.91-5-10.36c0,0,8.95-35.18,9.18-44.55,0,0,1.76-36.3-1.9-57.83Z" fill="#f7a48b"/>
<path d="M479.43,582.07a8.5,8.5,0,0,1,2.34,2.74,15.19,15.19,0,0,1,1.37,3.37,23.86,23.86,0,0,1,.71,3.56,31,31,0,0,1,.18,3.6v.1a12.81,12.81,0,0,0,0,2.77,6.87,6.87,0,0,0,.72,2.57,3.44,3.44,0,0,0,2,1.6,7.3,7.3,0,0,0,2.86.24,6.25,6.25,0,0,1-3,.46,4,4,0,0,1-2.8-1.66,7,7,0,0,1-1.18-3,11.58,11.58,0,0,1-.09-3.17v.1c0-1.15-.05-2.31-.15-3.45a32.46,32.46,0,0,0-.45-3.41,19.16,19.16,0,0,0-.86-3.33A10.38,10.38,0,0,0,479.43,582.07Z" fill="#f7a48b"/>
<path d="M577.65,280.43a15,15,0,0,1-2,1.25,16.79,16.79,0,0,1-1.88.68c-8.08,3.22-9.59-4.2-9.59-4.2-2.88-5.08-4.23-3.55-4.23-3.55.82,3.28,1.15,4.4,1.28,4.73-7.93.12-14.64-7.62-14.64-7.62.51,7.1,10.31,11,10.31,11-24.94,7.06-25.7-13.41-25.7-13.41-.67-6-15.53-1.11-15.53-1.11-5.58,11.48-5.58,17.38-5.58,17.38s-3.92-.43-6.71-5.15c0,0,6.64-.6,9.09-14.56,0,0,8.81-22.7,26-12.69a13.46,13.46,0,0,0,8.78,1.12s14.32-6.84,16.75,14.25c0,0,1.07,11.05,8,.5,0,0,3.06-5.79.72-10.48C573.16,258.73,581.93,262.39,577.65,280.43Z" opacity="0.3"/>
<path d="M513.73,242.35a6.62,6.62,0,0,1,5.19-.86,5.36,5.36,0,0,1,2.38,1.39,8.53,8.53,0,0,1,1.6,2.23l-.52-.18a14.38,14.38,0,0,1,4.77-1.29,6.76,6.76,0,0,1,2.49.22,3.6,3.6,0,0,1,2,1.43,4.89,4.89,0,0,0-4.4-1.06,17.7,17.7,0,0,0-4.5,1.41l-.34.15-.18-.33a8.41,8.41,0,0,0-1.43-2,5.06,5.06,0,0,0-2-1.33A7.27,7.27,0,0,0,513.73,242.35Z" opacity="0.3"/>
<ellipse cx="412.85" cy="348.17" rx="27.4" ry="33.97" fill="#f9b499"/>
<path d="M357.24,405.13s-19.81-19.95,6.91-41.25c0,0,2-1.7-3-8.12,0,0-21.31-28.41,11.16-35.85,0,0-.33-22.66,26.05-22.33,0,0,38.36-2.22,39.57,19.28,0,0-2.37,11.84,6.76,14.21,0,0,16.91,1.28,11.5,20.26,0,0-10.82,16.94-1.35,24.38,0,0,14.88,9.81,5.41,25.71,0,0-3.31,7.59-9.43,9,0,0-7.82-11.89-26.08-11.89,0,0,.67-2.23-3.72-3.92,0,0-3.72-3.24-3.38-12.78,0,0,18.57-3.11,22.47-29.83,0,0,4.25-32.47-25.18-28.75,0,0-8.13,21.53-29.77,28.75l2.37,16.57,1,30S370.62,397,357.24,405.13Z" fill="#9e9e9e" data-secondary="true"/>
<path d="M372.6,399.39s-11.34-15.39,2.71-30.78c0,0,4.2,10,12.4,6.67l.79,23.29S377.65,398,372.6,399.39Z" opacity="0.3"/>
<path d="M375.31,360.15s-18.16-17.52,6.67-31.32a11.12,11.12,0,0,0-13.71,6.47s-3.45-9.23,8.73-9.78c0,0,.34-13.39,14.54-15.76,0,0-14.05,13.19-6.09,13.19,1.7,0,9.81-18.26,32.14-11.16,0,0,15.22,2.18,18.94,19.28,0,0-6.09-9.81-21.65-7.78A46,46,0,0,1,385.11,352S378.69,351.36,375.31,360.15Z" opacity="0.3"/>
<path d="M364.86,492.74s7.61-2.67,7.61-20.82c0-1.57,2.84-17.34,2.84-17.34s-8.46,60.43,13.55,65c0,0,21.67,5.8,52.3-10.47l1.54,15.07s-17.79,7.84-44.63,14.17c0,0-18.54,5.67-29.8-5.82L356.62,523A295.24,295.24,0,0,1,364.86,492.74Z" opacity="0.3"/>
<path d="M442.7,488.34s8.4-16.7-2.45-46.79c0,0,15.06,11.77,15.49,32,0,0,.26,6.5,4.89,6.76V488Z" opacity="0.3"/>
<ellipse cx="572.69" cy="293.82" rx="11.9" ry="8.93" transform="translate(183.02 806.13) rotate(-79.9)" fill="#f9b499"/>
<path d="M629.24,459.52s-6.8-16.06,4.19-17.82a1.3,1.3,0,0,1,1.51,1.13c.24,2.41,1.08,7.66,3.81,10.61a22.45,22.45,0,0,1,3,3.76c4,6.77,13.42,25,4.63,35.54a18.87,18.87,0,0,0-2,3c-1.56,2.86-6.52,8.57-20.93,7.22a23.14,23.14,0,0,1-15.59-8.09c-3.16-3.74-5.32-8.16-1.15-10.7,0,0-1.42-7.36,3.85-6.47,0,0-3.85-7.95,1.45-10,0,0-3.64-5.36.22-8.31a6,6,0,0,1,4.22-1.08Z" fill="#f9b499" stroke="#f7a48b" stroke-miterlimit="10"/>
<line x1="606.67" y1="484.15" x2="617.57" y2="493.87" fill="none" stroke="#f7a48b" stroke-miterlimit="10"/>
<line x1="610.52" y1="477.68" x2="618.74" y2="484.15" fill="none" stroke="#f7a48b" stroke-miterlimit="10"/>
<line x1="611.97" y1="467.67" x2="624.89" y2="472.35" fill="none" stroke="#f7a48b" stroke-miterlimit="10"/>
<ellipse cx="385.11" cy="363.88" rx="9.8" ry="11.84" fill="#f9b499"/>
<path d="M364.61,617.45c-2.94,3.28-9.93-2.77-9.93-2.77-5.08-1.5,4.39,9.63,4.39,9.63,7.78,8.79,5.08,10.78,5.08,10.78-2.73,3.6-8.75-3.31-9.94-4.76,5.19,6.92,4.53,10.55,4.53,10.55-3.95,1.65-9.18-5.38-9.46-5.77,3,5.68,3,8.14,3,8.14-4.73,2-9.47-5.76-9.47-5.76.68,15.9-17.25-17.58-17.25-17.58a129.32,129.32,0,0,1-3.8-20.35C315.91,549.45,327,474.81,327,474.81l37.91,17.93c-1,2.81-1.89,5.63-2.75,8.46-14.74,48.64-11.49,99.09-11.49,99.09,1,5.41,7.44,8.79,7.44,8.79C366.85,614.16,364.61,617.45,364.61,617.45Z" fill="#f9b499"/>
<path d="M364.86,492.74l-2.75,8.46s-30.66-22.78-32-8.46c0,0-8.93,75.82-8.31,106.82C315.91,549.45,327,474.81,327,474.81Z" fill="#f7a48b"/>
<g id="bee5ec8e-4cf7-4389-a06d-fad413009c2f" data-name="freepik--Hands--inject-374">
<polygon points="451.26 134.8 427.28 55.34 413.1 13.82 330.94 14.82 361.22 77.61 416.91 164.21 451.26 134.8" fill="#f7a48b"/>
<path d="M410.4,154.09s17.83-44.48,19.32-50.34c2.14-8.39,3.17-29.79,3.17-29.79l15.33,47.42-32.08,42.17Z" fill="#ef947f"/>
<path d="M418.84,146.28c-.17.48-21.14,46.92-21,53a69.69,69.69,0,0,1,0,7.37s-2.08,7.85,1.77,11c0,0-2.09,6.78,3.52,14.28l4.92,21s-5.88,15.37-4.92,18.41,23.22,11,28.34,9.77,17-9.29,17.62-11.05-.48-5.12-4-7.84l20.49-43.67,8.81,20.34s-3.2,8.48,1.44,15,9.93,6.4,12,4.16,2.62-9,2.62-9,6-9,6.35-11.52-6.35-20-6.35-20S478.85,167.42,475,164.2c-6.23-5.24-5.49-9.7-2-19.27,3.4-9.39,6-14.29,11.65-26.61C492.6,101,548,16.22,548,16.22H475S424,132.35,418.84,146.28Z" fill="#f9b499"/>
<path d="M423.84,267.55a14.51,14.51,0,0,1-6.92,6.5c-.08-.14,1.75-1.25,3.65-3.05S423.7,267.44,423.84,267.55Z" fill="#f29f86"/>
<path d="M432.13,279.28c-.15,0,.12-1.68.1-3.73s-.32-3.69-.17-3.72a7.79,7.79,0,0,1,.69,3.72A8.1,8.1,0,0,1,432.13,279.28Z" fill="#f29f86"/>
<path d="M410.35,234.36a85,85,0,0,1-.93,9.28,84.36,84.36,0,0,1-1.44,9.21,80.12,80.12,0,0,1,.93-9.28A84,84,0,0,1,410.35,234.36Z" fill="#f29f86"/>
<path d="M403.31,210.14c.13.08-1,2-1.92,4.54s-1.36,4.71-1.52,4.68a16.2,16.2,0,0,1,3.44-9.22Z" fill="#f29f86"/>
<path d="M399.84,201.8c.14,0-.1,1-.53,2.06a5.07,5.07,0,0,1-1,1.86,4.74,4.74,0,0,1,.53-2.06A5.43,5.43,0,0,1,399.84,201.8Z" fill="#f29f86"/>
<path d="M494.66,237.39c0,.16-2.81.38-6.1,1.43s-5.73,2.46-5.81,2.32A20.15,20.15,0,0,1,494.66,237.39Z" fill="#f29f86"/>
<path d="M477.71,241.84a9.82,9.82,0,0,1-1.62-2.64,9.35,9.35,0,0,1-1.15-2.88,9.67,9.67,0,0,1,1.62,2.64A9.35,9.35,0,0,1,477.71,241.84Z" fill="#f29f86"/>
<path d="M411.49,272.64a11.78,11.78,0,0,1-7.85-3.55c.1-.13,1.63,1.08,3.8,2S411.52,272.48,411.49,272.64Z" fill="#f29f86"/>
<g opacity="0.2">
<path d="M480.71,256.81c-.43-2.12,1.09-4.27,2.73-5.68a8,8,0,0,1,6-1.84s.59.31.53.75-1.23,6.22-2.45,7.63S481.29,259.61,480.71,256.81Z" fill="#fff"/>
</g>
<path d="M432.13,271.6a5.33,5.33,0,0,0,7.05-2.7,6,6,0,0,0,.23-.59,10.29,10.29,0,0,0,7.51-3.17.79.79,0,0,0,.29-.61.71.71,0,0,0-.22-.36,7.24,7.24,0,0,0-2.44-1.73L436.84,266Z" fill="#f29f86"/>
<path d="M449.17,190a16.39,16.39,0,0,1,7.76,5.22c3,3.74,10.35,23.76,10.35,23.76l-4.24.41Z" fill="#f29f86"/>
<path d="M472.33,222.91s-3.7-5.17-6.75-4.41c0,0-7.15-21.63-14.61-29.39s-14.34-2.78-13.76,3.66,6.66,17,8,22.73,4.92,20,9.31,23.65,12.78,4.85,18.92,4.19h0a32.93,32.93,0,0,0,1.61-7.4C475.7,230.82,475.23,226.55,472.33,222.91Z" fill="#f7a48b"/>
<path d="M427.16,189.31c-.45.13-7.47,2.54-2.09,16.29s7,28.84,7.92,34.07,3,10.9,10.31,12.84,22.56-1.49,24.2-2.69,4.19-2.57,3.89-6.43l-24.13-29.12S439.12,186,427.16,189.31Z" fill="#f7a48b"/>
<path d="M419.39,213.55s-6.12,1.19-3.73,10.91,6.57,27,7.39,28.67,6,13.46,12.33,13.76,9.42-1.5,11.14-3.37,4.57-5.63,4.86-10.47l-14.2-11.11-8-23S425.37,211,419.39,213.55Z" fill="#f7a48b"/>
<path d="M417.75,249.08s-3.95.89-2.65,8.07,4.89,15.68,12.51,14.94,9.86-.68,10.91-5.2l-5.86-.86s-5-12-6.69-14.71S421.47,247.73,417.75,249.08Z" fill="#f7a48b"/>
<path d="M442.5,257.14c-.15,0,.07-1.13-.15-2.45s-.75-2.28-.62-2.36a3.22,3.22,0,0,1,1.13,2.28A3.34,3.34,0,0,1,442.5,257.14Z" fill="#ef947f"/>
<path d="M440,211.12a23.6,23.6,0,0,1-9.37,4.28c0-.15,2.13-.91,4.7-2.09A51,51,0,0,1,440,211.12Z" fill="#ef947f"/>
<path d="M453.84,205.07a.82.82,0,0,1-.11.34,4.19,4.19,0,0,1-.68.65,14.68,14.68,0,0,1-2.64,1.44,13.19,13.19,0,0,1-4,1.29,26.48,26.48,0,0,1,3.82-1.77c1.06-.46,2-.9,2.65-1.27.32-.19.56-.36.73-.48S453.84,205.05,453.84,205.07Z" fill="#ef947f"/>
<g opacity="0.1">
<path d="M447.28,188.23a10.37,10.37,0,0,1,2.05,5.2,4.84,4.84,0,0,1-.8,3c-1.84,2.71-5.35,1.79-7.14-.28a12.24,12.24,0,0,1-2.29-4.88,3.62,3.62,0,0,1,2.37-4.54,2,2,0,0,1,.35-.09,7.22,7.22,0,0,1,3-.09A3.88,3.88,0,0,1,447.28,188.23Z" fill="#fff"/>
</g>
<path d="M447.63,241.6a14.41,14.41,0,0,1-1.61,0,9.16,9.16,0,0,0-3.68.84,9.47,9.47,0,0,0-3,2.25c-.65.74-1,1.28-1,1.24a3.26,3.26,0,0,1,.74-1.47,8.22,8.22,0,0,1,7-3.23A3.22,3.22,0,0,1,447.63,241.6Z" fill="#ef947f"/>
<path d="M448.7,244.74a10,10,0,0,1-8.07,4.36,31.81,31.81,0,0,0,4.32-1.66A33,33,0,0,0,448.7,244.74Z" fill="#ef947f"/>
<path d="M463.48,230.19a2.94,2.94,0,0,0-1.63-.46,12.3,12.3,0,0,0-4,1.31c-3.08,1.39-5.25,3.13-5.35,3a15.08,15.08,0,0,1,5.13-3.47,10.6,10.6,0,0,1,4.26-1.21,2.26,2.26,0,0,1,1.32.43C463.43,230,463.5,230.17,463.48,230.19Z" fill="#ef947f"/>
<path d="M463.84,233.45a6.54,6.54,0,0,1-2.67,1.79A6.33,6.33,0,0,1,458,236a25.77,25.77,0,0,1,2.92-1.23A22,22,0,0,1,463.84,233.45Z" fill="#ef947f"/>
<g opacity="0.1">
<path d="M424.58,217.22a13.89,13.89,0,0,1,1.33,5.37,4.71,4.71,0,0,1-2.8,4.43c-1.87.64-4-.48-5.11-2.11a13.76,13.76,0,0,1-1.86-5.59s.41-4.34,3.62-5S424.58,217.22,424.58,217.22Z" fill="#fff"/>
</g>
<g opacity="0.1">
<path d="M429.46,190.13c4.06,1,4.91,4.89,5.78,8.2a5.85,5.85,0,0,1-.16,4.16,4.67,4.67,0,0,1-4.19,2.28c-1.68,0-3.93-.13-5.44-2.67a9.67,9.67,0,0,1-1.2-7.92C425.46,189.43,428.26,189.83,429.46,190.13Z" fill="#fff"/>
</g>
<g opacity="0.1">
<path d="M418.69,250.14a3.11,3.11,0,0,0-2.62,2.17,6.49,6.49,0,0,0,0,3.55,4.79,4.79,0,0,0,1.62,3,3.42,3.42,0,0,0,2.53.52c1.5-.25,2.13-1.05,2.68-2.47a6.35,6.35,0,0,0-.51-4.74,3.3,3.3,0,0,0-3.65-2" fill="#fff"/>
</g>
<path d="M429,218.09a1.56,1.56,0,0,1,.14.48c.07.38.16.85.28,1.41.22,1.22.53,3,.87,5.18.71,4.38,1.5,10.47,2.69,17.11a14.92,14.92,0,0,0,1.54,4.58,8.16,8.16,0,0,0,3.19,3.06,20.69,20.69,0,0,0,7.41,1.94,31.41,31.41,0,0,1,5.18.92,11,11,0,0,1,1.36.48c.3.14.45.21.44.23s-.65-.23-1.85-.51a39.44,39.44,0,0,0-5.18-.76,20.34,20.34,0,0,1-7.59-1.88,8.56,8.56,0,0,1-3.4-3.22,15,15,0,0,1-1.62-4.74c-1.19-6.68-1.92-12.76-2.53-17.16-.3-2.13-.54-3.89-.71-5.2-.08-.57-.14-1-.19-1.42A2.1,2.1,0,0,1,429,218.09Z" fill="#ef947f"/>
<path d="M420.94,241a5.8,5.8,0,0,1,.3,1.31c.17,1,.39,2.15.65,3.59a42.63,42.63,0,0,0,3.54,11.4,17.9,17.9,0,0,0,8.35,8.16,21.75,21.75,0,0,0,4.74,1.42,5.54,5.54,0,0,1-1.35-.08,14.46,14.46,0,0,1-3.54-1,16.45,16.45,0,0,1-4.59-2.95,18.48,18.48,0,0,1-4.07-5.31A39.15,39.15,0,0,1,421.53,246c-.24-1.53-.4-2.77-.49-3.62A6.67,6.67,0,0,1,420.94,241Z" fill="#ef947f"/>
<path d="M473.42,243.34a4.22,4.22,0,0,1-.7.1c-.46.06-1.15.1-2,.15a41.22,41.22,0,0,1-7.45-.38,27.72,27.72,0,0,1-5-1.25,13.06,13.06,0,0,1-8.63-8.56,42,42,0,0,1-1.83-6.79c-1.19-9.6-5.57-17.25-7.75-23.14a55.22,55.22,0,0,1-2.37-7.06,19.65,19.65,0,0,1-.4-2,3.34,3.34,0,0,1-.08-.7c.06,0,.19,1,.67,2.63a67.11,67.11,0,0,0,2.52,7c1.19,2.9,2.75,6.3,4.35,10.14a43.07,43.07,0,0,1,2.09,6.17c.55,2.21,1,4.52,1.42,6.86a41,41,0,0,0,1.8,6.71,12.66,12.66,0,0,0,8.3,8.33,26.78,26.78,0,0,0,4.92,1.29,44.48,44.48,0,0,0,7.38.55l2,0A3.22,3.22,0,0,1,473.42,243.34Z" fill="#ef947f"/>
<path d="M469.06,231.82a14.83,14.83,0,0,1-.14-2,20.64,20.64,0,0,0-1.06-4.73c-.61-1.8-1.27-3.41-1.7-4.6a7.77,7.77,0,0,1-.58-2,9.42,9.42,0,0,1,.92,1.82c.51,1.15,1.24,2.74,1.86,4.58a16.53,16.53,0,0,1,.92,4.88A5.46,5.46,0,0,1,469.06,231.82Z" fill="#ef947f"/>
<path d="M475,164.21s20.34,6.25,24.82,13.94,7.52,27.06,5.28,32.34S488.32,232.75,485,232s-11.21-5.92-7.53-15.37a133.13,133.13,0,0,1,7.21-15.69C482.5,185.12,478.94,171.55,475,164.21Z" fill="#f7a48b"/>
<g opacity="0.1">
<path d="M492.25,215.62c-3.55-3.27-7.82-1.36-9.89,1a11.75,11.75,0,0,0-2.91,8.59c.19,2.53,1.57,5.28,4.05,5.85s4.84-1.21,6.43-3.17a21.32,21.32,0,0,0,3.61-6.53,7.27,7.27,0,0,0,.47-3.16,3.14,3.14,0,0,0-1.76-2.54" fill="#fff"/>
</g>
<path d="M504.63,206.45a21.41,21.41,0,0,0-11.6-4.24,4.91,4.91,0,0,1,1.87-.13,15.38,15.38,0,0,1,8.39,3.07A4.87,4.87,0,0,1,504.63,206.45Z" fill="#ef947f"/>
<path d="M489.27,177.55a35.09,35.09,0,0,0-4.1,6.39,34.83,34.83,0,0,0-2.13,7.27,6.8,6.8,0,0,1,.1-2.25,19.18,19.18,0,0,1,1.56-5.24,19.48,19.48,0,0,1,2.93-4.61A6.94,6.94,0,0,1,489.27,177.55Z" fill="#ef947f"/>
<path d="M469.15,16.23s-32,52.45-33.88,66c-.41,3-.65,19.79-.65,19.79l-8.47,20.63,51.56,19.8,8.44-20.65s7.34,1.11,14.72-7.14,23.74-44.19,32.67-58.95c8-13.22,21.18-39.47,21.18-39.47Z" fill="#0085f2" data-primary="true"/>
<path d="M434.62,102a2.1,2.1,0,0,1,.53.19l1.47.65c1.27.58,3.12,1.39,5.42,2.38,4.58,2,11,4.52,18.16,7.12l18.39,6.57,5.55,2,1.5.59a1.7,1.7,0,0,1,.51.24,2,2,0,0,1-.54-.14l-1.54-.49-5.6-1.9c-4.73-1.61-11.28-3.81-18.45-6.42s-13.58-5.21-18.13-7.28c-2.28-1-4.11-1.89-5.36-2.53l-1.43-.74A3.58,3.58,0,0,1,434.62,102Z" fill="#9e9e9e" data-secondary="true"/>
<path d="M435.28,125.88a15.58,15.58,0,0,1,.78-3,73.87,73.87,0,0,1,2.62-7c1.15-2.65,2.37-5.08,3.3-6.76a15.44,15.44,0,0,1,1.65-2.65,24.12,24.12,0,0,1-1.32,2.82c-.85,1.72-2,4.11-3.15,6.79s-2.09,5.16-2.75,7A21.85,21.85,0,0,1,435.28,125.88Z" fill="#9e9e9e" data-secondary="true"/>
<path d="M455.72,111.55a20.27,20.27,0,0,1-1.16,2.87c-.75,1.76-1.77,4.19-2.81,6.91s-1.88,5.23-2.49,7a21.87,21.87,0,0,1-1,2.92,17.17,17.17,0,0,1,.69-3c.52-1.84,1.32-4.37,2.36-7.11a68.86,68.86,0,0,1,3-6.88A15.15,15.15,0,0,1,455.72,111.55Z" fill="#9e9e9e" data-secondary="true"/>
<path d="M470.84,117.37a102.76,102.76,0,0,1-3.9,9.55,100.53,100.53,0,0,1-4.37,9.35,101.65,101.65,0,0,1,3.9-9.55A100.53,100.53,0,0,1,470.84,117.37Z" fill="#9e9e9e" data-secondary="true"/>
<polygon points="427.58 125.16 428.31 123.46 474.42 141.18 472.63 146.01 427.58 125.16" fill="#f29f86"/>
<path d="M431.84,69.26l.82-2.39a8,8,0,0,0,0-5.06l-16.9-49.35L322,13.81l28.15,48.28,16.08,29.65A10.08,10.08,0,0,0,370,95.65l4.68,2.72,5.61,8.9,53.2-31.48Z" fill="#0085f2" data-primary="true"/>
<path d="M431.84,69.26l.82-2.39a8,8,0,0,0,0-5.06l-16.9-49.35L322,13.81l28.15,48.28,16.08,29.65A10.08,10.08,0,0,0,370,95.65l4.68,2.72,5.61,8.9,53.2-31.48Z" opacity="0.3"/>
<path d="M432,69.75a3.25,3.25,0,0,1-.55.36l-1.61,1c-1.41.81-3.46,2-6,3.38-5.09,2.81-12.18,6.6-20.11,10.59s-15.2,7.44-20.49,9.85c-2.65,1.21-4.8,2.17-6.29,2.82l-1.72.73a2.87,2.87,0,0,1-.62.22,2.45,2.45,0,0,1,.57-.32l1.69-.82,6.21-3c5.25-2.5,12.49-6,20.41-10s15-7.72,20.18-10.45l6.08-3.23,1.66-.86A2.11,2.11,0,0,1,432,69.75Z" fill="#9e9e9e" data-secondary="true"/>
<path d="M478.24,171.84s8.44,15.82,6.4,29A158.45,158.45,0,0,0,478.24,171.84Z" fill="#f29f86"/>
</g>
</g>
</svg>