 <!DOCTYPE svg PUBLIC "-//W3C//DTD SVG 1.1//EN" "http://www.w3.org/Graphics/SVG/1.1/DTD/svg11.dtd">
<svg xmlns="http://www.w3.org/2000/svg" xmlns:xlink="http://www.w3.org/1999/xlink" viewBox="0 0 865.76 682.89">
<defs>
<clipPath id="a">
<path d="M428,144s-19.65-39.71-34.62-50.29-50.13-16.08-58-16.16-27.6-4.76-27.6-4.76L258.56,30,189.37,102l37.91,40.5,1.85,11.07A113.29,113.29,0,0,0,242,184.53a190.71,190.71,0,0,0,21.26,27.89s4.9,19.45,15.05,24.45,23.46,5.07,23.46,5.07a57.54,57.54,0,0,0,28.63,3.92c15.21-2.17,24.05-11.3,37.41-19.12s50.71-30,50.71-30l31.37,24.45,23.72,22.51s31.29,26.89,37.55,27.92,20.46-5.75,18.05-16.67-24.13-32.69-24.13-32.69-19.73-21-30.13-32.57-38.82-39.1-38.82-39.1Z" fill="none"/>
</clipPath>
<clipPath id="b">
<path d="M400.75,151.82c5.94,7.71,24,51.41,25.82,64.9s-1.19,22-12,25-20,5-24.48,1.19-13.32-35.68-20.65-49.76-8.2-25.95-3.34-34.27c2.14-3.7,9.57-7.56,17.2-9.38C390.49,147.78,397.76,147.93,400.75,151.82Z" fill="none"/>
</clipPath>
<clipPath id="c">
<path d="M381.25,221.92c1,4.6-1.44,15.41-6.36,17.7s-17.26,9.25-27.42,4.25-10.41-6.16-11.74-14.91-10.82-48.89-10-58.75,11.32-11.55,22.89-11.09,13.74,10.24,13.74,10.24S380.23,217.33,381.25,221.92Z" fill="none"/>
</clipPath>
<clipPath id="d">
<path d="M343.58,80.57s18.65,5,28,4.86A36.43,36.43,0,0,1,397.16,95c6.63,7.64,12.94,15.2,19.44,23.2s17.13,18,20.2,28.1c2.54,8.41-5.6,37.13-5.6,37.13s-2,12.88-.09,21.45,1.79,17.55-4.79,19-12.47-.77-19.48-7.49-16.14-28-17.16-39.64c-.95-10.36,1-14,1-14s-9.82-6.8-13.57-17.71a84.87,84.87,0,0,1-4.44-17" fill="none"/>
</clipPath>
<style xmlns="http://www.w3.org/1999/xhtml">*, ::after, ::before { box-sizing: border-box; }
img, svg { vertical-align: middle; }
</style>
<style xmlns="http://www.w3.org/1999/xhtml">*, body, html { }
img, svg { max-width: 100%; }
</style>
</defs>
<polygon points="622.96 425.61 621.72 417.93 600.67 417.98 622.96 425.61" fill="#0071f2" data-primary="true"/>
<rect x="639" y="525.4" width="13.82" height="111.73" fill="#2f2e41" data-secondary="true"/>
<path d="M592.25,661.24H703.68s-7.19-15.23-29.29-23.85a71.89,71.89,0,0,0-54.58.8A60.12,60.12,0,0,0,592.25,661.24Z" fill="#d1d3d4"/>
<path d="M639,578l-42.73,38.06a3,3,0,0,0,2,5.16h94a4.21,4.21,0,0,0,2.72-7.42l-41.64-35.24v8.52l23.65,19a4.21,4.21,0,0,1-2.63,7.49h-55.9a3,3,0,0,1-2-5.14L638.87,588Z" fill="#d1d3d4"/>
<path d="M597.54,489.82h94.68a0,0,0,0,1,0,0v9.33a30.36,30.36,0,0,1-30.36,30.36h-34a30.36,30.36,0,0,1-30.36-30.36v-9.33A0,0,0,0,1,597.54,489.82Z" fill="#d1d3d4"/>
<path d="M555.33,592l-10.18,27.95c-5,15.08-12.43,24.23-18.81,29.66a32.86,32.86,0,0,1-25,7.75c-7.44-.86-9.24-4.06-9.38-6.75a6.76,6.76,0,0,1,1.24-4.16v0a8.15,8.15,0,0,1,.9-1.06l19.68-19.42c15-11.72,15.43-45.61,15.43-45.61A260.6,260.6,0,0,0,555.33,592Z" fill="#f9b499"/>
<path d="M546.49,643A15.48,15.48,0,0,1,541,653.41c-7.42,6.16-25.11,18.62-43,14.47,0,0-23.43-3-5.73-21l.94-.47a6.76,6.76,0,0,0-1.24,4.16c.14,2.69,1.94,5.89,9.38,6.75a32.86,32.86,0,0,0,25-7.75c6.38-5.43,13.82-14.58,18.81-29.66C545.15,619.93,547.38,633.43,546.49,643Z" fill="#0071f2" data-primary="true"/>
<path d="M492.24,635.1l-29.92,28.13s53.45,16.95,104.91,12.16L589,645.28S527.94,649.66,492.24,635.1Z" fill="#f1f2f2"/>
<path d="M560.25,670.11A.52.52,0,0,1,560,670a.51.51,0,0,1-.12-.7l13.76-19.74a.5.5,0,1,1,.82.57l-13.76,19.74A.5.5,0,0,1,560.25,670.11Z" fill="#e6e7e8"/>
<path d="M552.87,668.71a.52.52,0,0,1-.29-.09.5.5,0,0,1-.12-.7l13.76-19.15a.51.51,0,0,1,.7-.11.5.5,0,0,1,.12.7L553.28,668.5A.49.49,0,0,1,552.87,668.71Z" fill="#e6e7e8"/>
<path d="M546.29,668.51a.5.5,0,0,1-.41-.79l13.76-19.15a.51.51,0,0,1,.7-.11.5.5,0,0,1,.12.7L546.69,668.3A.48.48,0,0,1,546.29,668.51Z" fill="#e6e7e8"/>
<path d="M539.91,667.91a.53.53,0,0,1-.3-.09.51.51,0,0,1-.11-.7L553.26,648a.5.5,0,0,1,.7-.12.51.51,0,0,1,.11.7l-13.76,19.15A.51.51,0,0,1,539.91,667.91Z" fill="#e6e7e8"/>
<path d="M533.52,667.32a.53.53,0,0,1-.29-.1.51.51,0,0,1-.11-.7l13.76-19.14a.5.5,0,0,1,.7-.12.51.51,0,0,1,.11.7l-13.76,19.15A.52.52,0,0,1,533.52,667.32Z" fill="#e6e7e8"/>
<path d="M489.65,663.92a.48.48,0,0,1-.38-.17.49.49,0,0,1,.05-.7l18.75-16.36a.49.49,0,0,1,.7,0,.51.51,0,0,1,0,.71L490,663.8A.52.52,0,0,1,489.65,663.92Z" fill="#e6e7e8"/>
<path d="M484.26,662.13a.48.48,0,0,1-.37-.17.5.5,0,0,1,0-.71l18.75-16.35a.51.51,0,0,1,.71.05.49.49,0,0,1-.05.7L484.59,662A.5.5,0,0,1,484.26,662.13Z" fill="#e6e7e8"/>
<path d="M479.08,660.33a.48.48,0,0,1-.38-.17.49.49,0,0,1,.05-.7L497.5,643.1a.49.49,0,0,1,.7,0,.51.51,0,0,1-.05.71l-18.74,16.35A.54.54,0,0,1,479.08,660.33Z" fill="#e6e7e8"/>
<path d="M521.59,570.25s-6.14,2.87-20.16-16.53l8.31-8.16S518.48,553.49,521.59,570.25Z" fill="#2f2e41" data-secondary="true"/>
<g opacity="0.2">
<path d="M521.59,570.25s-6.14,2.87-20.16-16.53l8.31-8.16S518.48,553.49,521.59,570.25Z"/>
</g>
<path d="M509.74,545.56,494.06,562a9.66,9.66,0,0,0-2,3.35c-4.54,12.39-25.61,26.28-25.61,26.28-16.62,11.16-25.89,6.53-25.89,6.53-3.66-2-5.72-4-6.83-5.73a6,6,0,0,1,1.41-7.86h0l32-25.67a16.6,16.6,0,0,0,3.85-4.42l18.15-30.12C500.81,532.77,509.74,545.56,509.74,545.56Z" fill="#f9b499"/>
<path d="M491.21,576.89c-4.36,16.61-32.15,28.05-32.15,28.05-24.52,14.72-38.14,3.27-38.14,3.27-10.76-10.48,13.56-23.35,14.19-23.67a6,6,0,0,0-1.41,7.86c1.11,1.73,3.17,3.7,6.83,5.73,0,0,9.27,4.63,25.89-6.53,0,0,21.07-13.89,25.61-26.28A30.36,30.36,0,0,1,491.21,576.89Z" fill="#0071f2" data-primary="true"/>
<path d="M532.47,549.29l-3.22,31S552,593.21,567.6,595a6.58,6.58,0,0,0,7.29-5.94c1.79-19.4,8.45-81.43,21.66-97.35L628,489.24l1.61-13.7L592.52,456.6H548.19Z" fill="#2f2e41" data-secondary="true"/>
<g opacity="0.2">
<path d="M532.47,549.29l-3.22,31S552,593.21,567.6,595a6.58,6.58,0,0,0,7.29-5.94c1.79-19.4,8.45-81.43,21.66-97.35L628,489.24l1.61-13.7L592.52,456.6H548.19Z"/>
</g>
<path d="M652,434.84l-74-24.59s-20.15-6.45-39.49,20.95c0,0-25.91,36.9-49.83,90.94a3,3,0,0,0,.88,3.56c6.07,4.8,26.61,21.21,32,44.55a42.65,42.65,0,0,0,9.67-13.3l47.56-87.46,58,23.38s74.15,21.36,75.77-34.26Z" fill="#2f2e41" data-secondary="true"/>
<g opacity="0.2">
<path d="M518,551.81a.45.45,0,0,1-.25-.07.5.5,0,0,1-.18-.68l51.59-87.86a.49.49,0,0,1,.68-.18.49.49,0,0,1,.18.68l-51.59,87.86A.5.5,0,0,1,518,551.81Z"/>
</g>
<g opacity="0.2">
<path d="M669.75,477.86c-8.5,0-19.25-1.64-32.65-6.28-.18-.05-19.14-5.94-44.88-21.05-1-.59-1.9-1.15-2.71-1.69-1.12-.75-3.93-2.43-5.77-1.78a2.58,2.58,0,0,0-1.54,1.85,6.26,6.26,0,0,0-.22,2.17,4.47,4.47,0,0,1-1.12,3.5,4.84,4.84,0,0,1-4,1.09,4.73,4.73,0,0,0-3.35.72,2.92,2.92,0,0,0-.91,2.34.5.5,0,0,1-.5.5.5.5,0,0,1-.5-.5,3.88,3.88,0,0,1,1.27-3.11,5.6,5.6,0,0,1,4.11-.94,3.92,3.92,0,0,0,3.16-.81,3.56,3.56,0,0,0,.83-2.72,6.85,6.85,0,0,1,.26-2.53,3.5,3.5,0,0,1,2.16-2.5c2.18-.78,5.11.85,6.66,1.89.79.53,1.66,1.08,2.65,1.66,25.64,15,44.5,20.9,44.69,21,50.14,17.37,63.36-7.16,63.49-7.41a.5.5,0,0,1,.67-.22.51.51,0,0,1,.22.67c-.14.27-3.42,6.56-13.1,10.72A47.76,47.76,0,0,1,669.75,477.86Z"/>
</g>
<g opacity="0.2">
<path d="M578.82,470a.42.42,0,0,1-.22-.05.5.5,0,0,1-.23-.67l3.14-6.42a.5.5,0,1,1,.89.44l-3.13,6.42A.5.5,0,0,1,578.82,470Z"/>
</g>
<g opacity="0.2">
<polygon points="646.19 433.52 645.18 472.88 700.34 460.59 651.77 435.24 646.19 433.52"/>
</g>
<path d="M588.72,508.64s2.73-10.73,7.83-17L628,489.24s53.93-11.18,79.51-6.18c0,0,0,21.17-7,25Z" fill="#0071f2" data-primary="true"/>
<path d="M601.44,223.91s8-18.63,26.17-8.18c0,0,6.23,1,7,15.44,0,0,.53,5.44,5.86,10.73a21.21,21.21,0,0,0,4.59,3.39c2,1.1,6,4.66,4.49,15,0,0,0,6.07,4.41,9.19a21,21,0,0,1,3.75,3.22c2.78,3.18,6.57,9,3.54,14.73,0,0-14.84,13.88-34.68-2.52l-4.9-23.12-8.72-26.89Z" fill="#2f2e41" data-secondary="true"/>
<g opacity="0.2">
<path d="M601.44,223.91s8-18.63,26.17-8.18c0,0,6.23,1,7,15.44,0,0,.57,5.91,6.56,11.39a19.08,19.08,0,0,0,3.8,2.69c1.93,1,6.13,4.55,4.58,15,0,0,0,6.07,4.41,9.19a21,21,0,0,1,3.75,3.22c2.78,3.18,6.57,9,3.54,14.73,0,0-14.84,13.88-34.68-2.52l-4.9-23.12-8.72-26.89Z"/>
</g>
<path d="M594.76,329.22l33.94,60.27,15.74,20.63s7.33,13.31,9.78,52.4c0,0,51.54,2.87,72.91-9.21,0,0-20.44-91.06-38.09-125.9a109.51,109.51,0,0,1-5.11-23.23s-2.21-16.31-22.71-16.75l-34.68-2.52a22.53,22.53,0,0,1-8.81,22.76l5.57,11.15A79.71,79.71,0,0,1,594.76,329.22Z" fill="#0071f2" data-primary="true"/>
<polygon points="616.29 306.87 624.83 299.59 622.01 316.95 616.29 306.87" fill="#0071f2" data-primary="true"/>
<g opacity="0.2">
<polygon points="616.29 306.87 624.83 299.59 622.01 316.95 616.29 306.87"/>
</g>
<path d="M602.51,317.77,598.68,320,587,307.55s-1.74-4.06-.7-6.85l13.94,5.11Z" fill="#0071f2" data-primary="true"/>
<g opacity="0.2">
<path d="M602.51,317.77,598.68,320,587,307.55s-1.74-4.06-.7-6.85l13.94,5.11Z"/>
</g>
<path d="M605.26,388.89H611s-8.31-29.31.47-30l-17.47-31S595.51,360.66,605.26,388.89Z" fill="#0071f2" data-primary="true"/>
<g opacity="0.3">
<path d="M605.26,388.89H611s-8.31-29.31.47-30l-17.47-31S595.51,360.66,605.26,388.89Z"/>
</g>
<rect x="579.57" y="244.89" width="45.23" height="67.34" rx="17.3" transform="translate(-43.28 124.96) rotate(-11.44)" fill="#f9b499"/>
<path d="M592.76,229.89s2.74-15.9,22.9,1.77C615.66,231.66,603.12,227.53,592.76,229.89Z" fill="#0071f2" data-primary="true"/>
<g opacity="0.2">
<path d="M647.69,366.47a.5.5,0,0,1-.44-.27l-24.39-47.15a.5.5,0,1,1,.89-.46l24.39,47.15a.5.5,0,0,1-.22.67A.46.46,0,0,1,647.69,366.47Z"/>
</g>
<g opacity="0.2">
<path d="M642.82,356.25l-.15,0a.5.5,0,0,1-.33-.63l9.52-31.12a.48.48,0,0,1,.62-.33.5.5,0,0,1,.34.62l-9.53,31.13A.49.49,0,0,1,642.82,356.25Z"/>
</g>
<g opacity="0.2">
<path d="M655.13,364.38a.47.47,0,0,1-.3-.1c-.07,0-7.58-5.47-11.32-5.47a.5.5,0,0,1-.5-.5.5.5,0,0,1,.5-.5c4.07,0,11.59,5.43,11.91,5.67a.5.5,0,0,1,.11.69A.49.49,0,0,1,655.13,364.38Z"/>
</g>
<g opacity="0.2">
<path d="M655.82,311l-.18,0a.5.5,0,0,1-.28-.65c.07-.19,7.75-19.16,23.77-16.57a.49.49,0,0,1,.41.57.5.5,0,0,1-.57.42c-15.21-2.45-22.61,15.76-22.68,15.95A.51.51,0,0,1,655.82,311Z"/>
</g>
<g opacity="0.2">
<path d="M643.05,395.74a.5.5,0,0,1-.39-.18.52.52,0,0,1,.07-.71c20.59-16.93,43.32-59.58,43.55-60a.5.5,0,0,1,.88.47c-.23.43-23,43.26-43.8,60.31A.47.47,0,0,1,643.05,395.74Z"/>
</g>
<path d="M641.18,324.65l-5.55-33.93s-7.09-3.43-9.09-5.81c0,0,1.8,7-2.39,15.56L622,316.26Z" fill="#0071f2" data-primary="true"/>
<g opacity="0.4">
<path d="M641.18,324.65l-5.55-33.93s-7.09-3.43-9.09-5.81c0,0,1.8,7-2.39,15.56L622,316.26Z" fill="#fff"/>
</g>
<path d="M591.94,312.39s5.54,50.17,13.32,76.5h-6.19s-1.86-8.36-3.41-14.56c0,0-13.32,29.74-35,8.37,0,0-6.5-6.51-.93-28.5l7.75-31.59Z" fill="#0071f2" data-primary="true"/>
<path d="M601.86,318.27,587.3,328.5l-1.43-26.1S587,309.29,601.86,318.27Z" fill="#0071f2" data-primary="true"/>
<g opacity="0.4">
<path d="M601.86,318.27,587.3,328.5l-1.43-26.1S587,309.29,601.86,318.27Z" fill="#fff"/>
</g>
<path d="M569.35,324.67s-7.09-6.09,1.47-7.33Z" fill="#0071f2" data-primary="true"/>
<g opacity="0.2">
<path d="M569.35,324.67s-7.09-6.09,1.47-7.33Z"/>
</g>
<g opacity="0.2">
<path d="M583,382h-.05a.49.49,0,0,1-.44-.55c0-.27,3.09-27.18,3.09-49.81a.5.5,0,1,1,1,0c0,22.69-3.07,49.65-3.1,49.92A.51.51,0,0,1,583,382Z"/>
</g>
<g opacity="0.2">
<path d="M595.66,374.83a.49.49,0,0,1-.47-.34c-.64-1.92-6.54-31.32-5.29-46.35a.52.52,0,0,1,.54-.45.49.49,0,0,1,.45.54c-1.24,14.89,4.61,44,5.25,45.94a.52.52,0,0,1-.32.64A.44.44,0,0,1,595.66,374.83Z"/>
</g>
<path d="M601.86,318.27l4.33,8.21s-2.72,1.95-12.13,3l-.93-5.08Z" fill="#0071f2" data-primary="true"/>
<g opacity="0.2">
<path d="M601.86,318.27l4.33,8.21s-2.72,1.95-12.13,3l-.93-5.08Z"/>
</g>
<path d="M651.29,434.84l-28.35-9.59-1.22-7.32,25.74-.51c.58,2.64,1.42,5.29,2,8C650,428.4,650.76,432,651.29,434.84Z" fill="#0071f2" data-primary="true"/>
<g opacity="0.4">
<path d="M651.29,434.84l-28.35-9.59-1.22-7.32,25.74-.51c.58,2.64,1.42,5.29,2,8C650,428.4,650.76,432,651.29,434.84Z" fill="#fff"/>
</g>
<path d="M627.82,387.7l-17.07.24s-8.07-27.89.71-29.35Z" fill="#0071f2" data-primary="true"/>
<g opacity="0.4">
<path d="M627.82,387.7l-17.07.24s-8.07-27.89.71-29.35Z" fill="#fff"/>
</g>
<rect x="275.05" y="387.78" width="559.35" height="12.94" fill="#d1d3d4"/>
<polygon points="275.05 400 275.05 400.72 275.05 417.97 275.05 667.45 287.27 667.45 287.27 417.97 822.18 417.97 822.18 667.45 834.4 667.45 834.4 417.97 834.4 400.72 834.4 400 275.05 400" fill="#3f4347"/>
<ellipse cx="627.24" cy="274.86" rx="6.6" ry="10.33" fill="#f9b499"/>
<path d="M582.21,293.88s-12.6-18.9-15.09-29.6c0,0-3-10.71,6.47-17.68,0,0,9.67-13.26,19.17-16.72a11.34,11.34,0,0,1,2.76-.6c5.2-.48,25.07-1.23,34.33,13.84,0,0,6.58,9.85,1.35,23.54,0,0-3.09-1.88-4.58,5.58,0,0,.24,7.22-4.24,7.47a12.31,12.31,0,0,0-3.53-9.58,15,15,0,0,0-7.14-4.13l-.25-.07a18.59,18.59,0,0,1-12.32-11.21c-1.07-2.74-3.12-5.45-6.88-3.64a16.48,16.48,0,0,0-6.22,7.47,23.36,23.36,0,0,1-5.43,11.18,7.77,7.77,0,0,0-1.92,6.78Z" fill="#2f2e41" data-secondary="true"/>
<path d="M606.19,326.48l-7.9-14.09s-8.58-15.22-10.73-22.77a14.85,14.85,0,0,0-1.6-3.73c-2.65-4.31-8.54-14.63-5.35-16.16,0,0-4-6.12.34-6.28,0,0-.16-5.72,5.88-1.85,0,0-.46-7.28,8.06,0l14.55,15.79a14.12,14.12,0,0,1-1.11-4.62,1.94,1.94,0,0,1,2.94-1.72c3,1.85,8.06,6.44,8.55,16.76a24.3,24.3,0,0,1-1.73,9.81,13.16,13.16,0,0,0,.18,10.74l5,10.46a81.32,81.32,0,0,1-7.82,4.1A79.76,79.76,0,0,1,606.19,326.48Z" fill="#f7a48b"/>
<path d="M591.94,287.49a.49.49,0,0,1-.41-.22L580.19,270a.5.5,0,0,1,.84-.55l11.33,17.27a.5.5,0,0,1-.14.69A.48.48,0,0,1,591.94,287.49Z" fill="#ef907b"/>
<path d="M595.82,283.62a.49.49,0,0,1-.4-.2l-14.87-19.66a.5.5,0,0,1,.8-.61l14.86,19.67a.49.49,0,0,1-.39.8Z" fill="#ef907b"/>
<path d="M601.24,279.91a.51.51,0,0,1-.39-.19l-14.41-17.81a.5.5,0,0,1,.78-.63l14.4,17.81a.48.48,0,0,1-.07.7A.47.47,0,0,1,601.24,279.91Z" fill="#ef907b"/>
<path d="M616.1,285.79a.49.49,0,0,1-.38-.18l-7.13-8.67a.52.52,0,0,1,.07-.71.5.5,0,0,1,.7.07l7.13,8.67a.52.52,0,0,1-.07.71A.54.54,0,0,1,616.1,285.79Z" fill="#ef907b"/>
<path d="M583,333.05s7.08.4.26-5.79Z" fill="#0071f2" data-primary="true"/>
<g opacity="0.2">
<path d="M583,333.05s7.08.4.26-5.79Z"/>
</g>
<path d="M569.35,324.67l2.39-11.87a11.71,11.71,0,0,0-.6-8.26s-10.18-11-8.38-17c0,0,6.71-28.88,10.78-26.72,0,0,4-1.44,4.43,2.76,0,0,2.88.12,1.68,6,0,0,3.12,1.92.36,10.66l-1.38,10.64a3.31,3.31,0,0,0,.58,2.36c1.85,2.65,6.46,10.09,5.59,17.68L583,333.05S574.14,330.78,569.35,324.67Z" fill="#f7a48b"/>
<path d="M566,282.51l-.17,0a.5.5,0,0,1-.3-.64L573,261.16a.49.49,0,0,1,.64-.3.5.5,0,0,1,.3.64l-7.49,20.68A.5.5,0,0,1,566,282.51Z" fill="#ef907b"/>
<path d="M568.87,286a.58.58,0,0,1-.19,0,.5.5,0,0,1-.27-.66l8.9-21.37a.51.51,0,0,1,.66-.27.52.52,0,0,1,.27.66l-8.91,21.37A.51.51,0,0,1,568.87,286Z" fill="#ef907b"/>
<path d="M573.42,288.38l-.15,0a.49.49,0,0,1-.32-.63l5.86-17.85a.5.5,0,1,1,1,.31L573.9,288A.5.5,0,0,1,573.42,288.38Z" fill="#ef907b"/>
<path d="M752.39,394.34l-54.46,26a682.07,682.07,0,0,1,37.47,79.44l58-18.49S769.38,421.82,752.39,394.34Z" fill="#f1f2f2"/>
<path d="M720.91,421.32a.52.52,0,0,1-.43-.24.51.51,0,0,1,.17-.69l19-11.49a.5.5,0,0,1,.52.85l-19,11.49A.5.5,0,0,1,720.91,421.32Z" fill="#e6e7e8"/>
<path d="M717.91,438.8a.49.49,0,0,1-.45-.29.49.49,0,0,1,.24-.66l40-18.49a.51.51,0,0,1,.67.25.49.49,0,0,1-.25.66l-40,18.49A.49.49,0,0,1,717.91,438.8Z" fill="#e6e7e8"/>
<path d="M722.41,446.3A.49.49,0,0,1,722,446a.5.5,0,0,1,.24-.67l40.47-19a.49.49,0,0,1,.66.24.5.5,0,0,1-.24.67l-40.47,19A.54.54,0,0,1,722.41,446.3Z" fill="#e6e7e8"/>
<path d="M724.91,452.29a.51.51,0,0,1-.46-.29.5.5,0,0,1,.25-.66l40.48-18a.5.5,0,1,1,.4.91l-40.47,18A.48.48,0,0,1,724.91,452.29Z" fill="#e6e7e8"/>
<path d="M728.41,458.79a.5.5,0,0,1-.46-.3.51.51,0,0,1,.25-.66l39-17.48a.49.49,0,0,1,.66.25.5.5,0,0,1-.25.66l-39,17.48A.39.39,0,0,1,728.41,458.79Z" fill="#e6e7e8"/>
<path d="M733.9,475.28a.48.48,0,0,1-.46-.33.5.5,0,0,1,.28-.64l42-16a.5.5,0,0,1,.36.94l-42,16A.39.39,0,0,1,733.9,475.28Z" fill="#e6e7e8"/>
<path d="M737.4,481.77a.5.5,0,0,1-.18-1l41-15.48a.5.5,0,0,1,.65.29.51.51,0,0,1-.29.64l-41,15.49Z" fill="#e6e7e8"/>
<path d="M766.88,477.28a.5.5,0,0,1-.19-1l15-6a.5.5,0,1,1,.37.92l-15,6A.58.58,0,0,1,766.88,477.28Z" fill="#e6e7e8"/>
<polygon points="411.68 307.24 434.37 390.74 541.83 390.74 517.88 306.29 411.68 307.24" fill="#2f2e41" data-secondary="true"/>
<polygon points="541.83 390.74 603.59 390.74 603.59 385.38 540.25 385.38 541.83 390.74" fill="#2f2e41" data-secondary="true"/>
<g opacity="0.2">
<polygon points="541.83 390.74 603.59 390.74 603.59 385.38 540.25 385.38 541.83 390.74"/>
</g>
<polygon points="603.59 385.38 539.05 380.98 540.25 385.38 603.59 385.38" fill="#d1d3d4"/>
<path d="M428,144s-19.65-39.71-34.62-50.29-50.13-16.08-58-16.16-27.6-4.76-27.6-4.76L258.56,30,189.37,102l37.91,40.5,1.85,11.07A113.29,113.29,0,0,0,242,184.53a190.71,190.71,0,0,0,21.26,27.89s4.9,19.45,15.05,24.45,23.46,5.07,23.46,5.07a57.54,57.54,0,0,0,28.63,3.92c15.21-2.17,24.05-11.3,37.41-19.12s50.71-30,50.71-30l31.37,24.45,23.72,22.51s31.29,26.89,37.55,27.92,20.46-5.75,18.05-16.67-24.13-32.69-24.13-32.69-19.73-21-30.13-32.57-38.82-39.1-38.82-39.1Z" fill="#f9b499"/>
<g clip-path="url(#a)">
<path d="M418,162.58c-1.57,11.06-5.13,19.21.1,30.77q1.11,2.46,2.24,4.86l29.54,23,23.72,22.51s31.29,26.9,37.55,27.92,20.47-5.73,18-16.67c-.7-3.17-3-7.27-6-11.48l-.95-.22s2.68,12.13-7.61,17.08S489.67,250.5,484.43,245s-12.12-9.37-22.18-18.53-12.81-18.59-12.81-18.59-10.13-6.46-13.81-11-.75-24.6,5.85-34.09a19.53,19.53,0,0,0,2.42-4.47c-4.61-4.57-7.8-7.65-7.8-7.65l-5.16-4.22A21.23,21.23,0,0,0,418,162.58Z" fill="#f7a48b"/>
<path d="M227.28,142.5l1.84,11.06A112.94,112.94,0,0,0,242,184.51a191.18,191.18,0,0,0,21.25,27.89s4.9,19.44,15.06,24.44,23.45,5.07,23.45,5.07a57.48,57.48,0,0,0,28.64,3.93,45.7,45.7,0,0,0,15.43-5.18l-12.4-24.57s-6,9.35-16.18,11.61-17.64-10.16-18.9-21.93c-.32-3-.75-5.69-1.12-8.16.14-.81.28-1.69.44-2.63.72-4.54,1.18-8.66,1.37-12a9.07,9.07,0,0,1,1.41-1.13c5.47-3.48,15.87-6.18,20.51-7.21L326,177.9s8.71-11.58,15.61-12.51,21.83,7.89,21.83,7.89,10.87-14.45,14.41-16.57,18.2-10,18.2-10-27.57-8.93-34-28.93c0,0,4.48,18-4.32,26.67s-25,8.2-34.53,4.29-17.63-22.22-18.06-18.1,9,19.43,9.41,21.35-4.72-.14-10-5.83-7.7-25.74-11.46-21.56,5.57,22.19,1.74,23-7.86-8.3-12.6-14.62-5.39-.15-2.07,11.84,21.53,18.67,24.51,20c1,.46,2.45,1.28,4,2.15-4,1.5-7.22,3.12-10,8.7-.42-1.19-1.17-1-2.24,1.07-3.16,6.1-4.34,6.29-3.62,9.53s-6,12.52-9.88,19.23-7.24,11.34-7.18,5,5.65-11.75,5.65-11.75-10.07,2.9-18.71.12-20.11-24.34-18.82-36.67,11.08-22.54,13.36-24.38-2.91-4-9.22.7a59.33,59.33,0,0,0-10.93,11.12s-1.27-11.77,5.12-19.21c1-1.14,1.65-1.86,2.05-2.29-1.29,1.16-5,3.94-8.07,2.29-5.32-2.85-16.7-19.32-16.7-19.32l14.93-21.2,14.19,9.67L237.28,85.87l31.33-44.41-74.17,65.93Zm58.29,84.15c-.7-3.19,1.08-10.28,1.08-10.28a21.54,21.54,0,0,1-2.66,2.57,23.66,23.66,0,0,1,8.57-10.11c.43,13.75,5.28,18.24,1.66,20.6C289.54,232.47,286.28,229.84,285.57,226.65Z" fill="#f7a48b"/>
<path d="M268.29,112.78a161.47,161.47,0,0,1,14-13.8s-9.19,2.51-14.66,8.59a38,38,0,0,0-7.5,12.37S263.28,118.75,268.29,112.78Z" fill="#f7a48b"/>
</g>
<path d="M400.75,151.82c5.94,7.71,24,51.41,25.82,64.9s-1.19,22-12,25-20,5-24.48,1.19-13.32-35.68-20.65-49.76-8.2-25.95-3.34-34.27c2.14-3.7,9.57-7.56,17.2-9.38C390.49,147.78,397.76,147.93,400.75,151.82Z" fill="#f9b499"/>
<g clip-path="url(#b)">
<path d="M428.72,223.13s.13,12.69-6.68,18.21-28.1,6.23-31.94,1.56-20.65-49.76-22.94-59.05-7.52-25.93,5.24-32.3c8.9-4.43,13,6,13,6s-19.29,1.34-19.15,13.13c.07,6.2,9.9,20.58,14.5,32.28s10,27.24,19,25.26a53,53,0,0,0,15.39-6.08A56,56,0,0,0,428.72,223.13Z" fill="#f7a48b"/>
</g>
<path d="M381.25,221.92c1,4.6-1.44,15.41-6.36,17.7s-17.26,9.25-27.42,4.25-10.41-6.16-11.74-14.91-10.82-48.89-10-58.75,11.32-11.55,22.89-11.09,13.74,10.24,13.74,10.24S380.23,217.33,381.25,221.92Z" fill="#f9b499"/>
<g clip-path="url(#c)">
<path d="M378.79,233.44c-3.56,8.15-7.25,9.64-18,12.67s-19-1.15-22.61-8.39-6.37-22.74-10-45.31-3.42-30,12.69-32.88,19.26,7.79,19.26,7.79-3-1.35-8.79-3.41-22.76,3-23.48,11.88,5.37,18.23,7.48,27.81,4.16,21.84,8.49,20.21,14.82-2.6,10.56,2.35-12.34,4.74-10.86,8.43,20.78-5.93,27.59-11.46,5.2-15.87,5.2-15.87C384.13,218.26,382.34,225.29,378.79,233.44Z" fill="#f7a48b"/>
</g>
<path d="M298.27,227.89a.5.5,0,0,1-.4-.19c-8.44-10.87-4.9-32.65-4.75-33.57,0-.11,2-10.69,2.84-17.42.86-6.93,11.07-10.62,16.36-11.6,8-1.49,13.93,12,14.18,12.59a.5.5,0,0,1-.26.66.5.5,0,0,1-.66-.26c-.06-.13-5.95-13.32-13.08-12-5,.94-14.76,4.39-15.55,10.74-.84,6.77-2.82,17.37-2.84,17.48s-3.62,22.25,4.55,32.78a.5.5,0,0,1-.08.7A.52.52,0,0,1,298.27,227.89Z" fill="#ef907b"/>
<path d="M281.66,225.11a.34.34,0,0,1-.14,0,.5.5,0,0,1-.35-.61c3.36-12.25,10.67-17,11-17.15a.5.5,0,0,1,.69.15.51.51,0,0,1-.16.69c-.07.05-7.3,4.73-10.54,16.57A.49.49,0,0,1,281.66,225.11Z" fill="#ef907b"/>
<path d="M327.12,163.17H327c-.19,0-19.27-3.92-28.2-22.49a.5.5,0,1,1,.9-.43c8.7,18.1,27.31,21.9,27.49,21.94a.5.5,0,0,1,.4.58A.51.51,0,0,1,327.12,163.17Z" fill="#ef907b"/>
<path d="M244.82,145.79l-.14,0a.5.5,0,0,1-.34-.62c3-10.17,12.63-15.89,21.15-20.94,2.44-1.45,4.74-2.81,6.74-4.2a40.07,40.07,0,0,0,12.69-15.32.5.5,0,0,1,.91.42,41.22,41.22,0,0,1-13,15.72c-2,1.41-4.36,2.78-6.81,4.24-8.36,5-17.83,10.57-20.7,20.36A.52.52,0,0,1,244.82,145.79Z" fill="#ef907b"/>
<path d="M237.59,143.13l-.11,0a.5.5,0,0,1-.38-.6c2.77-12.15,15.25-19.73,15.78-20a.5.5,0,1,1,.51.85c-.12.08-12.64,7.69-15.31,19.42A.51.51,0,0,1,237.59,143.13Z" fill="#ef907b"/>
<path d="M485.86,239.73a.53.53,0,0,1-.24-.06.5.5,0,0,1-.19-.68c3.46-6.19,12.85-16.46,13.25-16.89a.5.5,0,0,1,.71,0,.5.5,0,0,1,0,.7c-.1.11-9.71,10.62-13.12,16.71A.5.5,0,0,1,485.86,239.73Z" fill="#ef907b"/>
<path d="M454.44,212.28h-.12a.51.51,0,0,1-.37-.61c2.63-10.34,13.26-15.75,13.72-16a.5.5,0,1,1,.44.9c-.1,0-10.68,5.43-13.19,15.33A.49.49,0,0,1,454.44,212.28Z" fill="#ef907b"/>
<path d="M343.58,80.57s18.65,5,28,4.86A36.43,36.43,0,0,1,397.16,95c6.63,7.64,12.94,15.2,19.44,23.2s17.13,18,20.2,28.1c2.54,8.41-5.6,37.13-5.6,37.13s-2,12.88-.09,21.45,1.79,17.55-4.79,19-12.47-.77-19.48-7.49-16.14-28-17.16-39.64c-.95-10.36,1-14,1-14s-9.82-6.8-13.57-17.71a84.87,84.87,0,0,1-4.44-17" fill="#f9b499"/>
<g clip-path="url(#d)">
<path d="M435.93,186.06c-1.93,12.47-1.54,38.49-10.47,40.47s-24.52-8-30.4-19.39-9.59-43.4-9.59-43.4a24,24,0,0,0-5-10.79c-4.18-5-3.22-4.95-6.64-17.28-1.24-4.45-2.47-11.14-2.47-11.14s-1.1-8.31,2.44-4.41,6.36,22.7,9.34,24,10.64-6.37,17-7.78,3.4,3.26-1.93,12.47-8,9.14,12.2.65,26,5.64,26,5.64S437.86,173.58,435.93,186.06Z" fill="#f7a48b"/>
</g>
<path d="M390.68,163.19h0a.49.49,0,0,1-.47-.44v-.08c0-.61.86-14.9,6.82-21.11a.5.5,0,0,1,.72.7c-3.92,4.08-5.54,12.16-6.17,16.85,1.19-1.71,3.43-3.6,7.6-4.52a.49.49,0,0,1,.6.38.5.5,0,0,1-.38.6c-7.79,1.72-8.18,6.92-8.19,7.15h0A.5.5,0,0,1,390.68,163.19Z" fill="#ef907b"/>
<path d="M378.91,151a.46.46,0,0,1-.23-.06c-.15-.07-14.48-7.88-16-30.26a.5.5,0,0,1,.47-.53.49.49,0,0,1,.53.46c1.52,21.8,15.36,29.37,15.5,29.45a.49.49,0,0,1,.21.67A.5.5,0,0,1,378.91,151Z" fill="#ef907b"/>
<path d="M432.83,150.33a.46.46,0,0,1-.29-.1,18.76,18.76,0,0,0-19.89-1.46.49.49,0,0,1-.67-.21.49.49,0,0,1,.2-.67,19.74,19.74,0,0,1,20.95,1.54.51.51,0,0,1,.11.7A.51.51,0,0,1,432.83,150.33Z" fill="#ef907b"/>
<path d="M418.16,221.78c-3.24,0-5.46-2.64-6.61-7.84-.58-2.62-1.67-9.4-2.11-12.19a4.59,4.59,0,0,1,2.68-4.88,15.9,15.9,0,0,1,15.43,1.4.49.49,0,0,1,.13.69.5.5,0,0,1-.69.14,14.91,14.91,0,0,0-14.46-1.32,3.59,3.59,0,0,0-2.1,3.81c.34,2.17,1.5,9.47,2.09,12.13,1.06,4.77,3,7.17,5.79,7.06.74,0,1.51,0,2.28,0,3.19,0,6.48,0,7.88-1.41,1.66-1.65,2.09-3.67-.45-17.21a.48.48,0,0,1,.39-.58.49.49,0,0,1,.59.39c2.51,13.39,2.28,16,.17,18.11-1.69,1.68-5.19,1.69-8.58,1.7-.76,0-1.52,0-2.25,0Z" fill="#ef907b"/>
<path d="M428,144.49a.45.45,0,0,1-.2,0c-.09,0-8.54-3.73-15.46-.27a.5.5,0,0,1-.45-.9c7.35-3.66,15.95.1,16.31.26a.5.5,0,0,1,.26.66A.52.52,0,0,1,428,144.49Z" fill="#ef907b"/>
<path d="M352.89,242.16a.5.5,0,0,1-.07-1c14-1.78,19.53-6.88,19.58-6.93a.5.5,0,0,1,.71,0,.49.49,0,0,1,0,.7c-.23.22-5.82,5.38-20.14,7.2Z" fill="#ef907b"/>
<path d="M397.25,240.36a.5.5,0,0,1-.09-1c17.35-3.19,19.83-5.6,19.85-5.63a.5.5,0,1,1,.76.66c-.23.26-2.75,2.7-20.43,5.95Z" fill="#ef907b"/>
<path d="M404.83,235.35a.5.5,0,0,1-.21-1c11.57-5.23,16.36-5,16.55-5a.49.49,0,0,1,.47.53.52.52,0,0,1-.53.47s-4.79-.21-16.07,4.9A.78.78,0,0,1,404.83,235.35Z" fill="#ef907b"/>
<path d="M331.78,170.65a.51.51,0,0,1-.39-.18.49.49,0,0,1,.08-.7c10.3-8.36,17-5.89,17.27-5.78a.5.5,0,0,1-.36.93c-.06,0-6.47-2.33-16.28,5.62A.48.48,0,0,1,331.78,170.65Z" fill="#ef907b"/>
<path d="M367,166.88a.45.45,0,0,1-.27-.08.5.5,0,0,1-.15-.69c6.57-10.33,13.94-8,14.24-7.91a.49.49,0,0,1,.32.63.5.5,0,0,1-.63.32c-.28-.09-7-2.15-13.09,7.5A.51.51,0,0,1,367,166.88Z" fill="#ef907b"/>
<path d="M316.18,160.81l-.13,0a65.86,65.86,0,0,1-32.6-20.44.5.5,0,0,1,.05-.7.5.5,0,0,1,.71,0,64.89,64.89,0,0,0,32.1,20.13.49.49,0,0,1,.35.61A.5.5,0,0,1,316.18,160.81Z" fill="#ef907b"/>
<path d="M295.3,183.62a.51.51,0,0,1-.43-.76,21.31,21.31,0,0,1,18.94-10.13.5.5,0,0,1,0,1h0a20.27,20.27,0,0,0-18,9.65A.49.49,0,0,1,295.3,183.62Z" fill="#ef907b"/>
<path d="M348.82,240a.54.54,0,0,1-.59-.5.5.5,0,0,1,.5-.5s.06,0,.09,0a27.6,27.6,0,0,0,15-4.39.5.5,0,0,1,.54.84A28.64,28.64,0,0,1,348.82,240Z" fill="#ef907b"/>
<path d="M457.46,212.22a.52.52,0,0,1-.39-.19.5.5,0,0,1,.08-.7,45.55,45.55,0,0,0,9.6-10.48.5.5,0,0,1,.84.55,47.13,47.13,0,0,1-9.81,10.71A.56.56,0,0,1,457.46,212.22Z" fill="#ef907b"/>
<path d="M433,180.77a.49.49,0,0,1-.5-.49c-.14-6.14,8.74-14.07,9.11-14.41a.5.5,0,1,1,.67.75c-.09.08-8.91,8-8.78,13.64a.5.5,0,0,1-.49.51Z" fill="#ef907b"/>
<polygon points="253.09 5.21 150.71 93.63 181.73 130.22 276.32 33.88 253.09 5.21" fill="#f1f2f2"/>
<polygon points="160.1 101.95 167.21 111.05 256.24 16.2 160.1 101.95" fill="#e6e7e8"/>
<path d="M177.09,110.11a4.71,4.71,0,0,1,3.58-5.61h0a4.72,4.72,0,1,1-3.59,5.63Z" fill="#2f2e41" data-secondary="true"/>
<polygon points="261.38 10.02 142.1 125.7 27.36 -0.36 253.07 -0.36 261.38 10.02" fill="#2f2e41" data-secondary="true"/>
<path d="M135.42,107.25a5.49,5.49,0,0,1,4.18-6.55h0a5.5,5.5,0,1,1-4.19,6.56Z" fill="#fff"/>
<path d="M140.78,112.08a5.87,5.87,0,0,1-3.21-1,6,6,0,0,1-2.64-3.76v-.06a6,6,0,1,1,7.17,4.62A5.79,5.79,0,0,1,140.78,112.08Zm-4.86-4.88a5,5,0,0,0,6,3.76,5,5,0,0,0,3.8-6,5,5,0,0,0-6-3.8,5,5,0,0,0-3.81,6Z" fill="#263238"/>
<path d="M124.79,84.67h0a5.5,5.5,0,1,1-4.18,6.56A5.49,5.49,0,0,1,124.79,84.67Z" fill="#fff"/>
<path d="M126,96.05a6,6,0,0,1-1.29-11.87h0a6,6,0,1,1,2.6,11.72A5.92,5.92,0,0,1,126,96.05Zm0-11a5,5,0,0,0-1.08.12h0a4.92,4.92,0,0,0-3.14,2.19A5,5,0,1,0,126,85Z" fill="#263238"/>
<circle cx="111.16" cy="74" r="5.5" transform="translate(-13.35 25.73) rotate(-12.46)" fill="#fff"/>
<path d="M111.15,80a6,6,0,0,1-3.22-.94,5.94,5.94,0,0,1-2.63-3.77A6,6,0,1,1,117,72.7h0a6,6,0,0,1-4.56,7.16A6.56,6.56,0,0,1,111.15,80Zm0-11a5,5,0,0,0-1.08.12,5,5,0,0,0-3.81,6,5,5,0,0,0,9.11,1.61,5,5,0,0,0,.67-3.77h0A5,5,0,0,0,111.16,69Z" fill="#263238"/>
</svg>