 <!DOCTYPE svg PUBLIC "-//W3C//DTD SVG 1.1//EN" "http://www.w3.org/Graphics/SVG/1.1/DTD/svg11.dtd">
<svg xmlns="http://www.w3.org/2000/svg" width="865.76" height="682.89" viewBox="0 0 865.76 682.89">
  <defs>
<style xmlns="http://www.w3.org/1999/xhtml">*, ::after, ::before { box-sizing: border-box; }
img, svg { vertical-align: middle; }
</style>
<style xmlns="http://www.w3.org/1999/xhtml">*, body, html { }
img, svg { max-width: 100%; }
</style>
</defs>
<rect x="35.5" y="525.54" width="774.62" height="0.39" fill="#ebebeb"/>
  <rect x="681.2" y="550.47" width="51.31" height="0.39" fill="#ebebeb"/>
  <rect x="535.18" y="554.68" width="13.46" height="0.39" fill="#ebebeb"/>
  <rect x="649.92" y="536.09" width="29.73" height="0.39" fill="#ebebeb"/>
  <rect x="116.78" y="538.69" width="66.91" height="0.39" fill="#ebebeb"/>
  <rect x="197.49" y="538.69" width="9.81" height="0.39" fill="#ebebeb"/>
  <rect x="239.18" y="545.23" width="145.13" height="0.39" fill="#ebebeb"/>
  <path d="M402.68,456.44H103.53a8.84,8.84,0,0,1-8.83-8.84V27.08a8.84,8.84,0,0,1,8.83-8.76H402.68a8.84,8.84,0,0,1,8.84,8.84h0V447.6A8.84,8.84,0,0,1,402.68,456.44ZM103.53,18.63a8.45,8.45,0,0,0-8.44,8.45V447.6a8.45,8.45,0,0,0,8.44,8.45H402.68a8.46,8.46,0,0,0,8.45-8.45V27.08a8.46,8.46,0,0,0-8.45-8.45Z" fill="#ebebeb"/>
  <path d="M737.79,456.44H438.63a8.86,8.86,0,0,1-8.84-8.84V27.08a8.85,8.85,0,0,1,8.84-8.76H737.79a8.84,8.84,0,0,1,8.82,8.76V447.6A8.84,8.84,0,0,1,737.79,456.44ZM438.63,18.63a8.47,8.47,0,0,0-8.46,8.45V447.6a8.47,8.47,0,0,0,8.46,8.45H737.79a8.47,8.47,0,0,0,8.46-8.45V27.08a8.47,8.47,0,0,0-8.46-8.45Z" fill="#ebebeb"/>
  <path d="M566.51,344.52c0-.34-1.13-33.58-6.54-38.83s-11.29-.19-11.56,0l-.54-.66s6.88-5.6,12.69,0,6.75,38,6.8,39.42Z" fill="#e0e0e0"/>
  <path d="M567,351.06c0-.4-3.69-39.91,10.74-56.47l.63.54c-14.19,16.3-10.56,55.45-10.52,55.78Z" fill="#e0e0e0"/>
  <path d="M566.45,346.88h-.86c0-.45,2.84-44.93-7.74-54.66l.57-.62C569.3,301.55,566.57,345,566.45,346.88Z" fill="#e0e0e0"/>
  <path d="M567.82,346.85H567c0-1.23.36-30,8.54-34.74a5.79,5.79,0,0,1,5.3-.51c4.94,2,7.4,10.85,7.5,11.24l-.83.21c0-.09-2.43-8.78-7-10.67a5,5,0,0,0-4.55.46C568.17,317.32,567.82,346.55,567.82,346.85Z" fill="#e0e0e0"/>
  <path d="M564.63,346.88h-.85c0-.23,1.24-22.77-4.85-30.72a5.66,5.66,0,0,0-4.75-2.73c-4,.28-7.33,6.12-7.36,6.2l-.75-.42c.14-.26,3.6-6.29,8-6.6a6.41,6.41,0,0,1,5.5,3.1C565.89,323.8,564.68,345.93,564.63,346.88Z" fill="#e0e0e0"/>
  <path d="M566,350c-.18-2.2-4-53.67,2.72-62.75l.68.51c-6.52,8.82-2.6,61.63-2.55,62.16Z" fill="#e0e0e0"/>
  <path d="M582.64,316.81s-4,1.55-2.84,5,13.94,9.29,13.94,9.29,5.33-4.88.45-12.83S582.74,314.31,582.64,316.81Z" fill="#ebebeb"/>
  <path d="M565.14,310.15s4.28-.17,4.53,3.51-9.3,13.95-9.3,13.95-6.8-2.47-5.34-11.68S564.08,307.89,565.14,310.15Z" fill="#ebebeb"/>
  <path d="M561.5,292.53s2.87-.29,2.64-2-11.11-6.2-17.52,1c0,0,4.1,7.06,10,7.16S561.5,292.53,561.5,292.53Z" fill="#ebebeb"/>
  <path d="M566.89,288.26s-2.58,1.24-3.31-.36,6.2-11.14,15.41-8.4c0,0,.25,8.17-4.74,11.39S566.89,288.26,566.89,288.26Z" fill="#ebebeb"/>
  <path d="M553.31,315.41s2-1.54-.16-2.37-12.56-.55-12.67,9.78c0,0,12.16,2,13.66-1.92S553.31,315.41,553.31,315.41Z" fill="#ebebeb"/>
  <path d="M578.1,292.22s-2-1.55.15-2.37,12.58-.56,12.69,9.78c0,0-12.16,2-13.67-1.92S578.1,292.22,578.1,292.22Z" fill="#ebebeb"/>
  <path d="M571.67,300.54s-.17-1.93,1.39-1.18,7,6.63,1.36,12.21c0,0-7.59-5.62-6.19-8.55S571.67,300.54,571.67,300.54Z" fill="#ebebeb"/>
  <path d="M551.54,303.38s1.18-1.55-.54-1.74-9.47,1.88-7.65,9.61c0,0,9.42-.72,9.82-3.92S551.54,303.38,551.54,303.38Z" fill="#ebebeb"/>
  <polygon points="583.38 375.51 551.05 375.51 547.56 340.11 586.87 340.11 583.38 375.51" fill="#f0f0f0"/>
  <rect x="545.84" y="336.21" width="42.76" height="7.81" fill="#e6e6e6"/>
  <path d="M297,516.41H327.4l-16-154.92c-.66-6.55-5.68-11.88-11.18-11.88H167.75l19.43,166.8Z" fill="#f5f5f5"/>
  <path d="M200.73,516.41H170.37l-16-154.92c-.66-6.55,3.24-11.88,8.76-11.88h10.42c5.5,0,10.52,5.33,11.19,11.88Z" fill="#f0f0f0"/>
  <path d="M211.92,516.23l-5.5-75a6.74,6.74,0,0,0-5.22-6.48l-2.27-.34c-3.74-.57-6.66-4.18-7-8.67l-1-13.67c-.4-5.61,3.3-10.42,8-10.42H148.21c-4.65,0-8.43,4.81-8,10.42l1,13.67c.34,4.49,3.26,8.1,7,8.67l2.26.34a6.72,6.72,0,0,1,5.2,6.48l5.5,75c.41,5.47,4.25,9.67,8.85,9.67h50.74C216.15,525.89,212.32,521.7,211.92,516.23Z" fill="#e6e6e6"/>
  <path d="M351.55,422.5c.85-11.78,9.13-20.81,19-20.81H326.42c-9.91,0-18.17,9-19,20.81L303,481.93H347.2Z" fill="#e6e6e6"/>
  <path d="M390.28,401.69H370.61c-9.92,0-18.19,9-19,20.81l-4.37,59.43H242l-4.37-59.43c-.87-11.78-9.13-20.81-19-20.81H199c-4.65,0-8.41,4.82-8,10.43l1,13.65c.32,4.49,3.24,8.1,7,8.67l2.26.34a6.74,6.74,0,0,1,5.22,6.48l5.5,75c.4,5.47,4.23,9.67,8.83,9.67H368.45c4.65,0,8.45-4.2,8.85-9.67l5.47-75a6.72,6.72,0,0,1,5.2-6.48l2.26-.34c3.77-.57,6.67-4.18,7-8.67l1-13.67C398.65,406.51,394.93,401.69,390.28,401.69Z" fill="#f0f0f0"/>
  <path d="M658.53,160.65a1662.1,1662.1,0,0,1-468.29,0l13.2-92.76a1567.22,1567.22,0,0,0,441.89,0Z" fill="#f5f5f5"/>
  <path d="M402.83,94.74q0,6.51-.17,13h-1.38c0-2,0-4,.08-6l-8.24-.14c0,2-.08,4-.13,6H391.6c.09-4.34.17-8.66.26-13h1.4c0,1.92,0,3.86-.13,5.8l8.26.13c0-1.93,0-3.87.08-5.79Z" fill="#e0e0e0"/>
  <path d="M415.3,104.39h-7.36l-1.62,3.46h-1.46q3.11-6.46,6.2-12.94h1.36q2.94,6.51,6,13h-1.54C416.35,106.72,415.83,105.55,415.3,104.39Zm-.49-1.11-3.1-7-3.23,7Z" fill="#e0e0e0"/>
  <path d="M430.89,99.33c0,2.77-2,4.46-5.38,4.46H422v4.1h-1.39v-13h4.91C428.84,94.88,430.87,96.55,430.89,99.33Zm-1.4,0c0-2.1-1.41-3.27-4-3.27H422v6.5h3.5c2.65,0,4-1.17,4-3.22Z" fill="#e0e0e0"/>
  <path d="M444.21,99.22c0,2.77-2,4.47-5.34,4.51h-3.55v4.1h-1.4q0-6.51-.07-13h4.91C442.12,94.79,444.18,96.43,444.21,99.22Zm-1.39,0c0-2.08-1.43-3.26-4.06-3.22h-3.49v6.5h3.5c2.64,0,4.08-1.22,4.05-3.27Z" fill="#e0e0e0"/>
  <path d="M451.82,103.15v4.51h-1.38c0-1.55,0-3-.08-4.49-1.81-2.81-3.61-5.63-5.39-8.43h1.47l4.65,7.24,4.38-7.38h1.38Q454.39,98.88,451.82,103.15Z" fill="#e0e0e0"/>
  <path d="M295,112.09q-1.65,20.46-3.32,40.9l-6.57-.54q-10.68-14.87-20.94-29.84l-2.74,27.66-7.92-.83q2.13-20.4,4.26-40.8l6.4.65q10.14,15,20.74,29.87l2.37-27.69Z" fill="#e0e0e0"/>
  <path d="M335.87,149.57c-.12,2.14-.23,4.26-.34,6.38q-16.14-.87-32.29-2.06l3.1-40.93q15.33,1.13,30.65,2c-.13,2.12-.24,4.26-.36,6.38q-11.47-.63-22.93-1.43L313,130.54q10.25.71,20.48,1.27-.17,3.15-.36,6.28-10.26-.57-20.56-1.3-.36,5.66-.77,11.29Q323.79,148.92,335.87,149.57Z" fill="#e0e0e0"/>
  <path d="M407.23,117.24q-7.17,20.43-14.72,40.8-4.25,0-8.5-.18-5-15.3-9.7-30.65-5.79,15-11.78,30l-8.56-.34q-6.2-20.79-12.15-41.66l8.09.4q4.5,15.81,9.2,31.61,6.19-15.36,12.1-30.75l7.2.21q4.88,15.82,9.93,31.62,5.84-15.5,11.44-31.15Z" fill="#e0e0e0"/>
  <path d="M449.59,143.68l.23,14.49-8,.09q0-7.19-.16-14.36-8.53-13.25-16.79-26.59h8.35q6.19,10,12.57,19.88Q452,127.11,458,117.05l7.67-.19Q457.75,130.3,449.59,143.68Z" fill="#e0e0e0"/>
  <path d="M503.38,150c.1,2.12.2,4.26.31,6.38q-16.15.8-32.32,1.24l-1.16-41q15.33-.42,30.66-1.16c.09,2.12.2,4.24.31,6.38q-11.49.53-23,.93c.12,3.55.23,7.11.35,10.66q10.26-.33,20.5-.81c.09,2.1.2,4.17.29,6.2q-10.28.49-20.57.82l.37,11.31Q491.21,150.66,503.38,150Z" fill="#e0e0e0"/>
  <path d="M539.77,144.78q-10.69.78-21.4,1.38-1.85,4.86-3.7,9.71l-8.24.44q8.66-21,16.84-42c2.55-.15,5.11-.31,7.74-.49q10.85,19.85,22.16,39.55l-8.35.63C543.07,150.9,541.41,147.83,539.77,144.78Zm-3.1-5.78q-4.65-8.67-9.19-17.36-3.37,9.19-6.81,18.38,8.05-.47,16.05-1Z" fill="#e0e0e0"/>
  <path d="M586.66,150.33q-5-5.57-9.9-11.13a12.61,12.61,0,0,1-1.62.22l-9.64.87c.34,4,.7,7.93,1,11.91l-8,.67L555.2,112q8.63-.7,17.24-1.55c11-1,18.39,3.72,19.34,12.76A13.09,13.09,0,0,1,584,137q5.57,6.19,11.2,12.39C592.4,149.75,589.53,150,586.66,150.33Zm-13.94-33.4-9.13.8q.7,8.16,1.41,16.3l9.3-.82c6.91-.65,10.19-4.05,9.68-9.17s-4.46-7.77-11.31-7.11Z" fill="#e0e0e0"/>
  <path d="M470.45,99.14q40.29.21,80.57-1.55-40.18,3.59-80.57,5.11Z" fill="#e0e0e0"/>
  <path d="M378.23,102.63q-40.29-1.56-80.56-5.12,40.27,1.83,80.56,1.55C378.29,100.3,378.26,101.46,378.23,102.63Z" fill="#e0e0e0"/>
  <path d="M204.45,172.88c-4.86,0-10.09-1.36-13.54-6.19-3.64-5-3.47-9.81-1.89-13.22a17.16,17.16,0,0,1-2.67-2.65,10.63,10.63,0,0,1-1.89-11.09,12.14,12.14,0,0,1,1.31-2.4c-5.54-4.12-7.91-10-6.4-16.33a12.87,12.87,0,0,1,2.12-4.8c-5.3-11,.46-30.18.73-31l2.55.79c0,.2-5.42,18-1.24,28.26a9.86,9.86,0,0,1,7.75-1.33c4.65.9,9.93,4.65,9.44,8-.27,1.71-1.94,3.58-8.45,2.87a12.74,12.74,0,0,1-9.18-5,12.22,12.22,0,0,0-1.06,2.87c-1.55,6.8,2.2,11.21,5.56,13.69a11.46,11.46,0,0,1,6.2-3.1,8.14,8.14,0,0,1,7.75,3.52c1.79,2.51,1.05,4.07.45,4.79-2.13,2.46-8.15,1.31-12.75-1l-1.29-.7a9.05,9.05,0,0,0-1,1.91,8.07,8.07,0,0,0,1.47,8.4,15.13,15.13,0,0,0,2,2.06c.11-.13.2-.25.31-.36a8.52,8.52,0,0,1,10.39-2.37c2.44,1.35,2.64,3.1,2.53,3.92a4.89,4.89,0,0,1-3.86,3.75,11.57,11.57,0,0,1-8.54-1.15c-1.11,2.65-1,6.2,1.8,10.15,6.73,9.29,22.67,2.79,22.82,2.73l1,2.47A35.88,35.88,0,0,1,204.45,172.88Zm-11.76-20.14a8.73,8.73,0,0,0,6.37.87c1.21-.37,1.9-1,1.95-1.47s-.4-.85-1.18-1.29a5.79,5.79,0,0,0-7.08,1.82Zm-2.82-15.91.62.33c4.65,2.4,8.83,2.43,9.51,1.66a2.63,2.63,0,0,0-.6-1.46,5.45,5.45,0,0,0-5.3-2.43A8.54,8.54,0,0,0,189.87,136.83Zm-5.06-20.14a10,10,0,0,0,7.74,4.45c4.39.48,5.47-.37,5.52-.6.14-1-2.87-4.08-7.3-4.93a7.15,7.15,0,0,0-6,1Z" fill="#e0e0e0"/>
  <path d="M162.91,175.72c-7-2.26-10.36-10.18-10.45-16.58a16.94,16.94,0,0,1,.79-5.7,15,15,0,0,1-2.37-12.39,16.46,16.46,0,0,1,2.23-5.53,22,22,0,0,1,.2-11.81,14.64,14.64,0,0,1,2.57-5.2c-.22-11,14.32-24.13,15-24.79l1.79,2.06c-.16.14-12.4,11.18-14,20.48a6.86,6.86,0,0,1,4.14-.5,6.76,6.76,0,0,1,5.92,6.2,6.1,6.1,0,0,1-3.66,6.35c-1.55.51-4.4.64-7.56-4.09a10.09,10.09,0,0,1-.94-1.78,15.3,15.3,0,0,0-.78,2.08,20.41,20.41,0,0,0-.59,8.55,7,7,0,0,1,4.15-1.66,5.9,5.9,0,0,1,5.91,3.41,5.7,5.7,0,0,1-.84,6.2c-1.55,1.55-3.9,1.84-6.58.76a7.38,7.38,0,0,1-3.38-3,14.68,14.68,0,0,0-1,3,12.75,12.75,0,0,0,1.07,9,8.69,8.69,0,0,1,4.42-3.64c3-1.09,5.62-.44,7.09,1.73a6.18,6.18,0,0,1-.51,7.25c-.9,1-3.55,3.1-8.6.48a11.83,11.83,0,0,1-1.55-1,16.87,16.87,0,0,0-.32,3.55c.09,5.46,2.82,12.2,8.6,14.08Zm-6.56-22.87a9,9,0,0,0,1.89,1.29c2.41,1.25,4.32,1.3,5.37.12a3.47,3.47,0,0,0,.2-4c-.74-1.11-2.17-1.36-4-.71A6.35,6.35,0,0,0,156.35,152.85Zm-.25-16.79a5.39,5.39,0,0,0,2.77,3.1c1.63.66,2.91.62,3.63-.13a3.1,3.1,0,0,0,.34-3.23,3.28,3.28,0,0,0-3.4-1.79A5.05,5.05,0,0,0,156.1,136.06Zm2.52-16.52a8,8,0,0,0,1.21,3.2c1.55,2.32,3.22,3.45,4.46,3.09a3.58,3.58,0,0,0,1.8-3.71,4,4,0,0,0-3.72-3.71A4.19,4.19,0,0,0,158.62,119.54Z" fill="#e0e0e0"/>
  <path d="M224.33,94.23c-25.16,27.16-62-18.87-45.81-40.42S249.84,66.64,224.33,94.23Z" fill="#e0e0e0"/>
  <path d="M175.22,113.7c-36.75-4.49-20.95-61.3,5.91-60.8S212.51,118.26,175.22,113.7Z" fill="#ebebeb"/>
  <path d="M641.26,172.88a36.11,36.11,0,0,1-12.49-2.51l1-2.47c.15,0,16.1,6.55,22.82-2.73,2.82-3.91,2.91-7.5,1.8-10.15a11.57,11.57,0,0,1-8.54,1.15,4.91,4.91,0,0,1-3.86-3.75c-.11-.88.1-2.57,2.54-3.92A8.5,8.5,0,0,1,655,150.87a3.65,3.65,0,0,1,.31.36,15.13,15.13,0,0,0,2-2.06,8.07,8.07,0,0,0,1.47-8.4,9.05,9.05,0,0,0-1-1.91l-1.28.7c-4.65,2.32-10.63,3.47-12.75,1-.61-.72-1.35-2.28.44-4.79a8.14,8.14,0,0,1,7.75-3.52,11.46,11.46,0,0,1,6.2,3.1c3.36-2.48,7.16-6.89,5.56-13.69a12.19,12.19,0,0,0-1-2.87,12.78,12.78,0,0,1-9.19,5c-6.51.71-8.18-1.16-8.44-2.87-.5-3.31,4.75-7.06,9.43-8a9.86,9.86,0,0,1,7.75,1.33c4.18-10.21-1.2-28.06-1.24-28.26l2.55-.79c.27.87,6,20,.73,31a12.87,12.87,0,0,1,2.12,4.8c1.55,6.32-.88,12.21-6.39,16.33a12.64,12.64,0,0,1,1.3,2.4,10.63,10.63,0,0,1-1.89,11.09,17.16,17.16,0,0,1-2.67,2.65c1.55,3.41,1.75,8.2-1.89,13.22C651.27,171.52,646.05,172.88,641.26,172.88Zm6.89-22.61a4.61,4.61,0,0,0-2.27.57c-.78.43-1.23.91-1.18,1.28s.74,1.1,1.95,1.48a8.73,8.73,0,0,0,6.37-.87h0a6.56,6.56,0,0,0-4.94-2.46Zm2.71-15.39a5.41,5.41,0,0,0-4.55,2.48c-.64.88-.68,1.36-.61,1.46.67.77,4.79.74,9.52-1.66l.62-.33a8.54,8.54,0,0,0-4.23-1.9,5.64,5.64,0,0,0-.82-.05Zm6-19.52a9.45,9.45,0,0,0-1.91.19c-4.43.85-7.44,3.93-7.3,4.92,0,.24,1.13,1.09,5.52.61a10,10,0,0,0,7.74-4.45,6.38,6.38,0,0,0-4.13-1.27Z" fill="#e0e0e0"/>
  <path d="M682.72,175.72l-.83-2.54c5.78-1.88,8.51-8.62,8.6-14.08a16.29,16.29,0,0,0-.32-3.55,11.83,11.83,0,0,1-1.55,1c-5,2.62-7.75.55-8.6-.48a6.19,6.19,0,0,1-.43-7.31c1.47-2.17,4.12-2.82,7.09-1.73a8.69,8.69,0,0,1,4.42,3.64,12.75,12.75,0,0,0,1.07-9,14.68,14.68,0,0,0-1-3,7.37,7.37,0,0,1-3.39,3c-2.67,1.09-5.07.81-6.57-.76a5.69,5.69,0,0,1-.84-6.19,5.88,5.88,0,0,1,5.9-3.41,7,7,0,0,1,4.08,1.73,20.42,20.42,0,0,0-.59-8.55,16.56,16.56,0,0,0-.77-2.07,10.85,10.85,0,0,1-1,1.78c-3.1,4.65-6.09,4.65-7.56,4.09a6.12,6.12,0,0,1-3.61-6.37,6.76,6.76,0,0,1,5.92-6.2,6.86,6.86,0,0,1,4.14.5c-1.65-9.3-13.84-20.34-14-20.48l1.78-2c.73.65,15.26,13.8,15.05,24.79a14.72,14.72,0,0,1,2.57,5.2,22,22,0,0,1,.2,11.81,16.54,16.54,0,0,1,2.23,5.53,15,15,0,0,1-2.37,12.39,17,17,0,0,1,.79,5.7C693.08,165.49,689.75,173.46,682.72,175.72ZM684,149.17a2.45,2.45,0,0,0-2.17,1.06,3.47,3.47,0,0,0,.2,4c1,1.18,3,1.13,5.37-.12a9,9,0,0,0,1.89-1.29,6.35,6.35,0,0,0-3.5-3.33A4.79,4.79,0,0,0,684,149.17ZM685.88,134a3.24,3.24,0,0,0-2.79,5.15c.71.74,2,.79,3.62.12a5.44,5.44,0,0,0,2.78-3.1,5.07,5.07,0,0,0-3.4-2Zm-1.79-15.67a3.84,3.84,0,0,0-.83.09,4,4,0,0,0-3.72,3.7,3.58,3.58,0,0,0,1.8,3.64c1.24.42,2.89-.71,4.46-3.1a8,8,0,0,0,1.21-3.19A4.3,4.3,0,0,0,684.09,118.34Z" fill="#e0e0e0"/>
  <path d="M623.32,94.23c25.14,27.16,62-18.87,45.81-40.42S597.79,66.64,623.32,94.23Z" fill="#e0e0e0"/>
  <path d="M672.41,113.7c36.75-4.49,21-61.24-5.95-60.8S635.06,118.26,672.41,113.7Z" fill="#ebebeb"/>
  <rect x="599.51" y="179.19" width="37.68" height="26.63" fill="#e0e0e0"/>
  <rect x="601.29" y="180.92" width="34.13" height="23.16" fill="#ebebeb"/>
  <rect x="564.82" y="383.07" width="117.45" height="126.4" fill="#e6e6e6"/>
  <rect x="685.43" y="373.67" width="14.76" height="152.21" fill="#e6e6e6"/>
  <rect x="583.52" y="393.03" width="9.62" height="47.24" fill="#fafafa"/>
  <rect x="623.41" y="393.03" width="9.62" height="47.24" fill="#f5f5f5"/>
  <rect x="593.14" y="396.35" width="9.62" height="43.92" fill="#f5f5f5"/>
  <rect x="613.79" y="396.35" width="9.62" height="43.92" fill="#fafafa"/>
  <rect x="607.58" y="393.03" width="6.21" height="47.24" fill="#ebebeb"/>
  <rect x="602.76" y="396.35" width="4.82" height="43.92" fill="#fafafa"/>
  <rect x="633.05" y="393.03" width="9.62" height="47.24" fill="#ebebeb"/>
  <rect x="642.67" y="396.35" width="9.62" height="43.92" fill="#e6e6e6"/>
  <rect x="663.32" y="396.35" width="9.62" height="43.92" fill="#e6e6e6"/>
  <rect x="657.09" y="393.03" width="6.21" height="47.24" fill="#fafafa"/>
  <rect x="652.29" y="396.35" width="4.82" height="43.92" fill="#ebebeb"/>
  <rect x="672.94" y="394.15" width="4.82" height="46.12" fill="#fafafa"/>
  <rect x="668.14" y="456.33" width="9.62" height="47.24" fill="#fafafa"/>
  <rect x="628.23" y="456.33" width="9.62" height="47.24" fill="#fafafa"/>
  <rect x="658.5" y="459.66" width="9.62" height="43.92" fill="#f0f0f0"/>
  <rect x="637.85" y="459.66" width="9.62" height="43.92" fill="#ebebeb"/>
  <rect x="647.49" y="456.33" width="6.21" height="47.24" fill="#fafafa"/>
  <rect x="653.68" y="459.66" width="4.82" height="43.92" fill="#f5f5f5"/>
  <rect x="618.61" y="456.33" width="9.62" height="47.24" fill="#ebebeb"/>
  <rect x="608.97" y="459.66" width="9.62" height="43.92" fill="#f5f5f5"/>
  <rect x="588.32" y="459.66" width="9.62" height="43.92" fill="#e6e6e6"/>
  <rect x="597.96" y="456.33" width="6.21" height="47.24" fill="#fafafa"/>
  <rect x="577.31" y="456.33" width="6.21" height="47.24" fill="#fafafa"/>
  <rect x="604.17" y="459.66" width="4.82" height="43.92" fill="#ebebeb"/>
  <rect x="583.52" y="457.46" width="4.82" height="46.12" fill="#f0f0f0"/>
  <path d="M681.68,373.67H561.1V517.36H677.74v8.53h7.87V373.67Zm-3.94,129.92H568.54V448.2h109.2Zm0-63.28H568.54V387.45h109.2Z" fill="#f0f0f0"/>
  <rect x="447.18" y="383.09" width="117.45" height="126.4" fill="#e6e6e6"/>
  <rect x="451.69" y="515.82" width="14.76" height="10.07" fill="#e6e6e6"/>
  <rect x="551.06" y="393.03" width="9.62" height="47.24" fill="#fafafa"/>
  <rect x="511.15" y="393.03" width="9.62" height="47.24" fill="#f5f5f5"/>
  <rect x="541.44" y="396.35" width="9.62" height="43.92" fill="#f5f5f5"/>
  <rect x="520.77" y="396.35" width="9.62" height="43.92" fill="#fafafa"/>
  <rect x="530.41" y="393.03" width="6.21" height="47.24" fill="#ebebeb"/>
  <rect x="536.61" y="396.35" width="4.82" height="43.92" fill="#fafafa"/>
  <rect x="507.88" y="393.03" width="9.62" height="47.24" fill="#ebebeb"/>
  <rect x="498.26" y="396.35" width="9.62" height="43.92" fill="#e6e6e6"/>
  <rect x="477.6" y="396.35" width="9.62" height="43.92" fill="#e6e6e6"/>
  <rect x="487.23" y="393.03" width="6.21" height="47.24" fill="#fafafa"/>
  <rect x="493.43" y="396.35" width="4.82" height="43.92" fill="#ebebeb"/>
  <rect x="472.78" y="394.15" width="4.82" height="46.12" fill="#f5f5f5"/>
  <rect x="468.27" y="456.35" width="9.62" height="47.24" fill="#fafafa"/>
  <rect x="508.16" y="456.35" width="9.62" height="47.24" fill="#fafafa"/>
  <rect x="477.89" y="459.66" width="9.62" height="43.92" fill="#f5f5f5"/>
  <rect x="498.54" y="459.66" width="9.62" height="43.92" fill="#ebebeb"/>
  <rect x="492.33" y="456.35" width="6.21" height="47.24" fill="#fafafa"/>
  <rect x="487.51" y="459.66" width="4.82" height="43.92" fill="#f5f5f5"/>
  <rect x="511.45" y="456.35" width="9.62" height="47.24" fill="#ebebeb"/>
  <rect x="521.07" y="459.66" width="9.62" height="43.92" fill="#f5f5f5"/>
  <rect x="541.72" y="459.66" width="9.62" height="43.92" fill="#e6e6e6"/>
  <rect x="535.51" y="456.35" width="6.21" height="47.24" fill="#fafafa"/>
  <rect x="554.89" y="456.35" width="6.21" height="47.24" fill="#fafafa"/>
  <rect x="530.69" y="459.66" width="4.82" height="43.92" fill="#ebebeb"/>
  <rect x="551.34" y="457.46" width="4.82" height="46.12" fill="#ebebeb"/>
  <path d="M443.84,373.67V525.89h7.88v-8.53H568.35V373.67Zm7.88,74.53H560.93v55.39H451.72Zm0-60.75H560.93v52.86H451.72Z" fill="#f0f0f0"/>
  <path d="M358.48,363.39H501.11a9.77,9.77,0,0,1-9.29,9.76c-15.32.7-38.92,3.1-46.39,11.61-13.94,15.8-12.59,190.3,4.11,203.16,5.24,4,20.5,12,20.5,12H389.62s14.25-8.16,19.21-12c16.6-13,17-187.46,3.09-203.16-7.18-8.08-29.29-10.69-44.12-11.52A9.85,9.85,0,0,1,358.48,363.39Z" fill="#0071f2" data-primary="true"/>
  <g opacity="0.7" style="isolation:isolate">
    <path d="M501.1,363.39a9.77,9.77,0,0,1-9.3,9.76,182.21,182.21,0,0,0-25.3,2.73c-9.09,1.73-17.22,4.49-21.08,8.88-3.24,3.67-5.64,15.84-7.24,32.53-5.25,55.43-1.55,160.72,11.34,170.6,5.24,4,20.5,12,20.5,12H389.6s14.25-8.16,19.21-12c12.75-10,16-115.2,10.47-170.6-1.67-16.73-4.13-28.92-7.39-32.53-3.87-4.36-12.1-7.13-21.18-8.88a176.66,176.66,0,0,0-22.94-2.64,9.84,9.84,0,0,1-9.29-9.85Z" fill="#fff"/>
  </g>
  <g opacity="0.2" style="isolation:isolate">
    <path d="M466.46,375.88c-9.1,1.73-17.23,4.49-21.09,8.88-3.24,3.67-5.64,15.84-7.23,32.53H419.3c-1.67-16.73-4.14-28.92-7.39-32.53-3.87-4.36-12.1-7.13-21.18-8.88Z"/>
  </g>
  <path d="M409.57,360.34V348.81l11.15-11.06a.75.75,0,0,0,0-1.07.71.71,0,0,0-.5-.21H396.74a.73.73,0,0,0-.74.74.74.74,0,0,0,.21.53l11.08,11.15v11.53l-4.2,2.83a.52.52,0,0,0-.13.73.51.51,0,0,0,.43.23h10.08a.53.53,0,0,0,.53-.53.56.56,0,0,0-.23-.43Z" fill="#0071f2" data-primary="true"/>
  <g opacity="0.6" style="isolation:isolate">
    <path d="M409.57,360.34V348.81l11.15-11.06a.75.75,0,0,0,0-1.07.71.71,0,0,0-.5-.21H396.74a.73.73,0,0,0-.74.74.74.74,0,0,0,.21.53l11.08,11.15v11.53l-4.2,2.83a.52.52,0,0,0-.13.73.51.51,0,0,0,.43.23h10.08a.53.53,0,0,0,.53-.53.56.56,0,0,0-.23-.43Z" fill="#fff"/>
  </g>
  <path d="M401.89,341.3l6.58,6.51,6.35-6.36-.11-.15Z" fill="#0071f2" data-primary="true"/>
  <path d="M456.05,360.34V348.81l11.15-11.06a.76.76,0,0,0,0-1.07.74.74,0,0,0-.51-.21H443.22a.74.74,0,0,0-.75.74.75.75,0,0,0,.22.53l11.08,11.15v11.53l-4.2,2.83a.52.52,0,0,0-.13.73.49.49,0,0,0,.43.23H460a.52.52,0,0,0,.52-.53.53.53,0,0,0-.22-.43Z" fill="#0071f2" data-primary="true"/>
  <g opacity="0.6" style="isolation:isolate">
    <path d="M456.05,360.34V348.81l11.15-11.06a.76.76,0,0,0,0-1.07.74.74,0,0,0-.51-.21H443.22a.74.74,0,0,0-.75.74.75.75,0,0,0,.22.53l11.08,11.15v11.53l-4.2,2.83a.52.52,0,0,0-.13.73.49.49,0,0,0,.43.23H460a.52.52,0,0,0,.52-.53.53.53,0,0,0-.22-.43Z" fill="#fff"/>
  </g>
  <path d="M448.36,341.3l6.59,6.51,6.35-6.36-.11-.15Z" fill="#0071f2" data-primary="true"/>
  <path d="M432.33,329.32l.09-23.95h-4.65l-.07,23.95a7.34,7.34,0,0,1-3.24,6h0a7.3,7.3,0,0,0-3.24,6l0,22.23h17.46V341.38a7.3,7.3,0,0,0-3.2-6.06h0A7.31,7.31,0,0,1,432.33,329.32Z" fill="#0071f2" data-primary="true"/>
  <g opacity="0.4" style="isolation:isolate">
    <rect x="423.53" y="342.52" width="12.94" height="17.46" transform="translate(77.25 780.01) rotate(-89.8)" fill="#fff"/>
  </g>
  <g opacity="0.6" style="isolation:isolate">
    <path d="M435,351.35a5.08,5.08,0,1,1-5.07-5.09h0A5.07,5.07,0,0,1,435,351.35Z" fill="#fff"/>
  </g>
  <path d="M266.43,599.5s-4.49,8.26,10.58,6.8h24.57s9.68.05,5.73-8.22Z" fill="#e6e6e6"/>
  <path d="M197.2,611.42s-2.81-.94-13.15,15l12.21,16.91,10.34-6.58s6.57,21.61,8.45,27.24c0,0,0,7.52,16.91,6.58,0,0,17.85,2.82,12.21-4.7s-20.66-5.63-20.66-5.63l-12.22-34.76Z" fill="#e6e6e6"/>
  <path d="M208.48,606.72l-11.28,4.7s-6.57,2.4,0,10.12l8.28,10.78a39.09,39.09,0,0,1,6.88,14.08l3.82,14.75a10.33,10.33,0,0,0,5.09,6.63,8.38,8.38,0,0,0,8.82-.46,8.79,8.79,0,0,1,4.65-1.42h9.43l-8.45-9.39-11.28-39.45Z" fill="#0071f2" data-primary="true"/>
  <path d="M278.93,623.63s-2.82,20.67-2.82,35.7c0,0-2.57,14.57,7.85,8.5a11.79,11.79,0,0,1,4.2-1.45c4.45-.66,13.83-1.59,22.7.46,0,0,10.34,4.7,4.7-6.57l-15-38.52Z" fill="#0071f2" data-primary="true"/>
  <path d="M311.8,401a64.91,64.91,0,0,1,7.52,0,37.26,37.26,0,0,1,5.72.87l-10.2-24.15-3,4.49Z" fill="#0071f2" data-primary="true"/>
  <g opacity="0.2">
    <path d="M311.8,401a64.91,64.91,0,0,1,7.52,0,37.26,37.26,0,0,1,5.72.87l-10.2-24.15-3,4.49Z"/>
  </g>
  <path d="M226.73,398.88s-4.16-1.63-4.16-4.45c0,0-1.41-6.1,8-22.19C230.56,372.24,227.73,387.39,226.73,398.88Z" fill="#0071f2" data-primary="true"/>
  <g opacity="0.2">
    <path d="M226.73,398.88s-4.16-1.63-4.16-4.45c0,0-1.41-6.1,8-22.19C230.56,372.24,227.73,387.39,226.73,398.88Z"/>
  </g>
  <path d="M253.08,333.15s28.25,7.07,52.88,24.78a99.9,99.9,0,0,0,7.14,24.12l1.74,102.09-77.24,10.8s-19.72-70.57-7-123.52l3.08-4c.5-.66,1-1.34,1.44-2.05.63-1,1.24-2,1.82-3.08Z" fill="#2f2e41" data-secondary="true"/>
  <path d="M123.93,269.5s-.38-2.93,2.86-5.46l2.35,3.49S128.16,270,123.93,269.5Z" fill="#0071f2" data-primary="true"/>
  <g opacity="0.2">
    <path d="M123.93,269.5s-.38-2.93,2.86-5.46l2.35,3.49S128.16,270,123.93,269.5Z"/>
  </g>
  <path d="M262.46,237.62l34.69-8.72,16,21.81L306,357.93a181.62,181.62,0,0,0-52.88-24.78Z" fill="#e6e6e6"/>
  <path d="M274.83,236.42c1.28,1.85,13.82,20.3,16.19,33.67l14.12-23.69s-3.41-1.87,0-10.22c0,0-9.77,0-14.38-4.89,0,0-3.79,16.13-15.89,5.11C274.85,236.39,274.82,236.4,274.83,236.42Z" fill="#f7a48b"/>
  <path d="M290.76,231.29a23.18,23.18,0,0,1-1.59,4.07s5.78,8.23,14.46,7.39c0,0,0-2,1.51-6.57C305.14,236.18,296.33,237.21,290.76,231.29Z" fill="#f29079"/>
  <rect x="287.21" y="185.82" width="36.75" height="51.02" rx="18.37" transform="translate(63.17 -70.23) rotate(14.61)" fill="#f7a48b"/>
  <path d="M320,191.11A214.75,214.75,0,0,1,294,204.68s1.41,49.32-18.79,31.94c0,0-11.74.47-21.59,3.86,0,0-3.77-10.43,9.38-19.83l11.49-8.08a9.39,9.39,0,0,0,2-1.92c3.37-4.32,16.48-20.19,27.83-21,0,0,5.63-7.51,14.09-3.75,0,0,10.53,1.73,11.42,16.62a23.75,23.75,0,0,1-2.68,12.34,27.06,27.06,0,0,0-3.1,12.37s3.28,24.89-2.35,28.65l-16.09-9.13s-4.23-1.3-.82-10.6a18.36,18.36,0,0,0,16-11.26,23.19,23.19,0,0,0,1.16-3.44l3.23-12.39A18.49,18.49,0,0,0,320,191.11Z" fill="#2f2e41" data-secondary="true"/>
  <path d="M324.48,256.54l-.93-.38c2.88-6.92,3.36-15.05,3.24-20.66a44.6,44.6,0,0,0-.51-6.23c-1.31-8.24,1-18,1-18.13l1,.23c0,.1-2.27,9.71-1,17.75a45,45,0,0,1,.52,6.36C327.91,241.18,327.42,249.47,324.48,256.54Z" fill="#2f2e41" data-secondary="true"/>
  <path d="M279.65,207.8s-4.95,5.81-5.71,12.27c0,0,3.11,24.07-6.29,30.64v-1a37.3,37.3,0,0,0-2.58-13.86,33.88,33.88,0,0,1-.58-24.49l14.44-29.19s6.61-14.06,22.17-8.81a19.93,19.93,0,0,1,4.11,2c1.55,1,5.49,2.68,15.05,3.95,0,0,9.4,4.23,7.05,13.86,0,0-2-5.57-7.53-7-.79-.21-1.58-.4-2.35-.66-2.23-.76-8-1-13.14,4.13C304.29,189.65,294.47,188.38,279.65,207.8Z" fill="#0071f2" data-primary="true"/>
  <path d="M276.11,213.14l-7.52-4.7,10.34-4.7-2.82-11.27,12.21,1.88V183.27l11.84,4.26,3.19-10.09,10.33,5.64,9.4-7.52,2.58,11.25,12.68-1.13-11,7.5s-8-13.86-23-3.53C304.29,189.65,289.26,191.53,276.11,213.14Z" fill="#0071f2" data-primary="true"/>
  <g opacity="0.4">
    <path d="M276.11,213.14l-7.52-4.7,10.34-4.7-2.82-11.27,12.21,1.88V183.27l11.84,4.26,3.19-10.09,10.33,5.64,9.4-7.52,2.58,11.25,12.68-1.13-11,7.5s-8-13.86-23-3.53C304.29,189.65,289.26,191.53,276.11,213.14Z" fill="#fff"/>
  </g>
  <path d="M398.22,242.26s7.88,3.75,3.94,7.51a28.89,28.89,0,0,1-6.29-.47Z" fill="#0071f2" data-primary="true"/>
  <g opacity="0.2">
    <path d="M398.22,242.26s7.88,3.75,3.94,7.51a28.89,28.89,0,0,1-6.29-.47Z"/>
  </g>
  <path d="M638.7,611.42s26.3,4.7,50.72-7.52l-10.61-8.45-31.89,8.22S641.51,606.72,638.7,611.42Z" fill="#2f2e41" data-secondary="true"/>
  <g opacity="0.2">
    <path d="M638.7,611.42s26.3,4.7,50.72-7.52l-10.61-8.45-31.89,8.22S641.51,606.72,638.7,611.42Z"/>
  </g>
  <path d="M651.5,646.61l.35-15.67,22.16-12,15.41-3.15s2.07-.81,9,4.46c0,0,6,4.33,26.68,6.21,0,0,7.51,0,7.51,7.51L698.81,644.3Z" fill="#0071f2" data-primary="true"/>
  <path d="M679.09,649.93c-33.69,3.49-27.59-3.32-27.59-3.32.6-2.38,17.25-3.25,17.25-3.25l16-1.88A31.72,31.72,0,0,0,697,638.77a31.62,31.62,0,0,1,6.27-2.23c7.66-1.93,23.07-5.31,28.93-2.83a2.86,2.86,0,0,1,.45,5C728.69,641.29,716.54,646.06,679.09,649.93Z" fill="#2f2e41" data-secondary="true"/>
  <path d="M564.49,224.41l-7.66,3.17s-6.9,95-17.71,149c0,0,46.5,10.81,61.06-11.27,0,0-1.41-32.41.47-66.22l1.41-67.17-15-5.63S579.52,230.05,564.49,224.41Z" fill="#e6e6e6"/>
  <path d="M570.59,432.47l35.75,48.7a33.8,33.8,0,0,1,5.73,12.57L638.7,611.42s18.78-9.39,50.72-7.52L674.33,490.28A31.19,31.19,0,0,0,669.94,478L600.18,365.31s-10.33,16.91-61.06,11.27l-27.85,52.27,33.22,209.7A13.08,13.08,0,0,0,554,649.13c9.76,2.61,25.77,4.11,35-10a9.45,9.45,0,0,0,1.48-6.17Z" fill="#2f2e41" data-secondary="true"/>
  <g opacity="0.2">
    <path d="M524.1,413.72a.5.5,0,0,1-.34-.88c15.63-13.78,17.67-25.88,17.69-26a.51.51,0,0,1,.57-.42.51.51,0,0,1,.42.57c-.08.51-2.09,12.55-18,26.6A.5.5,0,0,1,524.1,413.72Z"/>
  </g>
  <g opacity="0.2">
    <path d="M573.88,637.28a.49.49,0,0,1-.49-.42L541.45,427.38a.5.5,0,0,1,.42-.57.51.51,0,0,1,.57.42l31.93,209.48a.49.49,0,0,1-.41.57Z"/>
  </g>
  <g opacity="0.2">
    <path d="M680,596a.51.51,0,0,1-.5-.44L667.75,495.37a53.07,53.07,0,0,0-7.44-21.43L635,432.74a.5.5,0,0,1,.17-.69.49.49,0,0,1,.68.16l25.3,41.2a54,54,0,0,1,7.58,21.85l11.78,100.13a.5.5,0,0,1-.44.56Z"/>
  </g>
  <path d="M651.5,607.1l.35,11.83s22.54-2.81,31-9.39v-5.87S661.49,603.73,651.5,607.1Z" fill="#f7a48b"/>
  <path d="M651.85,618.93v12s40.39.21,31.93-7.31L681,620.81l8.45-5s-3.76-3.42-6.58-6.24C682.84,609.54,676.27,615.18,651.85,618.93Z" fill="#e6e6e6"/>
  <path d="M565.25,650.83s-6.4-2.17-7.34.81L553.22,665l2.81,3.76h35.72l2.8-3.76s0-12.21-8.46-13.15l-.27-5.19a3.4,3.4,0,0,0-3.4-3.22H568.91a3.4,3.4,0,0,0-3.4,3.19Z" fill="#0071f2" data-primary="true"/>
  <rect x="538.1" y="200.04" width="4.7" height="7.74" transform="translate(-35.38 158.21) rotate(-16.13)" fill="#0071f2" data-primary="true"/>
  <path d="M622.73,199.05c-9-1.51-10.22-18-10.34-24.59a28.29,28.29,0,0,0-1.44-8.71c-6.27-18.2-25.53-12.81-25.53-12.81l14.76,12.29,2.8,24.82s1.9,16.31,19.75,13.13Z" fill="#0071f2" data-primary="true"/>
  <path d="M566.43,216.19l-1.94,8.22s12.21,5.64,22.54,1.88l3.82-22.44Z" fill="#f7a48b"/>
  <path d="M564.9,222.68l1.53-6.49,24.42-12.34S586.91,224.71,564.9,222.68Z" fill="#f29079"/>
  <path d="M560.53,226.05s-7.66-1.32-14.53,1.78a30.94,30.94,0,0,1-6.57,2.13l-14.4,2.9-27.12,4.53a1.8,1.8,0,0,0-1.42,1.17L477.13,291.1s-11.27,25.37,4.69,29.12c0,0,13.32,5.33,22.7-2.14.54-.43,1.08-.87,1.65-1.26l10.73-7.21-20,113s14.1,7.52,27.72,9.86l14.55-55.89s14.1-36.63,17.71-149Z" fill="#0071f2" data-primary="true"/>
  <path d="M503.43,232.86l-2.14,8.46s10.59,5.63,20.93,6.57l2.18-7.51A77.35,77.35,0,0,1,503.43,232.86Z" fill="#e6e6e6"/>
  <path d="M501.29,241.32l-3.8-3.22a.39.39,0,0,1,.18-.68l4.81-.8Z" fill="#0071f2" data-primary="true"/>
  <g opacity="0.2">
    <path d="M501.29,241.32l-3.8-3.22a.39.39,0,0,1,.18-.68l4.81-.8Z"/>
  </g>
  <g opacity="0.2">
    <path d="M509.07,301.45a.39.39,0,0,1-.18,0,.5.5,0,0,1-.28-.65c2.78-7,15.19-48.64,15.31-49.06a.5.5,0,0,1,1,.28c-.12.42-12.54,42.15-15.34,49.15A.51.51,0,0,1,509.07,301.45Z"/>
  </g>
  <g opacity="0.2">
    <path d="M550.4,253.09a.59.59,0,0,1-.23-.05l-11.27-5.71a.51.51,0,0,1-.26-.58l5.25-18.37a.49.49,0,0,1,.61-.35.51.51,0,0,1,.35.62l-5.13,18,10.9,5.51a.5.5,0,0,1,.22.68A.49.49,0,0,1,550.4,253.09Z"/>
  </g>
  <g opacity="0.2">
    <path d="M551.52,315.07a.51.51,0,0,1-.5-.47c-2.58-45.19-10.32-55-10.4-55.11a.5.5,0,0,1,0-.62l6.14-8.23a.48.48,0,0,1,.69-.1.5.5,0,0,1,.11.7l-5.91,7.93c1.37,2,8,13.62,10.39,55.37a.5.5,0,0,1-.47.53Z"/>
  </g>
  <g opacity="0.2">
    <path d="M516.9,310.11l-.14,0a.51.51,0,0,1-.35-.62l8.14-29.77a.5.5,0,0,1,1,.26l-8.14,29.78A.5.5,0,0,1,516.9,310.11Z"/>
  </g>
  <path d="M600.18,365.31c2.87,20.55,7.18,67.16,7.18,67.16,13.76.47,31.34-12.68,31.34-12.68l-9.4-58.24a195.33,195.33,0,0,1-3.76-43.21l14.09,16c3.81,5.43,8.09,6.85,11,7.08a12.74,12.74,0,0,1,6.12,2.18c8.12,5.5,19.49-5.5,19.49-5.5l41.33-35.69c-17.85-15-14.09-28.19-14.09-28.19L662.71,301c-8.86-8.15-22-31.92-26.33-40a15.26,15.26,0,0,0-3.91-4.7l-18.63-14.93c-8.89-16-23-13.6-23-13.6l11.21,4.2S594.55,324.92,600.18,365.31Z" fill="#0071f2" data-primary="true"/>
  <g opacity="0.2">
    <path d="M598.11,329.62h0a.5.5,0,0,1-.46-.54c1.61-20.15,16.63-55.46,18-58.62l-5.52-10.17a.49.49,0,0,1,.2-.68.49.49,0,0,1,.67.2l5.64,10.39a.52.52,0,0,1,0,.44c-.16.37-16.34,37.69-18,58.52A.5.5,0,0,1,598.11,329.62Z"/>
  </g>
  <g opacity="0.2">
    <path d="M607.13,261.9a.51.51,0,0,1-.42-.23.5.5,0,0,1,.15-.69l8.75-5.57-2.26-14a.5.5,0,0,1,.41-.58.49.49,0,0,1,.57.42l2.31,14.33a.47.47,0,0,1-.22.5l-9,5.75A.45.45,0,0,1,607.13,261.9Z"/>
  </g>
  <g opacity="0.2">
    <path d="M618,285h0a.49.49,0,0,1-.45-.54c.94-9.38,11.1-30,11.53-30.83a.51.51,0,0,1,.67-.22.5.5,0,0,1,.23.67c-.11.21-10.51,21.28-11.43,30.48A.52.52,0,0,1,618,285Z"/>
  </g>
  <g opacity="0.2">
    <path d="M649.89,310.11a.5.5,0,0,1-.41-.22.52.52,0,0,1,.13-.7l12.82-8.66a.5.5,0,0,1,.69.14.49.49,0,0,1-.13.69L650.17,310A.47.47,0,0,1,649.89,310.11Z"/>
  </g>
  <path d="M712.92,298l8.44-5s-9.85-15.62-11-23.78l-6.82,5S700.73,286.09,712.92,298Z" fill="#e6e6e6"/>
  <g opacity="0.2">
    <path d="M570.59,413.72a.49.49,0,0,1-.49-.45L566,377.54a.5.5,0,0,1,1-.11l4.1,35.73a.5.5,0,0,1-.44.55Z"/>
  </g>
  <g opacity="0.2">
    <path d="M573.88,404.61h-4.33a.5.5,0,0,1-.5-.5.5.5,0,0,1,.5-.5h3.83V376.75a.5.5,0,0,1,1,0v27.36A.5.5,0,0,1,573.88,404.61Z"/>
  </g>
  <path d="M710.33,269.2,717,255.46a2.34,2.34,0,0,1,2.11-1.32h7.74l.18,4.09-5.41.77a1.33,1.33,0,0,0-1.15,1.34h0a1.34,1.34,0,0,0,1.34,1.33h5.84l2.2,27.55a38.64,38.64,0,0,1-8.45,3.76S711.51,277.36,710.33,269.2Z" fill="#f7a48b"/>
  <path d="M714,199.82l4.36,45.38a3.2,3.2,0,0,0,1.75,2.54l4.37,2.19a3.19,3.19,0,0,1,1.74,2.52l4,38.11a4.77,4.77,0,0,1-1.56,4.05l-2,1.83a1.06,1.06,0,0,0,.82,1.85L739.94,297a1.06,1.06,0,0,0,.47-2l-2.51-1.63a4.77,4.77,0,0,1-2.16-3.65l-3-38.89a3.25,3.25,0,0,1,.8-2.37l3-3.35a3.2,3.2,0,0,0,.79-2.44l-4.54-44.67a2.63,2.63,0,0,0-1.59-2.14c-2.52-1.07-8.19-2.51-15.76,1.3A2.61,2.61,0,0,0,714,199.82Z" fill="#e6e6e6"/>
  <path d="M719.48,213.14l2.33,27.23a5.68,5.68,0,0,0,6.13,5.17h0a5.68,5.68,0,0,0,5.19-6.1l-2.06-26.06Z" fill="#0071f2" data-primary="true"/>
  <path d="M722.12,201.34a18.53,18.53,0,0,1-5.63-.88.5.5,0,0,1-.3-.64.51.51,0,0,1,.64-.31c.07,0,7.33,2.53,12.68-1.41a.5.5,0,0,1,.6.81A13.29,13.29,0,0,1,722.12,201.34Z" fill="#fff"/>
  <path d="M721.36,234.4a.5.5,0,0,1-.5-.45L718,206.61a.49.49,0,0,1,.45-.54.51.51,0,0,1,.55.44l2.81,27.34a.49.49,0,0,1-.44.54Z" fill="#fff"/>
  <path d="M533.49,200.93l-32.7,6.31a5.87,5.87,0,0,1-2.25,0l-11.28-2.08a11.81,11.81,0,0,0-5.19.19l-29.66,7.76a6.91,6.91,0,0,0-4.77,8.95l4.6,13.2a6.89,6.89,0,0,0,8.29,4.4L491,231.55a9.44,9.44,0,0,0,3.77-2l8.7-7.59a6.15,6.15,0,0,1,2.15-1.23l30.71-10.4Z" fill="#0071f2" data-primary="true"/>
  <rect x="534.39" y="198.64" width="4.7" height="12.77" transform="translate(-35.83 157.23) rotate(-16.13)" fill="#2f2e41" data-secondary="true"/>
  <rect x="542.14" y="198.4" width="2.67" height="9.55" transform="translate(-35.05 159.03) rotate(-16.13)" fill="#2f2e41" data-secondary="true"/>
  <g opacity="0.2">
    <path d="M461.16,235.24a.49.49,0,0,1-.5-.47c-.91-17.23-10.59-20-10.69-20.06a.5.5,0,0,1,.26-1c.43.12,10.48,3,11.43,21a.5.5,0,0,1-.47.52Z"/>
  </g>
  <circle cx="625.07" cy="201.4" r="4.23" fill="#0071f2" data-primary="true"/>
  <g opacity="0.2">
    <circle cx="625.07" cy="201.4" r="4.23"/>
  </g>
  <circle cx="270.47" cy="255.41" r="5.64" fill="#0071f2" data-primary="true"/>
  <g opacity="0.2">
    <circle cx="270.47" cy="255.41" r="5.64"/>
  </g>
  <path d="M144,249.77s-6.92,16.91-20.08,19.73l41.34,48.84s11.27,16,39.45,1.88l34.75-21.6A174.93,174.93,0,0,1,234,326s-14.25,56.19-11.43,68.4c0,0-.87-9.54,11.55-27.78,1.15-1.68,2.23-3.41,3.21-5.19l21.89-39.36s8.43-9.39,7.5-39.45l-4.26-45s-12.37,2.95-22.36,10.27a107,107,0,0,1-9.5,6.3l-49.37,28.46Z" fill="#0071f2" data-primary="true"/>
  <g opacity="0.2">
    <path d="M239.47,299.12a.51.51,0,0,1-.43-.25.49.49,0,0,1,.18-.68l13.61-8a.5.5,0,0,1,.5.86l-13.6,8A.48.48,0,0,1,239.47,299.12Z"/>
  </g>
  <g opacity="0.2">
    <path d="M224.12,372.74a.48.48,0,0,1-.26-.07.51.51,0,0,1-.17-.69l29-47.37c9.65-16.61,8-38.88,7.93-39.1l-4.15-46.15a.5.5,0,1,1,1-.09l4.15,46.15c0,.23,1.75,22.81-8.07,39.7l-29,47.38A.49.49,0,0,1,224.12,372.74Z"/>
  </g>
  <g opacity="0.2">
    <path d="M195.36,295.11A.48.48,0,0,1,195,295l-14.13-12a.49.49,0,0,1-.06-.7.51.51,0,0,1,.71-.06l14.12,12a.5.5,0,0,1,.06.71A.52.52,0,0,1,195.36,295.11Z"/>
  </g>
  <path d="M124.77,261l4.37,6.49s8.64-3.67,14.87-17.76l-5-7.51A63.21,63.21,0,0,1,124.77,261Z" fill="#e6e6e6"/>
  <path d="M116.81,249.78l8,11.26s10.44-8.45,14.19-18.78c0,0-5.63-8.09-11.74-12s-11.74-14.57-11.74-14.57-6.57,3.53,0,11.78c0,0-9.39,5.42-15,.73,0,0-11.27-7.52-13.15-4.7,0,0-11.27-1.88-4.7,5.64,0,0-2.66,4.44,6.66,10.2l5.43,7.13a7.49,7.49,0,0,0,6.72,2.9l11.77-1.21A3.93,3.93,0,0,1,116.81,249.78Z" fill="#f7a48b"/>
  <path d="M104.82,241.82H98.57a.5.5,0,0,1-.37-.17c-4.53-5-6.52-5.23-7.29-4.92-1,.37-1.16,2-1.15,2.58a.5.5,0,0,1-.5.5h0a.49.49,0,0,1-.5-.49c0-.12,0-2.82,1.78-3.52s4.51.93,8.25,5h6a.5.5,0,0,1,.5.5A.5.5,0,0,1,104.82,241.82Z" fill="#f29079"/>
  <path d="M110.78,240.88a.5.5,0,0,1-.49-.44c-1-7.68,4.61-13.14,4.84-13.36a.5.5,0,0,1,.71,0,.49.49,0,0,1,0,.7c-.06.06-5.45,5.36-4.55,12.53a.49.49,0,0,1-.43.55Z" fill="#f29079"/>
  <path d="M99.24,236.64a.48.48,0,0,1-.34-.13,26.68,26.68,0,0,0-16.3-6.9h0a.51.51,0,0,1-.5-.5.5.5,0,0,1,.5-.5h0a27.23,27.23,0,0,1,17,7.16.5.5,0,0,1,0,.71A.54.54,0,0,1,99.24,236.64Z" fill="#f29079"/>
  <path d="M103.62,233.12a.49.49,0,0,1-.3-.1A61.37,61.37,0,0,0,87.15,224a.49.49,0,0,1-.32-.63.5.5,0,0,1,.62-.33,63.26,63.26,0,0,1,16.48,9.23.5.5,0,0,1,.09.7A.48.48,0,0,1,103.62,233.12Z" fill="#f29079"/>
  <path d="M313.11,250.71s-30,103.8,11.93,151.17a.28.28,0,0,0,.49-.25,307.65,307.65,0,0,1-8.6-41.61A85.08,85.08,0,0,1,323,316.65a67.47,67.47,0,0,0,4.75-16.15s29.54,23.15,44.46,12.78a13,13,0,0,0,4.38-5.5l25.55-58s-21.77-1.88-25.54-22.52h0l-20.66,46S323.82,257.29,313.11,250.71Z" fill="#0071f2" data-primary="true"/>
  <g opacity="0.2">
    <path d="M322.18,389a.51.51,0,0,1-.44-.25c-28.84-50.59-6.26-135.53-6-136.38a.5.5,0,0,1,1,.26c-.23.85-22.71,85.39,5.93,135.62a.5.5,0,0,1-.18.68A.47.47,0,0,1,322.18,389Z"/>
  </g>
  <g opacity="0.2">
    <path d="M251.68,270.94a.5.5,0,0,1-.49-.44,115.73,115.73,0,0,0-6.65-25.59.5.5,0,1,1,.92-.38,116.3,116.3,0,0,1,6.72,25.84.49.49,0,0,1-.43.56Z"/>
  </g>
  <g opacity="0.2">
    <path d="M322.18,270.94a.5.5,0,0,1-.5-.5V255.85a.5.5,0,0,1,.5-.5.5.5,0,0,1,.5.5v14.59A.51.51,0,0,1,322.18,270.94Z"/>
  </g>
  <g opacity="0.2">
    <path d="M316.37,343.71a.5.5,0,0,1-.5-.5c-.12-9.94,5.21-23.24,6.28-25.8.09-.2.18-.39.28-.58,6.85-12.88,4.41-28,4.38-28.18a.5.5,0,0,1,1-.16c0,.15,2.52,15.62-4.49,28.81-.08.16-.16.32-.23.5-1.06,2.53-6.33,15.66-6.21,25.4a.5.5,0,0,1-.5.51Z"/>
  </g>
  <g opacity="0.2">
    <path d="M352.63,281a.46.46,0,0,1-.2-.05.5.5,0,0,1-.25-.66l3.32-7.23a.5.5,0,0,1,.91.41l-3.32,7.23A.51.51,0,0,1,352.63,281Z"/>
  </g>
  <g opacity="0.2">
    <path d="M290.2,355.48a.5.5,0,0,1-.24-.06c-16.64-9.25-41.45-13.22-41.69-13.26a.5.5,0,0,1-.42-.57.51.51,0,0,1,.57-.42c.25,0,25.23,4,42,13.37a.5.5,0,0,1-.24.94Z"/>
  </g>
  <g opacity="0.2">
    <path d="M242.67,372.74a.5.5,0,0,1-.24-.94c11.3-6,14.57-23.39,14.61-23.57a.5.5,0,1,1,1,.18c-.13.73-3.39,18-15.12,24.27A.46.46,0,0,1,242.67,372.74Z"/>
  </g>
  <g opacity="0.2">
    <path d="M248.34,485.77a.49.49,0,0,1-.45-.3c-12.64-28.24-10.81-110-10.79-110.78a.5.5,0,0,1,1,0c0,.82-1.85,82.31,10.7,110.34a.5.5,0,0,1-.25.66A.54.54,0,0,1,248.34,485.77Z"/>
  </g>
  <path d="M258.54,492s1.6,8.57,5.36,15.14c0,0-5.64,39.45,15,116.48v4.68s0,31,16.9,17.87c0,0,16,10.33,4.7-24.43l-.75-135.51Z" fill="#f7a48b"/>
  <path d="M314.84,484.14v20.43a37.43,37.43,0,0,1-5.08,18.9c-7.87,13.49-27.39,41.67-74.42,91.93a8.12,8.12,0,0,0-2.18,6.16l2.56,35s-6.43,2.74-8.38-7.09c0,0-12.29-35.18-18.86-42.7l3-1.52a17.75,17.75,0,0,0,7.12-6.46l24.21-38.58a71.93,71.93,0,0,0,5.17-9.88c2.93-6.82,8.77-19.42,15.18-27.64l36.58-36.4Z" fill="#f7a48b"/>
  <path d="M299.78,539.32a.5.5,0,0,1-.5-.5V486.25a.5.5,0,0,1,.5-.5.5.5,0,0,1,.5.5v52.57A.51.51,0,0,1,299.78,539.32Z" fill="#f29079"/>
  <path d="M398.22,242.26l-1.86,6.25s-16.94-3.4-19.75-21.27l2.25-4.38S385.54,238,398.22,242.26Z" fill="#e6e6e6"/>
  <path d="M398.22,159.66l-8,46.82a6.91,6.91,0,0,0,1.26,5.26l.77,1a6.91,6.91,0,0,1,1.27,5.15l-5.64,36.94a5.61,5.61,0,0,1-3.66,4.44l-2,.73a.82.82,0,0,0,.13,1.57l14.55,2.77a.81.81,0,0,0,.78-1.32l-1.65-2a5.64,5.64,0,0,1-1.25-4.36l4.94-36.24a6.89,6.89,0,0,1,2.4-4.35l3.75-3.16a6.91,6.91,0,0,0,2.37-4.13l7.81-46.42S408.56,154,398.22,159.66Z" fill="#e6e6e6"/>
  <path d="M395.52,175.56s-.11-6.57-4.81-4.69c0,0,1.88,8,0,10.12,0,0-6.83,8.3-3.21,13.6a6.18,6.18,0,0,1,1.13,3.42l.15,8.71a7.89,7.89,0,0,1-1.53,4.8l-8.39,11.34s2.91,7.5,11.61,15.33l3.09-20.27a8.73,8.73,0,0,0-1.27-5.15s-3.41-3.55-2-6.29Z" fill="#f7a48b"/>
  <path d="M412.31,169l-5.8,35.34a6.55,6.55,0,0,1-7.76,5.36h0a6.55,6.55,0,0,1-5.17-7.45l4.64-28.94s5-.29,8.16-2.77A6.07,6.07,0,0,1,412.31,169Z" fill="#0071f2" data-primary="true"/>
  <rect x="562.34" y="161.27" width="31.61" height="55.03" rx="15.81" transform="translate(125 -216.86) rotate(23.75)" fill="#f7a48b"/>
  <path d="M559,193.14s4.75-.49,7.29,3.51a3.54,3.54,0,0,0,3.73,1.5c2.53-.56,6.26-.58,8.48,3.13a3.29,3.29,0,0,0,4.14,1.37c3.16-1.4,7.73-4.29,8.65-9.53L588.91,185V172.75s-12.21,3.75-15-2.82l-6.07,3.1s-2.75-14.3,7.29-14.81c0,0,15.69-7.08,19.45,10.77,0,0,4.69,14.47,2.34,25.55L588,208.18A19.15,19.15,0,0,1,569.73,217,16,16,0,0,1,559,210.87S554.15,204.68,559,193.14Z" fill="#2f2e41" data-secondary="true"/>
  <path d="M570.87,159.63s-.09,0-.06,0c1.65-2.05,12.54-14.14,29.15.28,0,0,7.74,5,2.1,35.71l-5.17-1s1.34-2.16.44-10.1c0,0,0-4.86-2.57-14.66l-.21-.79s-2.25-16.84-19.45-10.77A5.18,5.18,0,0,0,570.87,159.63Z" fill="#e6e6e6"/>
  <ellipse cx="596.89" cy="200.93" rx="7.51" ry="5.17" transform="translate(84.12 566.6) rotate(-54.1)" fill="#f7a48b"/>
  <path d="M504.4,233.37l1.56-9s-.16-6.17,9.93-7.31l9.63-3.76s-1.91-8.53,2.5-7.5a4,4,0,0,1,2.39,1.75l4.68,7.09a4.11,4.11,0,0,1-.16,4.73l-5.2,6.88s-1.45,11.38-7.3,13.67A53.47,53.47,0,0,1,504.4,233.37Z" fill="#f7a48b"/>
  <path d="M529.73,218.33a.49.49,0,0,1-.36-.15l-4.21-4.5a.5.5,0,0,1,0-.71.5.5,0,0,1,.71,0l4.21,4.49a.5.5,0,0,1,0,.71A.48.48,0,0,1,529.73,218.33Z" fill="#f29079"/>
  <path d="M520.08,205.75c-.26,4.83-3.18,4.59-3.18,4.59-3.49,0-4-2.89-4-4.09a.1.1,0,0,0-.2,0c-1.91,4.27-5.46,3.15-5.46,3.15-4.7,5.64-7.52-1.92-7.52-1.92-.95-5.67,4.73-3.61,4.73-3.61s-1.91-8.56,6.54-4.8c0,0,2.31-6.61,9.14-1,0,0,4.95-6.8,9.65,3.78l-2.35.46s1,5.29-2.44,6.1a3,3,0,0,1-2.64-.74Z" fill="#f7a48b"/>
  <path d="M507.19,209.88a.5.5,0,0,1-.45-.27L504,204.08a.5.5,0,0,1,.22-.67.49.49,0,0,1,.67.22l2.79,5.52a.5.5,0,0,1-.22.68A.59.59,0,0,1,507.19,209.88Z" fill="#f29079"/>
  <path d="M512.65,206.73a.51.51,0,0,1-.49-.39l-1.7-7.18a.49.49,0,0,1,.37-.6.5.5,0,0,1,.6.37l1.71,7.18a.5.5,0,0,1-.38.6Z" fill="#f29079"/>
  <path d="M520.08,206.25a.5.5,0,0,1-.5-.5v-7.66a.5.5,0,0,1,1,0v7.66A.5.5,0,0,1,520.08,206.25Z" fill="#f29079"/>
  <path d="M575.76,229.11l-9,8.37,6.2,7.6-4.7,58.23s-7.51,39.46,24.43,81.73l17.85,1.88V368.26s-34.38-36.77-34.1-60.25l.28-62.93,5.54-6.2Z" fill="#0071f2" data-primary="true"/>
  <g opacity="0.4">
    <path d="M575.76,229.11l-9,8.37,6.2,7.6-4.7,58.23s-7.51,39.46,24.43,81.73l17.85,1.88V368.26s-34.38-36.77-34.1-60.25l.28-62.93,5.54-6.2Z" fill="#fff"/>
  </g>
  <path d="M562.61,241.82h-.05a.52.52,0,0,1-.35-.2L556.43,234a.5.5,0,0,1,.09-.7.5.5,0,0,1,.7.1l5.45,7.2,12.75-11.83a.49.49,0,0,1,.4-.13.53.53,0,0,1,.36.22l7.94,12c1.59-.09,10.14-1,17.57-9.22a.51.51,0,0,1,.71,0,.5.5,0,0,1,0,.71c-8.5,9.45-18.17,9.56-18.57,9.56a.5.5,0,0,1-.42-.23l-7.77-11.72L563,241.68A.49.49,0,0,1,562.61,241.82Z" fill="#ccc"/>
  <path d="M734.51,286.41s17.85-7.52,9.39-11.28c0,0,3.76-3.75.94-7.51,0,0,5.19-5.07-4-6.29,0,0,2.1-7.14-5.41-8.41,0,0-8.46-.33-6.58,2.49,0,0,.86,1.71,5.84,3.5a1.11,1.11,0,0,1,.74,1h0a1.09,1.09,0,0,1-1.1,1.09h0a1.72,1.72,0,0,0-1.72,1.72v3a4,4,0,0,0-1.15.66,2.17,2.17,0,0,0,.76,3.7,6.91,6.91,0,0,0,2.27.34s-5.64,3.75,3.76,5.63c0,0-3.76.94-3.76,4.7Z" fill="#f7a48b"/>
  <path d="M732.63,266.23a.53.53,0,0,1-.24-.06.49.49,0,0,1-.21-.65c.12-.23,1.27-2.18,7.11-1.21a.5.5,0,1,1-.17,1c-5.07-.84-6,.68-6,.69A.52.52,0,0,1,732.63,266.23Z" fill="#f29079"/>
  <path d="M398.22,242.26l7.52-23.49S417,204.68,415.13,200c0,0,6.58-4.7,2.82-12.21,0,0,4.2-3.42,1.16-9.23,0,0,.55-8,1.1-10.65,0,0-5.36-4.1-6.63,9.3,0,0-14.42-1.64-9.72,4a84.55,84.55,0,0,0,8.49,3.32l-.68,4s-11.57-2.64-11.57,1.11c0,0,.16,2.15,10.41,5.77l-.33,2s-8.2-3-7.26,1.68c0,0,.9,2.17,6.09,5.31l-.75,4.47a8.34,8.34,0,0,1-2.37,4.13l-3.75,3.16a7.27,7.27,0,0,0-2.4,4.35c-.58,3-2.9,21.28-2.9,21.28Z" fill="#f7a48b"/>
  <path d="M560.25,665.44l.31-.41a3.71,3.71,0,0,1,3-1.48h24.31a4.73,4.73,0,0,1,3.26,1.31l.58.56a1.64,1.64,0,0,0,2.48-.23c.13-.2.26-.43.4-.7,0,0,1.87,4.7-2.82,5.64l-32.88.77s-6.57-.77-5.63-6.41a10.83,10.83,0,0,0,3.14,2A3.23,3.23,0,0,0,560.25,665.44Z" fill="#2f2e41" data-secondary="true"/>
</svg>