 <!DOCTYPE svg PUBLIC "-//W3C//DTD SVG 1.1//EN" "http://www.w3.org/Graphics/SVG/1.1/DTD/svg11.dtd">
<svg id="e1099723-1fee-462f-907f-91b731d6e5f6" data-name="Layer 1" xmlns="http://www.w3.org/2000/svg" width="865.76" height="682.89" viewBox="0 0 865.76 682.89">
<defs>
<style xmlns="http://www.w3.org/1999/xhtml">*, ::after, ::before { box-sizing: border-box; }
img, svg { vertical-align: middle; }
</style>
<style xmlns="http://www.w3.org/1999/xhtml">*, body, html { }
img, svg { max-width: 100%; }
</style>
</defs>
<polygon points="710.52 459.11 729.71 501.5 738.18 501.5 724.35 450.18 710.52 459.11" fill="#bcbec0"/>
<polygon points="792.18 498.38 773.88 455.54 789.06 454.64 799.77 497.48 792.18 498.38" fill="#bcbec0"/>
<polygon points="409.9 503.21 425.24 450.85 439.52 457.2 418.36 504.26 409.9 503.21" fill="#bcbec0"/>
<polygon points="491.87 498.98 505.62 457.73 522.54 458.25 501.39 499.5 491.87 498.98" fill="#bcbec0"/>
<path d="M750.61,461.25l-26.83,2.2-255.15-.1s-58.2,2.31-73.31-20.32c0,0-16.79-15.89-20.91-63.59,0,0-11.19-47.7,25.91-47.7L444.48,340s21.5,3.82,25.62-7.36l68.3-68,4.13-2.36S723,246.36,823.11,264C823.11,264,805.3,430,750.61,461.25Z" fill="#d1d3d4"/>
<path d="M752.47,379.66s6.73-30.85,28.61-33.09c0,0,25,2.12,27.34-26.24a27,27,0,0,0,0-4.12c-.6-8.82-2.29-48.27,14.68-52.18,0,0,7.33-1,7.33,18.59S831,389.2,806.88,450.34c0,0-4.49,8.41-25.24,9.54,0,0-44.32,9-39.27-11.22C742.37,448.66,744.06,408.27,752.47,379.66Z" fill="#bcbec0"/>
<path d="M549.93,367s41.76,4.19,74.15,1.24" fill="none" stroke="#bcbec0" stroke-miterlimit="10" stroke-width="2"/>
<path d="M620.71,473.65s-3.77-8-3.77-16.16a106.9,106.9,0,0,0-21.1,18.43s10.27,5.9,18.68.94A8.94,8.94,0,0,1,620.71,473.65Z" fill="#f7a48b"/>
<path d="M711.21,404.87l.31,9c.06,1.5.06,3,.08,4.5l.07,4.49v-.05a23.65,23.65,0,0,1-.47,5.47,24.66,24.66,0,0,1-1.65,5.21,20,20,0,0,1-6.95,8.41,21.74,21.74,0,0,1-4.9,2.49c-1.74.62-3.45,1-5.17,1.51-3.46.86-6.95,1.66-10.48,2.21a199.36,199.36,0,0,1-21.24,2.1c-7.09.4-14.19.51-21.29.62-14.19.16-28.37,0-42.55-.25s-28.35-.59-42.53-.95h.08c-13.17.63-26.33.82-39.51.66s-26.33-.69-39.47-1.79a268.45,268.45,0,0,1-39.13-5.81,100.13,100.13,0,0,1-18.86-6.28,44.2,44.2,0,0,1-8.61-5.17,21.52,21.52,0,0,1-6.45-7.87l.1.17a31.1,31.1,0,0,1-3.41-6.17,32.19,32.19,0,0,1-2-6.73,25.83,25.83,0,0,1,1.24-13.92,31.28,31.28,0,0,1,8-11.43,54.36,54.36,0,0,1,11.3-8,116.71,116.71,0,0,1,25.71-9.74c4.43-1.17,8.88-2.19,13.4-3.05s9.06-1.36,13.6-1.86a268.89,268.89,0,0,1,54.78-.45,204.36,204.36,0,0,1,27,4.46,154.15,154.15,0,0,1,25.95,8.68,155.68,155.68,0,0,0-26-8.39,205.64,205.64,0,0,0-27-4.14,254.19,254.19,0,0,0-27.32-.86c-9.11.2-18.22.77-27.27,1.82-4.53.52-9,1.14-13.52,1.93s-8.89,1.92-13.28,3.1a115.22,115.22,0,0,0-25.33,9.78,53.05,53.05,0,0,0-10.95,7.85,29.73,29.73,0,0,0-7.5,10.89,24.53,24.53,0,0,0-1.1,13A31.26,31.26,0,0,0,404,422.49l.07.1,0,.07a19.82,19.82,0,0,0,6,7.21,42.48,42.48,0,0,0,8.27,4.94,98.4,98.4,0,0,0,18.53,6.12,267.21,267.21,0,0,0,38.87,5.69c13.08,1.06,26.21,1.56,39.34,1.7s26.28,0,39.38-.64h.08c14.16.39,28.33.78,42.5,1s28.34.47,42.5.34c7.08-.1,14.16-.2,21.22-.58a197.23,197.23,0,0,0,21.06-2c3.49-.52,6.92-1.28,10.34-2.11,1.69-.47,3.44-.88,5-1.44a19.72,19.72,0,0,0,4.57-2.28,18.34,18.34,0,0,0,6.47-7.74,23.61,23.61,0,0,0,2.07-10v-.06l.18-4.49c.06-1.5.1-3,.21-4.49Z" fill="#bcbec0"/>
<path d="M602,429.57s-18.56,32.25-27.29,40.61c0,0,10.4,4.95,9.41,10.15,0,0-1.24,7.92,2.73,8.91,0,0,4.34-13.67,36.38-35.78C623.18,453.46,615.85,433.37,602,429.57Z" fill="#f9b499"/>
<path d="M601.63,430.77l-7.53,11.84-.61-.17a1.57,1.57,0,0,1-1.13-1.69c1.35-11.33,11.91-91.82,39.67-96.08l26.64-1.88,5.38,4.57s3.23,11.57,3,12.38S601.63,430.77,601.63,430.77Z" fill="#2f2e41" data-secondary="true"/>
<path d="M601.63,430.77l-7.53,11.84-.61-.17a1.57,1.57,0,0,1-1.13-1.69c1.35-11.33,11.91-91.82,39.67-96.08l26.64-1.88,5.38,4.57s3.23,11.57,3,12.38S601.63,430.77,601.63,430.77Z" opacity="0.2"/>
<path d="M559.49,287.62s-1.28,6,0,8.43a1.66,1.66,0,0,0,2.15.74c1.28-.62,2.58-2.71,2.75-7Z" fill="#0071f2" data-primary="true"/>
<path d="M559.49,287.62s-1.28,6,0,8.43a1.66,1.66,0,0,0,2.15.74c1.28-.62,2.58-2.71,2.75-7Z" opacity="0.2"/>
<path d="M520.37,254.08s15.18-3.36,22.39,8.72l-11.9-.43S522.72,255.55,520.37,254.08Z" fill="#f7a48b"/>
<path d="M654.26,249.33s3.28-10.73,10.35-16.47l10.82-5.52-4.68,14.33A83.6,83.6,0,0,0,654.26,249.33Z" fill="#2f2e41" data-secondary="true"/>
<path d="M523.41,501.67s-3.32,4,2.55,5.19c0,0,20.45,1.88,29.15-.71,0,0,16-.23,10.57-11.75l-28.44-.71Z" fill="#2f2e41" data-secondary="true"/>
<path d="M552.8,457.41l2.31,7.37S572.5,462,568,458.67C568,458.67,563.61,456.94,552.8,457.41Z" fill="#2f2e41" data-secondary="true"/>
<path d="M552.8,457.41l2.31,7.37S572.5,462,568,458.67C568,458.67,563.61,456.94,552.8,457.41Z" opacity="0.2"/>
<path d="M468.38,399.92s-2.12,7.05,12,15l1.89-10.51A26.21,26.21,0,0,0,468.38,399.92Z" fill="#2f2e41" data-secondary="true"/>
<path d="M468.38,399.92s-2.12,7.05,12,15l1.89-10.51A26.21,26.21,0,0,0,468.38,399.92Z" opacity="0.2"/>
<path d="M467.6,248s4.56,15.46,9.86,26.65c0,0,10.6-21.79,18.55-30.18,0,0-15.31-10.6-11-25l-.59-6.33-7.8,8.1Z" fill="#f9b499"/>
<ellipse cx="462.35" cy="212.77" rx="18.77" ry="25.44" transform="translate(-29.2 80.81) rotate(-9.68)" fill="#f9b499"/>
<path d="M536.75,268.58c-5.61-7.72-8.65-9.07-8.65-9.07-6.28-7.85-32.09-15.06-32.09-15.06-10.5,12.22-18.55,30.18-18.55,30.18-2.55-4.91-8-21-8-21a45.05,45.05,0,0,0-16.29,8.25c-9.22,5.49-26.5,42.59-26.5,42.59-3.14,4.12-7.06,2.36-7.06,2.36-6.28-9.82-13.94-6.68-13.94-6.68s5.21,26.51-8.07,24.85c0,0,4.15,17.15,14.94,9.4l23.23,3.88s5.26-.83,7.2-5c0,0,7.74-3.88,7.74-11.9l11.06-13.55s7.75,11.89,6.92,21.85c0,0-1.11,11.07,2.49,14.11l8.57-5.26s-1.38-32.91,16.05-33.47c0,0,14.66-3,33.75,9.13,0,0,22.12,9.13,27.93,25.45,0,0,4.08-10.32-7.2-20.45a5.3,5.3,0,0,1-1.56-5.34A15.84,15.84,0,0,0,545.54,299a7.81,7.81,0,0,1-.64-6,18.93,18.93,0,0,0,1-4.69c.32-5,0-14.17-6-17.11A8.56,8.56,0,0,1,536.75,268.58Z" fill="#0071f2" data-primary="true"/>
<path d="M419.56,306.82a35.6,35.6,0,0,1,1.94,7.63,28.77,28.77,0,0,1,.12,7.92,16.67,16.67,0,0,1-2.79,7.43,13.91,13.91,0,0,1-2.82,2.81,14.57,14.57,0,0,1-3.52,1.78,16.5,16.5,0,0,0,3.31-2.05,13.53,13.53,0,0,0,2.6-2.85,16.82,16.82,0,0,0,2.54-7.21,31,31,0,0,0,0-7.76c-.13-1.3-.32-2.59-.56-3.87S419.9,308.08,419.56,306.82Z" opacity="0.2"/>
<path d="M423.29,307.21a47.21,47.21,0,0,0,3.78,3.21,21.31,21.31,0,0,0,2.05,1.35,21.82,21.82,0,0,0,2.21,1.13,7.86,7.86,0,0,1-2.46-.65,11,11,0,0,1-2.2-1.28,14,14,0,0,1-1.89-1.71A10.33,10.33,0,0,1,423.29,307.21Z" opacity="0.2"/>
<path d="M443.31,272.86a52.39,52.39,0,0,0,1.33,5.7c.56,1.87,1.14,3.73,1.86,5.54s1.46,3.61,2.32,5.36,1.79,3.46,2.73,5.19c-.58-.79-1.16-1.59-1.7-2.41s-1-1.67-1.5-2.54a40.12,40.12,0,0,1-2.49-5.36,41,41,0,0,1-1.73-5.65c-.22-.95-.4-1.92-.56-2.89A26.52,26.52,0,0,1,443.31,272.86Z" opacity="0.2"/>
<path d="M461.72,307.84,459.26,303c-.83-1.61-1.64-3.22-2.49-4.81s-1.71-3.18-2.61-4.74c-.45-.78-.93-1.54-1.42-2.29L452,290c-.28-.35-.55-.71-.82-1.08a22.84,22.84,0,0,1,3.44,4.22,50.34,50.34,0,0,1,2.77,4.7c.84,1.61,1.65,3.24,2.36,4.91S461.15,306.12,461.72,307.84Z" opacity="0.2"/>
<path d="M466.07,254.21c-.42,1.8-.75,3.6-1.05,5.41s-.52,3.63-.68,5.45a43.49,43.49,0,0,0-.13,5.47,25.41,25.41,0,0,0,.79,5.37l-.58,0a18,18,0,0,1,1.46-2.7,16.78,16.78,0,0,1,1.88-2.41,11.88,11.88,0,0,1,2.34-2,8,8,0,0,1,2.84-1.05,8.66,8.66,0,0,0-2.7,1.26,13.46,13.46,0,0,0-2.17,2,17.2,17.2,0,0,0-1.72,2.43,20.58,20.58,0,0,0-1.36,2.64l-.34.81-.24-.84a24.15,24.15,0,0,1-.87-5.52,42.78,42.78,0,0,1,.2-5.55,52.82,52.82,0,0,1,.89-5.47A51.94,51.94,0,0,1,466.07,254.21Z" opacity="0.2"/>
<path d="M477.46,278a21.5,21.5,0,0,0,.52,3.84,29.9,29.9,0,0,0,1,3.74,41.8,41.8,0,0,0,3.08,7.07,27.8,27.8,0,0,1,2.91,7.27,37.36,37.36,0,0,1,1.12,7.72c-.21-1.28-.39-2.57-.68-3.83s-.57-2.52-.95-3.75a29.92,29.92,0,0,0-3-7.09,37.15,37.15,0,0,1-3-7.24A23.32,23.32,0,0,1,477.46,278Z" opacity="0.2"/>
<path d="M486.29,262.46a23.23,23.23,0,0,1,3.62,1.37,24.61,24.61,0,0,1,3.39,1.92,21,21,0,0,1,3,2.47,16.92,16.92,0,0,1,2.41,3.11l-.58.09c.43-2,.74-4.07,1.07-6.11s.56-4.1.76-6.16.35-4.12.4-6.19,0-4.13-.15-6.21a46.06,46.06,0,0,1,.54,6.22c0,2.08,0,4.16-.2,6.23s-.4,4.15-.69,6.21-.67,4.1-1.11,6.14l-.17.77-.41-.68a16.22,16.22,0,0,0-2.28-3,20.24,20.24,0,0,0-2.87-2.52A29.34,29.34,0,0,0,486.29,262.46Z" opacity="0.2"/>
<path d="M528.1,259.51a14.27,14.27,0,0,0-5,1.52,16.1,16.1,0,0,0-4.11,3.19,24,24,0,0,0-3.1,4.24,26.07,26.07,0,0,0-1.23,2.34c-.4.8-.74,1.62-1.06,2.45a20.71,20.71,0,0,1,1.83-5,19.36,19.36,0,0,1,3.06-4.45,13.68,13.68,0,0,1,4.38-3.2,12.35,12.35,0,0,1,2.58-.84A12.07,12.07,0,0,1,528.1,259.51Z" opacity="0.2"/>
<path d="M513.18,281.1a10.29,10.29,0,0,0-.17,3,16.12,16.12,0,0,0,.47,2.93,23.89,23.89,0,0,0,.91,2.83c.19.47.38.88.57,1.41a12.67,12.67,0,0,1,.38,1.5,20.86,20.86,0,0,1,.3,3.05,20.52,20.52,0,0,1-.21,3c-.06.51-.18,1-.26,1.5s-.24,1-.36,1.48l-.47,1.43-.57,1.41a30.7,30.7,0,0,0,1.14-5.88,21.58,21.58,0,0,0-.25-5.9,13.53,13.53,0,0,0-.34-1.43c-.14-.42-.37-.92-.54-1.38a20.16,20.16,0,0,1-.82-2.95A11.81,11.81,0,0,1,513.18,281.1Z" opacity="0.2"/>
<path d="M529.25,462.67l7.52,15s15.75-3,23.51.24l-7.48-20.54S542.79,455.38,529.25,462.67Z" fill="#f9b499"/>
<path d="M560.28,478s5.4,15.51,5.4,16.45c0,10.93-16.34,9.78-21.49,9.15a4.48,4.48,0,0,1-2.48-1.19c-6.13-5.62-15-1.38-15-1.38a4.06,4.06,0,0,1-3.26.69,1.51,1.51,0,0,1-1.12-1.49c0-1.31.76-3.65,5.1-5.65a14.14,14.14,0,0,0,7.43-7.84,37.85,37.85,0,0,0,1.95-9S551.11,474.42,560.28,478Z" fill="#0071f2" data-primary="true"/>
<path d="M474.09,427s5.87-7.33,7.84-20.92c0,0,19,7.06,19.59,17.39L498.09,440s-9.12,7.22-15.36-4.31C482.73,435.68,480.94,428.32,474.09,427Z" fill="#f9b499"/>
<path d="M397.55,325S363.46,293,368.49,282.35c0,0-6.29-2.52-3.15-8.18,0,0-5-.94,4.41-12.26,0,0-1.57-13,2.43-11.57a2.57,2.57,0,0,1,1.56,1.9L376.66,266s3.15,10.06,7.87,4.4c0,0,7.23-10.06,9.43-4.09,0,0-6,12.58-3.14,18.55,0,0,9.17,13.9,14.8,15.28C405.62,300.14,410.89,327.38,397.55,325Z" fill="#f9b499"/>
<path d="M369.75,261.91s5.34.31,1.57,6.6c0,0,5-1.57,1.89,7.86,0,0,4.33-2.65,3.94,3.43a14.88,14.88,0,0,1-1,4.45c-.6,1.54-1.44,4.18-1,6.27" fill="none" stroke="#f7a48b" stroke-miterlimit="10"/>
<path d="M371.32,268.51c-.64.82-4.56,5.13-4.56,5.13" fill="none" stroke="#f7a48b" stroke-miterlimit="10"/>
<line x1="373.21" y1="276.37" x2="369.51" y2="282.08" fill="none" stroke="#f7a48b" stroke-miterlimit="10"/>
<path d="M479.7,338.54,457.45,352s-3.18,1.06-5,9.52c0,0-5,24.86,4.23,14.81,0,0,2.12,6.34,5.82,1.58,0,0,2.12,3.44,5.82-1.58,0,0,4.23,3.7,4.49-6.61l6.61-6.88S484.25,344.08,479.7,338.54Z" fill="#f9b499"/>
<path d="M457.45,352s.28,7.67,5.88,4.73c0,0,1.47,6.18,10,5.3" fill="none" stroke="#f7a48b" stroke-miterlimit="10"/>
<path d="M467.26,247l2.9,8.54a25.55,25.55,0,0,0,9-19.14S478.07,244.05,467.26,247Z" fill="#f7a48b"/>
<path d="M561.26,271.5s2.21,3.32,2.65,12.81c0,0,.76,8.39-2.55,12.59l37,9.94s14.35,5.52,26.94-4.42c0,0,22.52-14.57,27.6-17,1.33.44,6.19-1.11,7.51-.89,0,0-1.77,12.15,12.37,20.76,0,0,9.49,2.65,8.17,15.9l-17.23,9.05s10.16,4.86,10.82,13L711.2,330S724,326.93,726,291.6c0,0,1.1-27.84-.44-33.46,0,0-2.69-9.74-24.31-17.18l-31.79.73s-19.87,7.73-32.24,20.32l-9.93,8.17s-6.41-1.77-10.38,6.62c0,0-7.29-4.19-10.82,6.85-5.65-.83-11.71-2-18.11-3.53A195.74,195.74,0,0,1,561.26,271.5Z" fill="#0071f2" data-primary="true"/>
<g opacity="0.2">
<rect x="608.76" y="281.49" width="0.69" height="6.36" transform="translate(144.68 770.83) rotate(-71.36)"/>
</g>
<g opacity="0.2">
<path d="M654.08,277.08a50.22,50.22,0,0,1-8-22.85l.69,0a49.33,49.33,0,0,0,7.86,22.49Z"/>
</g>
<g opacity="0.2">
<path d="M686.07,301.15c-16.48-11.87-14.24-29-14.22-29.16l.68.1c0,.17-2.19,16.88,13.94,28.5Z"/>
</g>
<circle cx="677.14" cy="277.65" r="0.99" opacity="0.2"/>
<circle cx="681.1" cy="287.77" r="0.99" opacity="0.2"/>
<g opacity="0.2">
<rect x="679.22" y="315.2" width="20.22" height="0.69" transform="translate(-58.66 439.02) rotate(-33.97)"/>
</g>
<g opacity="0.2">
<path d="M693.86,312.37a27.81,27.81,0,0,1,.52-9.61,21.37,21.37,0,0,1,1.16-3.71,20.06,20.06,0,0,0,1.32-5.49,15.56,15.56,0,0,0-.16-4.13A28.59,28.59,0,0,1,697.83,277l.65.22a28.34,28.34,0,0,0-1.1,12.11,16.07,16.07,0,0,1,.16,4.31,20.8,20.8,0,0,1-1.36,5.68,20.57,20.57,0,0,0-1.12,3.59,27.11,27.11,0,0,0-.53,9.35Z"/>
</g>
<g opacity="0.2">
<path d="M700.78,271l-.62-.31c.31-.61,7.57-15.12,16.63-16.49,3.2-.49,6.24.75,9,3.68l-.5.48c-2.62-2.76-5.45-3.93-8.42-3.48C708.19,256.21,700.85,270.87,700.78,271Z"/>
</g>
<path d="M725.83,289.64s11.88,29.4,17,35.24c0,0,4.43,6.07-.24,11,0,0-8.16-7-27.54-8.41C715.07,327.44,725.13,317.88,725.83,289.64Z" fill="#0071f2" data-primary="true"/>
<path d="M725.76,290s2,24.69,1.76,39.4c0,0-2.95-1.38-12.45-1.95C715.07,327.44,724.72,317.79,725.76,290Z" opacity="0.2"/>
<g opacity="0.2">
<path d="M727.32,318a25.08,25.08,0,0,1,4.3.64,27,27,0,0,1,4.16,1.28,21.22,21.22,0,0,1,3.87,2,16.07,16.07,0,0,1,1.73,1.35,13.09,13.09,0,0,1,1.47,1.6,17.73,17.73,0,0,0-1.69-1.34,15.22,15.22,0,0,0-1.79-1.16,35.7,35.7,0,0,0-3.85-1.83c-1.32-.53-2.68-1-4-1.41-.68-.21-1.37-.41-2.07-.59S728,318.18,727.32,318Z"/>
</g>
<path d="M600.22,430.07S614,431.67,626.77,463l47-73.91a14.42,14.42,0,0,1,12.79-8.64L710,373.11s45.15-10.86,32.65-37.26c0,0-6.11-6.72-27.54-8.41A12.16,12.16,0,0,1,711.2,330l-36.66,13.25s-27.5,8.3-38.09,29.5Z" fill="#2f2e41" data-secondary="true"/>
<path d="M627.61,442.15l10.15-15.21q5.07-7.6,10-15.28c3.3-5.12,6.61-10.23,9.81-15.41s6.35-10.41,9-15.85l0,.05a18,18,0,0,1,2.19-4.08,9.22,9.22,0,0,1,3.59-3,5.79,5.79,0,0,1,2.4-.41l.61,0a2.74,2.74,0,0,0,.48,0,2.37,2.37,0,0,0,.9-.21,2.88,2.88,0,0,0,.79-.55l.79-.8c.55-.53,1.13-1,1.72-1.51a16.53,16.53,0,0,1,8.29-3.79l1.11-.12c.36,0,.71-.12,1.06-.2l2.14-.61c1.44-.42,2.86-.87,4.28-1.33a122.07,122.07,0,0,0,16.6-6.76,77.72,77.72,0,0,0,7.78-4.45,49,49,0,0,0,7-5.63,46.56,46.56,0,0,1-6.83,5.85,79.33,79.33,0,0,1-7.71,4.66,120.16,120.16,0,0,1-16.57,7.05c-1.42.49-2.85,1-4.29,1.41-.72.22-1.43.43-2.17.63a9,9,0,0,1-1.15.23l-1.13.12a15.72,15.72,0,0,0-7.82,3.64q-.86.71-1.65,1.47l-.78.8a3.66,3.66,0,0,1-1.05.73,3.32,3.32,0,0,1-1.91.26l-.51,0a4.94,4.94,0,0,0-2,.35c-2.53,1.16-4.17,3.92-5.19,6.56l0,0h0c-2.73,5.51-5.93,10.71-9.14,15.9s-6.54,10.29-9.93,15.36-6.82,10.11-10.28,15.13S631.19,437.21,627.61,442.15Z" fill="#fff"/>
<path d="M626.77,463s-1.73,8.38-9-5.61l5-3.6S625.82,460.29,626.77,463Z" fill="#2f2e41" data-secondary="true"/>
<path d="M626.77,463s-1.73,8.38-9-5.61l5-3.6S625.82,460.29,626.77,463Z" opacity="0.2"/>
<path d="M663.72,330.24s-7.62,5.21-19.54,2.71c0,0-2.26-1.46-6.64.08a6.09,6.09,0,0,1-2.78.26c-2.87-.38-8.6-.81-6.78,2.18a.61.61,0,0,0,.62.3c1.57-.23,7.4-.95,6.73,1.21,0,0-8.26,2.12-5.57,5.77,0,0,1.71,1.72,7.57-.2a.29.29,0,0,1,.32.47c-1.61,2-4.93,6.88-1.16,10.5,0,0,4.42,6.92,14.8.57,0,0,15.36-8.95,23.25-10.82C674.54,343.27,675,336,663.72,330.24Z" fill="#f9b499"/>
<path d="M642.25,337.75s3.27,11.15,6.35,14.81" fill="none" stroke="#f7a48b" stroke-miterlimit="10"/>
<path d="M642.83,334.1s-4.61.19-7.5,2.88" fill="none" stroke="#f7a48b" stroke-miterlimit="10"/>
<path d="M587.35,487.92a70.29,70.29,0,0,1,16.56-1.1,18.43,18.43,0,0,0,6.18-.65A31.67,31.67,0,0,0,617,483.3s6.19-4.45,11.64-4c0,0-4.46-4.95-7.93-5.69,0,0-2.27-.38-5,2a12.07,12.07,0,0,1-6.36,3c-3.05.41-7.62,0-13.33-2.67A23.39,23.39,0,0,0,587.35,487.92Z" fill="#0071f2" data-primary="true"/>
<path d="M587.35,487.92a70.29,70.29,0,0,1,16.56-1.1,18.43,18.43,0,0,0,6.18-.65A31.67,31.67,0,0,0,617,483.3s6.19-4.45,11.64-4c0,0-4.46-4.95-7.93-5.69,0,0-2.27-.38-5,2a12.07,12.07,0,0,1-6.36,3c-3.05.41-7.62,0-13.33-2.67A23.39,23.39,0,0,0,587.35,487.92Z" fill="#fff" opacity="0.2"/>
<path d="M628.14,492s9.41-5.45.5-12.63c0,0-5.45-1-11.64,4a24.59,24.59,0,0,1-6.91,2.87s-4.23,1.34-7,.85c0,0-11.15-.75-15.35.74a24.59,24.59,0,0,0-7.74,5.71,8.33,8.33,0,0,0,5.48,13.64c4.21.5,10.67.18,19.09-3.51C604.62,503.6,618.49,497.91,628.14,492Z" fill="#e6e7e8"/>
<path d="M551.39,478.6s-10.15,1-4.95,11.14c0,0,25,26.24,34.41,9.16Z" fill="#2f2e41" data-secondary="true"/>
<path d="M551.39,478.6s-10.15,1-4.95,11.14c0,0,25,26.24,34.41,9.16Z" opacity="0.2"/>
<path d="M455.36,228.67a5.79,5.79,0,0,0-4.75,6.43c.54,4.38,2.3,11.16,8,12.15,0,0,20.31,6.77,22.37-18.55v-10l-.14-9.08,2.79-3.88s1.18-22.37-23.55-20c0,0-15.29,3.22-15.66,13a1.68,1.68,0,0,0,1.45,1.74c2.51.35,7.91.24,11.85-5.89,0,0,3.24-4.71,9-3.82,0,0,7.66.73,5.15,6.62-.13.42-4,5.71,1.85,11.14A3.93,3.93,0,0,1,475,211c.2,2.53.32,7.57-1.41,11.75a10,10,0,0,1-10.66,6A26,26,0,0,0,455.36,228.67Z" fill="#2f2e41" data-secondary="true"/>
<ellipse cx="483.64" cy="212.65" rx="5.3" ry="6.92" fill="#f9b499"/>
<path d="M468.38,399.92s11.6-36.49,11.32-61.38c0,0-.77-33.12,16.05-33.47,0,0,14-3.49,33.75,9.13,0,0,21.56,8.43,27.93,25.45,0,0,3.79,26-7.5,27.36l-18.33-2.35s12,35.73,20.45,55.47l16,38.54s-25.15-3.52-38.78,4l-22.33-49.59s-3.52,8.22-5.4,10.34c0,0,.94-5.64-17.39-15.75C484.13,407.67,472.37,400.39,468.38,399.92Z" fill="#2f2e41" data-secondary="true"/>
<path d="M506.92,413.08l8.43,19.33s6.94-39,3.58-79.48C518.93,352.93,511.71,402.92,506.92,413.08Z" opacity="0.2"/>
<g opacity="0.2">
<path d="M500.46,407.19l-.67-.16c.15-.59,14.29-59.55,12.31-82.73,0-.62.28-5.73,2.28-6.23,1.12-.27,2.42.89,4,3.57l0,.12c.11.77.45,1.65.73,1.69,0,0,.48,0,1.27-1.72a1,1,0,0,1,.54-.9c.51-.19,1.17.19,2.08,1.2l-.52.46c-1-1.1-1.31-1-1.31-1s-.1.18-.1.33l0,.14c-.72,1.58-1.37,2.28-2,2.18-.9-.12-1.23-1.74-1.31-2.21-1.74-3-2.73-3.28-3.16-3.18-1.14.28-1.69,3.55-1.77,5.54C514.78,347.54,500.6,406.6,500.46,407.19Z"/>
</g>
<g opacity="0.2">
<path d="M531.6,362c-4-9.78-7.16-12.35-9.13-12.79a2.19,2.19,0,0,0-2,.37l-.7.64.13-.94c1-7.1-1.75-14.71-2.64-17.21-.14-.4-.24-.67-.27-.79l.67-.17c0,.11.12.36.25.73.87,2.45,3.48,9.78,2.75,16.84a3.1,3.1,0,0,1,1.89-.15c2.13.46,5.53,3.12,9.65,13.21Z"/>
</g>
<g opacity="0.2">
<path d="M520.58,349.5l-.61-.31c4.38-8.76,3.11-22.06,3.1-22.2l.68-.07C523.77,327.06,525.05,340.56,520.58,349.5Z"/>
</g>
<g opacity="0.2">
<path d="M546.9,342h-.46c-9.27-.47-19.73-14.69-20.17-15.3l.55-.4c.11.14,10.71,14.56,19.66,15a7.55,7.55,0,0,0,6.23-2.72l.51.45A8.24,8.24,0,0,1,546.9,342Z"/>
</g>
<path d="M442.16,439.05s4.35,11.14,38,22.48c0,0,14.92,5.86,15.87,1.89l-3.21-9.07-18.52-4-21.92-11.33S445.76,434.89,442.16,439.05Z" fill="#e6e7e8"/>
<path d="M498.46,455.11v0c-.37-.23-6.6-4.18-13.62-3.71a5.69,5.69,0,0,1-2.64-.44c-4.22-1.79-17.38-7.47-26-12.1a3.73,3.73,0,0,1-1.64-1.88c-.67-1.65-2.92-4.45-10.48-3.77,0,0,2.1-6.13,9.51-2.87a13.69,13.69,0,0,0,2.87.91c3.15.62,9.39,1.14,14.06-2.91a5.8,5.8,0,0,1,5.2-1.21,10,10,0,0,1,7.29,6.7,13.22,13.22,0,0,0,1.9,3.72c2.2,2.92,6.73,6.86,13.2,2.46C498.08,440,499.79,445.47,498.46,455.11Z" fill="#0071f2" data-primary="true"/>
<path d="M496,463.42l-1.14-.81a58.36,58.36,0,0,0-8.75-5.18l-30.73-14.8c-8.13-4.34-13.23-3.58-13.23-3.58-.37-4.16,1.89-5.86,1.89-5.86,7.56-.68,9.81,2.12,10.48,3.77a3.73,3.73,0,0,0,1.64,1.88c8.63,4.63,21.79,10.3,26,12.1a5.77,5.77,0,0,0,2.66.44c7-.47,13.24,3.48,13.61,3.71v0C500,463,496,463.42,496,463.42Z" fill="#2f2e41" data-secondary="true"/>
<path d="M670,234.74s-2.43,30,2,34.14c0,0,5.75-17.24,29.3-27.92,0,0-16.7-6.84-11.78-23.27l-21.07-4.1Z" fill="#f9b499"/>
<path d="M702.25,200.26c.46,5.27,1.58,10.78,4.11,15.43a12.81,12.81,0,0,0,5.28,5.52,16.11,16.11,0,0,0,3.81,1.09,29.71,29.71,0,0,1,4,1.3,24.86,24.86,0,0,1,7.2,4.39,18.23,18.23,0,0,1,4.82,6.83A21.29,21.29,0,0,1,733,243a34,34,0,0,1-1.11,8.21,32.94,32.94,0,0,0,.93-8.21,20.75,20.75,0,0,0-1.71-8c-2.2-5.06-6.87-8.62-12-10.32a26.93,26.93,0,0,0-3.92-1,16.17,16.17,0,0,1-4.19-1,14.59,14.59,0,0,1-6.32-6,35.52,35.52,0,0,1-3.38-7.85,51.59,51.59,0,0,1-1.82-8.34Z" fill="#2f2e41" data-secondary="true"/>
<path d="M545.88,282.21l18.06,8s1-11.83-2.68-18.72l-18.73-9.24s-12.52-8.83-13.84-6.33c0,0-2.21.88,1.91,5.3l6.15,7.35a7,7,0,0,0,3.18,2.57S544.55,273.08,545.88,282.21Z" fill="#f9b499"/>
<path d="M670,234.74l-.24,4.31s10.68-1.1,12-11Z" fill="#f7a48b"/>
<ellipse cx="672.19" cy="211.45" rx="23.39" ry="15.67" transform="translate(398.88 860.95) rotate(-84.64)" fill="#f9b499"/>
<path d="M659.05,200.05h0a44,44,0,0,1,3.82-6.36.93.93,0,0,1,1.25-.16c2.53,1.81,12,8.29,18.68,9.68a3.6,3.6,0,0,1,2.72,2.36l1.76,5.29,2.19,6.84S683.18,232.2,701.25,241c0,0,21.17,7.36,24.31,17.18,0,0,7.76-20.88-6.31-29.95a18.7,18.7,0,0,0-4.33-2c-3.55-1.18-13.56-5.82-11.94-20.07,0,0,.22-12.29-8.68-20.41a23.86,23.86,0,0,0-24.64-4.33C662.78,184,656.41,191,659.05,200.05Z" fill="#2f2e41" data-secondary="true"/>
<ellipse cx="690.71" cy="215.37" rx="5.06" ry="6.16" fill="#f9b499"/>
<path d="M574.66,470.18s-2.9-.19-8,2.84a13.57,13.57,0,0,1-4.82,1.71c-5.19.83-15.72,3.37-11.43,10.08a6.73,6.73,0,0,0,1,1.2c3,2.85,18.74,17.36,29.47,12.89a59.61,59.61,0,0,0,5.95-9.66s-3,.25-2.73-8.91C584.07,480.33,585.56,474.88,574.66,470.18Z" fill="#0071f2" data-primary="true"/>
<path d="M574.66,470.18s-2.9-.19-8,2.84a13.57,13.57,0,0,1-4.82,1.71c-5.19.83-15.72,3.37-11.43,10.08a6.73,6.73,0,0,0,1,1.2c3,2.85,18.74,17.36,29.47,12.89a59.61,59.61,0,0,0,5.95-9.66s-3,.25-2.73-8.91C584.07,480.33,585.56,474.88,574.66,470.18Z" fill="#fff" opacity="0.2"/>
<path d="M711.59,393.56s-7.8-56.52,38.59-55.35l10.53,7S739.26,381.09,738.87,385,711.59,393.56,711.59,393.56Z" fill="#d1d3d4"/>
<path d="M797.91,338.15a6,6,0,0,1-2.61,2.47l-.81.42-.85.33a14,14,0,0,1-1.74.55,15.92,15.92,0,0,1-1.79.4,15.66,15.66,0,0,1-1.8.28c-.6.06-1.21.15-1.82.2l-1.82.08a77.39,77.39,0,0,1-14.49-1.13c-1.2-.2-2.4-.38-3.6-.61s-2.32-.45-3.49-.64c-2.35-.35-4.72-.59-7.09-.73s-4.75-.14-7.11,0a59.34,59.34,0,0,0-7,.76,40.33,40.33,0,0,0-13.24,4.59,31.15,31.15,0,0,0-10.15,9.5c-.63,1-1.21,2-1.8,3l-1.48,3.22L714,364.18l-.9,3.45a74,74,0,0,0-1.56,14.28,65.6,65.6,0,0,1,.6-14.47,37.39,37.39,0,0,1,5-13.7,31.75,31.75,0,0,1,10.52-10.29,41.46,41.46,0,0,1,13.85-4.93,63.41,63.41,0,0,1,14.62-.63q3.64.27,7.25.89c1.2.22,2.4.44,3.6.74s2.33.47,3.49.7a87.21,87.21,0,0,0,14.21,1.69l1.78,0c.6,0,1.19-.05,1.79-.08a14.92,14.92,0,0,0,1.77-.16,20.77,20.77,0,0,0,3.49-.71l.85-.27.82-.36A5.86,5.86,0,0,0,797.91,338.15Z" fill="#bcbec0"/>
<path d="M255.44,331.32l-.67-.14c.07-.36,1.84-9,6.49-9.25l.05.68C257.18,322.87,255.46,331.23,255.44,331.32Z" fill="#0071f2" data-primary="true"/>
<g opacity="0.2">
<path d="M255.44,331.32l-.67-.14c.07-.36,1.84-9,6.49-9.25l.05.68C257.18,322.87,255.46,331.23,255.44,331.32Z"/>
</g>
<path d="M321.61,471.49c-.39,1.18,16.88,36.51,16.88,36.51l-1.57-38.86Z" fill="#2f2e41" data-secondary="true"/>
<polygon points="357.73 515.07 364.01 528.81 388.74 521.35 387.56 511.54 378.93 495.83 357.73 515.07" fill="#f9b499"/>
<polygon points="127.92 293.45 127.07 301.3 153.16 309.16 158.77 307.75 159.33 290.36 149.51 275.5 127.92 293.45" fill="#f9b499"/>
<path d="M158.83,304.21l.19-7.85-10-19.23S147.44,296.56,158.83,304.21Z" fill="#f7a48b"/>
<path d="M206.73,417.94s-23.6.85-38.69,5.12A74.78,74.78,0,0,1,149,426a176.33,176.33,0,0,1-38.37-3.62l-31.86-4.4" fill="none" stroke="#ed1c24" stroke-miterlimit="10"/>
<line x1="216.62" y1="465.74" x2="206.18" y2="497.06" fill="none" stroke="#ed1c24" stroke-miterlimit="10"/>
<polygon points="225.41 480.57 331.45 476.18 333.64 459.7 324.85 430.58 308.37 425.63 238.05 455.3 217.72 475.63 225.41 480.57" fill="#bcbec0"/>
<path d="M41.36,495.41s-13.23,56.07-.52,56.07c0,0,110.69,3,147-.74l4.86-43-12-1.12s7.86,33.66.75,35.9c0,0-2.62,2.24-56.84,2.62,0,0-19.07,1.12-72.92-1.5,0,0-8.23,2.25-6.36-12,0,0,1-23.63,6.47-33.5C51.8,498.16,48.9,490.1,41.36,495.41Z" fill="#a7a9ac"/>
<path d="M189.69,509.12c.14-1.6.95-3.77,4.13-4.92,0,0,10.15-6.44,8.67,1.23,0,0-3.58,18.32-2.38,34.08a3.43,3.43,0,0,0,3.31,3.15c17.13.62,102.79,3.35,134.78-2.47a509.77,509.77,0,0,0-5.3-64.48l9.53-4.47a548.66,548.66,0,0,1,6,70.14,8.94,8.94,0,0,1-8.73,9.12h-.94s-104.52,6.18-135.73,2.94c0,0-17.08,1.47-16.49-9.13a158.2,158.2,0,0,1,1.48-22.67q.38-2.76.84-5.4C189.29,513.88,189.5,511.51,189.69,509.12Z" fill="#bcbec0"/>
<path d="M90.05,323.74s1.12-8.41,30.29-15.15c0,0,2.25-7.57,8.14-7.57l20.41,2.45a10.08,10.08,0,0,1,1.33.26c2.6.71,11.56,3.49,12.75,8.51l12.91,4.49-25.74,4.52S110.81,331.31,90.05,323.74Z" fill="#0071f2" data-primary="true"/>
<ellipse cx="162.41" cy="270.45" rx="13.18" ry="28.05" fill="#f9b499"/>
<path d="M154.72,270.43l7.13-6.71a12.91,12.91,0,0,1,2.37,4.22s.44-4.5-1.53-13.2c0,0,20.2-17.11,0-21.31,0,0,7-9.82-6.73-2,0,0-6.45-18.79-26.64,3.65,0,0-5.33-7.85-8.14-3.08,0,0-1.4,2.24,2,5.89,0,0-15.43,3.64-10.38,19.07,0,0,10.1,37,15.15,36.46,0,0,18.23,5.61,27.2-22.44" fill="#2f2e41" data-secondary="true"/>
<g opacity="0.2">
<path d="M125.11,307.19a25.76,25.76,0,0,0,4.59,1.38,32.56,32.56,0,0,0,4.72.7,39.64,39.64,0,0,0,4.75.09c1.58,0,3.16-.25,4.8-.31a52.84,52.84,0,0,1,9.67.7,39.8,39.8,0,0,1,9.33,2.49,44.5,44.5,0,0,0-4.68-1.05c-1.58-.29-3.16-.51-4.75-.67a67.75,67.75,0,0,0-9.53-.47c-1.57,0-3.18.25-4.81.26a32.78,32.78,0,0,1-4.86-.28A25.84,25.84,0,0,1,125.11,307.19Z"/>
</g>
<path d="M201.12,319.81l9.82-35.06,23.28,22.72s3.08,2.81,1.12,12.06l-14.59,51.61S209,334.12,201.12,319.81Z" fill="#0071f2" data-primary="true"/>
<path d="M226.94,259.61c.62-3,1.69-10.14-2.22-10.5a1.32,1.32,0,0,0-1.27.66,33.92,33.92,0,0,0-2.35,5.38,41.24,41.24,0,0,1-2.95,6.62c-1.51,2.69-3.51,7-3.85,11.2l-3.36,11.78,19.63,19.36s-1.68-19.08,7-23.56c0,0,14.87-8.7,12.34-13.47,0,0,4.77-3.08,2-8.13,0,0,6.17-7.85,0-8.41l-11.53,12a1.26,1.26,0,0,1-1.72.09h0a1.25,1.25,0,0,1,0-1.85c2.9-2.8,10.87-11.12,7.41-15,0,0-2.25-2.81-5.61,3.36,0,0-7,10.76-11.34,12.37A1.63,1.63,0,0,1,226.94,259.61Z" fill="#f9b499"/>
<path d="M223,265.4s7.29,5.33,10.09,11.78" fill="none" stroke="#f7a48b" stroke-miterlimit="10"/>
<path d="M237.5,423.1s-3,8-12.2,18.15l3-11.61S235.12,425.78,237.5,423.1Z" fill="none" stroke="#ed1c24" stroke-miterlimit="10"/>
<path d="M369.1,370l-64.45-28.82s-30.72-14-37.54-9.48L237.5,423.1A71.63,71.63,0,0,1,249,435.52s41.07-5.8,59.34-15.38c0,0,24.33-4.28,28.51,26.06,0,0,3.53,16.71,5.55,25l5.06,49.27s26.85-8.59,38.46-26.12a3,3,0,0,0,.13-3.09L337.63,403s-7.51,4.42-2.65-3.79C335,399.18,350.15,381,369.1,370Z" fill="#2f2e41" data-secondary="true"/>
<path d="M353.94,393.87s-10.24,8-16.31,9.1c0,0-5.47,3.56-4.58.17,0,0,0-3.39,9.12-11.48Z" fill="#2f2e41" data-secondary="true"/>
<path d="M353.94,393.87s-10.24,8-16.31,9.1c0,0-5.47,3.56-4.58.17,0,0,0-3.39,9.12-11.48Z" opacity="0.2"/>
<g opacity="0.2">
<path d="M347.91,378.85c-4.66-1.77-9.3-3.6-13.93-5.45l-13.87-5.62L306.3,362l-6.88-2.94-6.86-3,7,2.69,6.95,2.76,13.87,5.62,13.81,5.77C338.77,374.86,343.36,376.82,347.91,378.85Z"/>
</g>
<path d="M369.1,370l13.36,4.54s-30.62,5.5-25.52,20l-14.77-2.89S353.79,378.79,369.1,370Z" fill="#f9b499"/>
<path d="M375,400.44l-18.06-5.89s-6.67-12.56,25.52-20l18.06,3.54s.39,10.2-16.88,13.73C383.64,391.8,372.65,391.41,375,400.44Z" fill="#e6e7e8"/>
<path d="M445.66,379.64s-2.75-4.32-18.84.39l-26.3-2s1.18,9.42-16.88,13.73c0,0-11-1.57-8.64,8.64,0,0,7.46,13.74,14.92,14.13l27.48-12.95Z" fill="#0071f2" data-primary="true"/>
<path d="M383.24,407.11a10.15,10.15,0,0,1,1.23-3.81,15.13,15.13,0,0,1,2.39-3.25,23,23,0,0,1,6.61-4.59l1.86-.8c.62-.28,1.27-.43,1.91-.66s1.27-.45,1.93-.59l2-.47c2.62-.61,5.31-.89,7.91-1.36a52.51,52.51,0,0,0,15.07-5.05c2.36-1.23,4.67-2.59,6.9-4a51.52,51.52,0,0,0,6.4-4.82A60.6,60.6,0,0,1,424.37,387a51.86,51.86,0,0,1-15.2,5.26c-2.66.46-5.3.71-7.9,1.29l-1.94.45c-.65.13-1.27.38-1.91.57s-1.28.37-1.89.63l-1.84.74a22.59,22.59,0,0,0-6.6,4.35A12.59,12.59,0,0,0,383.24,407.11Z" opacity="0.2"/>
<path d="M407.19,398.09s-22,1.57-19.63,16.48c0,0,13.35,9,42-8.63,0,0,22-15.69,17.77-24.29a3.37,3.37,0,0,0-4-1.64c-2.41.72-6.81,2.77-13.65,8.53a42.54,42.54,0,0,1-12.88,7.59A28.85,28.85,0,0,1,407.19,398.09Z" fill="#e6e7e8"/>
<g opacity="0.2">
<path d="M290.21,426.74q2.75-.71,5.41-1.63c.89-.3,1.78-.62,2.66-.94s1.76-.67,2.63-1a86.88,86.88,0,0,0,10.15-4.89c1.66-.87,3.24-1.91,4.84-2.88s3.13-2.08,4.61-3.24c.75-.57,1.52-1.12,2.25-1.71l2.15-1.83c.35-.3.73-.59,1.07-.91l1-1,2.06-1.94a62.55,62.55,0,0,1-8.24,7.78l-1.1.89c-.37.29-.77.55-1.16.83l-2.32,1.63c-1.61,1-3.19,2.05-4.86,2.95a78.07,78.07,0,0,1-10.29,4.78A62.66,62.66,0,0,1,290.21,426.74Z"/>
</g>
<g opacity="0.2">
<path d="M326.72,401.62a61.49,61.49,0,0,0-6.2-5.21,71.46,71.46,0,0,0-6.75-4.45A64.57,64.57,0,0,0,299,385.58a54.54,54.54,0,0,0-15.92-2.22A53,53,0,0,0,275,384a63.34,63.34,0,0,0-7.9,1.75,53.29,53.29,0,0,1,15.94-2.94,52.75,52.75,0,0,1,8.14.43,60.46,60.46,0,0,1,8,1.66A63,63,0,0,1,314,391.5,61.4,61.4,0,0,1,326.72,401.62Z"/>
</g>
<path d="M354.2,537.05s-1.18-22.77,10.59-16.88c0,0,13,9.42,19.24-5.89,0,0,3.53-8.63,11,2,0,0,10.21,11,20.81,13.34,0,0,12,3.31,8.71,9.13a5.89,5.89,0,0,1-4.59,2.87,487.39,487.39,0,0,1-63.79,1.74S353.41,543.33,354.2,537.05Z" fill="#0071f2" data-primary="true"/>
<path d="M425.64,536.66c-5.94.55-11.89,1-17.85,1.3s-11.92.56-17.88.75-11.94.17-17.9,0a104.18,104.18,0,0,1-17.81-1.68l2.21.31c.74.1,1.47.22,2.22.26,1.49.1,3,.27,4.45.32s3,.14,4.47.18l4.47.08q8.93.06,17.87-.18c6-.12,11.92-.35,17.88-.58Z" opacity="0.2"/>
<ellipse cx="159.47" cy="269.19" rx="4.91" ry="7.15" transform="translate(-63.08 49.27) rotate(-14.7)" fill="#f9b499"/>
<path d="M237.5,423.1a54.84,54.84,0,0,1,9.92,10.71l42.4-74.59-22,20.81s2.75,2-7.06,14.92C260.77,395,247.6,414.75,237.5,423.1Z" opacity="0.2"/>
<path d="M215.78,357.06l19.5-23.29a4.9,4.9,0,0,1,4.85-1.63l59.2,13.62a.77.77,0,0,1,.41,1.25c-4.14,4.74-22.76,25.86-34.87,35.33L228.58,398.7Z" fill="#0071f2" data-primary="true"/>
<path d="M215.78,357.06l19.5-23.29a4.9,4.9,0,0,1,4.85-1.63l59.2,13.62a.77.77,0,0,1,.41,1.25c-4.14,4.74-22.76,25.86-34.87,35.33L228.58,398.7Z" opacity="0.2"/>
<path d="M294.92,347.83l-55-12.49L217,360l12.8,39L267,375.2S290.16,354.38,294.92,347.83Z" fill="#fff"/>
<path d="M249.58,338.54l4.74-5.38a1.18,1.18,0,0,1,1.09-.39L279.87,337a1.19,1.19,0,0,1,.64,2l-5.67,5.67a1.21,1.21,0,0,1-1.07.33l-23.53-4.55A1.18,1.18,0,0,1,249.58,338.54Z" fill="#0071f2" data-primary="true"/>
<path d="M224.41,385.32l24.69-29.45s16.3-6,18.9,26.28a5.84,5.84,0,0,1-.89,3.62c-4.71,7.37-24.51,37.36-38.83,43.87C228.28,429.64,219.06,408.52,224.41,385.32Z" fill="#0071f2" data-primary="true"/>
<path d="M61.68,445.45c2.73-6.71,5.79-13.27,9-19.77,2.14-4.38,4.31-11.1,2-17.63L46.85,337.73S33.67,318,47.4,318L93,324.54s22.53,5.5,57.14-3.29l41-7.07a9.25,9.25,0,0,1,10,5.19c5.41,11.5,16.93,38.61,28.17,81.54,0,0,6,9.89-2.75,36.26l-4.95,15.39,27.47-17s39.56-5.49,59.34-15.38c0,0,21.92-3.43,27.47,20.88l6.59,30.22-11,4.94-6.6-32.41s-2.19-12.09-15.38-7.15c0,0-67.58,9.89-84.06,44-1.2,2.47-11,26.92-11,26.92s-.55,9.89-13.18,1.64l-11-1.64S82.57,503.1,51.8,498.16c0,0-4.4-6.6-10.44-2.75Z" fill="#d1d3d4"/>
<path d="M43,325.64s74.17,20.88,147.79-6L215,396s8.24,25.27-1.65,44.5L189.15,500.9" fill="none" stroke="#bcbec0" stroke-miterlimit="10"/>
<path d="M237.5,423.1s15.77,12.49,14.88,23.8c0,0,5.95,31.83-6.85,24.39,0,0-12.23-19.62-24-18.73a165.42,165.42,0,0,0,6.72-22.92A44.19,44.19,0,0,0,237.5,423.1Z" fill="#0071f2" data-primary="true"/>
<path d="M237.5,423.1s15.77,12.49,14.88,23.8c0,0,5.95,31.83-6.85,24.39,0,0-12.23-19.62-24-18.73a165.42,165.42,0,0,0,6.72-22.92A44.19,44.19,0,0,0,237.5,423.1Z" opacity="0.2"/>
<path d="M255.35,335.93l5.07-13.7a2.2,2.2,0,0,1,3.1-1.17h0a2.19,2.19,0,0,1,1,2.66L261,333.85,254.46,341Z" fill="#0071f2" data-primary="true"/>
<path d="M255.35,335.93l5.07-13.7a2.2,2.2,0,0,1,3.1-1.17h0a2.19,2.19,0,0,1,1,2.66L261,333.85,254.46,341Z" opacity="0.2"/>
<path d="M249.1,355.87s-3-19,5.36-22c0,0,3-.89,0,7.14,0,0,12.49-17,14.57-5.06,0,0,6.55,1.19,3.87,8.33a7.63,7.63,0,0,1,1.79,7.74s3.57,5.65-8.63,18.74C266.06,370.74,262.19,352.3,249.1,355.87Z" fill="#f9b499"/>
<g id="fedbf7ad-65ec-4d82-a568-2779b21ac28d" data-name="freepik--Line--inject-4">
<g id="b5841f2d-0204-4bb7-9e58-c631488b4622" data-name="freepik--Lines--inject-4">
<path d="M140.17,185.44c2.17-.2,3.73-1.8,3.49-3.58a2.81,2.81,0,0,0-.56-1.35c-.89-1-2.54-1.43-3.91-1.91a5.81,5.81,0,0,1-2.2-1.08c-1.33-1.41.48-2.78,1.78-3.51,1.63-.92,3.58-1.53,4.87-2.84a4.62,4.62,0,0,0,1.33-3.71c-.35-3.2-3.66-4.61-6.9-5.76-4.53-1.6-9-3.2-11.1-7.15-2.25-4.34.61-9.85,5.29-12.27,5.08-2.57,11.68-1.8,15.67,1.84s5.62,9.1,3.23,13.6c-4.81,9-23.68,6.45-26.74-2.4-1.56-4.82.15-9.95,4.48-13.45a18.22,18.22,0,0,1,13.65-3.2c5.71,1.05,10.21,4.64,11.64,9.29a17.91,17.91,0,0,1,1,7.2,10,10,0,0,1-4.29,6.62,21,21,0,0,1-15.61,3.7c-5.47-1-10.07-4-12.43-8.16a14,14,0,0,1,7.27-19.49c5.91-2.4,12.27-2.79,17.86.39a20.09,20.09,0,0,1,9.55,10.63c1.64,4.8.11,10-4,13.6a22.59,22.59,0,0,1-13.65,4.93,23,23,0,0,1-13.6-3.34,16.78,16.78,0,0,1-7.32-12.18c-1-8.58,5-15.63,14.47-19,10-3.55,21.46-2.83,31.73-.6a161.54,161.54,0,0,1,31.11,10.6c5.21,2.31,10.29,4.8,15.6,6.87q7.22,2.85,14.79,5a102.84,102.84,0,0,0,28.14,4.41,83.62,83.62,0,0,0,26.74-4,44.43,44.43,0,0,0,19.61-12.67c2.35-2.67,4.3-5.51,4.08-8.9-.23-2.93-2.46-5.2-6.27-5-4.52.28-7,3.74-9,6.67l.56.1c-1.53-2.29-3.23-4.8-6.12-6.1-2.19-1-5.27-1.17-7.29.19-4.64,3.12-1.34,9.34,1.47,12.47,6.62,7.39,17.67,11.76,28,14.55,14.83,4,30.94,5.56,46.34,3,13.27-2.19,25.35-7.25,37.18-12.47,7-3.11,14-6.35,21.3-8.93,7.88-2.78,16.9-4.95,25.36-2.71,7.18,1.89,13.94,8.08,11.9,14.64-1.73,5.6-10.14,9.51-16.35,6-5.26-3-14.08-13.11-4.16-16,6.27-1.84,14.53.92,19.22,4.36,2.74,2,4.88,5,3.28,8s-5.78,4.28-9.42,4.41c-7.8.27-16-4.23-16.09-11.05a9,9,0,0,1,4.25-7.79c3-1.93,7-2.4,10.73-2,7.39.68,15.32,4.35,18.92,9.81,3.39,5.16,2.1,12.68-4.88,15.38-6.26,2.4-14.79,1.35-21-.69s-12-6-13.94-11.48c-2.16-6.16,1.77-13.37,10.54-12.85,8.17.49,15.31,6.5,16.92,12.91,1.48,5.91-2.27,12.8-9.54,14.78-6.68,1.81-15.6-1.6-15.74-7.87-.15-5.67,7-11.2,13.65-7.7,2.88,1.52,5,4.46,4.21,7.31s-5,5.6-8.39,3.53a5.7,5.7,0,0,1-2.46-6.33c.87-2.86,4.55-4.39,7.89-4.65a18.06,18.06,0,0,1,10.39,2.27c1.68,1,2.92,2.77,1.59,4.41-1.76,2.12-4.39.2-5-1.6-.77-2.5.63-5.12,3.41-6.33,3.57-1.35,7.46,1.23,8,4.17a2.77,2.77,0,0,1-2,3.4,4.55,4.55,0,0,1-4.61-1.41c-2-3,3.81-5.7,6.71-4,3.65,2.09,2.2,6.57-1.3,8.06a9.22,9.22,0,0,1-9.75-1.6,7.33,7.33,0,0,1-1.88-8.27,10.87,10.87,0,0,1,7.05-5.31c7.5-2.14,16.34,2.27,16.58,9,.19,5.71-5.64,11-12.42,11.85-7.65,1-15.65-3-19.09-8.54a9.23,9.23,0,0,1-1.18-8.13c1.34-3.42,5.72-4.7,9.81-4.29,7.48.8,12.75,6.41,11.78,12.55a8.92,8.92,0,0,1-.47,1.79c-1.16,3.1-3.81,5-6.64,7.1-2.4,1.79-4.56,4-4.3,6.8.21,2.23,1.95,3.41,4.37,4.19,1.19.38,3.54.8,3.55,2.17s-2,1.83-3.16,2.25c-2.08.71-4.23,1.6-3.95,3.77a4.08,4.08,0,0,0,4.1,3.27c.78,0,.34-.87-.28-.88-2.55-.06-3.53-2.86-1.77-4.21,1.25-1,3.12-1.17,4.54-1.89,2.47-1.24,1.83-3.48-.51-4.48-1.73-.76-4-.94-5.13-2.4-1.39-1.78-.48-4.25,1-5.82,2.68-2.92,6.76-4.59,8.63-8,3.3-6.17-.13-13.37-7.66-16.07l-.14-.05c-3.65-1.28-8.48-1.54-11.85.45a7.17,7.17,0,0,0-3.35,7.34c.76,6.4,7.55,11.91,15,13.6s15.42-1.13,18.82-6.87c3.2-5.51.35-12.09-6.36-14.72l-.84-.3c-6.6-2.25-15.72.44-17.39,6.53-1.49,5.46,4,11.82,11.23,10.68,3.4-.54,6.22-2.74,6.15-5.7a5.41,5.41,0,0,0-5.12-5.16c-2.84-.24-6,1.6-6,4,0,2.2,2.7,3.78,5.22,3.73,3.27-.07,4.19-2.77,3.42-5a7.56,7.56,0,0,0-6.64-4.69c-6.28-.31-9.15,7.45-4.11,10.33,2.66,1.5,5.5-.72,5-3.08-.55-2.81-4.59-4.37-7.53-5.1-6.12-1.5-15.69.14-15,6.79a6.59,6.59,0,0,0,12,3.14c3.6-5-2.49-11.51-9-11.46-7.09.07-11.44,7.05-9.2,12.16,2.42,5.51,11,8,17.42,5.81,7.5-2.58,10.81-9.93,8.77-16.12S438.1,136.1,430,135.36a11.7,11.7,0,0,0-10.16,3.55,10.12,10.12,0,0,0-1.72,8.93c1.5,6.07,7.45,10.6,14.15,13a40.58,40.58,0,0,0,11.05,2.25c4.12.27,8.77.09,12.41-1.68,6.65-3.2,7.43-10.86,3.9-16-3.9-5.73-12.13-9.6-20-10.23-3.9-.32-8.13.26-11.2,2.4a9.37,9.37,0,0,0-4.09,8.15c.3,6.67,7.54,11.36,15.31,11.79,3.6.2,7.59-.55,10.17-2.75a5.63,5.63,0,0,0,1.14-7.63c-3.34-5.24-12.19-8.41-19.17-8.34-3.1,0-6.37.8-8,3.2-2.08,3-.35,6.4,1.8,9s5.36,5.81,9.28,6.82a12.83,12.83,0,0,0,9.4-1.45c6.61-3.8,6.83-10.86,2.22-15.91-5.56-6.15-15.2-7.48-23.9-6.09-10.06,1.6-19.34,6-28.28,10-7.41,3.27-14.78,6.64-22.5,9.41A105.94,105.94,0,0,1,347,159.65a107.86,107.86,0,0,1-30.24-1.47,97.3,97.3,0,0,1-25.46-7.94c-5.24-2.56-10.43-5.89-13.58-10.25-2.06-2.88-4.08-9,1.13-10.57s9,3,11.14,6.16c.11.17.4.33.56.1,1.47-2.18,3.08-4.61,5.85-5.81,2.48-1.05,6.18-.92,7.53,1.38,2.43,4.17-1.53,8.94-4.52,12.1-5.94,6.31-14.45,10.51-23.67,12.8a87.39,87.39,0,0,1-31.31,1.78,138.5,138.5,0,0,1-33.85-9.29c-5.95-2.4-11.59-5.22-17.46-7.71-5.49-2.34-11.14-4.43-16.91-6.26-10.05-3.16-21-5.52-31.83-4.72-10,.72-20.58,4.8-24.52,12.8a17.31,17.31,0,0,0,6.58,22c7.81,4.88,19.86,4.1,26.85-1.38,7.87-6.19,6.37-16.15-.57-22.4-3.63-3.28-8.5-5.93-14.09-5.73a21.29,21.29,0,0,0-12.3,4.15c-6.43,5.45-7.45,13.81-2.48,20.2,5.66,6.78,17,8.52,25.22,3.88a18.08,18.08,0,0,0,2.24-1.48c4-3.13,4.87-7.05,3.9-11.4-.84-4.1-2.57-7.74-6.76-10.3-8.19-5-20.16-1.88-23.79,5.83-1.74,3.7-2,8.36.73,11.81s8.21,5.48,13.24,5.71c4.77.21,9.49-1,12.08-4.51a10.7,10.7,0,0,0,.8-11A14.16,14.16,0,0,0,141,140.31c-5.12-.74-10.27,1.13-13,4.74a9.12,9.12,0,0,0-.72,10.69c2.2,3.31,6.53,4.79,10.73,6.29,2.3.8,5,1.73,6.07,3.72,1.44,2.61-.15,5.07-2.92,6.48-1.95,1-6.9,3.09-4.3,5.54,1.16,1.08,3.16,1.33,4.64,2a2.4,2.4,0,0,1,1.6,3.27,3.37,3.37,0,0,1-3,1.82c-.25,0-.17.46.09.45Z" fill="#0071f2" data-primary="true"/>
<path d="M454.64,149.56a5,5,0,0,0,2.06,2.94,8.24,8.24,0,0,0,3.72,1.26c3.15.36,7.18-.18,9-2.54a8.42,8.42,0,0,0,1.48-4.52,14.25,14.25,0,0,0-5.63-12.08c-4-3.2-10.57-5.6-16.16-4a9.48,9.48,0,0,0-6.35,5.45,5.36,5.36,0,0,0-.12,4.12,8.64,8.64,0,0,0,2.45,3.14,16,16,0,0,0,8.37,3.53c3.29.36,7.09-.76,8.18-3.56s-.37-6.15-2.28-8.52c-4.29-5.38-12.56-7.6-19.9-5.34a17,17,0,0,0-8,5.16c-1.85,2.27-2.66,5.18-1.16,7.73a9.84,9.84,0,0,0,8.47,4.25c3.58,0,7.55-1.44,9.32-4.07s.15-5.54-2.92-6.78a10.44,10.44,0,0,0-9.87,1.76,6.46,6.46,0,0,0-.5,10.52c.36.31,1.17.05.73-.33a5.71,5.71,0,0,1-1.71-6.81,8.89,8.89,0,0,1,6.44-4.85,8,8,0,0,1,5,.47,4.67,4.67,0,0,1,2.61,3c.62,2.84-2.74,5.1-5.66,5.93a10.57,10.57,0,0,1-9.45-1.48,5.61,5.61,0,0,1-1.62-7,13.26,13.26,0,0,1,6.06-5.66,18.44,18.44,0,0,1,9.5-1.92c6.9.48,12.62,4.59,14.09,10.14a5.44,5.44,0,0,1-.41,4.21,5.84,5.84,0,0,1-3.85,2.4,12.66,12.66,0,0,1-8-1.39c-2.34-1.17-4.61-3-5.13-5.28-.57-2.5,1.19-5.36,3.54-6.9,4.37-2.87,10.57-1.6,14.88.7,5.38,2.84,8.56,7.8,8.38,13.05a9,9,0,0,1-1,4.17,5.92,5.92,0,0,1-4,2.58c-2.52.59-5.85.64-8.08-.7a5.33,5.33,0,0,1-2.21-2.79c-.06-.16-.22-.05-.19.08Z" fill="#0071f2" data-primary="true"/>
</g>
</g>
</svg>