 <!DOCTYPE svg PUBLIC "-//W3C//DTD SVG 1.1//EN" "http://www.w3.org/Graphics/SVG/1.1/DTD/svg11.dtd">
<svg id="ba3a83c6-4382-4907-997c-4413c949cc02" data-name="Layer 1" xmlns="http://www.w3.org/2000/svg" xmlns:xlink="http://www.w3.org/1999/xlink" width="865.76" height="682.89" viewBox="0 0 865.76 682.89">
<defs>
<clipPath id="f1b99af7-c1fc-41ff-a68e-288994668dbd">
<rect id="be7536eb-1082-4f37-808d-c01f445d0733" data-name="SVGID" x="130.35" y="195.4" width="136.84" height="80.31" rx="7.73" fill="#fff"/>
</clipPath>
<style xmlns="http://www.w3.org/1999/xhtml">*, ::after, ::before { box-sizing: border-box; }
img, svg { vertical-align: middle; }
</style>
<style xmlns="http://www.w3.org/1999/xhtml">*, body, html { }
img, svg { max-width: 100%; }
</style>
</defs>
<rect x="107.73" y="522.05" width="155.49" height="1.3" fill="#ccc"/>
<rect x="107.73" y="528.51" width="158.47" height="1.3" fill="#ccc"/>
<rect x="107.73" y="532.98" width="96.65" height="1.3" fill="#ccc"/>
<rect x="66.39" y="476.39" width="154.56" height="1.3" fill="#ccc"/>
<rect x="82.78" y="483.61" width="199.57" height="1.3" fill="#ccc"/>
<rect x="65.09" y="487.56" width="168.52" height="1.3" fill="#ccc"/>
<rect x="111.64" y="430.56" width="154.56" height="1.3" fill="#ccc"/>
<rect x="111.64" y="437.05" width="159.03" height="1.3" fill="#ccc"/>
<rect x="111.64" y="441.73" width="107.63" height="1.3" fill="#ccc"/>
<rect x="319.49" y="217.1" width="19.38" height="105.01" rx="7.43" fill="#2f2e41" data-secondary="true"/>
<rect x="281.77" y="217.1" width="19.38" height="105.01" rx="7.43" transform="translate(156.73 -103.87) rotate(27.39)" fill="#bcbec0"/>
<rect x="358.25" y="217.1" width="19.38" height="105.01" rx="7.43" fill="#d1d3d4"/>
<rect x="92.66" y="322.11" width="374.95" height="25.87" rx="9.92" fill="#ccc"/>
<path d="M542.64,235.13s-67.25,0-57-27.76c0,0,9.41-10.68,2.56-23.51,0,0-14.58-15.4,2.74-32.72,0,0,10.62-10.06,8.94-33,0,0-4.89-28.54,11.79-40a21.91,21.91,0,0,1,14.5-3.55c4.87.46,13.35.35,20.08-4.51,0,0,37.3-18.84,65,1.54a43,43,0,0,1,16.55,27.56c1.19,7,3.6,15.59,8.39,17.83,0,0,19.56,11.11,8.94,39.07,0,0-.56,11.21,5.59,12.88,0,0,23.46,16.76,6.14,35.76,0,0,8.16,30.67-45.22,31Z" fill="#2f2e41" data-secondary="true"/>
<path d="M605.49,231.58A142.71,142.71,0,0,1,601.94,169l-69.45,39.48s11.92,21.6,11.17,37.25Z" fill="#f9b499"/>
<path d="M527.83,260.07l4.66-17.31h16s8-11.18,20.49-5.59a24.3,24.3,0,0,1,19.37-4.47l.24-.33c6.28-8.37,19.28-6.36,23.06,3.4,3.1,8,11.73,20.15,35.54,19.65,0,0,37.62-4.84,46.93,45.44,0,0,16.38,73.74-3,116.94L620.38,556H475.88V399.18l-15.64,8.38s-12.29,6.14-18.44-9.5c0,0-14.51-50-24.12-67.71a12.14,12.14,0,0,1-1.17-9.07c1-3.36,3.48-7,9.65-8.13C426.16,313.15,507.72,259,527.83,260.07Z" fill="#f28d00" data-primary="true"/>
<path d="M555.17,264.35a104.31,104.31,0,0,1-27.51-3.65l.35-1.25c48.29,13.17,89.31-14,89.72-14.25l.73,1.08C618.12,246.5,591.17,264.35,555.17,264.35Z" fill="#2f2e41" data-secondary="true"/>
<path d="M601,419.29c.3,0-10.65-5.48-10.38-11.1l3.67-76.05c6.15-65.92,52.89-76.72,52.89-76.72s-44.61-3.73-56.57,69.46l-4.87,79.72a13.63,13.63,0,0,0,11.32,14.3A31.84,31.84,0,0,0,601,419.29Z" opacity="0.2"/>
<path d="M678.2,391.6l-1.3-.1c8.79-111.29-11.22-132.12-11.42-132.32l.9-.94C667.23,259.05,687.06,279.36,678.2,391.6Z" fill="#2f2e41" data-secondary="true"/>
<path d="M506.91,498.62h-1.3V402.91a199.73,199.73,0,0,1,11.58-67.14l25.67-72.25,1.23.43L518.41,336.2a198.76,198.76,0,0,0-11.5,66.71Z" fill="#2f2e41" data-secondary="true"/>
<rect x="568.34" y="262.89" width="1.3" height="226.23" fill="#2f2e41" data-secondary="true"/>
<path d="M441.8,398.06s-35.61,18.88-69.21,24.05c0,0-36.18,13.18-93-30.56,0,0-75-53.44-118.9-90.92,0,0-27.78-9.05-33.6-18.09h87.88s103.39,71.08,162.2,58.15l39-15.56S437.35,369.49,441.8,398.06Z" fill="#f9b499"/>
<path d="M304.36,493.36l145.82,79-14.52,26.26L289.87,520.16a8.88,8.88,0,0,1-3.6-12l6.05-11.17A8.87,8.87,0,0,1,304.36,493.36Z" fill="#2f2e41" data-secondary="true"/>
<path d="M294.59,522.7l14.07-27-4.3-2.33a8.87,8.87,0,0,0-12,3.58l-6.05,11.17a8.88,8.88,0,0,0,3.6,12Z" fill="#2f2e41" data-secondary="true"/>
<polygon points="435.66 598.62 462.47 603.09 469.73 590.24 450.18 572.36 435.66 598.62" fill="#ccc"/>
<path d="M473,597.81l-3.22-7.57-7.26,12.85h7A3.8,3.8,0,0,0,473,597.81Z" fill="#2f2e41" data-secondary="true"/>
<path d="M269.12,450.52a10.41,10.41,0,0,1-10.41,10.41H43.84a10.42,10.42,0,0,1-10.42-10.41V424.89a10.42,10.42,0,0,1,10.42-10.41H258.71a10.41,10.41,0,0,1,10.41,10.41H111.64v26.43Z" fill="#bcbec0"/>
<path d="M263.22,544.83c0,5.75-4.61,9.11-10.28,9.11H40.78A10.35,10.35,0,0,1,30.5,543.53V517.9a10.35,10.35,0,0,1,10.28-10.41H252.94c5.67,0,10.28,2.06,10.28,7.81H107.73v30.34Z" fill="#2f2e41" data-secondary="true"/>
<path d="M283.65,497.08a10.28,10.28,0,0,1-10.14,10.41H64.41a10.28,10.28,0,0,1-10.13-10.41V471.45A10.28,10.28,0,0,1,64.41,461h209.1a10.28,10.28,0,0,1,10.14,10.41L75.5,471.07A8.91,8.91,0,0,0,66.57,480v8.57a8.91,8.91,0,0,0,8.93,8.91Z" fill="#d1d3d4"/>
<rect x="89.6" y="130.27" width="374.95" height="25.87" rx="9.92" fill="#ccc"/>
<rect x="122.19" y="25.26" width="19.38" height="105.01" rx="7.43" fill="#2f2e41" data-secondary="true"/>
<rect x="141.58" y="25.26" width="19.38" height="105.01" rx="7.43" fill="#bcbec0"/>
<rect x="160.96" y="25.26" width="19.38" height="105.01" rx="7.43" fill="#d1d3d4"/>
<rect x="264.49" y="25.26" width="19.38" height="105.01" rx="7.43" fill="#2f2e41" data-secondary="true"/>
<rect x="283.39" y="25.26" width="19.38" height="105.01" rx="7.43" fill="#bcbec0"/>
<rect x="303.05" y="25.26" width="19.38" height="105.01" rx="7.43" fill="#d1d3d4"/>
<rect x="365.52" y="29.73" width="19.38" height="105.01" rx="7.43" transform="translate(457.45 -292.98) rotate(90)" fill="#2f2e41" data-secondary="true"/>
<rect x="365.52" y="48.62" width="19.38" height="105.01" rx="7.43" transform="matrix(0, 1, -1, 0, 476.34, -274.09)" fill="#bcbec0"/>
<rect x="365.52" y="68.29" width="19.38" height="105.01" rx="7.43" transform="translate(496.01 -254.42) rotate(90)" fill="#d1d3d4"/>
<rect x="201.75" y="30.99" width="19.38" height="105.01" rx="7.43" transform="translate(-13.42 116.9) rotate(-30)" fill="#2f2e41" data-secondary="true"/>
<rect x="224.01" y="30.99" width="19.38" height="105.01" rx="7.43" transform="translate(-10.44 128.03) rotate(-30)" fill="#bcbec0"/>
<rect x="338.87" y="217.1" width="19.38" height="105.01" rx="7.43" fill="#bcbec0"/>
<rect x="623.36" y="391.55" width="211.73" height="164.43" fill="#ccc"/>
<g opacity="0.2">
<rect x="623.36" y="400.68" width="211.73" height="1.3"/>
</g>
<g opacity="0.2">
<rect x="623.36" y="415.18" width="211.73" height="1.3"/>
</g>
<g opacity="0.2">
<rect x="623.36" y="422.67" width="211.73" height="1.3"/>
</g>
<g opacity="0.2">
<rect x="623.36" y="431.66" width="211.73" height="1.3"/>
</g>
<g opacity="0.2">
<rect x="623.36" y="442.37" width="211.73" height="1.3"/>
</g>
<g opacity="0.2">
<rect x="623.36" y="453.07" width="211.73" height="1.3"/>
</g>
<g opacity="0.2">
<rect x="623.36" y="467.79" width="211.73" height="1.3"/>
</g>
<g opacity="0.2">
<rect x="623.36" y="474.48" width="211.73" height="1.3"/>
</g>
<g opacity="0.2">
<rect x="623.36" y="489.86" width="211.73" height="1.3"/>
</g>
<g opacity="0.2">
<rect x="623.36" y="499.9" width="211.73" height="1.3"/>
</g>
<g opacity="0.2">
<rect x="623.36" y="506.25" width="119.69" height="1.3"/>
</g>
<g opacity="0.2">
<rect x="623.36" y="517.29" width="211.73" height="1.3"/>
</g>
<g opacity="0.2">
<rect x="674.21" y="524.99" width="113.67" height="1.3"/>
</g>
<g opacity="0.2">
<rect x="623.03" y="532.68" width="212.06" height="1.3"/>
</g>
<g opacity="0.2">
<rect x="623.2" y="542.71" width="212.06" height="1.3"/>
</g>
<g opacity="0.2">
<rect x="623.2" y="546.73" width="212.06" height="1.3"/>
</g>
<g opacity="0.2">
<rect x="764.7" y="408.58" width="64.8" height="1.3"/>
</g>
<path d="M480.91,498.62h-5V399.18S470.29,346.11,491,316.5l36.87-56.43,4.66-17.31h4.84l-4.84,19-36.1,54.38a85.92,85.92,0,0,0-13.92,37.05,70.58,70.58,0,0,0-.32,14.93,159.58,159.58,0,0,1,.8,17.22Z" opacity="0.2"/>
<path d="M576.79,489.12s17.81-1.61,20.78-22.39L601,419.29h22.34V556H416.09s-19.18-10.5-19.65,13.85a4.44,4.44,0,0,1-4.42,4.4h0a4.42,4.42,0,0,1-4.34-3.61l-3.38-18a1.12,1.12,0,0,0-2.22.16,87.14,87.14,0,0,0,2.22,23.06,6.05,6.05,0,0,1-3.69,7.09h0a6,6,0,0,1-7.47-2.73c-2.47-4.61-5.88-13.07-7.62-26.74a.4.4,0,0,0-.79,0,114.8,114.8,0,0,0,2.7,23.87,6,6,0,0,1-5.91,7.31h0a6,6,0,0,1-5.53-3.6,52.27,52.27,0,0,1-4-24.74,1.56,1.56,0,0,0-2.92-.89c-2.08,3.72-4,10.17-2.18,20.46a6.88,6.88,0,0,1-5.87,8h0a6.89,6.89,0,0,1-7.67-5.24c-3-12.94-5.93-43.57,26.34-61.72,0,0,18.62-13.41,67.41-14.9C427.09,502,493.15,500.47,576.79,489.12Z" fill="#f9b499"/>
<rect x="120.6" y="187.86" width="167.55" height="95.4" rx="8.34" fill="#2f2e41" data-secondary="true"/>
<rect id="b16445af-2d35-4698-aa93-a44713f7a5d9" data-name="SVGID" x="130.35" y="195.4" width="136.84" height="80.31" rx="7.73" fill="#fff"/>
<g clip-path="url(#f1b99af7-c1fc-41ff-a68e-288994668dbd)">
<path d="M217.37,245.25s-18.08,0-15.32-7.46a5.77,5.77,0,0,0,.69-6.32s-3.92-4.14.74-8.79c0,0,2.85-2.7,2.4-8.86,0,0-1.31-7.67,3.17-10.75a5.88,5.88,0,0,1,3.9-.95,8.11,8.11,0,0,0,5.39-1.21s10-5.07,17.48.41a11.54,11.54,0,0,1,4.44,7.41c.32,1.87,1,4.19,2.26,4.79,0,0,5.25,3,2.4,10.5,0,0-.15,3,1.5,3.46,0,0,6.31,4.51,1.65,9.61,0,0,2.2,8.25-12.15,8.34Z" fill="#2f2e41" data-secondary="true"/>
<ellipse cx="220.2" cy="221.59" rx="19.51" ry="13.86" transform="translate(-24.83 415.36) rotate(-83.52)" fill="#f9b499"/>
<ellipse cx="233.31" cy="224.02" rx="4.81" ry="3.67" transform="translate(-59.13 362.22) rotate(-69.13)" fill="#f9b499"/>
<path d="M234.26,244.3a38.92,38.92,0,0,1-1.4-8.21,38,38,0,0,1,.45-8.61l-18.67,10.61s3.2,5.81,3,10Z" fill="#f9b499"/>
<path d="M215,209c1.5,3.08,7.6,14.41,15,11.53a8.82,8.82,0,0,1,4.8-1.21s.3-10.91-5.54-14.84c0,0-4.74-5.71-11.56-2.07,0,0-5,1.88-6.47,3.52,0,0,2.89.76,3.29,1.91A11.6,11.6,0,0,0,215,209Z" fill="#2f2e41" data-secondary="true"/>
<path d="M213.39,252l1.25-4.66h4.3a4.58,4.58,0,0,1,5.51-1.5,6.53,6.53,0,0,1,5.21-1.2l.06-.09a3.58,3.58,0,0,1,6.2.92c.83,2.15,3.15,5.41,9.55,5.28,0,0,10.11-1.3,12.61,12.21,0,0,4.41,19.82-.8,31.43l-19,37.14H199.43V289.35l-4.21,2.25s-3.3,1.65-4.95-2.55c0,0-3.9-13.45-6.49-18.2a3.25,3.25,0,0,1-.31-2.44,3,3,0,0,1,2.59-2.19S208,251.66,213.39,252Z" fill="#f28d00" data-primary="true"/>
<path d="M220.74,253.11a28,28,0,0,1-7.4-1l.1-.34c13,3.54,24-3.76,24.11-3.83l.2.29A33.58,33.58,0,0,1,220.74,253.11Z" fill="#3f3d56"/>
<path d="M233.06,294.75c.08,0-2.86-1.47-2.79-3l1-20.44c1.65-17.72,14.21-20.62,14.21-20.62s-12-1-15.2,18.67L229,290.8a3.66,3.66,0,0,0,3,3.85A8.14,8.14,0,0,0,233.06,294.75Z" opacity="0.2"/>
<path d="M253.81,287.31l-.35,0c2.36-29.91-3-35.51-3.08-35.56l.25-.25C250.85,251.68,256.19,257.14,253.81,287.31Z" fill="#3f3d56"/>
<path d="M207.77,316.07h-.35V290.35a53.62,53.62,0,0,1,3.11-18.05l6.9-19.42.33.12-6.9,19.42a53.41,53.41,0,0,0-3.09,17.93Z" fill="#3f3d56"/>
<rect x="224.28" y="252.71" width="0.35" height="60.81" fill="#3f3d56"/>
<path d="M190.27,289.05s-9.57,5.07-18.61,6.46c0,0-9.72,3.54-25-8.22,0,0-20.14-14.36-31.95-24.43,0,0-7.47-2.43-9-4.87h23.62s27.78,19.11,43.59,15.64l10.48-4.19S189.07,281.37,190.27,289.05Z" fill="#f9b499"/>
<path d="M200.78,316.07h-1.35V289.35s-1.51-14.27,4-22.23L213.39,252l1.25-4.66h1.3l-1.3,5.11L204.94,267a23.08,23.08,0,0,0-3.74,10,18.45,18.45,0,0,0-.09,4,44.84,44.84,0,0,1,.22,4.63Z" opacity="0.2"/>
<path d="M226.55,313.52s4.79-.43,5.58-6l.93-12.75h6v36.74H183.36s-5.16-2.82-5.29,3.72a1.18,1.18,0,0,1-1.18,1.18h0a1.18,1.18,0,0,1-1.17-1l-.91-4.85a.3.3,0,0,0-.6.05,23.65,23.65,0,0,0,.6,6.19,1.64,1.64,0,0,1-1,1.91h0a1.62,1.62,0,0,1-2-.74,20.82,20.82,0,0,1-2.05-7.18.11.11,0,0,0-.21,0,30.37,30.37,0,0,0,.73,6.41,1.63,1.63,0,0,1-1.59,2h0a1.62,1.62,0,0,1-1.49-1,14.2,14.2,0,0,1-1.08-6.65.42.42,0,0,0-.78-.24,8.18,8.18,0,0,0-.59,5.5,1.85,1.85,0,0,1-1.57,2.14h0a1.87,1.87,0,0,1-2.07-1.41c-.8-3.48-1.59-11.71,7.08-16.59,0,0,5-3.61,18.12-4A400.33,400.33,0,0,0,226.55,313.52Z" fill="#f9b499"/>
</g>
<rect x="271.66" y="222.13" width="9.47" height="26.86" rx="3.63" fill="#3f3d56"/>
<rect x="103.78" y="221.79" width="31.66" height="13.76" rx="4.96" fill="#f9b499"/>
<rect x="106.36" y="235.13" width="31.66" height="13.76" rx="4.96" fill="#f9b499"/>
<rect x="106.36" y="248.48" width="31.66" height="13.76" rx="4.96" fill="#f9b499"/>
<rect x="106.36" y="261.84" width="31.66" height="13.76" rx="4.96" fill="#f9b499"/>
<path d="M536.73,217.3l4.68,12.88s28.12.28,44.33-30.44C585.74,199.74,563.85,224.35,536.73,217.3Z" fill="#f4a48e"/>
<ellipse cx="553.18" cy="147.08" rx="72.6" ry="51.59" transform="translate(344.59 680.12) rotate(-83.52)" fill="#f9b499"/>
<ellipse cx="601.94" cy="156.13" rx="17.91" ry="13.64" transform="translate(241.62 662.97) rotate(-69.13)" fill="#f9b499"/>
<path d="M534,100.25c5.57,11.45,28.27,53.61,55.93,42.91,0,0,8.84-5.44,17.83-4.5,0,0,1.13-40.61-20.61-55.23,0,0-17.62-21.24-43-7.71,0,0-18.63,7-24.08,13.11,0,0,10.76,2.84,12.26,7.09A39.15,39.15,0,0,0,534,100.25Z" fill="#2f2e41" data-secondary="true"/>
</svg>